<svg id="Capa_1" data-name="Capa 1" xmlns="http://www.w3.org/2000/svg" viewBox="0 0 198.43 85.04"><defs><style>.cls-1{fill:#353535;}.cls-2{fill:#676f99;}</style></defs><path class="cls-1" d="M18.09,45.91a17.72,17.72,0,0,1-6.23-1.07,14.6,14.6,0,0,1-4.94-3.06,14.31,14.31,0,0,1-3.27-4.69,14.71,14.71,0,0,1-1.17-5.94,14.78,14.78,0,0,1,1.17-5.94,14.27,14.27,0,0,1,8.21-7.74,17.5,17.5,0,0,1,6.23-1.08,17.09,17.09,0,0,1,7,1.38,13.45,13.45,0,0,1,5.17,4l-5.11,4.63a10,10,0,0,0-3-2.48A7.91,7.91,0,0,0,18.49,23a8.71,8.71,0,0,0-3.2.57,7,7,0,0,0-2.49,1.64,7.94,7.94,0,0,0-1.63,2.58,9.82,9.82,0,0,0,0,6.65,7.79,7.79,0,0,0,1.63,2.57,6.72,6.72,0,0,0,2.49,1.64,8.71,8.71,0,0,0,3.2.57,7.79,7.79,0,0,0,3.67-.85,9.94,9.94,0,0,0,3-2.47l5.11,4.62a13.8,13.8,0,0,1-5.17,3.95A16.78,16.78,0,0,1,18.09,45.91Z"/><path class="cls-1" d="M33.86,45.34V17h8V45.34Z"/><path class="cls-1" d="M53.65,45.34v-22H44.93V17H70.36v6.37H61.68v22Z"/><path class="cls-1" d="M70,45.34,82.48,17h7.91L103,45.34H94.61L84.79,20.89H88L78.14,45.34Zm6.85-5.51,2.07-5.92H92.74l2.07,5.92Z"/><path class="cls-1" d="M115.2,45.91a25.67,25.67,0,0,1-6.71-.87,17.34,17.34,0,0,1-5.25-2.25l2.64-5.92a18.58,18.58,0,0,0,4.4,2,16.57,16.57,0,0,0,5,.79,9.33,9.33,0,0,0,2.68-.31,3.17,3.17,0,0,0,1.48-.81,1.7,1.7,0,0,0,.47-1.19,1.74,1.74,0,0,0-.89-1.54,8.28,8.28,0,0,0-2.32-.94c-.94-.24-2-.48-3.14-.73a31.51,31.51,0,0,1-3.45-.93,14,14,0,0,1-3.14-1.48,7.33,7.33,0,0,1-2.31-2.39,7.23,7.23,0,0,1-.89-3.75,8.1,8.1,0,0,1,1.4-4.63,9.75,9.75,0,0,1,4.19-3.32,17,17,0,0,1,7-1.26,24,24,0,0,1,5.49.63,17.32,17.32,0,0,1,4.81,1.85l-2.48,6a19.31,19.31,0,0,0-4-1.65,14.64,14.64,0,0,0-3.85-.54,8.57,8.57,0,0,0-2.68.34,3.16,3.16,0,0,0-1.46.91,2,2,0,0,0-.44,1.3,1.67,1.67,0,0,0,.87,1.48,7.63,7.63,0,0,0,2.31.89c1,.23,2,.47,3.16.71s2.3.55,3.45.92a12.73,12.73,0,0,1,3.14,1.46A6.9,6.9,0,0,1,126.9,33a7.2,7.2,0,0,1,.87,3.71,8,8,0,0,1-1.39,4.56,9.74,9.74,0,0,1-4.18,3.35A17.13,17.13,0,0,1,115.2,45.91Z"/><path class="cls-1" d="M4.58,71H15.74v1.64H2.62v-18H15.34v1.64H4.58Zm-.21-8.29h9.81v1.61H4.37Z"/><path class="cls-1" d="M20.35,72.68v-18H22l12.8,15.61h-.85V54.71h1.93v18H34.24L21.46,57.07h.85V72.68Z"/><path class="cls-1" d="M48.84,72.68v-18h2V71H61.19v1.64Z"/><path class="cls-1" d="M63.7,53.25l3.63-3.19h2.52l-4.29,3.19Zm.75,19.43v-18h2v18Z"/><path class="cls-1" d="M72.45,72.68v-18h1.61l12.8,15.61H86V54.71H88v18H86.33L73.56,57.07h.85V72.68Z"/><path class="cls-1" d="M96,71h11.16v1.64H94v-18h12.72v1.64H96Zm-.21-8.29h9.81v1.61H95.74Z"/><path class="cls-1" d="M108.75,72.68l8.48-18h1.94l8.48,18h-2.07l-7.79-16.87h.79l-7.79,16.87Zm3.34-4.8.58-1.54h10.79l.58,1.54Z"/><path class="cls-2" d="M197.36,65.27v3.45c-.83,3.34-3.24,4.39-6.25,4.38-17.43-.07-34.86,0-52.29,0H137a5,5,0,0,1-4.86-4.17,18.61,18.61,0,0,1-.12-3,3,3,0,0,1,3-3.05h1V52q0-12.78,0-25.54a5.64,5.64,0,0,1,.21-1.64A4,4,0,0,1,140.12,22c1.69,0,3.39,0,5.14,0v-.76c0-4,0-8,0-12.06a1.56,1.56,0,0,1,.65-1.48h37.54a1.58,1.58,0,0,1,.65,1.48c0,4,0,8.08,0,12.12V22H189a4.07,4.07,0,0,1,4.25,4.27q0,17.89,0,35.81v.81a10,10,0,0,1,1.46,0A3.23,3.23,0,0,1,197.36,65.27Zm-50-49.39V58.71H182V15.88ZM164.64,71H192a3.07,3.07,0,0,0,3.29-3.26c0-.57,0-1.15,0-1.72a1,1,0,0,0-1.15-1.15q-9.16,0-18.32,0a1,1,0,0,0-.65.36c-.48.65-.91,1.33-1.35,2a1.45,1.45,0,0,1-1.34.69c-3.78,0-7.57,0-11.36,0-1.4,0-2.81,0-4.21,0a1.56,1.56,0,0,1-1.57-.84c-.33-.61-.79-1.16-1.15-1.76a.87.87,0,0,0-.87-.47c-3.56,0-7.11,0-10.66,0h-7.28c-1.08,0-1.39.32-1.39,1.42v1.21c0,2.3,1.2,3.5,3.5,3.5Zm26.59-8.2V26.2A2.06,2.06,0,0,0,189.08,24h-5v2.05h3.55c1.22,0,1.51.28,1.51,1.49V59.29c0,1.23-.29,1.51-1.49,1.51h-46c-1.25,0-1.52-.27-1.52-1.54v-32a1,1,0,0,1,1.16-1.14c1.08,0,2.17,0,3.25,0h.66V24h-4.68c-1.69,0-2.43.76-2.43,2.47V62.82ZM147.35,9.73v4H182v-4Zm-5.11,18.41V58.71h3V28.14ZM187.1,58.73V28.16h-3V58.73Zm-14.24,6.21H156.48a1.28,1.28,0,0,0,1.47,1q6.72-.06,13.45,0A1.28,1.28,0,0,0,172.86,64.94Z"/><path class="cls-2" d="M164.74,17.89a11.24,11.24,0,1,1-11.29,11.27A11.19,11.19,0,0,1,164.74,17.89Zm-3.3,12.82a5.37,5.37,0,0,1-1.51-4.46,4.75,4.75,0,0,1,4.14-4.61,4.67,4.67,0,0,1,5.09,3.26,5.62,5.62,0,0,1-1,5.57,2.14,2.14,0,0,0-.16.27A7.7,7.7,0,0,1,171.72,35c3.12-3.42,2.77-9.14-.71-12.46A9.16,9.16,0,0,0,157.62,35,7.69,7.69,0,0,1,161.44,30.71Zm3,7.61a9.61,9.61,0,0,0,4.47-1c1.23-.65,1.23-.65.69-1.94a5.43,5.43,0,0,0-10.26.76.56.56,0,0,0,.27.73A9.34,9.34,0,0,0,164.46,38.32Zm2.9-11.52c0-1.63-.64-2.65-1.9-3a2.69,2.69,0,0,0-3.41,1.94c-.52,2.05.4,3.9,2.1,4.2a2.77,2.77,0,0,0,.76,0C166.48,29.79,167.36,28.66,167.36,26.8Z"/><path class="cls-2" d="M164.73,42.41h10.79c1.09,0,1.41.32,1.41,1.41s0,2.34,0,3.51c0,.83-.38,1.21-1.22,1.21H153.62c-.83,0-1.2-.38-1.21-1.21,0-1.21,0-2.43,0-3.64,0-.92.36-1.27,1.28-1.27Zm-10.25,4.05h20.35v-2H154.48Z"/><path class="cls-2" d="M164.73,50.59h10.79c1.09,0,1.41.32,1.41,1.4s0,2.34,0,3.51c0,.84-.38,1.21-1.22,1.21H153.62c-.83,0-1.2-.37-1.21-1.21,0-1.21,0-2.42,0-3.64,0-.91.36-1.27,1.28-1.27Zm-10.25,4h20.37v-2H154.48Z"/><path class="cls-2" d="M150.33,10.75a1,1,0,1,1-1,1A1,1,0,0,1,150.33,10.75Z"/><path class="cls-2" d="M155.47,11.79a1,1,0,1,1-2-.06,1,1,0,0,1,2,.06Z"/><path class="cls-2" d="M159.55,11.79a1,1,0,0,1-1,1,1,1,0,0,1-1-1,1,1,0,0,1,2,0Z"/></svg>