<svg id="Capa_1" data-name="Capa 1" xmlns="http://www.w3.org/2000/svg" viewBox="0 0 62.45 62.45"><defs><style>.cls-1{fill:#fff;}</style></defs><path class="cls-1" d="M60.18,13.39A23.53,23.53,0,0,1,54.41,15c.93-.16,2.29-1.84,2.84-2.52A10.52,10.52,0,0,0,59.16,9c.05-.1.09-.22,0-.3a.33.33,0,0,0-.31,0A29.28,29.28,0,0,1,52,11.37a.46.46,0,0,1-.47-.12,5.79,5.79,0,0,0-.6-.61,12.14,12.14,0,0,0-3.31-2,11.59,11.59,0,0,0-5.08-.82,12.14,12.14,0,0,0-4.82,1.36,12.42,12.42,0,0,0-3.88,3.18A11.78,11.78,0,0,0,31.53,17a12.63,12.63,0,0,0-.13,4.9c0,.28,0,.31-.23.28C21.78,20.76,14,17.4,7.68,10.2c-.27-.31-.42-.31-.65,0C4.27,14.37,5.61,21,9.06,24.3c.46.44.94.87,1.45,1.27A11.86,11.86,0,0,1,6,24.3c-.28-.17-.42-.08-.44.24a6.85,6.85,0,0,0,.07,1.34A12,12,0,0,0,13,35.48a7,7,0,0,0,1.5.46,13.45,13.45,0,0,1-4.44.14c-.33-.06-.45.1-.33.41,2,5.33,6.18,6.92,9.34,7.82.43.07.85.07,1.27.17,0,0-.05,0-.07.08-1,1.6-4.69,2.79-6.38,3.38a22.8,22.8,0,0,1-9.69,1.24c-.52-.08-.63-.07-.77,0s0,.21.15.35c.66.43,1.33.82,2,1.19a31.68,31.68,0,0,0,6.47,2.59c11.64,3.22,24.75.85,33.48-7.83,6.86-6.81,9.27-16.21,9.27-25.63,0-.36.43-.57.69-.76a22.53,22.53,0,0,0,4.56-4.74,1.43,1.43,0,0,0,.3-.91v0C60.41,13.24,60.41,13.29,60.18,13.39Z"/></svg>