<svg id="Capa_1" data-name="Capa 1" xmlns="http://www.w3.org/2000/svg" viewBox="0 0 345.83 90.71"><defs><style>.cls-1{fill:#353535;}</style></defs><path class="cls-1" d="M9.26,37.73l1.67.56-.53,4-.33,0v-.07a.8.8,0,0,0-.09-.48s-.15-.12-.58-.17L5.31,41,5,41A.52.52,0,0,0,4.7,41c-.06,0-.15.14-.21.43l0,.07-.33,0,.53-3.93,1.48.16,0,.33H6a1.46,1.46,0,0,0-.78.15c-.08.07-.19.24-.26.73l-.12,1c0,.1,0,.12,0,.12s.05,0,.19.06l2,.24.08-.69c0-.34,0-.48-.07-.53a1.65,1.65,0,0,0-.65-.27l-.07,0,.05-.31,2.29.28,0,.31H8.57a1.77,1.77,0,0,0-.69.1c-.07,0-.17.16-.21.49l-.08.69,2.2.28c.13,0,.23,0,.25-.05a2.76,2.76,0,0,0,.16-.77,2.22,2.22,0,0,0-.07-1.05,1.68,1.68,0,0,0-.87-.7l0,0Zm1.07-3.83a1.85,1.85,0,0,0-1,0,3.7,3.7,0,0,0-1.08.61L7.58,35a2.47,2.47,0,0,1-.63.36,1.07,1.07,0,0,1-.59,0,.73.73,0,0,1-.5-.32.61.61,0,0,1-.07-.49,1.13,1.13,0,0,1,.5-.61,2.24,2.24,0,0,1,1.3-.23h.07l.09-.31-2.12-.34-.08.27.07,0a.93.93,0,0,1,.18.12s0,0,0,.11a2.63,2.63,0,0,1-.24.32,1.64,1.64,0,0,0-.32.56,1.17,1.17,0,0,0,.22,1.1,2,2,0,0,0,1.09.66,1.71,1.71,0,0,0,1.07-.07,2.78,2.78,0,0,0,.57-.32l.64-.48a5.83,5.83,0,0,1,.78-.5,1.21,1.21,0,0,1,.78-.05,1.05,1.05,0,0,1,.64.39.72.72,0,0,1,.12.58,1.23,1.23,0,0,1-.86.81,3.59,3.59,0,0,1-1.05.17H9.19l-.08.3,2.13.29.08-.29-.07,0-.17-.1,0-.1s0-.07.25-.33a1.76,1.76,0,0,0,.36-.67,1.42,1.42,0,0,0-.21-1.23,1.85,1.85,0,0,0-1.12-.73m2.59-3.06c-.16.3-.27.4-.34.43a1.07,1.07,0,0,1-.6-.11L7.62,29.55l.12-.3c.14-.36.3-.57.47-.63a2.13,2.13,0,0,1,1,0l.07,0,.12-.3-1.64-.56L6.16,31.72l1.61.65.12-.31-.06,0a1.79,1.79,0,0,1-.75-.6,1.06,1.06,0,0,1,.09-.77l.13-.3,4.25,1.57a1.65,1.65,0,0,1,.62.33c0,.05.06.18,0,.54l0,.06.3.12.85-2.09L13,30.77Zm-2.57-4.71L12,27.75l.7-1.26Zm5.26-.45.29.15-1,1.75-.28-.15,0-.07a1.1,1.1,0,0,0,.11-.36s0-.09-.14-.13a1.14,1.14,0,0,0-.21-.07l-.36-.07-.87-.15-.86,1.57.77.75a1.09,1.09,0,0,0,.24.17.27.27,0,0,0,.28,0,1.08,1.08,0,0,0,.21-.25l.05-.06.29.15-.77,1.4-.29-.15,0-.07a.45.45,0,0,0,0-.42,8.77,8.77,0,0,0-.87-1l-3.34-3.4L9,25.1l5.58.81a3.21,3.21,0,0,0,.67,0,.55.55,0,0,0,.28-.21Zm1.55-3a2.57,2.57,0,0,0-1.29-1.89,3.2,3.2,0,0,0-1.8-.67l-.3,0a2.11,2.11,0,0,0-1.39.87c-.12.15-.14.22-.13.25s0,.08.15.18l3.82,2.68a.36.36,0,0,0,.22.09.69.69,0,0,0,.23-.22,2.08,2.08,0,0,0,.49-1.31M17.39,21a2.58,2.58,0,0,1,.46,1.16,2,2,0,0,1,0,.73,3.27,3.27,0,0,1-.63,1.27l-1.26,1.66-.27-.18,0-.07a.75.75,0,0,0,.15-.46s-.07-.17-.42-.41L12.11,22.3a1.17,1.17,0,0,0-.54-.26c-.08,0-.21.06-.41.29l-.05.05-.27-.19,1.23-1.62a3.34,3.34,0,0,1,1.38-1.11,3,3,0,0,1,3,.54,3.9,3.9,0,0,1,.95.95m3.28-1.38A1.19,1.19,0,0,0,21,18.41a3.72,3.72,0,0,0-1.21-1.75,3.85,3.85,0,0,0-1.85-1.13l-.34,0a1.15,1.15,0,0,0-.86.32A1.18,1.18,0,0,0,16.42,17a3.79,3.79,0,0,0,1.21,1.74,4,4,0,0,0,1.82,1.13,1.3,1.3,0,0,0,1.22-.29M20.44,16a3.46,3.46,0,0,1,1.21,2.19A2.07,2.07,0,0,1,21,19.9a2.17,2.17,0,0,1-1.59.64h0a1.72,1.72,0,0,1-.32,0,3.76,3.76,0,0,1-2.2-1.1,3.47,3.47,0,0,1-1.2-2.16,2.05,2.05,0,0,1,.62-1.78,2.21,2.21,0,0,1,1.83-.62A3.67,3.67,0,0,1,20.44,16M24,13.9a4,4,0,0,0-1.16-.14h-1a2.2,2.2,0,0,1-.68-.09.93.93,0,0,1-.47-.33.65.65,0,0,1-.19-.55.61.61,0,0,1,.24-.43,1.18,1.18,0,0,1,.79-.19,2.25,2.25,0,0,1,1.18.58l.05,0,.26-.2-1.46-1.51-.24.18,0,.05a.56.56,0,0,1,.07.19l-.07.11-.39.12a1.84,1.84,0,0,0-.61.25,1.22,1.22,0,0,0-.51,1,1.68,1.68,0,0,0,.45,1.15,1.73,1.73,0,0,0,.88.58,2.76,2.76,0,0,0,.67.07h.88a4.14,4.14,0,0,1,.86.06,1.06,1.06,0,0,1,.65.41,1,1,0,0,1,.27.68.73.73,0,0,1-.28.53,1.28,1.28,0,0,1-1.19.15,3.49,3.49,0,0,1-.94-.48l-.05,0-.26.18,1.51,1.48.25-.18,0-.06-.07-.18,0-.09a2.44,2.44,0,0,1,.41-.13,1.8,1.8,0,0,0,.7-.31,1.46,1.46,0,0,0,.61-1.1,1.7,1.7,0,0,0-.43-1.24A1.79,1.79,0,0,0,24,13.9m6.91-6.23a1.87,1.87,0,0,1-.28-.82c0-.13.14-.26.36-.4l.06,0-.14-.28-1.7.78.14.29.07,0a.74.74,0,0,1,.54,0c.09,0,.25.2.51.73L31.48,10a3.48,3.48,0,0,1,.4,1.19,1.08,1.08,0,0,1-.72,1.09,1.05,1.05,0,0,1-1.25-.16,3,3,0,0,1-.62-.89L28,8.62c-.18-.37-.18-.51-.16-.56s.1-.18.39-.35l.06,0-.14-.29-2.05,1,.14.29.08,0a.83.83,0,0,1,.5-.07c.06,0,.18.11.36.47l1.27,2.51a3.28,3.28,0,0,0,.83,1.13,1.67,1.67,0,0,0,1.07.4,2.19,2.19,0,0,0,.92-.23,1.64,1.64,0,0,0,1.11-1.62,3.79,3.79,0,0,0-.45-1.43Zm5.59-2.75c0-.13.19-.24.42-.35l.06,0-.09-.3L35,4.79l.1.3h.07a.78.78,0,0,1,.5,0c.1.07.26.26.43.82L37,8.48l-3.89-3.1-1.33.4.1.31.08,0a.93.93,0,0,1,.31,0,.73.73,0,0,1,.31.18l.13.09L33.9,10a1.62,1.62,0,0,1,.15.85c0,.12-.18.24-.43.36l-.07,0,.1.29L35.47,11l-.1-.29H35.3a.82.82,0,0,1-.5,0c-.1-.06-.25-.26-.43-.81l-1-3.06,4.49,3.58.24-.08L36.6,5.77a1.74,1.74,0,0,1-.15-.85m4.6,4.4-.26,0a.53.53,0,0,1-.3-.06c-.05,0-.14-.13-.23-.55l-.81-3.89c-.08-.37,0-.53,0-.59s.15-.15.49-.24L40,4,40,3.68l-2.32.44.07.32h.07a.85.85,0,0,1,.55,0c.06,0,.16.17.23.55l.81,3.89c.09.41,0,.55,0,.59s-.16.14-.5.24l-.07,0,.07.31,2.32-.45-.07-.31Zm2.18-.45a2.23,2.23,0,0,0,1.34-.52,2.48,2.48,0,0,0,.64-2.17,2.79,2.79,0,0,0-.87-1.95A2.12,2.12,0,0,0,43,3.79h-.26a.46.46,0,0,0-.28.07s-.05.07,0,.23l.42,4.52c0,.16.06.21.08.22a.36.36,0,0,0,.19,0Zm1.41-5.3a2.78,2.78,0,0,1,1.54,2.52,3.51,3.51,0,0,1-.11,1.3,2.72,2.72,0,0,1-.6,1.11,2.7,2.7,0,0,1-.59.46,3.73,3.73,0,0,1-1.41.38l-2.14.18,0-.31.06,0A.91.91,0,0,0,41.84,9s.09-.17,0-.58l-.36-3.95c0-.4-.11-.53-.16-.57a.79.79,0,0,0-.49-.1h-.07l0-.32,2.08-.18a3.49,3.49,0,0,1,1.78.27M51,6.25a3.64,3.64,0,0,0-.34-2.09,1.27,1.27,0,0,0-1-.67h-.06a1.27,1.27,0,0,0-1,.59,3.65,3.65,0,0,0-.56,2,3.61,3.61,0,0,0,.34,2.06,1.25,1.25,0,0,0,1,.69,1.28,1.28,0,0,0,1.1-.57,3.69,3.69,0,0,0,.56-2M49.64,3a2.21,2.21,0,0,1,1.7.92A3.4,3.4,0,0,1,52,6.3a3.36,3.36,0,0,1-.92,2.31,2.23,2.23,0,0,1-1.64.72h-.12a2.21,2.21,0,0,1-1.75-1A3.47,3.47,0,0,1,47,6a3.45,3.45,0,0,1,.89-2.3A2.26,2.26,0,0,1,49.64,3m6.56.88a.5.5,0,0,1-.1.17l-.08,0H56a3,3,0,0,1-.34-.21,1.69,1.69,0,0,0-.6-.27,1.33,1.33,0,0,0-1.14.29A1.89,1.89,0,0,0,53.29,5a1.61,1.61,0,0,0,.14,1,2.65,2.65,0,0,0,.38.53l.53.57a4.64,4.64,0,0,1,.58.72,1.1,1.1,0,0,1,.11.74,1,1,0,0,1-.37.64.76.76,0,0,1-.59.15,1.18,1.18,0,0,1-.9-.76,3.39,3.39,0,0,1-.25-1v0l-.32-.06-.16,2.07.31,0,0-.07.09-.16.1,0a1.65,1.65,0,0,1,.37.22,1.87,1.87,0,0,0,.71.29l.32,0a1.49,1.49,0,0,0,.93-.31,1.82,1.82,0,0,0,.61-2.11,3.58,3.58,0,0,0-.7-1l-.55-.59a2.14,2.14,0,0,1-.42-.58.83.83,0,0,1,0-.57.68.68,0,0,1,.8-.6,1.23,1.23,0,0,1,.67.44A2,2,0,0,1,56,5.81v.06l.34.06.21-2-.3-.06Zm9,9.18c-.27-.15-.35-.27-.37-.33s0-.2.15-.56l1.66-3.63c.16-.34.27-.45.34-.48a.67.67,0,0,1,.49,0l.08,0,.13-.29L66.2,7.22l-3.28,3.3L63.22,6l-1.47-.62-.13.29.07,0c.3.15.39.26.41.33s0,.22-.14.57L60.44,9.88a2.06,2.06,0,0,1-.47.74.82.82,0,0,1-.58,0l-.07,0-.13.29,1.75.74.13-.29-.06,0c-.27-.16-.34-.27-.36-.34s0-.35.23-.88l1.31-2.85L61.88,12l.2.09,3.59-3.62-1.49,3.24c-.2.44-.32.55-.37.58a.8.8,0,0,1-.53-.05l-.07,0-.13.29,2,.87.14-.29Zm4.44,1.17,0,0a1.94,1.94,0,0,1-1,.46h0a2.32,2.32,0,0,1-1-.39,3.11,3.11,0,0,1-.66-.46c0-.05,0-.16.07-.24l1.18-1.8.61.4c.3.18.37.31.38.39a1.41,1.41,0,0,1-.2.65l0,.07.28.16,1.23-1.87-.27-.17-.05,0a1.82,1.82,0,0,1-.53.45c-.11,0-.29,0-.53-.16l-.61-.4,1.06-1.62c.08-.11.12-.14.15-.15l.11,0,.86.52c.42.26.55.44.57.53s0,.31-.18.74l0,.07.28.17L72,10.5,68.57,8.38l-.18.26.07,0c.25.18.3.3.31.37s0,.22-.23.54L66.32,13c-.22.35-.35.42-.4.43a1,1,0,0,1-.5-.12l0,0-.18.27,3.52,2.14L70,14.43Zm3.59,4.55a.91.91,0,0,1-.2-.37,1.4,1.4,0,0,1,0-.58l.56-2.7,1.86-.56a3,3,0,0,1,.94-.16.79.79,0,0,1,.39.18l.06.05.22-.25-1.48-1.19-.21.25,0,0a1.06,1.06,0,0,1,.23.23.18.18,0,0,1,0,.21l-.13.09a2.72,2.72,0,0,1-.46.17l-1.32.38L74,13.22c0-.08,0-.15,0-.21a.89.89,0,0,1,.13-.24.17.17,0,0,1,.19-.07,1.57,1.57,0,0,1,.33.21l.06,0,.22-.24-1.84-1.49-.21.25,0,0a.64.64,0,0,1,.25.49,6.58,6.58,0,0,1-.2,1.34l-.33,1.55-2,.58a9.12,9.12,0,0,1-1,.26.71.71,0,0,1-.42-.12l-.06,0-.21.24L70.48,17l.21-.24,0-.06a1.14,1.14,0,0,1-.23-.26.2.2,0,0,1,0-.24.75.75,0,0,1,.27-.14l.48-.16,1.41-.43c-.19.9-.32,1.47-.37,1.69a1,1,0,0,1-.17.42l-.16.07a1.11,1.11,0,0,1-.34-.2l-.07-.05-.21.24,1.79,1.45.21-.23Zm1.86.88,3-2.75c.29-.27.43-.32.52-.32s.21,0,.46.26l.06.06.24-.22-1.63-1.64-.24.21,0,.06c.22.26.26.4.26.47s-.07.22-.36.48l-3,2.75c-.31.28-.45.33-.51.33s-.21-.05-.48-.27L73.4,19l-.24.21,1.64,1.64.24-.22L75,20.62c-.22-.27-.27-.41-.27-.47s0-.19.37-.48m3.63,4.26h0l.09-.35h-.1a3.32,3.32,0,0,1-.82-.12,1.62,1.62,0,0,1-.88-.57,1.35,1.35,0,0,1-.22-1.37A3.2,3.2,0,0,1,78.06,20,3.93,3.93,0,0,1,80,19.12a1.41,1.41,0,0,1,1.32.48,1.2,1.2,0,0,1,.18,1.28,2.8,2.8,0,0,1-.54.86l0,.06.2.24,1.73-1.39-.19-.23-.05,0a.41.41,0,0,1-.21,0l-.13-.08a2.68,2.68,0,0,1-.17-.43,2.4,2.4,0,0,0-.4-.74,2.36,2.36,0,0,0-1.92-.88h-.06a3.93,3.93,0,0,0-2.27.84A3.6,3.6,0,0,0,76.07,21a2.19,2.19,0,0,0,.43,2.08,2.23,2.23,0,0,0,1.27.76,3,3,0,0,0,.66.07h.29m2.24.8L81.7,26l1.54-1.68Zm-.1,4.07-.28.16-1-1.7.29-.16,0,.06a1.46,1.46,0,0,0,.26.28s.07,0,.18-.05a.61.61,0,0,0,.18-.13l.26-.25.58-.64-.93-1.53-1.07.24a1.07,1.07,0,0,0-.29.1.27.27,0,0,0-.16.22,1,1,0,0,0,.1.3l0,.06-.28.16-.82-1.36.28-.16,0,.05a.46.46,0,0,0,.39.2,8,8,0,0,0,1.31-.2l4.78-.93.12.22-3.64,4.13a2.29,2.29,0,0,0-.4.53.54.54,0,0,0,0,.34Zm6.84,2.37a.69.69,0,0,1,.4.37l0,.06.31-.11-.71-1.71-.31.12,0,.07a.66.66,0,0,1,0,.48c-.06.1-.25.27-.82.48l-2.59,1L87,28l-.52-1.24-.31.12,0,.07a.6.6,0,0,1,0,.3.73.73,0,0,1-.15.31l-.08.12-3.78,1.47a2.3,2.3,0,0,1-.87.21.77.77,0,0,1-.41-.39l0-.07-.31.12.72,1.7.3-.11v-.07c-.08-.29-.06-.42,0-.48s.25-.26.82-.48l3.09-1.2-3.34,4.54,0,0,.1.23,4.61-1.79a2.07,2.07,0,0,1,.87-.2M84.45,37a5.48,5.48,0,0,0,4.17-1A1.2,1.2,0,0,0,89,34.91a1.22,1.22,0,0,0-.89-.84,2.53,2.53,0,0,0-.82-.12,6,6,0,0,0-1.35.18A4.07,4.07,0,0,0,84,35a1.22,1.22,0,0,0-.4,1.15,1.26,1.26,0,0,0,.88.84m1.3,1a3.28,3.28,0,0,1-1.45-.32,2.14,2.14,0,0,1-1.21-1.43,2.06,2.06,0,0,1,.47-1.89,3.75,3.75,0,0,1,2.13-1.2,3.81,3.81,0,0,1,2.55.16,2.15,2.15,0,0,1,1.24,1.45,2.06,2.06,0,0,1-.42,1.83,3.74,3.74,0,0,1-2.19,1.26,5,5,0,0,1-1.12.14m4.81,3h-.07a.54.54,0,0,1-.21,0s0,0-.06-.1,0-.07.11-.37a1.77,1.77,0,0,0,.08-.64,1.22,1.22,0,0,0-.62-1,1.94,1.94,0,0,0-1.26-.23,1.75,1.75,0,0,0-1,.43,2.49,2.49,0,0,0-.42.51l-.41.66a5.28,5.28,0,0,1-.54.74,1.17,1.17,0,0,1-.7.32,1.05,1.05,0,0,1-.75-.15.69.69,0,0,1-.32-.49,1.16,1.16,0,0,1,.48-1.06,4,4,0,0,1,.92-.52l.05,0,0-.31-2.1.48,0,.29h.07l.19,0,.07.08a2.48,2.48,0,0,1-.11.41,1.71,1.71,0,0,0-.08.73,1.51,1.51,0,0,0,.65,1.08,1.82,1.82,0,0,0,1.05.31l.28,0a1.79,1.79,0,0,0,.94-.36,3.46,3.46,0,0,0,.78-.95l.42-.68a2.54,2.54,0,0,1,.45-.56,1.18,1.18,0,0,1,.55-.22.83.83,0,0,1,.58.13.68.68,0,0,1,.26.43,1.09,1.09,0,0,1-.24.74,2.14,2.14,0,0,1-1.13.67l-.06,0,0,.32,2.1-.41Z"/><path class="cls-1" d="M79.23,42.41a8,8,0,0,1-.36,2.42,16.52,16.52,0,0,0-.49,2.68c.05,3.29.11,7.39-.93,8.6-.39.36-.58.4-.64.41l-.08,0c0-.05-.13-.23-.09-.77a11.53,11.53,0,0,0,.16-4l-.73-3.58c-.14-2.48-.28-4.21-.46-5.41A3.07,3.07,0,0,0,75,41.08c-.26-.32-.53-.61-.83-.94l0,0a6.35,6.35,0,0,1-1.33-1.82l-1.08-3.54a.44.44,0,0,1,.09-.37.78.78,0,0,1,.54-.27.3.3,0,0,1,.26.12L73,35.45c.07.2.13.42.19.65s.09.37.14.54a8,8,0,0,0,1.07,2.21,8,8,0,0,1,1.93,2.86,17.46,17.46,0,0,1,.41,4v.09c0,.83.06,1.77.15,2.86,0,.45.21.6.39.6s.35-.18.36-.56a12.62,12.62,0,0,1,0-2.88,8.91,8.91,0,0,0,.58-3.7,20.24,20.24,0,0,0-1.35-5.4v-.22a.38.38,0,0,1,.3-.11.67.67,0,0,1,.55.22,18.15,18.15,0,0,1,1.45,5.84M75.53,37l-.07-.62a.73.73,0,0,0-.12-.34,1.2,1.2,0,0,0-.72-.54.75.75,0,0,0-.24,0l-.09,0s0,0,0,.16A5.52,5.52,0,0,0,76,39l.12,0h0a.62.62,0,0,0,0-.34l-.48-1.07a1.64,1.64,0,0,1-.17-.6M71,46.57H70.9a.49.49,0,0,1-.41-.4,9.46,9.46,0,0,1-.92-3.12,12.13,12.13,0,0,0-.33-1.32,3.47,3.47,0,0,0-1.17-2A9.68,9.68,0,0,1,65,35.86c-.17-.36-.37-.58-.54-.58a.31.31,0,0,0-.2.13.86.86,0,0,0-.09.75,9.07,9.07,0,0,0,1.33,2.32,3.61,3.61,0,0,0,.57.55l.12.09A9.33,9.33,0,0,1,68,40.86a4.2,4.2,0,0,1,.66,1.92c0,.15.06.3.08.44l0,.11a17.24,17.24,0,0,0,1.87,5A5.59,5.59,0,0,1,71.18,50l.33,2.13c.1.54.29.69.39.68l.1,0a.82.82,0,0,0,.14-.59,40.1,40.1,0,0,0-.3-6.3c-.34-2.52-.8-4.15-1.4-5a.65.65,0,0,0-.52-.36h0s0,.16.09.4A14.81,14.81,0,0,1,71.21,46a.61.61,0,0,1-.13.51ZM66.91,35.7a.46.46,0,0,0-.47-.31.38.38,0,0,0-.29.11v.11a5.38,5.38,0,0,0,1.62,2.61l.19.1.06,0a.41.41,0,0,0-.07-.26,6.21,6.21,0,0,1-1-2.34m7.12,11H74c-.11,0-.26-.06-.4-.35a1.74,1.74,0,0,1-.14-.48l-.62-3.65a6.32,6.32,0,0,0-1.41-2.83A12.64,12.64,0,0,1,68.64,35c-.13-.51-.32-.64-.4-.64s-.21.15-.25.44a1.1,1.1,0,0,0,.05.57,9.22,9.22,0,0,0,2.43,4.21,3.4,3.4,0,0,1,1.28,2.22v0c.09.43.19.87.28,1.3v0a29.83,29.83,0,0,0,1.59,5.69,4.67,4.67,0,0,1,.43,1.7c.08,1.36.16,2.19.25,2.88s.25.79.37.79S75,54,75,53.48a30.21,30.21,0,0,0,0-6.91,23.88,23.88,0,0,0-.48-3.73,3.89,3.89,0,0,0-.72-1.52c-.24-.27-.35-.33-.4-.34a.82.82,0,0,0,0,.38,27.89,27.89,0,0,1,.84,4.74.75.75,0,0,1-.13.58ZM71.6,37.9a6.17,6.17,0,0,1-.72-1.62l-.19-.92a.89.89,0,0,0-.21-.46.85.85,0,0,0-.58-.27.24.24,0,0,0-.2.07.27.27,0,0,0,0,.24,6.41,6.41,0,0,0,1.83,3.45h0c.08.07.12.11.2.12h0l.06,0a.49.49,0,0,0,0-.21.91.91,0,0,0-.17-.38m-4.11,8.63,0,.07c.08.24.15.47.24.69a1.62,1.62,0,0,0,.28.54.49.49,0,0,0,.27.15c.13,0,.19-.14.22-.22a1.31,1.31,0,0,0,0-.54c-.2-3.66-.73-5.75-1.68-6.76-.22-.19-.31-.2-.32-.2s0,0,0,.17a.64.64,0,0,0,.12.37,6.23,6.23,0,0,1,.61,1.67.58.58,0,0,1-.07.49l-.09.06H67c-.16,0-.31-.15-.43-.41a4.57,4.57,0,0,0-2-2.33,12.45,12.45,0,0,1-2.9-2.14A6.73,6.73,0,0,1,60.94,37c-.06-.09-.09-.16-.2-.18s-.35.24-.41.49,0,.18.06.32a5.7,5.7,0,0,0,2.46,2.46,6.53,6.53,0,0,1,3.38,3.14,35.27,35.27,0,0,1,1.26,3.3m-5.14-10.2a.47.47,0,0,0-.37.15v.08a5.09,5.09,0,0,0,1.94,1.9l.19,0,.06,0s0-.1-.12-.21a5.58,5.58,0,0,1-1.32-1.75.44.44,0,0,0-.38-.19m-3.47,3.74.11,0c.43.15.81.29,1.12.43a3.25,3.25,0,0,1,1,.64A17.68,17.68,0,0,1,63,43.41l.1.14a25,25,0,0,0,1.59,2,.44.44,0,0,0,.3.15.22.22,0,0,0,.19-.09.4.4,0,0,0,0-.35,22.43,22.43,0,0,0-1.7-3.92.89.89,0,0,0-.77-.36h0V41l.4.72,0,.16v0l0,0a.24.24,0,0,1-.2.12h0L62.76,42l0,0,0,0a6.74,6.74,0,0,0-1.06-1.22,2,2,0,0,0-.62-.39c-.38-.17-.84-.34-1.41-.54a8,8,0,0,1-1-.61c-.34-.28-.71-.59-1.11-1a.38.38,0,0,0-.22-.07.19.19,0,0,0-.17.1.52.52,0,0,0,0,.49,3,3,0,0,0,1.09,1,4,4,0,0,0,.67.28M72.93,54.7c-1-.61-1.73-1.06-2.29-1.45-4-2.87-8-5.65-12.24-8.48a.39.39,0,0,0-.22-.1s0,0-.07.07a.72.72,0,0,0,.4.72l12.76,9,.16.09a1.23,1.23,0,0,1,.47.38c0,.1.12.34-.24.59a2.71,2.71,0,0,1-1.23.32,3.7,3.7,0,0,1-2.2-.81c-3.4-2.57-6.78-5.18-9.93-7.63a.42.42,0,0,0-.23-.09l-.07,0a.5.5,0,0,0,0,.45.88.88,0,0,0,.36.45C61.67,50.81,65,53.41,68.2,56a4.13,4.13,0,0,0,4.86-.49.53.53,0,0,0-.13-.77m-4.76-.63a9,9,0,0,0,1.47.87.79.79,0,0,0,.28.06c.08,0,.14,0,.15,0s0-.17-.18-.31L58.47,46.16l-.15-.06-.07,0c0,.09,0,.35.32.61Zm-2.77.48-7.42-6a.45.45,0,0,0-.23-.09l-.06,0c0,.06,0,.22.21.42,2.15,1.9,4.48,3.86,6.93,5.85a6.88,6.88,0,0,0,1,.73.89.89,0,0,0,.4.11.33.33,0,0,0,.28-.13.15.15,0,0,0,0-.14ZM59.66,39l.19,0,.06,0a.37.37,0,0,0,0-.14,1.75,1.75,0,0,0-.32-.48A1.29,1.29,0,0,0,59,38a1.34,1.34,0,0,0-.41-.08.2.2,0,0,0-.15.05l0,.13a3.66,3.66,0,0,0,1.18.86m7.11,18.19a2.12,2.12,0,0,0,1.11-.31c.1-.08.14-.15.13-.21a.32.32,0,0,0-.2-.2l-.18,0-.22,0-.12,0a2.2,2.2,0,0,1-.5.06,2.58,2.58,0,0,1-1.68-.62c-1.83-1.47-3.25-2.73-4.51-3.84l-.13-.1c-.94-.83-1.84-1.62-2.81-2.43a.27.27,0,0,0-.19-.07h-.08a.4.4,0,0,0,0,.24c0,.08.08.14.21.27l.44.43c2.23,2,4.24,3.83,6.33,5.62a4.78,4.78,0,0,0,1.48,1,3.88,3.88,0,0,0,.91.11m-10-6.92c1.64,1.71,3.36,3.4,5.29,5.16a2.48,2.48,0,0,0,1.31.75l.09,0a.38.38,0,0,0-.12-.14c-1.71-1.4-3.51-3.12-5-4.61l-.31-.32-.11-.1a6.67,6.67,0,0,0-1-.91l-.16,0a.29.29,0,0,0,0,.19m7.39,7.21a3,3,0,0,0,.43-.06c.08,0,.11-.07.09-.14a.34.34,0,0,0-.34-.24,3.71,3.71,0,0,1-2.12-.78c-2-1.75-3.9-3.57-5.75-5.43-.09-.07-.14-.1-.19-.1h0a.72.72,0,0,0,.11.52,1.31,1.31,0,0,0,.28.34l0,0c1.08,1.1,2.51,2.47,4.34,4.19a6.49,6.49,0,0,0,1.77,1.3,3.19,3.19,0,0,0,1.39.36m-2.81-.58c.09,0,.13,0,.13-.1a.42.42,0,0,0-.36-.34c-.91-.15-2.09-1.43-3.34-2.8l-.66-.71-.13-.07-.11.12a.23.23,0,0,0,0,.21l2.63,2.92a2.41,2.41,0,0,0,1.8.77ZM28.22,25.75A1.72,1.72,0,0,0,27.49,27a1.78,1.78,0,0,0,.66,1.3.75.75,0,0,0,.47.23c.33,0,.35-.44.35-.6v0A1.68,1.68,0,0,1,30.34,26a4,4,0,0,1,1-.14h.41c.23,0,.36-.11.4-.23s0-.24-.13-.39A1.65,1.65,0,0,0,31,24.89a2.23,2.23,0,0,0-.5.07,2.89,2.89,0,0,0-1,.74.52.52,0,0,1-.3.11.59.59,0,0,1-.22,0,.9.9,0,0,0-.4-.09,1.21,1.21,0,0,0-.37.07h0m-1.17.8a4.94,4.94,0,0,1,1-1.26.57.57,0,0,1,.47-.16c.12,0,.25,0,.37,0s.41-.06.47-.23,0-.24-.17-.37l-.16-.11.09-.09a1,1,0,0,1,.62-.24,1.88,1.88,0,0,1,.69.14l1.56.45a2.64,2.64,0,0,0,.76.1,6,6,0,0,0,1.08-.15,3.07,3.07,0,0,1,.77-.12,2.89,2.89,0,0,1,2,.8c.21.24.2.38,0,.59a8.76,8.76,0,0,1-2.21,1.34,1.72,1.72,0,0,1-.42.08,3.19,3.19,0,0,1-.42,0c-.24,0-.29-.08-.3-.1s0-.09.07-.17a3.3,3.3,0,0,1,1.17-.5,1.12,1.12,0,0,0,.61-.29.44.44,0,0,0,0-.7h0a1.81,1.81,0,0,0-.69-.14A2.51,2.51,0,0,0,32.9,26a2.05,2.05,0,0,1-1,.29,2.89,2.89,0,0,0-.52,0,1.79,1.79,0,0,0-1.76,1A1.5,1.5,0,0,0,30.23,29c.09.08.23.24.17.36s-.3.22-.62.22h-.07a2.85,2.85,0,0,1-2.82-1.8,1.39,1.39,0,0,1,.16-1.26m2.76-3.29a4.75,4.75,0,0,0,1.11.41l.11,0a.48.48,0,0,0,.31-.18,2,2,0,0,0,.38-.92,2.86,2.86,0,0,1,.66-1.25l.17-.18a1.58,1.58,0,0,0,.42-.74,1.08,1.08,0,0,0-.37-1.32v.26a3,3,0,0,1-1.43,2.16l-.33.22a5.75,5.75,0,0,0-.86.67.84.84,0,0,0-.35.58.37.37,0,0,0,.17.27m2.74-1.38c-.12,0-.2.06-.15.14.53.88.29,1.21-.5,1.56-.28.08-.12.35.13.32a.59.59,0,0,0,.25,0,1.13,1.13,0,0,0,.68-1.7c-.13-.23-.3-.29-.41-.27m1.18-1.72c.13,0,.2-.22.24-.41s0-.7.34-.77.15.34.26.4.18,0,.21-.18a1.5,1.5,0,0,0-.54-1.2L34.17,18s-.05,0-.1.15a6.26,6.26,0,0,0-.4,1.89c0,.12,0,.17.06.17m-.09,1.28h.06c2.11-1,2.55-2.16,2.63-2.8a1.77,1.77,0,0,0-.53-1.58h0a2.9,2.9,0,0,1-.56,2.66c-.47.37-1,.77-1.57,1.15L33.4,21q-.13.11-.09.21a.38.38,0,0,0,.33.2m2.6.11a7.33,7.33,0,0,1-1.62.92,2,2,0,0,0-.84.53.33.33,0,0,0-.05.14h.1a9.49,9.49,0,0,0,3-1.57c.62-.48.8-1,.54-1.45a.21.21,0,0,0-.17-.1.46.46,0,0,0-.21.08c-.5.47-2.62,1.53-3,1.82-.15.1-.17.17-.17.2a.13.13,0,0,0,.18.11c.33-.09,1.72-.94,2-1.09s.54-.14.57-.07-.14.31-.38.47m-2.9,2.75a2.55,2.55,0,0,0,.69-.16A17.52,17.52,0,0,1,37,23c.12,0,.26-.06.33,0a.4.4,0,0,1-.12.68l-1.25.53a.38.38,0,0,0-.09.1s.13.1.42.09h0c1.25-.28,1.73-.75,1.58-1.44a.69.69,0,0,0-.63-.39,2.29,2.29,0,0,0-1.08.17c-.62.24-1.57.76-2.14,1a3.81,3.81,0,0,0-.73.34c-.13.08-.51.4.06.32m3.95-5.39c.36-.29.72-1.11,1-.68A1.44,1.44,0,0,1,38,19.47c-.15.22,0,.35.17.43l.08,0a.29.29,0,0,0,.13-.09A2.51,2.51,0,0,0,38.72,18a1.36,1.36,0,0,0-.54-.92L38,17a.3.3,0,0,0-.18.15l-.2.7a1.41,1.41,0,0,1-.39.68.8.8,0,0,0-.3.51c0,.2.11.09.35-.11m2,.9a7.34,7.34,0,0,1,1.8.75l.4.2c.46.24,1,.5,1.55.74l.19.05c.07,0,.14-.07.21-.14h0a2.59,2.59,0,0,0,.76-1.47l0-.06h-.06a1.87,1.87,0,0,1-.59.11,1.84,1.84,0,0,1-.69-.13,7.93,7.93,0,0,0-3.23-1l-.13,0,0,0v0l0,.11.06,0a10.61,10.61,0,0,1,3.38,1.29l0,0c.09.05.28.17.3.27l0,.07a.32.32,0,0,1-.27.11l-.16-.07-.17-.07A22.27,22.27,0,0,0,39.3,19.5h0c-.11,0-.14.06-.15.09a.24.24,0,0,0,.12.22m-1.33,5.63c-.14,0-.4-.38-.51-.65l-.1-.06-.11.06a.28.28,0,0,0-.05.22,1.48,1.48,0,0,0,.57.92A.57.57,0,0,0,38,26a.56.56,0,0,0,.53-.45,1.38,1.38,0,0,0-.6-1.19l0,0a1.77,1.77,0,0,1,.22.86c0,.15-.16.14-.24.15m1.7-.86c-.28,0-.66-.66-.79-.88l-.14-.08h-.07a.33.33,0,0,0,0,.24,2.32,2.32,0,0,0,.66,1.25.6.6,0,0,0,.4.13,1.68,1.68,0,0,0,1.07-.65.67.67,0,0,0-.06-.76,5.78,5.78,0,0,0-2.25-1.42h-.11l0,0a6.76,6.76,0,0,0,.74.55h0a4.4,4.4,0,0,1,.93.76.46.46,0,0,1,.08.46.79.79,0,0,1-.52.37m-1.38-3v0c.11.33,2.9,1.63,3.22,1.78a1.17,1.17,0,0,0,.43.12.62.62,0,0,0,.4-.19.84.84,0,0,0,.2-1.09,7,7,0,0,0-3.7-2h-.08v0l0,.07c0,.05.08.08.19.12a9.43,9.43,0,0,1,2.61,1.37l.06,0c.16.13.34.27.28.51a1,1,0,0,1-.27.35l-.14,0a2.43,2.43,0,0,1-.93-.33l-.17-.09h0a8.9,8.9,0,0,0-2-.81Zm27-2c0,.05,0,.18.21.33,4.48,3.12,8.06,7.59,10.94,13.7a.63.63,0,0,1-.07.53.38.38,0,0,1-.28.12,1.74,1.74,0,0,1-.85-.33,9.61,9.61,0,0,1-2.62-2.48A39.61,39.61,0,0,0,62.29,21c-.1-.09-.16-.12-.22-.12l-.09,0a.74.74,0,0,0,.27.65c3.11,2,6.52,5.77,10.41,11.43A6.22,6.22,0,0,0,78,35.53l.67,0c.36-.09.4-.18.4-.18s0-.12-.2-.24a5.45,5.45,0,0,1-2-2.77,32.59,32.59,0,0,0-11.1-12.72.67.67,0,0,0-.35-.11c-.09,0-.16,0-.18.08m9.26,13.29a.82.82,0,0,0,.5.22c.07,0,.13,0,.15-.07s0-.39-.15-.73A36.64,36.64,0,0,0,64.08,20.41a1.21,1.21,0,0,0-.49-.11c-.18,0-.28.05-.29.08s.05.14.37.32c2.78,2.11,6.25,5.21,10.8,12.15m-4.48,0a1,1,0,0,1-.73-.46,42,42,0,0,0-7.37-7.6l-.09-.05-.07.07a1,1,0,0,0,.06.91,43,43,0,0,1,5,5l.06.06a29.18,29.18,0,0,0,2.72,2.84,2.21,2.21,0,0,0,1,.28,1,1,0,0,0,.78-.33.85.85,0,0,0,.13-.72,29.44,29.44,0,0,0-9.22-9.91c-.09-.09-.15-.12-.19-.12l-.06,0a1.09,1.09,0,0,0,.33.9A43.85,43.85,0,0,1,70.18,32c.16.28.18.49.09.64a.32.32,0,0,1-.28.14m-8.75-6.28-.07,0a.58.58,0,0,0,0,.51,36.61,36.61,0,0,1,5.26,5.41.73.73,0,0,1,.13.81.9.9,0,0,1-.76.43.92.92,0,0,1-.62-.22c-1.2-1-2.33-2.15-3.44-3.26-.47-.48-1-1-1.44-1.44l-.12-.05-.13.12a.59.59,0,0,0,0,.56l3.55,3.66a4.81,4.81,0,0,0,1.76,1.26,4.82,4.82,0,0,0,.81.08A1.36,1.36,0,0,0,67.3,34a1.34,1.34,0,0,0,.07-1.23,22,22,0,0,0-6.08-6.22Zm-.93.89a.49.49,0,0,0-.05.38,54.25,54.25,0,0,0,5,4.72l.13,0,.1-.06a.17.17,0,0,0,0-.21,31.11,31.11,0,0,0-5.1-4.94Zm-.54,2.72a.46.46,0,0,0-.23-.08.27.27,0,0,0-.22.14.35.35,0,0,0,.12.38,14.62,14.62,0,0,1,3,3.13.74.74,0,0,1,0,.74.84.84,0,0,1-.72.36,1.51,1.51,0,0,1-.69-.18,18.25,18.25,0,0,1-2.88-2.4L58,32a.26.26,0,0,0-.14.15.43.43,0,0,0,0,.44,12.62,12.62,0,0,0,3.21,2.83,6.23,6.23,0,0,0,1.18.14,1.25,1.25,0,0,0,1-.36,1.59,1.59,0,0,0,0-1.38,15.39,15.39,0,0,0-3.52-3.72m-1.31,1.28,2.89,2.63.21.07.15-.06V34a11.63,11.63,0,0,0-3.4-3.11.74.74,0,0,0,.14.58m-.25,5.81a1.83,1.83,0,0,0,1.43-.67,1,1,0,0,0,.09-1,13.39,13.39,0,0,0-2.38-2.55l-.11,0a.21.21,0,0,0-.17.14.23.23,0,0,0,0,.24,10.39,10.39,0,0,1,1.79,2,.78.78,0,0,1-.07.77,1.06,1.06,0,0,1-.81.39,1,1,0,0,1-.51-.13,12.92,12.92,0,0,1-1.78-1.62l-.1,0a.22.22,0,0,0-.18.11.35.35,0,0,0,0,.33,6.06,6.06,0,0,0,2.23,1.9,1.54,1.54,0,0,0,.58.1m-.81-1.72a.48.48,0,0,0,.3.11.32.32,0,0,0,.29-.16.36.36,0,0,0-.11-.38,7.1,7.1,0,0,0-1.5-1.34.37.37,0,0,0-.21-.07.27.27,0,0,0-.27.26c0,.11.09.21.25.37.47.5.82.82,1.25,1.21m-1.2,1.64-1.39-1.52-.14,0a.21.21,0,0,0-.17.1.31.31,0,0,0,0,.32l.88,1a.58.58,0,0,1,.2.44c0,.31-.3.55-.59.79l0,0a1.59,1.59,0,0,0-.45.45.32.32,0,0,0,0,.33.23.23,0,0,0,.2.09l.15,0L56,38.16a.72.72,0,0,0,.18-1m-1.81.51.13.07.14-.08a.22.22,0,0,0,0-.21L54,36.27l-.14-.07a.32.32,0,0,0-.23.11l0,.17Zm.19-19.53a1.91,1.91,0,0,0,.63.56,20,20,0,0,1,5.13,2.58.54.54,0,0,1,.17.58.49.49,0,0,1-.47.28,1.05,1.05,0,0,1-.49-.13,15.77,15.77,0,0,0-4.2-2.17l-.06.08a.4.4,0,0,0,.28.4,23.06,23.06,0,0,1,4.5,2.54,1.11,1.11,0,0,0,.61.23.63.63,0,0,0,.49-.31c.32-.84-.07-1.62-1.2-2.38a26.36,26.36,0,0,0-5.32-2.24Zm1.13,3-.08.07a.45.45,0,0,0,.19.47c.35.23.87.52,1.46.85a8.48,8.48,0,0,1,2.59,1.74,1,1,0,0,1,.05,1,.62.62,0,0,1-.54.34,1,1,0,0,1-.44-.12l-2.59-1.44-.06,0h0a1.1,1.1,0,0,0,.38.82,12.55,12.55,0,0,0,1.87,1.22l.19.09a2.65,2.65,0,0,0,1,.39.68.68,0,0,0,.39-.13,2.05,2.05,0,0,0,.43-2.2,18.31,18.31,0,0,0-4.85-3.1m3,3.57.18,0c.17,0,.35-.08.32-.12a16.45,16.45,0,0,0-3.17-1.88.72.72,0,0,0,.12.29,15,15,0,0,0,2.55,1.68m-2.48,3.84,1.58,1.1a.94.94,0,0,0,.5.17.75.75,0,0,0,.39-.13,2.4,2.4,0,0,0,.71-1,1.16,1.16,0,0,0-.51-1.44l-2.13-1.5-.1,0-.06,0a.47.47,0,0,0,.08.48,10.34,10.34,0,0,1,1.64,1.38.81.81,0,0,1,.13.87.48.48,0,0,1-.45.32.72.72,0,0,1-.42-.15l-1.27-.75c-.07,0-.12.06-.16.15a.43.43,0,0,0,.07.46M57.51,28a.29.29,0,0,0,.25-.17.25.25,0,0,0-.07-.28l-1-.57-.14.1v.2l.9.7ZM54.29,31.3a.33.33,0,0,0,.07.38l1.58,1.12a.59.59,0,0,0,.31.09,1,1,0,0,0,.64-.32l.21-.32c.42-.64.72-1.1.23-1.77a4.24,4.24,0,0,0-1.54-1.26.17.17,0,0,0-.14.12.46.46,0,0,0,.05.47l.81.82a.81.81,0,0,1,0,.82.77.77,0,0,1-.65.44.61.61,0,0,1-.36-.11l-.87-.62-.13-.06c-.07,0-.15.08-.19.2m.63-.93a.21.21,0,0,0,.07.26l.56.4.15.06a.19.19,0,0,0,.16-.14.27.27,0,0,0-.07-.3l-.56-.4-.09,0a.27.27,0,0,0-.22.15m-2.92,3a.16.16,0,0,0-.16.1.42.42,0,0,0,0,.43l1.2,1.33a.57.57,0,0,0,.45.18,2,2,0,0,0,1.39-1A1.1,1.1,0,0,0,55,33.21a7.18,7.18,0,0,0-1.23-1.45l-.1-.05a.21.21,0,0,0-.16.14.52.52,0,0,0,0,.5l.56.7A.94.94,0,0,1,54,34a.77.77,0,0,1-.62.38.91.91,0,0,1-.49-.17l-.72-.77Zm1.4.38a.25.25,0,0,0,.21-.13.25.25,0,0,0,0-.22l-.63-.6-.1,0a.22.22,0,0,0-.18.12.29.29,0,0,0,0,.24l.66.6ZM55.56,49c0,.14.08.4.29.39a.76.76,0,0,0,.51-.28c1.31-1.63.86-6.77-.8-9.32l-.12-.06a.24.24,0,0,0-.19.13.43.43,0,0,0,0,.44c1.31,2.84,1.74,5,1.37,6.8-.06.2-.16.47-.39.47s-.33-.1-.45-.65a12,12,0,0,0-1.89-5.19,1.69,1.69,0,0,0,0,1A16,16,0,0,1,55.56,49m-1.12-8.66,0,0a.93.93,0,0,0-.07.7,10.9,10.9,0,0,1,1.59,4.21l0,.08.11-.1a11.18,11.18,0,0,0-1.6-4.87Zm-8-23.54c.3.11.52.21.73.3.39.19.78.39,1.17.61,1.48.82,2.42,1.79,3.05,4.58l.07.3c.63,2.71,1,4.34-1.83,6.53a.63.63,0,0,0-.1.68.35.35,0,0,0,.31.23h.05A5.3,5.3,0,0,0,52.07,28c1.65-2.14-.17-7-.77-8.58a4.23,4.23,0,0,0-2.47-2.32l-3.14-1.41a1.11,1.11,0,0,1-.48-.95c0-.37.29-.44.7-.66a3.16,3.16,0,0,1,1.36-.26,11.45,11.45,0,0,1,1.17.05,28.57,28.57,0,0,1,14.17,4.52h0a.52.52,0,0,1,.1.55c-.11.23-.44.34-1.06.37a1.18,1.18,0,0,1-.89-.34l-.41-.63c0-.1-.09-.15-.12-.15s-.12.06-.15.17l-.18.84c0,.13,0,.18.16.2a6.71,6.71,0,0,0,2,.31,5.24,5.24,0,0,0,3.19-1.13c.15-.2.22-.36.17-.45s-.25-.17-.54-.18h-.33a5.12,5.12,0,0,1-2.9-.84,30,30,0,0,0-15.06-3.77,2.66,2.66,0,0,0-1.31.23,1.56,1.56,0,0,0-.87,1,1.47,1.47,0,0,0,.39,1.27,3.65,3.65,0,0,0,1.55.91M22.92,27c.23.67.57,1,1,1.1h2a.41.41,0,0,0,.32-.39.31.31,0,0,0-.23-.33l-1.62,0c-.62,0-.92-.84-1.15-1.67-.5-1.75.4-3,1.28-4.07.07-.09.11-.16.14-.19H24.6a.3.3,0,0,1-.16-.21.46.46,0,0,1,.17-.37l.28-.24,0-.09-.17-.05h0a9,9,0,0,0-2.43,2.11,1.32,1.32,0,0,0-.16,1.25Zm4.16-1.54-.09,0a3.85,3.85,0,0,1-1,.18,1.7,1.7,0,0,1-1.27-.45l-.12,0-.11.07a.34.34,0,0,0,0,.32,1.73,1.73,0,0,0,1.26.62,2.28,2.28,0,0,0,1.24-.5c.1-.07.12-.15.11-.18m-2.92-1.79a.73.73,0,0,0-.05.6.53.53,0,0,0,.38.26,2.31,2.31,0,0,0,.37,0,5.25,5.25,0,0,0,2.94-1.35l.09-.13-.1,0a6.81,6.81,0,0,1-2.56.86.43.43,0,0,1-.35-.24c-.08-.17,0-.41.23-.75a6.38,6.38,0,0,0,1-1,.24.24,0,0,0,.05-.31,1.41,1.41,0,0,1-.05-.35.74.74,0,0,1,0-.26.8.8,0,0,1,.22-.52,1.89,1.89,0,0,1,.48-.4.33.33,0,0,0,.14-.39.53.53,0,0,0-.5-.35c-.6.22-.81.5-.74,1a1.43,1.43,0,0,1-.29,1.33,7.48,7.48,0,0,0-1.25,1.92m2.41-2.7a.35.35,0,0,0,0,.32,1.11,1.11,0,0,1,.22,1.19l0,0a1.12,1.12,0,0,0,.44-.7,1.05,1.05,0,0,0-.25-.8c-.07-.09-.18-.2-.29-.18a.3.3,0,0,0-.18.2M42.24,69c.76.46,1.19,1.61,1.65,2.84.54,1.47,1.1,3,2.26,3.26a1.9,1.9,0,0,0,.46.07h.07a.4.4,0,0,0-.15-.13c-.71-.23-1.1-1.36-1.56-2.67-.53-1.54-1.13-3.28-2.34-3.65l-.38,0a.57.57,0,0,0-.26,0s0,.11.25.26m2.13-.29a.74.74,0,0,0-.31,0s0,.07.13.13c.81.43,1.3,1.69,1.82,3,.63,1.6,1.28,3.26,2.47,3.24h0l.26-.05,0,0c-.7-.32-1.15-1.5-1.62-2.74-.62-1.61-1.32-3.43-2.71-3.62m3.93,3.52,0,.05c.48,1.27,1.08,2.87,2.39,2.9l.15,0,0,0a4.92,4.92,0,0,1-1.56-2.54c-.34-1-.63-1.8-1.67-2.08l-.13,0a.32.32,0,0,0-.13,0l.07.13c.36.18.59.8.89,1.57m-3.87-4.36.21,0h.21c.37,0,.41-.29.41-.36a.33.33,0,0,0-.27-.34,6.1,6.1,0,0,0-.85,0h0a5.59,5.59,0,0,1-1.77-.19l-.22-.08a.72.72,0,0,0-.35-.08.37.37,0,0,0-.32.12.51.51,0,0,0,0,.47c.32.39,1,.56,2.14.54.28,0,.56,0,.81,0m11.25-.11a1.34,1.34,0,0,0-1.39-.86,1.49,1.49,0,0,0-1.62,1.42.29.29,0,0,0,.08.26.44.44,0,0,0,.31.13.36.36,0,0,0,.34-.24c.12-.68.54-.76.72-.77a.75.75,0,0,1,.7.46.6.6,0,0,1-.26.68.76.76,0,0,0-.35,1.1,2.47,2.47,0,0,1,0,2.67.86.86,0,0,0,.52,1.23l0,0a.48.48,0,0,1,.07.53.72.72,0,0,1-1.33-.16.46.46,0,0,0-.44-.39.36.36,0,0,0-.31.16.27.27,0,0,0-.05.3c.44.89,1,1.3,1.67,1.29a2.62,2.62,0,0,0,1-.23,1.31,1.31,0,0,0,.5-.88,1.22,1.22,0,0,0-.3-.89c-.35-.19-.42-.6-.21-1.25a2.27,2.27,0,0,0,0-2.16,1,1,0,0,1,.17-1.22,1.07,1.07,0,0,0,.2-1.2m-14.54,6a.51.51,0,0,0-.45-.3.2.2,0,0,0-.16.06l-.37.64a.61.61,0,0,1-.52.32.67.67,0,0,1-.5-.22.56.56,0,0,1-.1-.53,1.19,1.19,0,0,1,.48-.67.88.88,0,0,0,0-.89,2.94,2.94,0,0,1-.2-2.06l.26-.94a.73.73,0,0,0-.31-.83.66.66,0,0,1-.34-.77.61.61,0,0,1,.57-.43.6.6,0,0,1,.26,0,.73.73,0,0,1,.42.46l.09.21a.62.62,0,0,0,.46.25A.3.3,0,0,0,41,68a.59.59,0,0,0,0-.51,1.6,1.6,0,0,0-1.63-1.15,1.31,1.31,0,0,0-1,.36,1.2,1.2,0,0,0-.33.92,1,1,0,0,0,.35.84h0a1.19,1.19,0,0,1,0,1.36,2.13,2.13,0,0,0,0,1.83,1.86,1.86,0,0,1,0,1.52l-.12.22a1,1,0,0,0-.15.9,1.28,1.28,0,0,0,1.34,1,1.91,1.91,0,0,0,1-.28,1.68,1.68,0,0,0,.68-1.22m11.33,1.81a1,1,0,0,0-.49.16,1.56,1.56,0,0,1-.86.24h-.2c-2.87,0-5.71,0-8.67-.17a2.17,2.17,0,0,1-.85-.23,1.59,1.59,0,0,0-.59-.14.34.34,0,0,0-.29.11.57.57,0,0,0,0,.48c.58.8,5.39.72,7.2.69l1.84,0c.62,0,1.24,0,1.56,0a3.21,3.21,0,0,0,1.63-.46.3.3,0,0,0,.17-.37.46.46,0,0,0-.46-.3M42.15,18c2.77.61,4.71,1.47,5.23,3.69,0,.89.22,1.46.55,1.7l.08,0,0-.2c.06-2.22-.67-3.7-2.19-4.42a11.09,11.09,0,0,0-3.37-1.31,1.09,1.09,0,0,1-1-1.2,1.47,1.47,0,0,1,1.37-1.4l.16,0c.24,0,.37-.12.37-.18s-.06-.08-.16-.12h-.33c-.94,0-1.82.22-1.92,1.63-.13,1,.24,1.59,1.18,1.74m.39-2.29,0,0c.49,0,.68.18.69.35s-.17.39-.7.44l-.09,0a.32.32,0,0,0,.16.08,3.74,3.74,0,0,0,.55,0c.44,0,.76-.13.88-.33A.35.35,0,0,0,44,16a1,1,0,0,0-.88-.37,2.65,2.65,0,0,0-.54.09m3.81,2.61a.74.74,0,0,0,.44.12c.24,0,.38-.08.39-.11l-.06-.06a3.24,3.24,0,0,0-3-.79c-.28.14,1.91.08,2.24.84m.47,4.22a4.64,4.64,0,0,0-1.93-1.92c-.2-.09-.24.08-.2.12a6.88,6.88,0,0,1,2.51,3.77,1,1,0,0,1-.2.82l-.11.1a2.45,2.45,0,0,0-.36.36.3.3,0,0,0,0,.34.41.41,0,0,0,.39.22H47l1.32-1a.45.45,0,0,0,.16-.37.49.49,0,0,0-.08-.28,5,5,0,0,1-1.56-2.18m-3.77.93H43a.24.24,0,0,0,0,.19,15.23,15.23,0,0,1,.31,3.65.32.32,0,0,0,.09.24.73.73,0,0,0,.53.12,4.24,4.24,0,0,0,1.36-.58,1,1,0,0,0,.55-.94,7.37,7.37,0,0,0-1.68-4C44.06,22,44,22,44,22h0a.45.45,0,0,0,0,.28c1.13,2,1.42,3.23.93,4a1.25,1.25,0,0,1-.73.37c-.16,0-.38-.08-.46-.51a8.85,8.85,0,0,0-.58-2.67Zm1.53,2.14a1,1,0,0,0,0-.35,8.22,8.22,0,0,0-1.13-2.77l0,0,0,.13a16.18,16.18,0,0,1,.84,3.15s.24.27.31-.12m1.67-.8c.16.32.37-.11.33-.23-.38-1.25-1.61-3.13-1.91-3a14.36,14.36,0,0,1,1.58,3.24m-5.79,2.47.2-1.53c0-.12,0-.19-.08-.24s-.11.05-.18.19c-.23.49-.83,2.11-.49,2.69a.42.42,0,0,0,.31.2l.47,0A1.86,1.86,0,0,0,42,28.08c.67-.72.57-2.15.47-3.41v-.26c-.07-.24-.16-.35-.23-.35l-.13.08a.49.49,0,0,0-.11.35,6,6,0,0,1-.32,2.73,1.09,1.09,0,0,1-.79.58c-.21,0-.44-.15-.46-.56m1-.66a9.45,9.45,0,0,0,0-1.6c0-.1-.06-.1-.08-.1a.19.19,0,0,0-.16.16A8,8,0,0,1,41,26.58c0,.1,0,.18,0,.22l.12.05a.31.31,0,0,0,.29-.27m-.77-4.46c.07.05.13.07.18,0l.06-.08a.25.25,0,0,0-.14-.3,16.28,16.28,0,0,0-2-.76c-.08,0-.09,0-.1,0a.16.16,0,0,0,.1.17,18.54,18.54,0,0,1,1.86.89M37,28.52a1.26,1.26,0,0,0,.87.25,1.34,1.34,0,0,0,1.31-.88l.43-1.75a.28.28,0,0,0,0-.21l-.14-.05c-.18,0-.41.16-.49.5A4.06,4.06,0,0,1,38.37,28a.43.43,0,0,1-.35.21.29.29,0,0,1-.27-.15.26.26,0,0,1,0-.31,2.05,2.05,0,0,0,.4-.84.18.18,0,0,0,0-.19l-.08,0a.38.38,0,0,0-.21.12A7,7,0,0,1,37,28c-.15.24-.16.41,0,.55m-4.87-1.78a.94.94,0,0,0-.42-.09.35.35,0,0,0-.3.11c0,.07.05.16.09.2,1.87,1.29,2.36,2.89,1.43,4.77a.3.3,0,0,0,0,.23L33,32a.64.64,0,0,0,.32-.15c1.2-1.85.82-3.51-1.17-5.09M15.65,34.79c0,.14.08.24.21.3l.11,0a.38.38,0,0,0,.32-.19.37.37,0,0,0,0-.38c-.37-.61-.1-.88.22-1.22h0l.29-.32a.4.4,0,0,0,.12-.34.28.28,0,0,0-.3-.25.56.56,0,0,0-.32.11,4.53,4.53,0,0,1-.67.51l-.1.07-.13.07-.14.09c-.08,0-.24.15-.08.5a5.41,5.41,0,0,1,.46,1m1.4.58a.56.56,0,0,0,.4.25.26.26,0,0,0,.19-.1.62.62,0,0,0,0-.56c-.36-.84,0-1.12.49-1.54l.08-.05a.35.35,0,0,0,0-.34.33.33,0,0,0-.28-.15.63.63,0,0,0-.25.07c-1,.58-1.13,1.15-.7,2.42m1.17-.74.2,1.12a.4.4,0,0,0,.37.28.32.32,0,0,0,.25-.12.42.42,0,0,0,.06-.38,1.14,1.14,0,0,1,.1-1.3l.43-.38a.4.4,0,0,0,0-.38.36.36,0,0,0-.32-.17l-.18,0-.56.47a.73.73,0,0,0-.39.83m12.36-7.18a.5.5,0,0,0-.25-.07.41.41,0,0,0-.38.24.65.65,0,0,0,.17.69,3.39,3.39,0,0,1,1.46,1.76,2.13,2.13,0,0,1-.5,1.87l-3.66,3.24c-2.42,2.23-2.76,4.25-1,6.16l.13.06a.59.59,0,0,0-.09-.27c-1.31-2.6.45-4.06,2.68-5.91l0,0a24.19,24.19,0,0,0,3.24-3.07c.84-1.63.25-3.16-1.79-4.68M32,40.67c-.62,0-1.18.08-1.67.13l-.15,0c-.4.05-.74.09-1.06.1-1,0-1.69-.33-2.1-2.07,0-.24-.05-.33-.14-.38a.44.44,0,0,0-.21.4c0,2.28,1.61,2.32,3.88,2.38a21.13,21.13,0,0,1,2.16.12,3,3,0,0,1,2.27,2,2.51,2.51,0,0,1-1.13,2.54c-.21.18-.29.36-.23.5a.67.67,0,0,0,.86.16,3.11,3.11,0,0,0,1.3-3.27,3.59,3.59,0,0,0-3.09-2.61c-.24,0-.47,0-.69,0m-4.1-8.54c-3.56,1.73-4.67,5-4.19,7.42a5,5,0,0,0,4.56,4.08h4a.71.71,0,0,1,.62.34c.08.15.12.42-.15.84a.4.4,0,0,0-.09.3l.1,0a.62.62,0,0,0,.35-.15,1.34,1.34,0,0,0,.48-1.49,1.26,1.26,0,0,0-1.24-.75l-1.85,0c-1.88,0-2.84-.09-3.33-.4a4.4,4.4,0,0,1-2.66-3.84c-.08-2.2,1.39-4.46,3.85-5.89,1.14-.69,2.49-1.58,2.71-2.22a.63.63,0,0,0,0-.5l-.08,0a.44.44,0,0,0-.25.1,8.58,8.58,0,0,1-2.9,2.09m-7,7.75a1.78,1.78,0,0,0,.44,2,17.68,17.68,0,0,0,2.17,1.49,3.07,3.07,0,0,1,1.25,2.37v0c0,.22.08.44.14.67a1.81,1.81,0,0,0,1.63,1.43h.12a.32.32,0,0,0,.32-.2c0-.12-.1-.19-.18-.22-.86-.31-1.23-.66-1.31-1.2-.28-1.21-.67-2.66-1.28-3.09a16.9,16.9,0,0,1-2.17-1.52.92.92,0,0,1-.47-.52c-.22-.64.07-1.7.89-3.26a3.35,3.35,0,0,0-2-3.78.93.93,0,0,0-.22,0c-.11,0-.13.05-.14.07s0,.2.14.32c1.5,1.1,2.43,2.15.72,5.45m.62,4.3A2.76,2.76,0,0,1,23,46.71c.21,2.54,1.53,3.81,3.94,3.77h0a2.52,2.52,0,0,0,1.07-.28c.09,0,.11-.07.12-.11s-.07-.26-.25-.46a.72.72,0,0,0-.58-.26,1,1,0,0,0-.32.06h0a2.24,2.24,0,0,1-.64.14,2.08,2.08,0,0,1-.55-.09,2.7,2.7,0,0,1-2.11-2.56A3,3,0,0,0,22.5,44,6.82,6.82,0,0,1,20.05,42a2.78,2.78,0,0,1,.14-3c.09-.18.19-.37.28-.58a2.91,2.91,0,0,0,.26-1.26c0-1.28-.35-2-1-2.15h-.14c-.07,0-.2,0-.24.09s0,.24.25.48c.87.68.85,1.85-.06,3.77a2.87,2.87,0,0,0-.18,2.84,7.85,7.85,0,0,0,2.22,2.06m7.81,6,.22,0s.06,0,0-.14a1.85,1.85,0,0,0-.71-.18c-.07,0-.08,0-.08.05a.59.59,0,0,0,.53.3m1.48-.29a.41.41,0,0,0-.09-.18,1.45,1.45,0,0,0-.86-.25h-.13c-.08,0-.1.08-.1.09s0,.07.07.14a1.27,1.27,0,0,0,.86.28h.12Zm.16-1-.22.07,0,.12a.91.91,0,0,0,.88.46,1.34,1.34,0,0,0,.35,0l.08,0a.2.2,0,0,0-.06-.13A1.41,1.41,0,0,0,31,48.94m.54-2.25A1,1,0,0,0,32,46.5c.13-.11.28-.22.4-.33s.11-.18,0-.28a.86.86,0,0,1-.22-1.08.26.26,0,0,0,0-.27s0,0-.11,0H32a1.45,1.45,0,0,0-.37.21l0,0a1.37,1.37,0,0,0-.66,1.5c.07.31.23.45.5.45Zm-2.94,2.62.15,0,0,0a1.36,1.36,0,0,1-.47-1.2,2.44,2.44,0,0,0-.55-1.5.67.67,0,0,0-.12.18.62.62,0,0,0,0,.54,1,1,0,0,1,.2.89c-.07.69.19,1.06.82,1.16m1-.33.16,0c.21-.09.21-.15.21-.15s0,0-.11-.11a1.17,1.17,0,0,1-.6-1.35,1,1,0,0,0-.16-1,1,1,0,0,1-.22-.95l0-.06a1.16,1.16,0,0,0-.24.07.67.67,0,0,0-.34.39,1.44,1.44,0,0,0,.29,1,.93.93,0,0,1,.22.84,1.41,1.41,0,0,0,.38,1.11.63.63,0,0,0,.45.21M31,44.66c.11-.11.11-.16.11-.16l-.09,0a1.66,1.66,0,0,0-1.5.46,1,1,0,0,0,.07,1,.83.83,0,0,1,.11.92,1.27,1.27,0,0,0,0,.86,1.25,1.25,0,0,0,1,.7.65.65,0,0,0,.26,0l-.06-.09a.51.51,0,0,1,0-.77c.08-.06.13-.12.13-.19s-.05-.17-.17-.29A1.53,1.53,0,0,1,31,44.66M35,49a2.3,2.3,0,0,1,1-.68,3.52,3.52,0,0,0,1.17-.84,1.86,1.86,0,0,0-.51-2.43.47.47,0,0,0-.22-.07.34.34,0,0,0-.26.14.52.52,0,0,0-.06.45l.39.64a.79.79,0,0,1-.39,1.13,7,7,0,0,0-1.89,1.23.61.61,0,0,1-.49.3.67.67,0,0,1-.4-.14l-.68-.57a.43.43,0,0,1-.1-.43.32.32,0,0,1,.3-.16l.21,0,.48.2.16.05s.08,0,.11-.13a.94.94,0,0,0-.64-1,1.44,1.44,0,0,0-.39,0,1.73,1.73,0,0,0-1.36.87c-.35.51.39,1,1.17,1.57.21.14.48.33.7.5a.91.91,0,0,0,.45.13.68.68,0,0,0,.33-.09A2.84,2.84,0,0,0,35,49m2,.86h.17a5.83,5.83,0,0,1,1.76.62c.16.07.29,0,.32-.08s0-.14-.15-.21a5.52,5.52,0,0,0-2.68-.84,3.1,3.1,0,0,0-.76.11c-.29.14-.47.34-.47.53a.34.34,0,0,0,.21.3l1.7.44,1.17.48.12,0a.27.27,0,0,0,.24-.12L38.58,51a4.8,4.8,0,0,0-1.48-.65c-.36-.1-.35-.24-.34-.28s0-.15.28-.16m1-2.22a1.8,1.8,0,0,0-.59.57.71.71,0,0,0,0,.62c.3.59,1.52.89,2.1,1h.09c.16,0,.29-.06.31-.14l-.07-.15h0a4.21,4.21,0,0,1-1.54-.93.57.57,0,0,1-.05-.57.6.6,0,0,1,.56-.23,2.43,2.43,0,0,1,.78.14h0l.14-.07a.24.24,0,0,0-.06-.22,1.34,1.34,0,0,0-.61-.32,1.45,1.45,0,0,0-1.06.27m1.06.63h0a.19.19,0,0,0-.2.12.25.25,0,0,0,.07.25,6.53,6.53,0,0,0,1.6.68h.06a.13.13,0,0,0,.14-.13.23.23,0,0,0-.12-.25,7.42,7.42,0,0,0-1.53-.67m.32,4.21h.06a3.32,3.32,0,0,0,.65-.07,7,7,0,0,1,2.35-.51c.17,0,.28-.09.29-.2s-.08-.22-.28-.26l-.34,0a9.09,9.09,0,0,0-2.16.44l-.14,0a.24.24,0,0,1-.23-.12c-.07-.13,0-.33.14-.46a5,5,0,0,1,2.32-1.36c.18-.06.23-.19.2-.28a.27.27,0,0,0-.31-.2,4.66,4.66,0,0,0-3,1.87.85.85,0,0,0-.14.85.66.66,0,0,0,.59.3M41,50.79c-.08.1-.11.18-.09.22s.2.11.43.11a1.92,1.92,0,0,0,1.07-.3l.07-.13v0s-.16-.12-.52-.11a1.7,1.7,0,0,0-1,.24m-2.43-4.71a.39.39,0,0,1-.1-.37.44.44,0,0,1,.38-.18h.09l0-.08a1.74,1.74,0,0,0-1.2-.63c-.12,0-.16,0-.17.11,0,.87.47,1.5,1.58,1.91h.23l0-.06ZM37.2,41.93l0,.09a2.75,2.75,0,0,0,.71,2.16,1.36,1.36,0,0,0,.86.46.22.22,0,0,0,.2-.08.56.56,0,0,0,0-.49.84.84,0,0,0-.48-.44.24.24,0,0,1-.21.14c-.27,0-.53-.41-.54-.85a.85.85,0,0,0-.54-1M39.91,45a.73.73,0,0,0-.39-.27h-.05l0,0v.12c.25,1.51.69,3.16,2,4a1,1,0,0,0,.36.08.6.6,0,0,0,.53-.48A2.4,2.4,0,0,0,42.11,47a.34.34,0,0,0-.3-.15c-.08,0-.13,0-.13.11l0,.77a.34.34,0,0,1-.09.27l-.13.07h0a.55.55,0,0,1-.3-.13,3.6,3.6,0,0,1-1.06-2.52.64.64,0,0,0-.19-.44m4.18,7.48a1.41,1.41,0,0,0,.49.11.59.59,0,0,0,.45-.2,2.42,2.42,0,0,0,.17-1.73v0a1.19,1.19,0,0,0-.33-.44H44.8a.63.63,0,0,0-.08.18l0,1c0,.28-.09.42-.26.42a.61.61,0,0,1-.32-.13,6.36,6.36,0,0,1-.77-3.22c0-.4-.25-.65-.39-.65s-.13.12-.13.3c0,1.62.13,3.4,1.25,4.36Zm.07-1.84.06,0a.75.75,0,0,0,.08-.39l-.13-.81a.34.34,0,0,0-.25-.2c-.1,0-.13.1-.14.16a1.36,1.36,0,0,0,.2,1.14q.12.12.18.12m-3-3.56c.09,0,.12-.21.13-.25a1,1,0,0,0-.21-.59c-.08-.09-.14-.1-.16-.1l-.13.1a.8.8,0,0,0,.12.66c.09.12.18.18.25.18m6.4-28.21h-.12c-.12,0-.16.1-.16.12s.07.18.39.18a1.38,1.38,0,0,1,1.51.83.41.41,0,0,1,0,.45c-.08.14-.16.18-.43.18h0l0,.16a.75.75,0,0,0,.41.12.59.59,0,0,0,.45-.21.7.7,0,0,0,.06-.61,1.94,1.94,0,0,0-2.08-1.22m.94,1.34c.09,0,.12-.1.13-.17s-.13-.39-.48-.42c-.09,0-.11.06-.11.07s0,.12.18.36a.5.5,0,0,0,.28.16M49,21.59a.17.17,0,0,0-.19.16.28.28,0,0,0,.14.21c.82,0,1.12.47,1.12,1.48-.11.47-.32.45-.5.45a1.13,1.13,0,0,1-.47-.12.24.24,0,0,0-.26.08s0,.07,0,.16a1.66,1.66,0,0,0,1.13.41.47.47,0,0,0,.32-.09c.33-.23.41-.66.25-1.36A1.46,1.46,0,0,0,49,21.59m.38,1.65a.18.18,0,0,0,.16-.1c0-.32-.05-.45-.12-.5s-.09-.06-.32-.05-.24.11-.26.17,0,.17.1.27a.83.83,0,0,0,.44.21m.17,4.92.12,0A2.93,2.93,0,0,0,51,26.3a1.18,1.18,0,0,0-.2-.95,1.66,1.66,0,0,0-1.2-.43h-.15a.47.47,0,0,0-.45.25.23.23,0,0,0,.09.24l.74.15a.7.7,0,0,1,.44.33,1.38,1.38,0,0,1-.22,1c-.54.65-.8.68-.69,1.09,0,.2.09.2.14.2m-.33-1.57.27,0c.31,0,.33-.11.33-.19,0-.41-.23-.41-.32-.41a1.3,1.3,0,0,0-.33.07c-.13.06-.21.15-.21.24s.11.2.26.26M51.3,17.4h0l-.12,0a3.09,3.09,0,0,0,1.6.57c.25,0,.33-.07.36-.11a.29.29,0,0,0,0-.21,5.84,5.84,0,0,0-5.36-2.75l-.84,0c-.11,0-.18,0-.18.08s.36.37.75.38a8.69,8.69,0,0,1,.89,0,4.05,4.05,0,0,1,3.35,1.25c.18.22.23.39.16.53s-.28.23-.6.23M50,16.28l-.54,0c-.07,0-.1,0-.1.06s0,.12.21.2a2.4,2.4,0,0,0,.73.13,1.51,1.51,0,0,0,.4-.07c.11-.06.11-.1.11-.1s0-.07-.19-.18a2,2,0,0,0-.62-.08m4.78.51a.87.87,0,0,1-.51-.21,3.63,3.63,0,0,0-1.78-1.14l-.22,0,0,0a6.59,6.59,0,0,0,3.37,2.21,1.33,1.33,0,0,0,.32,0,.36.36,0,0,0,.22-.06.29.29,0,0,0,.05-.19A1.54,1.54,0,0,0,55,16a.68.68,0,0,1,0,.62.34.34,0,0,1-.29.14m2.39,49.59a.7.7,0,0,0,.3-.07l.11-.07a.57.57,0,0,1-.33-.38,1.06,1.06,0,0,1,.41-.9c1.91-1,2.5-1.82,2.26-3.28a.28.28,0,0,0-.06-.18.56.56,0,0,0-.38-.13.6.6,0,0,0-.54.33,3.08,3.08,0,0,1-1.05,2,11.49,11.49,0,0,1-5.38,1.57,1.82,1.82,0,0,0-1.79,1L50,67.93a.75.75,0,0,1-.76.65l-1.65-.15a.61.61,0,0,1-.45-.19.49.49,0,0,1-.1-.38,12.14,12.14,0,0,1,.57-3.9,1.42,1.42,0,0,0-.14-1.19c-.07-.1-.13-.14-.18-.14s-.09,0-.2.26a11.84,11.84,0,0,0-.94,5.41c0,.49.12.79.58.89l3.43.24c.5,0,.73-.18.74-.59.18-1.68.76-2.54,1.71-2.57.78-.13,1.71-.28,2.74-.43l.2,0c.4,0,.57.13.65.25a1.92,1.92,0,0,0,.92.31m-1.87-5.66h-.15c-.48.11-.62.4-.59.63a.46.46,0,0,0,.41.4.54.54,0,0,0,.27-.09,2.73,2.73,0,0,1,1.1-.73,2.74,2.74,0,0,0-1-.22m-.75,3.14a.85.85,0,0,0,.23,0,2.3,2.3,0,0,0,1-.59A4.67,4.67,0,0,1,54.38,63l-.12,0a.34.34,0,0,0-.37.37.47.47,0,0,0,.16.34.65.65,0,0,0,.48.16m-1.38-2.47a2.89,2.89,0,0,1,.81-1h-.29a2.7,2.7,0,0,0-1,.17c-.32.2-.46.45-.38.69a.5.5,0,0,0,.48.37.4.4,0,0,0,.34-.19M49,66.66a.35.35,0,0,0,.33-.27,2.83,2.83,0,0,1,.43-1.22,2.23,2.23,0,0,0-1.05.48c-.3.33-.24.59-.17.71a.52.52,0,0,0,.46.3M63.6,65.4a3,3,0,0,1,1.59-.46,3,3,0,0,0-1.52-.72c-1.36,0-1,1.56-.07,1.18m1.85-2.1a3.27,3.27,0,0,1,.32-1.25,1.89,1.89,0,0,0-1,.52.63.63,0,0,0-.17.72.59.59,0,0,0,.5.3.34.34,0,0,0,.35-.29M68,62.64h-.3a2.4,2.4,0,0,0-.93.19.62.62,0,0,0-.37.71.55.55,0,0,0,.48.37.39.39,0,0,0,.33-.2A2.76,2.76,0,0,1,68,62.64M66.4,65.42l.24,0a2.6,2.6,0,0,0,1-.6,4.83,4.83,0,0,1-1.42-.25h-.13a.35.35,0,0,0-.38.36.5.5,0,0,0,.16.36.71.71,0,0,0,.51.16M51.23,63.58a.52.52,0,0,0,.49.33.67.67,0,0,0,.55-.34,2.07,2.07,0,0,0,.3-1.08,3.8,3.8,0,0,1-1.14.66c-.18.12-.26.27-.2.43M45,60.51a2.7,2.7,0,0,0-1.4.74,3,3,0,0,1,1.59.43c.93.34,1.13-1.21-.19-1.17m-3.35-1.08a.47.47,0,0,0,.39-.34.68.68,0,0,0-.42-.72,2.46,2.46,0,0,0-.86-.14l-.32,0a2.94,2.94,0,0,1,.86,1,.45.45,0,0,0,.35.2m-2-.08c0-.25-.16-.55-.69-.61a2.41,2.41,0,0,0-1.09.31,3.07,3.07,0,0,1,1.17.6.59.59,0,0,0,.26.08.37.37,0,0,0,.35-.38m.52,1.6a2.8,2.8,0,0,1-1.51.42,2.82,2.82,0,0,0,1.44.7c1.31,0,1-1.46.07-1.12M42,61a1,1,0,0,0,.41.1.46.46,0,0,0,.49-.45.39.39,0,0,0-.44-.39,5,5,0,0,1-.5,0,3.27,3.27,0,0,1-.8-.1A2.4,2.4,0,0,0,42,61M33,59.08a.87.87,0,0,0,.46.13.45.45,0,0,0,.46-.43c0-.11,0-.38-.48-.41a2.88,2.88,0,0,1-1.16-.2,2.6,2.6,0,0,0,.72.91m-3.27.29a.85.85,0,0,0,.42.11.44.44,0,0,0,.46-.44.38.38,0,0,0-.39-.4H30a2.87,2.87,0,0,1-1-.15,2.42,2.42,0,0,0,.76.87m-1.39-2.8a.93.93,0,0,0-.24,0,2.43,2.43,0,0,0-.92.22,2.8,2.8,0,0,1,.73.51l0,0a.81.81,0,0,0,.27.17.51.51,0,0,0,.69-.34c0-.24-.17-.45-.55-.56M22.52,53v0a.5.5,0,0,0,.49.42.39.39,0,0,0,.31-.15.66.66,0,0,0,0-.63,2.18,2.18,0,0,0-.79-.83,3.33,3.33,0,0,1,0,.85c0,.23,0,.29,0,.31m-1.05-1.12a2.27,2.27,0,0,0-.79-.83,2.5,2.5,0,0,1,0,.85.88.88,0,0,0,0,.32v0a.5.5,0,0,0,.49.41.38.38,0,0,0,.29-.15.64.64,0,0,0,0-.63m-.27,1.58-.17,0A3,3,0,0,1,20,53.08a2,2,0,0,0,.69,1.1.77.77,0,0,0,.4.12.47.47,0,0,0,.44-.36.41.41,0,0,0-.3-.48M23,55.62a.67.67,0,0,0,.44.15.42.42,0,0,0,.16-.82l-.16-.05a2.83,2.83,0,0,1-1-.45A2.07,2.07,0,0,0,23,55.62m24,3.36a.39.39,0,0,0,.07-.31,6.37,6.37,0,0,1,0-1.09c0-.08,0-.24-.44-.31H46.3a1.61,1.61,0,0,0-1.57,1.12,1.59,1.59,0,0,0,.66,1.82.72.72,0,0,0,.25.09h0a.89.89,0,0,0-.06-.38.6.6,0,0,1,.08-.55c.17-.21.5-.31,1.08-.32ZM49,63.17h0c.15,0,.25,0,.28-.08V63c-.36-.28-.53-.51-.53-.74s.24-.47.53-.69.22-.41.09-.57a2.83,2.83,0,0,1-.73-.81.35.35,0,0,0-.3-.18.82.82,0,0,0-.43.18A1.54,1.54,0,0,0,47.37,62,1.71,1.71,0,0,0,49,63.17m11.53-.28h0a1.38,1.38,0,0,0,1.87-1,1.71,1.71,0,0,0-.8-2,.51.51,0,0,0-.32-.12.41.41,0,0,0-.28.13,6.84,6.84,0,0,1-.73.87.41.41,0,0,0-.07.32.49.49,0,0,0,.25.24A.89.89,0,0,1,61,62c0,.27-.14.54-.52.86M57.66,60.7a1.15,1.15,0,0,0,.73.26,1,1,0,0,0,.49-.13,3.07,3.07,0,0,0,1.74-1.48,1.11,1.11,0,0,0-.23-1,1.49,1.49,0,0,0-1.15-.54H59a2.3,2.3,0,0,1-1.77-.9,1.77,1.77,0,0,0-.76-.56.8.8,0,0,0-.25,0c-.1,0-.11,0-.11,0v.11a2.08,2.08,0,0,0,.76,1.07,8.25,8.25,0,0,0,1.44.78c.3.18.43.36.42.55s-.19.37-.55.54a.65.65,0,0,1-.26.06c-.27,0-.5-.17-.71-.53a10.38,10.38,0,0,0-1.64-1.87L55.43,57a.38.38,0,0,0-.18.06,1.25,1.25,0,0,0-.53.46.48.48,0,0,1-.36.22.57.57,0,0,1-.32-.11.81.81,0,0,0-.19,0,10.29,10.29,0,0,0-2.33,1.83.82.82,0,0,1-.43.2h0l-.16-.06,0,0,0,0a.52.52,0,0,1,.24-.54A7.36,7.36,0,0,0,53,57.43a.25.25,0,0,0,.06-.2.44.44,0,0,0-.21-.28,1.46,1.46,0,0,0-.77-.17,3.32,3.32,0,0,0-.86.14,3.59,3.59,0,0,1-.81.09A4.9,4.9,0,0,1,49,56.83a1.73,1.73,0,0,0-.38,0,.76.76,0,0,0-.65.35,3,3,0,0,0-.16.44,4.44,4.44,0,0,0,0,1.17,3.52,3.52,0,0,0,.17.39.34.34,0,0,0,.28.12,1.05,1.05,0,0,0,.46-.15A1.25,1.25,0,0,0,49.44,58a.59.59,0,0,1,.39-.38,5.13,5.13,0,0,1,1.5-.31,2.07,2.07,0,0,1,.46,0c.21,0,.32.12.35.24s-.12.28-.24.37a8.8,8.8,0,0,1-2,1,1,1,0,0,0-.56,1.2c0,.31.35.66,1,1.09a1.14,1.14,0,0,0,.54.14,1.13,1.13,0,0,0,1-.66c0-.2.23-.37.61-.58a7,7,0,0,0,1.38-1.15.45.45,0,0,1,.27-.12c.22,0,.27.21.33.41l.05.2c.13.21.26.31.39.31s.38-.14.61-.41a.49.49,0,0,1,.32-.16l.13,0h0c.09.09.09.23.06.46s0,.19.08.22a.37.37,0,0,1,.25-.09.9.9,0,0,1,.49.17Zm-8.89-7.31a.28.28,0,0,0-.23.1.25.25,0,0,0,0,.24l1.61,2.09a1.08,1.08,0,0,0,.76.4.45.45,0,0,0,.36-.16.74.74,0,0,0,.09-.64c0-.16-.12-.23-.16-.23l-.1.11a.48.48,0,0,1-.36.19.46.46,0,0,1-.35-.19L49,53.48a.35.35,0,0,0-.25-.09m5,3.49a1,1,0,0,0,.31.06c.15,0,.37-.06.45-.49a3.14,3.14,0,0,0-.23-1.83L53,51.87a.59.59,0,0,0-.15-.22.57.57,0,0,0-.15.25A1.72,1.72,0,0,0,53,53.28c.21.31.4.66.6,1l.24.45a1,1,0,0,1,0,.9.48.48,0,0,1-.38.21.67.67,0,0,1-.47-.24l-1.26-1.77a2.21,2.21,0,0,0-1.14-1.07.91.91,0,0,0-.35-.07h0a.53.53,0,0,0,.08.2,15.4,15.4,0,0,1,1,1.35l0,0a6.37,6.37,0,0,0,2.45,2.57M52,53v.19l1,1.63.08,0a.23.23,0,0,0,.21-.11.3.3,0,0,0-.07-.28l-1-1.43-.1-.05Zm-1.4,1.82.07,0a.3.3,0,0,0,.19-.13.24.24,0,0,0,0-.25L50,53.31l-.09,0-.11,0,0,.17Zm5.35.73a1.62,1.62,0,0,0,.38.06.3.3,0,0,0,.19-.07.32.32,0,0,0,0-.25,11.07,11.07,0,0,0-.79-3.16,2.81,2.81,0,0,1-.27-1A.2.2,0,0,0,55.4,51l-.16.1a1.25,1.25,0,0,0-.06,1.14l.65,1.61a.64.64,0,0,1,0,.58l-.11.07h-.07a.48.48,0,0,1-.36-.23,3.85,3.85,0,0,1-.54-1.49c-.18-.65-.36-.72-.53-.79l-.09,0L54,52v.07c.35,1.38.82,2.9,1.91,3.54M53.36,43.36a.43.43,0,0,0-.27.23.54.54,0,0,0-.07.48,9.62,9.62,0,0,1,1.2,5.09c0,.58-.36.62-.43.62a.59.59,0,0,1-.49-.31,19.24,19.24,0,0,1-1.19-2.32v0c-.28-.61-.6-1.31-.91-1.88-.08-.09-.11-.1-.11-.1s-.07,0-.13.29a1.51,1.51,0,0,0,.19,1.06c.29.54.58,1.15.8,1.64v0a9,9,0,0,0,1.65,2.75.82.82,0,0,0,.46.16c.2,0,.36-.13.52-.41.69-1.17-.09-5.4-1.1-7.16,0-.12-.1-.12-.12-.12m0,4.93c.06,0,.14-.06.16-.24A4.86,4.86,0,0,0,52,44.4a.42.42,0,0,0-.2,0,.19.19,0,0,0-.16.08.32.32,0,0,0,0,.32,12.3,12.3,0,0,1,1.61,3.42.14.14,0,0,0,.13.12m-2.34,3.87a.85.85,0,0,0,.38.09.67.67,0,0,0,.66-.62,9.43,9.43,0,0,0-1.77-5.52.31.31,0,0,0-.25-.11.45.45,0,0,0-.35.16.29.29,0,0,0,0,.25,13.67,13.67,0,0,0,.77,1.77l0,.11a15.07,15.07,0,0,1,.91,2.19.69.69,0,0,1,0,.63.35.35,0,0,1-.28.14.65.65,0,0,1-.43-.21,13.46,13.46,0,0,1-1.88-2.54l-.09-.13a11.31,11.31,0,0,0-1-1.4.59.59,0,0,0-.38-.25l-.13.08a.59.59,0,0,0,0,.52,16.46,16.46,0,0,0,3.83,4.84M47.68,45.8l-.12,0,.07.14a17.26,17.26,0,0,1,2.48,3.78l.13.1.06,0a.54.54,0,0,0,0-.32,6.3,6.3,0,0,0-2.56-3.67Zm.73,6.84c.38,0,.6-.32.61-.83-.1-1.61-1.42-3-2.7-4.35a.51.51,0,0,0-.29-.11l-.1.06,0,.1a22.72,22.72,0,0,1,2.43,3.27.82.82,0,0,1,0,.79.47.47,0,0,1-.39.21.67.67,0,0,1-.49-.23,38.31,38.31,0,0,0-3.8-4.38.36.36,0,0,0-.23-.1l-.14.09c0,.07,0,.15.1.25a61.58,61.58,0,0,1,4.11,4.81,1.23,1.23,0,0,0,.82.42m-4-6.07-.08,0a.53.53,0,0,0,.05.43l3.16,3.65.17.09,0,0s0-.11-.09-.25l-3.16-3.86ZM57,17.94a4.44,4.44,0,0,0,1.87.93.24.24,0,0,0,.19-.07.69.69,0,0,0,.23-.63,1.1,1.1,0,0,0-.71-.7h0a.52.52,0,0,1-.52.6.59.59,0,0,1-.61-.49,1.32,1.32,0,0,0-.64-.88h0v0a1.15,1.15,0,0,1,.13.82.39.39,0,0,0,.07.41m-4,2.23a1.61,1.61,0,0,1-.44-.06H52.5a.43.43,0,0,0,.06.15,2.08,2.08,0,0,0,1.31.52.65.65,0,0,0,.58-.27c.15-.27,0-.75-.31-1.34l-.06-.11V19c0-.06,0-.19-.57-.65l0,0c0,.13-.18.22-.42.26a3.37,3.37,0,0,1-.49.05l-.64,0-.09,0a.4.4,0,0,0,.32.29c1.18,0,1.6.39,1.6.72s-.32.5-.74.51m.48,1.88c.88.26,1.12.83,1.06,1.23a.64.64,0,0,1-.59.58,1.1,1.1,0,0,1-.66-.29.62.62,0,0,0,.06.37A2,2,0,0,0,55,25a.54.54,0,0,0,.47-.21.9.9,0,0,0,0-.87,4.52,4.52,0,0,1-.54-2.32c0-.15,0-.2-.09-.24a.79.79,0,0,0-.26.12,1.5,1.5,0,0,1-.54.12,2.44,2.44,0,0,1-1-.28l-.12.1a.18.18,0,0,0,0,.18ZM50.41,35.14a.6.6,0,0,0,0,.53,27.39,27.39,0,0,1,1.64,2.48l.08.12c.43.7.79,1.27,1,1.64a.5.5,0,0,0,.32.2c.13,0,.23-.2.24-.46-.07-1.62-1-3.57-2.7-6l-.06.08a.42.42,0,0,0,0,.43,13.59,13.59,0,0,1,1.8,3.33.45.45,0,0,1,0,.44l-.09.07,0,0h0c-.13,0-.25-.1-.34-.28a13.58,13.58,0,0,0-1.65-2.6l-.13-.09Zm-1.67,3.19a.17.17,0,0,0-.16.1.56.56,0,0,0,0,.53,39.39,39.39,0,0,0,2.17,4,1.32,1.32,0,0,0,1,.6,1.07,1.07,0,0,0,.86-.52,2.49,2.49,0,0,0,0-2.44A22.89,22.89,0,0,0,50,36.28a.3.3,0,0,0-.21-.1.19.19,0,0,0-.16.1.51.51,0,0,0,0,.49,22.82,22.82,0,0,1,2.54,4.37,1.22,1.22,0,0,1,0,1.19.66.66,0,0,1-.53.29.75.75,0,0,1-.62-.34A27.24,27.24,0,0,1,49,38.47a.32.32,0,0,0-.23-.14m2.52,2.89a.33.33,0,0,0,.28-.16.36.36,0,0,0,0-.4L49.58,37.4a.37.37,0,0,0-.11-.15s-.06,0-.1.08a.94.94,0,0,0-.08.75l1.82,3.08a.18.18,0,0,0,.15.06m-2.14,4.39A1.34,1.34,0,0,0,50.23,45a1.76,1.76,0,0,0-.12-1.81,23.58,23.58,0,0,1-1.92-3.87c-.07-.21-.2-.33-.34-.32a.37.37,0,0,0-.3.19.28.28,0,0,0,0,.29,33,33,0,0,0,2,4.05,1,1,0,0,1,.09,1,.66.66,0,0,1-.57.31.93.93,0,0,1-.75-.39,16.76,16.76,0,0,1-1.61-2.29l-.14-.23c-.32-.51-.65-1-1-1.48a.35.35,0,0,0-.29-.15.37.37,0,0,0-.32.21.29.29,0,0,0,.09.34l2.74,4.07a1.57,1.57,0,0,0,1.26.7M46.32,40l2,3.48a.48.48,0,0,0,.36.22l.11,0s.1-.18-.1-.58l-2.17-3.86a.13.13,0,0,0-.14-.1h-.08l0,.17a.35.35,0,0,1,0,.29.37.37,0,0,0,.07.42m.44,6.57a1.37,1.37,0,0,0,.09-1.19,16.83,16.83,0,0,0-2.37-4.13L44.3,41a.57.57,0,0,0-.48-.2c-.14,0-.22,0-.23.07s0,.07.08.16a25.51,25.51,0,0,1,2.52,4,.64.64,0,0,1,0,.68.5.5,0,0,1-.44.28.6.6,0,0,1-.47-.23,39.86,39.86,0,0,1-3.57-4.31.39.39,0,0,0-.29-.11.31.31,0,0,0-.27.14.34.34,0,0,0,.05.34A30,30,0,0,0,45,46.41a1.49,1.49,0,0,0,1.06.4.88.88,0,0,0,.71-.29m-4.62-5.78A10.83,10.83,0,0,0,45,44.61a.31.31,0,0,0,.15.07l.07,0a.33.33,0,0,0-.05-.3,44.6,44.6,0,0,0-2.84-3.84h-.15a.39.39,0,0,0,0,.25m1.07,5.79a.39.39,0,0,0,.28-.09s0-.16-.07-.45a21.08,21.08,0,0,0-3.33-4.34.43.43,0,0,0-.32-.15l-.1,0a.34.34,0,0,0,0,.18c.74.89,1.57,1.92,2.22,2.86A.42.42,0,0,1,42,45v0l-.11.09h-.09a.61.61,0,0,1-.34-.13A52.62,52.62,0,0,1,38,40.71a.31.31,0,0,0-.24-.12.37.37,0,0,0-.32.19.25.25,0,0,0,0,.3l.21.3c1.4,2,3.15,4.49,5.32,5.14Zm4.6-15.72a1.38,1.38,0,0,0-.23.39c-.1.47,0,.59,0,.61h0a.34.34,0,0,0,.17-.06,2.33,2.33,0,0,0,1-1.9l-.2-3.18c0-.19-.13-.3-.24-.3l-.15.07a.5.5,0,0,0-.12.4l0,.71c0,.36,0,.72,0,1.07s0,.7,0,1a1.25,1.25,0,0,1-.31,1.12Zm-2.54-2.92a.3.3,0,0,0-.21.18,9.76,9.76,0,0,0-.54,4,.92.92,0,0,0,.95.77,1.94,1.94,0,0,0,1.66-1.38,14.5,14.5,0,0,0,.23-4.25c0-.25-.11-.41-.23-.41l-.16.09a.42.42,0,0,0-.12.33,9.78,9.78,0,0,1-.31,3.92c-.34.55-.68.85-1,.86s-.41-.07-.46-.62a14.16,14.16,0,0,1,.31-3.25c0-.08,0-.15-.15-.23m.81,2.93a8.27,8.27,0,0,0,.15-3.39c0-.16-.1-.23-.12-.23s-.14.1-.17.26l-.15,3.41c0,.12.09.13.12.13a.21.21,0,0,0,.17-.18m-4.55,2a.54.54,0,0,1-.47-.21c-.12-.17-.1-.43,0-.8l.72-2.52a.23.23,0,0,0,0-.22L41.66,29c-.1,0-.21.1-.29.25A16.15,16.15,0,0,1,40.73,31c-.18.43-.33.82-.52,1.36a.93.93,0,0,0-.07.65,1.62,1.62,0,0,0,1.34.46h.09c1.32-.17,2-.63,2.08-1.42l.51-3.32a.51.51,0,0,0-.11-.34l-.16-.06c-.11,0-.25.1-.32.37l-.44,2.53c-.19,1.05-.72,1.57-1.6,1.58M42.8,28.5a.32.32,0,0,0-.27.25A24.34,24.34,0,0,1,42,31.51a.18.18,0,0,0,0,.19l.11.05c.12,0,.26-.13.35-.33a19.22,19.22,0,0,0,.39-2.74c0-.18-.07-.18-.09-.18m-5,4.37a2.07,2.07,0,0,0,.78.18,1.34,1.34,0,0,0,1.13-.75l1-2.67c0-.22,0-.3-.08-.35a.23.23,0,0,0-.1.14,16.55,16.55,0,0,1-1.29,2.66.84.84,0,0,1-.64.36.57.57,0,0,1-.48-.24.65.65,0,0,1,0-.67,15,15,0,0,0,1.08-2.36.23.23,0,0,0-.09-.28.23.23,0,0,0-.18.17,16.71,16.71,0,0,1-1.36,2.57,1,1,0,0,0-.2.81.75.75,0,0,0,.43.43m1.8-3.57a9.59,9.59,0,0,1-1,2.16.24.24,0,0,0,0,.26l.08,0a.33.33,0,0,0,.21-.13,5.81,5.81,0,0,0,1-2.19.29.29,0,0,0-.16-.3.16.16,0,0,0-.14.16M38,29.2s-.08,0-.11.1A11.23,11.23,0,0,1,36.8,31a.29.29,0,0,0,0,.23l.09,0,.12,0a4.79,4.79,0,0,0,1.11-1.88c0-.07,0-.12-.1-.2m-2.49,2.6a1.24,1.24,0,0,0,.9.56.4.4,0,0,0,.31-.17l0-.15-.44-.32a.37.37,0,0,1-.17-.24.62.62,0,0,1,.17-.48,6.78,6.78,0,0,0,1-1.3.42.42,0,0,0,.06-.39l-.06,0a.23.23,0,0,0-.18.14,17.05,17.05,0,0,1-1.4,1.72c-.22.27-.26.46-.15.66m-.24,1.05a4,4,0,0,0-.89,3.34,7.35,7.35,0,0,0,.6,1.54,9.23,9.23,0,0,1,.43,1,3.42,3.42,0,0,1,.25,1.46c0,.07,0,.24.41.23a2.51,2.51,0,0,0,.55-.08,1.36,1.36,0,0,0,.85-.62.92.92,0,0,0,0-.76c-1.13-2.47-1.2-4-.19-5.34a.32.32,0,0,0,0-.33.3.3,0,0,0-.25-.13.4.4,0,0,0-.3.15,2.7,2.7,0,0,0-.82,2.15,5.87,5.87,0,0,0,.37,1.69,12.33,12.33,0,0,1,.38,1.32.45.45,0,0,1,0,.44.33.33,0,0,1-.25.13c-.1,0-.29,0-.43-.41s-.29-.84-.41-1.16l0,0A6.55,6.55,0,0,1,35,35.69a3.77,3.77,0,0,1,.81-2.53v0a.26.26,0,0,0-.22-.46.41.41,0,0,0-.34.17m2.29,4.68a7.16,7.16,0,0,0,1.52,3.06,1.67,1.67,0,0,0,1.09.38,1.31,1.31,0,0,0,1.35-1,1.51,1.51,0,0,0-.16-.88c0-.11-.07-.21-.11-.33a7.51,7.51,0,0,1,0-4.23c0-.08,0-.18,0-.25a.33.33,0,0,0-.28-.11.42.42,0,0,0-.37.2,7.16,7.16,0,0,0,0,4.61.86.86,0,0,1-.13.76.68.68,0,0,1-.5.25.81.81,0,0,1-.63-.34c-1.36-2.12-1.61-3.95-.73-5.61a.44.44,0,0,0,0-.43.3.3,0,0,0-.25-.12.46.46,0,0,0-.35.22,4.68,4.68,0,0,0-.38,3.82m2.31-3.83a.25.25,0,0,0-.21-.1.34.34,0,0,0-.32.22,5.5,5.5,0,0,0,.2,4.85.24.24,0,0,0,.19.11l.08-.05s.07-.11,0-.37c-.54-2.12-.51-3.53.09-4.39a.24.24,0,0,0,0-.27m2.64.44a.32.32,0,0,0-.19-.07.38.38,0,0,0-.35.28,8.11,8.11,0,0,0,0,4.41,1.81,1.81,0,0,0,1.81,1.33,1.5,1.5,0,0,0,1.54-1.42,16.72,16.72,0,0,1-.22-4.81.32.32,0,0,0-.09-.27.48.48,0,0,0-.31-.12.26.26,0,0,0-.25.21,11.69,11.69,0,0,0-.22,3.82c0,.09,0,.19,0,.3a1.2,1.2,0,0,1-.11,1,.62.62,0,0,1-.49.24,1,1,0,0,1-.81-.51,7,7,0,0,1-.26-4.16.32.32,0,0,0-.09-.25m1.13-.37-.11,0c-.08,0-.18.06-.23.21a12,12,0,0,0-.17,3.84.32.32,0,0,0,.3.23.34.34,0,0,0,.32-.34,15.77,15.77,0,0,1-.07-3.78Zm3.76-1.18a1.28,1.28,0,0,0-.06.76,7.56,7.56,0,0,1,.54,3.38.78.78,0,0,1-.73.65.67.67,0,0,1-.63-.46,10.74,10.74,0,0,1-.33-3.21.34.34,0,0,0-.35-.28.25.25,0,0,0-.21.1.24.24,0,0,0-.08.24,8.7,8.7,0,0,0,.73,4.36,1,1,0,0,0,.79.37c.56,0,1.14-.51,1.54-1.34.34-1.15,0-2.58-1-4.49l-.15-.09Zm-.22,3.62c.06,0,.11-.16.11-.25a25.23,25.23,0,0,1-.38-2.65c-.06-.2-.14-.26-.18-.26s-.12.07-.12.18a11.17,11.17,0,0,0,.4,2.91Zm2.23-5.12s0,.05-.07.2a2.19,2.19,0,0,0,.26,1l0,0a2.36,2.36,0,0,1,.26,1.08.36.36,0,0,1-.35.34.65.65,0,0,1-.2,0c-.32,0-.53-.63-.58-.89,0-.11.17-.28.22-.21s.17.22.22.19c.21,0-.14-.81-.14-.81a.38.38,0,0,0-.3-.09.72.72,0,0,0-.37.15c-.17.07-.27.18-.17.48a4.87,4.87,0,0,0,1.11,2.28.4.4,0,0,0,.24.09.64.64,0,0,0,.41-.25,3,3,0,0,0-.43-3.46.33.33,0,0,0-.13-.08m1.44-.56-.16,0c-.08,0-.14,0-.16.06s0,.09,0,.16a2.52,2.52,0,0,0,.36.45c.31.35.71.78.24,1.24-.13.09-.13.12,0,.29a.41.41,0,0,0,.36.22.73.73,0,0,0,.37-.12l.62-.75.07-.18s0,0-.12,0c-.38,0-.65-.37-.9-.68a1.94,1.94,0,0,0-.69-.63m1.82-.09a.43.43,0,0,1-.27-.08l-.76-.56-.15,0a.24.24,0,0,0-.21.13.25.25,0,0,0,0,.24,6.91,6.91,0,0,0,1.13,1.1.57.57,0,0,0,.39.15.53.53,0,0,0,.32-.12,5.29,5.29,0,0,1,.61-.64,2.55,2.55,0,0,0,.8-1c0-.18,0-.26,0-.27s-.06,0-.22,0a2.57,2.57,0,0,1-1.55-.8l-.14,0a.3.3,0,0,0-.26.17.24.24,0,0,0,0,.23l.76.76a.54.54,0,0,1,0,.55.55.55,0,0,1-.47.29m1.62-2.86a.75.75,0,0,1-.52-.25c0-.07-.1-.11-.14-.11s-.06,0-.16.1c-.37.32-.29.54-.18.68a2,2,0,0,0,1.2.7.89.89,0,0,0,.71-.48,5.22,5.22,0,0,0,.47-1.76.37.37,0,0,0,0-.29,1.16,1.16,0,0,0-.27-.11h0L55.15,26a8.42,8.42,0,0,1-1.43-.87l0,.07c-.07.29,0,.46.11.58l.72.56a.86.86,0,0,1,.17.94.48.48,0,0,1-.43.31M68.47,61a.75.75,0,0,0,0-.69c0-.15-.13-.19-.48-.23s-1-.12-1-.94l0-.25v0l-.15.05a1.42,1.42,0,0,0-.9.82,2.26,2.26,0,0,1-.26.45,1.23,1.23,0,0,1-.75.33c-.3,0-.54-.17-.77-.55a.79.79,0,0,0-.07-.21,1.81,1.81,0,0,0-.18.23,1.15,1.15,0,0,0-.17.84,2.21,2.21,0,0,1-.31,1.46,2.79,2.79,0,0,1-2.22,1.65,2.3,2.3,0,0,1-.62-.08l-.12,0a.33.33,0,0,0-.3.27c0,.14,0,.26.06.29a3.7,3.7,0,0,0,1.14.2,2.86,2.86,0,0,0,2.17-1.17c.92-1.26,2.07-2.82,3.37-2.85a1.72,1.72,0,0,1,.82.21h0a.72.72,0,0,0,.52.35.29.29,0,0,0,.25-.13m3.11,3.81c-.38,0-.65-.08-.77-.28a.82.82,0,0,1,.07-.83l0-.1h-.3c-.69.1-.83.33-.86.69a.53.53,0,0,1-.38.65,11.6,11.6,0,0,1-4.72,1.21A12.61,12.61,0,0,1,61,65.55c-.69-.19-1.27-.34-1.9-.45-.41,0-.7.14-.75.3a.25.25,0,0,0,.12.26l1.41.46c.19,0,.77.17.81.71s.47.93.89.92h.16l.08,0,0,0h0l0,0a.77.77,0,0,1-.05-.61.31.31,0,0,1,.3-.23.93.93,0,0,1,.3.05,12.59,12.59,0,0,0,2.51.22A9.78,9.78,0,0,0,66.4,67l.2,0a.46.46,0,0,1,.38.16,2.35,2.35,0,0,0,1.32.52.9.9,0,0,0,.61-.22h0a.85.85,0,0,1-.58-.59c-.06-.31,0-.38.32-.46a3.83,3.83,0,0,0,1.49-.7.7.7,0,0,1,.56-.2h0c1,0,1.15-.29,1.22-.48v-.21h-.12l-.29,0m.23-3.29A.9.9,0,0,0,71,60.16a1.58,1.58,0,0,0-1,.37c-.54.46-.81.85-.8,1.17a.61.61,0,0,0,.28.5,1.68,1.68,0,0,0,.7.13,2.12,2.12,0,0,0,1.63-.83m-1-1.85a1.82,1.82,0,0,1,1.59.93,1.45,1.45,0,0,1,0,1.59,3.6,3.6,0,0,1-2.23,1h0a2.54,2.54,0,0,1-1.29-.35c-.68-.87-.39-1.72,1-2.82a1.67,1.67,0,0,1,1-.35M74.93,61c0-.28-.16-.3-.27-.3l-.15,0a4.31,4.31,0,0,0-.87.24.27.27,0,0,0-.22.25.31.31,0,0,0,.17.33,5.06,5.06,0,0,0,1.06.27h.12a.21.21,0,0,0,.15-.05.25.25,0,0,0,0-.2,1.38,1.38,0,0,1,0-.57m-.5-1.32a6,6,0,0,1-.52-.62c-.1-.11-.16-.15-.19-.15s-.12.05-.23.14a2,2,0,0,0-.62.71.44.44,0,0,0,.45.63A2.18,2.18,0,0,0,74.39,60c.12-.11.12-.16,0-.25m-1.86-1.65a.45.45,0,0,0-.28-.14s-.11,0-.2.17a1.68,1.68,0,0,0-.27.59c0,.24,0,.4.07.48a.42.42,0,0,0,.33.1l.22,0a1.48,1.48,0,0,0,.73-.51l0-.12a.38.38,0,0,0-.15-.19,2.72,2.72,0,0,1-.5-.36m3.22-.62c-.26,0-.5.17-.51.34,0,.38-.21.66-.67.83-.16.09-.1.32-.1.33.06.19.22.39.42.38l.15,0a1,1,0,0,1,.83-.4,2.13,2.13,0,0,1,.41,0,.41.41,0,0,0,.39-.28.79.79,0,0,0-.26-.86.87.87,0,0,0-.66-.33m-35.7,6.72q0,.33-.54.54l.11,0a1.81,1.81,0,0,0,.38.05,1.68,1.68,0,0,0,.92-.36A2,2,0,0,1,42.05,64a2.31,2.31,0,0,1,.88.18c.34.14.51.28.56.47a.51.51,0,0,1-.17.42h.26a1.25,1.25,0,0,0,1.16-.92c.27-.41.52-.51,1.11-.72a1.28,1.28,0,0,0,.39-.85.25.25,0,0,0-.13-.29.51.51,0,0,0-.17,0,6.8,6.8,0,0,1-3.19.81,17.53,17.53,0,0,1-6.42-1.56,1.21,1.21,0,0,1-.73-1.42l.83-2.43a2,2,0,0,1,1.89-1.13c1.31,0,3.18.76,5.71,2.39l.12.07.05-.05a.61.61,0,0,0-.1-.59l-.93-.71A1,1,0,0,1,42.8,57c-.09-.79-.42-1-.78-1.13l-.08,0a.7.7,0,0,0,0,.13l-.07.63a.37.37,0,0,1-.37.24h-.21A2.9,2.9,0,0,1,39,55.56c-.31-.4-.53-.69-1.06-.68l-.25,0h0l.27.21a.55.55,0,0,1,.18.51c0,.19-.22.32-.55.41a1.35,1.35,0,0,0-.53.1,1.19,1.19,0,0,1-.36.09,1.26,1.26,0,0,1-.59-.2h0a1.29,1.29,0,0,0-.73-.22,1.31,1.31,0,0,0-.38.06h0l.06,0a1.15,1.15,0,0,1,.54,1.49l-1,2.94a2,2,0,0,0,.58,2c.72.25,1.06.51,1.08.78s-.15.39-.49.57h0a1.26,1.26,0,0,0,1.45-.24,1.24,1.24,0,0,1,.76-.27,1.45,1.45,0,0,1,.5.08c1.13.29,1.65.57,1.68.9M34.56,58a.21.21,0,0,0,.19-.11.25.25,0,0,0,0-.25,3.73,3.73,0,0,0-1.47-1.4l-.18,0a.21.21,0,0,0-.19.12.25.25,0,0,0,.07.27A5.79,5.79,0,0,1,34.44,58Zm-9.81,0c0,.69,0,1.35-.66,1.45h0l0,0a1.74,1.74,0,0,0,.81.22,1.28,1.28,0,0,0,.6-.16.49.49,0,0,1,.32-.14.36.36,0,0,1,.23.06l2,.92c.27.11.4.24.41.4s-.09.29-.34.47A1.42,1.42,0,0,0,29.62,61a.6.6,0,0,1,.41-.15l.19,0c.34,0,.69,0,1,0a10.1,10.1,0,0,0,2.45-.29.63.63,0,0,0,.28-.66.24.24,0,0,0-.24-.17l-.16,0a8.1,8.1,0,0,1-2.23.36,9.31,9.31,0,0,1-5.14-1.63c-.39-.12-.52-.54-.4-1.22a7.12,7.12,0,0,1,1.24-2.41.59.59,0,0,1,.49-.28h0a2.93,2.93,0,0,0,.57.05c.63,0,.7-.26.71-.46s0-.08,0-.08h-.08l-.19,0a1.73,1.73,0,0,1-1.18-.54,1.17,1.17,0,0,0-.71-.38h-.11a.75.75,0,0,1,.22.5.79.79,0,0,1-.31.58A5.45,5.45,0,0,0,24.75,58M30,56.37a1,1,0,0,0,.63.27c.41,0,.71-.36.91-1.08a1.27,1.27,0,0,0-.11-1.18.9.9,0,0,0-.69-.32.92.92,0,0,0-.67.33,2.1,2.1,0,0,0-.08,2v0m2.39-.57c-.36,1.06-.9,1.61-1.61,1.62a1.76,1.76,0,0,1-.61-.1,2.5,2.5,0,0,1-.83-1.8,2,2,0,0,1,.47-1.59,1.32,1.32,0,0,1,1-.36,1.71,1.71,0,0,1,1.32.56,1.84,1.84,0,0,1,.3,1.67M33,53.72a1.62,1.62,0,0,0,.82-.4.33.33,0,0,0-.12-.47l-.49-.34-.15,0c-.09,0-.18.09-.29.23a1.11,1.11,0,0,0-.23.7c.06.23.18.33.38.33ZM32.17,52l-.61-.2-.15,0-.13,0a.43.43,0,0,0,0,.26l0,.77a.37.37,0,0,0,.31.22.79.79,0,0,0,.37-.13,3.34,3.34,0,0,0,.38-.45.44.44,0,0,0,.08-.34c0-.06-.11-.11-.25-.15m-1.74-.15a3.68,3.68,0,0,1-.63.07q-.15,0-.18.06s-.06.13,0,.44.42.74.69.74c.1,0,.21-.09.31-.26a.67.67,0,0,0,.08-.35l0-.37c0-.22,0-.3-.15-.36Zm-8.42,5a.45.45,0,0,1,.23,0,4.86,4.86,0,0,0,1.38.24,2.21,2.21,0,0,0,.47-.07.27.27,0,0,0,.19-.27c0-.14-.18-.17-.27-.18a7.66,7.66,0,0,1-5.62-3.57,1.32,1.32,0,0,1,.07-1.48,4.74,4.74,0,0,1,2-1.55,1.78,1.78,0,0,1,.75-.21,1.26,1.26,0,0,1,.83.31,9.48,9.48,0,0,1,2.78,4.24c0,.3.16.43.29.42s.25-.1.3-.34l-.18-.83c-.07-.34-.06-.54.06-.69.57-.75.61-1.31.11-1.78v0c-.19.51-.4.74-.65.74s-.39-.15-.57-.46a7.35,7.35,0,0,0-1.89-1.92c-.31-.17-.44-.38-.37-.58-.14-.87-.44-.93-.85-1H21l0,0q.32,1-.87,1.35a4.86,4.86,0,0,0-2.82,2.44.56.56,0,0,1-.51.43,1.09,1.09,0,0,1-.63-.28h0V52a1.08,1.08,0,0,0,.76,1.09.57.57,0,0,1,.59.42,3.31,3.31,0,0,0,.69.91q.3.24.24.45c-.05.17-.27.26-.71.31l0,0a1.51,1.51,0,0,0,1.17.4l.2,0a.6.6,0,0,1,.44.17l.85.5c.23.12.34.24.33.4s-.14.33-.49.51h0l.05,0a1.27,1.27,0,0,0,.67.21,1,1,0,0,0,.71-.35.42.42,0,0,1,.36-.2M17.4,46.51a.83.83,0,0,0-.78.8,2,2,0,0,0,1.21,1.61H18a.59.59,0,0,0,.51-.23c.18-.26.13-.71-.14-1.38s-.76-.82-1-.81m-1.18.22a1.48,1.48,0,0,1,1.25-.82,1.93,1.93,0,0,1,1.51.93A2.2,2.2,0,0,1,19.27,49a1,1,0,0,1-.91.55h-.2a2.81,2.81,0,0,1-1.82-1.4,1.68,1.68,0,0,1-.12-1.45m1.46-1.27a.6.6,0,0,0,.4-.24,2.19,2.19,0,0,0,.2-.74.27.27,0,0,0-.2-.34,1.22,1.22,0,0,0-.47-.08,1.48,1.48,0,0,0-.34,0c-.14,0-.18.2-.15.45.07.53.3.92.56.91m-1,.14a1.35,1.35,0,0,0,.06-1,.36.36,0,0,0-.05-.19.49.49,0,0,0-.3-.08,1,1,0,0,0-.79.39.26.26,0,0,0,.07.31c.31.52.63.71.82.7a.26.26,0,0,0,.19-.09m-1.53-.43c-.23,0-.57.37-.65.63s0,.17.06.21a1.4,1.4,0,0,0,.89.4.36.36,0,0,0,.34-.17c.09-.22-.09-.59-.5-1Zm-.23-1.89c.34.09.44.31.43.49s.18.27.33.26a.33.33,0,0,0,.31-.2.44.44,0,0,0-.1-.49.48.48,0,0,1,0-.55.71.71,0,0,0-.12-.6.6.6,0,0,0-.47-.17,1,1,0,0,0-.91.53c-.08.31.24.57.51.73m18.26,20.4a.74.74,0,0,0,.16-.82.77.77,0,0,0-.7-.42.6.6,0,0,0-.42.16.79.79,0,0,0-.15.87.73.73,0,0,0,.66.37.77.77,0,0,0,.45-.16m.8,0a1.4,1.4,0,0,1-1.23.84,1.45,1.45,0,0,1-1-.49,1.43,1.43,0,0,1-.21-1.53,1.32,1.32,0,0,1,1.16-.64,1.28,1.28,0,0,1,1,.45,1.19,1.19,0,0,1,.3,1.37m-7.23,4.66a.72.72,0,0,0,.15-.82.78.78,0,0,0-.67-.42.63.63,0,0,0-.43.17.79.79,0,0,0-.15.86.74.74,0,0,0,1.1.21m-.53-1.83a1.32,1.32,0,0,1,1,.46,1.2,1.2,0,0,1,.29,1.37,1.36,1.36,0,0,1-1.2.82h0a1.35,1.35,0,0,1-1-.49,1.43,1.43,0,0,1-.19-1.52,1.3,1.3,0,0,1,1.12-.64m35.64,7.12a.73.73,0,0,0,.16-.84.87.87,0,0,0-.76-.47.74.74,0,0,0-.45.17.79.79,0,0,0-.15.89.81.81,0,0,0,.73.41.72.72,0,0,0,.47-.16m-.62-1.94a1.47,1.47,0,0,1,1.15.49,1.27,1.27,0,0,1,.36,1.45,1.45,1.45,0,0,1-1.31.87A1.6,1.6,0,0,1,60.26,74,1.48,1.48,0,0,1,60,72.36a1.45,1.45,0,0,1,1.25-.68M37,67.37a8.44,8.44,0,0,1-2.8-2.44c-.09-.15-.2-.23-.31-.22a.2.2,0,0,0-.18.1.42.42,0,0,0,0,.41,5.42,5.42,0,0,0,3.31,2.55c.12,0,.21,0,.22-.11s-.06-.2-.2-.29m-.17,5.14a12.65,12.65,0,0,0-2.7-.44.21.21,0,0,0-.21.18.26.26,0,0,0,.21.28,11.15,11.15,0,0,1,2.74,1l.12,0s.05,0,.06-.16l0-.57c-.05-.17-.07-.19-.25-.27m-4.87-1.33A3.11,3.11,0,0,0,30,72c-.08.12-.11.21-.08.26s.13.09.26.09a1.8,1.8,0,0,0,.54-.14,2.23,2.23,0,0,1,1.33-.55h.19c.39,0,.51.26.5.44a.37.37,0,0,1-.61.29.3.3,0,0,0-.25-.11l-.22,0a3.68,3.68,0,0,0-.88.38l-.09,0-.21.11a.46.46,0,0,0-.11.07s0,0,.11.11a4.57,4.57,0,0,0,1.4.24,1.33,1.33,0,0,0,1.2-.54,1,1,0,0,0,0-1,1.28,1.28,0,0,0-1.16-.58M21.71,61c-.09,0-.25.09-.25.17s.31.38.83.48a2.72,2.72,0,0,1,1.78.55c.31.27.26.49.23.56a.43.43,0,0,1-.4.26.36.36,0,0,1-.39-.27c0-.16-.11-.28-.41-.39a4.68,4.68,0,0,0-1.1-.28L21.61,62h-.17a.26.26,0,0,0,0,.14c1.08,1.35,1.92,1.54,2.32,1.53a.93.93,0,0,0,.85-.47A1.13,1.13,0,0,0,24.6,62c-.43-.7-1.47-1.07-2.89-1.06m44.64,7.6a5.22,5.22,0,0,0-2.09-.46,2,2,0,0,0-1.37.44,1.17,1.17,0,0,0-.42.91c0,.56.47,1.15,1.48,1.13a4.7,4.7,0,0,0,2.2-.73.61.61,0,0,0,.13-.16s0-.06-.2-.09a3.11,3.11,0,0,1-.44-.08,5.18,5.18,0,0,0-1.28-.15c-.3,0-.44.07-.54.25a.38.38,0,0,1-.3.15.51.51,0,0,1-.49-.38c0-.08,0-.36.43-.54a2.63,2.63,0,0,1,.7-.12,3.5,3.5,0,0,1,1.3.26,4.26,4.26,0,0,0,.47,0c.4,0,.59-.13.61-.2s-.05-.18-.19-.27M59,69.86a5.33,5.33,0,0,0,2.59-.55c.11-.06.23-.16.2-.29a.4.4,0,0,0-.4-.22.62.62,0,0,0-.26.06,11.23,11.23,0,0,1-2.67.36,14,14,0,0,1-1.75-.08c-.24,0-.38.14-.39.26s.13.31.55.36c.84.08,1.53.1,2.13.1m.13,2a.29.29,0,0,1-.13-.3c0-.14.18-.23.47-.31l2.38-.7a.2.2,0,0,0,.14-.22c0-.09-.09-.29-.5-.28h0c-2.26.37-3.46.83-3.59,1.39-.06.32.27.72.95,1.14a.71.71,0,0,0,.31.06.4.4,0,0,0,.36-.16c0-.09,0-.2-.11-.29Zm-.25,1.33-2.18.51a.3.3,0,0,0-.12.37.4.4,0,0,0,.4.33l.11,0,2.06-.48a.29.29,0,0,0,.13-.36.45.45,0,0,0-.4-.35m-24.23-3c-.38-1.11-2.74-2.07-6-2.46-.21,0-.35.09-.37.22s.07.27.31.35a13.76,13.76,0,0,1,5,1.69c.27.21.38.36.39.51a.5.5,0,0,1-.22.35.42.42,0,0,0-.2.34c0,.3.12.35.33.35a2.19,2.19,0,0,0,.31,0,1.22,1.22,0,0,0,.48-1.31M28.82,66.6c.1-.45-.48-1.55-3.29-2.8l-.15,0a.13.13,0,0,0-.15.08.28.28,0,0,0,.11.29l.53.35.27.17a8.47,8.47,0,0,1,1.62,1.22.4.4,0,0,1,.19.34.29.29,0,0,1-.14.24c-.1.16,0,.2,0,.22a1.21,1.21,0,0,0,.62.18.37.37,0,0,0,.41-.27m.5-1.59c.42.17.81.35,1.15.51a5.05,5.05,0,0,0,1.51.54h.17c.43,0,.72-.16.78-.41a.54.54,0,0,0-.33-.59.51.51,0,0,0-.23-.09l0,.08a.46.46,0,0,1-.45.3,1.62,1.62,0,0,1-.38-.06,41.68,41.68,0,0,1-5.43-2.6.61.61,0,0,0-.28-.07.18.18,0,0,0-.19.1l.06.22A25.6,25.6,0,0,0,29.32,65m16.62,18a.73.73,0,0,0,.61-.5,8,8,0,0,0,0-2.44.59.59,0,0,0-.61-.42.56.56,0,0,0-.51.46,4.61,4.61,0,0,0,0,2.55.53.53,0,0,0,.56.35m2.58-.11a.74.74,0,0,0,.51-.23.57.57,0,0,0,.13-.45l0-2a.69.69,0,0,0-.71-.73.61.61,0,0,0-.4.19,1,1,0,0,0-.2.71l0,2.08c0,.3.32.43.62.4M40.7,84.58a.59.59,0,0,0,.44-.2.55.55,0,0,0,0-.55.62.62,0,0,0-.57-.19.86.86,0,0,0-.27,0,.4.4,0,0,0-.31.41.46.46,0,0,0,.39.47,1.82,1.82,0,0,0,.33,0m12.66.16a.7.7,0,0,0,.34-.1.68.68,0,0,0,.39-.6.47.47,0,0,0-.39-.37h-.2a.74.74,0,0,0-.61.48.48.48,0,0,0,0,.43.46.46,0,0,0,.42.16M42,83.63a.7.7,0,0,0,.48-.29,3.74,3.74,0,0,1,1.75-.69.58.58,0,0,0,.36-.65.35.35,0,0,0-.38-.32h0A5.52,5.52,0,0,0,41.27,83a.2.2,0,0,0-.05.23l.55.39a1.1,1.1,0,0,0,.25,0m10.28.08.6-.41.11-.12L52.92,83a5.23,5.23,0,0,0-3.1-1.3s-.09.18,0,.66c0,.21.11.25.21.26a4.41,4.41,0,0,1,2,1c.07.07.11.11.16.1Zm-2.06,4.34a.58.58,0,0,0,.34-.17l.37-.47c.06-.09.09-.15.08-.21s-.12-.18-.22-.25a5.24,5.24,0,0,0-1.32-.65,6.7,6.7,0,0,1-1.28-.58l-.2,0a.82.82,0,0,0-.68.58.45.45,0,0,0,.21.53,22.06,22.06,0,0,1,2.32,1.1.58.58,0,0,0,.38.14M41,87.35a2.18,2.18,0,0,0,1.42-.82,5.12,5.12,0,0,1,2-1.69,7.51,7.51,0,0,0,1.3-.86c.09-.07.13-.13.13-.2s0-.1-.15-.16l-.62-.35a.21.21,0,0,0-.19-.06.88.88,0,0,0-.38.17c-.4.29-.81.55-1.22.81C42,85,40.85,85.74,40.76,87a.46.46,0,0,0,.07.34l.15,0Zm3.46.56c.09,0,.21,0,.3-.3a4.94,4.94,0,0,1,1.76-1.56,7.63,7.63,0,0,0,2.1-1.73c.08-.14.34-.54.28-.65s-.29-.08-.49-.06l-.43,0h-.15a.92.92,0,0,0-.63.38,10.71,10.71,0,0,1-1.72,1.31,9.8,9.8,0,0,0-1.62,1.22c-.36.36-.39.62-.16.87l.49.42a.6.6,0,0,0,.27,0m8.82-1a2.45,2.45,0,0,0,.54-.1.28.28,0,0,0,.15-.13.25.25,0,0,0,0-.19,5.71,5.71,0,0,0-2.84-2,7.89,7.89,0,0,1-1.2-.6.5.5,0,0,0-.29-.1.37.37,0,0,0-.25.19c-.21.24-.41.52-.37.73s.11.22.29.3c.36.18.7.31,1,.45a6.67,6.67,0,0,1,.8.32,3.34,3.34,0,0,1,1,.68,1.55,1.55,0,0,0,.76.45,1.41,1.41,0,0,0,.41,0M36.16,82.25a3.56,3.56,0,0,0-1.92,1.33.49.49,0,0,1-.32.16h-.15c-.05-.07,0-.21,0-.41l.32-.71a.31.31,0,0,0,0-.37.35.35,0,0,0-.33-.21,1.46,1.46,0,0,0-.6-.06A5.46,5.46,0,0,0,31,82.9l-.23.06a.2.2,0,0,1-.22-.11c0-.11,0-.25.21-.39l.6-.6a.39.39,0,0,0,.07-.23c0-.06-.13-.09-.21-.11a10.87,10.87,0,0,0-3.74-.17c-.39,0-.61-.06-.61-.21s.15-.2.39-.23l1.65-.17q.19,0,.24-.09c0-.05,0-.14,0-.22L29,80.09c-.06-.12-.07-.2.09-.33a.73.73,0,0,1,.35.11,4.6,4.6,0,0,0,3,1.09c.12,0,.19,0,.21-.1s0-.1-.12-.27L32.07,80a.38.38,0,0,1-.09-.37l.1-.1h.05a.49.49,0,0,1,.37.25,3.38,3.38,0,0,0,3,1.64h0c.11,0,.27-.06.32-.15s0-.17-.05-.3l-.39-.76a.47.47,0,0,1,0-.45l.08-.08h0c.1,0,.21.07.32.23l.8,1.26a1.32,1.32,0,0,0,1.31.58l.27,0a1.46,1.46,0,0,0,.77-.4.29.29,0,0,1,.2-.11c.13,0,.25.12.3.32a.6.6,0,0,1-.35.68c-.51.12-.76.28-.78.54-.2.62-.6,1-.9,1a.24.24,0,0,1-.23-.09c0-.08-.07-.22.07-.46s.19-.46.11-.6-.47-.32-1.09-.34ZM36,85.41a4.07,4.07,0,0,0,2.45-1.7c.39-.45.69-.8,1-.83a1.28,1.28,0,0,1,.45-.13,1.28,1.28,0,0,0,.81-.31,6.63,6.63,0,0,1,2.57-1.26.86.86,0,0,1,.33,0h.29c.62,0,1-.35,1-.6a.42.42,0,0,0-.34-.47,5.44,5.44,0,0,0-1,0,7.57,7.57,0,0,0-2.26.59,1.78,1.78,0,0,1-.55.16,1.08,1.08,0,0,1-.88-.34c-.66-.58-1.13-.86-1.43-.84-.09,0-.22,0-.31.31s-.37.42-.56.44a.57.57,0,0,1-.49-.32l-.91-1.49q-.2-.62-1.17-.54c-.12,0-.26,0-.39.06a.68.68,0,0,0-.48.23.57.57,0,0,0-.05.44l.32.69a.62.62,0,0,1,.11.52l-.12.1h0a.68.68,0,0,1-.48-.27c-1-1.17-1.85-1.66-2.8-1.59a.36.36,0,0,0-.31.13c-.07.08-.06.21,0,.38l.23.7a.31.31,0,0,1-.1.41.56.56,0,0,1-.32-.12,3.12,3.12,0,0,0-2-.83,1.47,1.47,0,0,0-.68.24c-.12.08-.23.16-.26.25a.42.42,0,0,0,.11.28.36.36,0,0,1,.15.34.51.51,0,0,1-.32.28L25.66,81c-.39.24-.57.43-.59.61s.06.29.26.43a3.8,3.8,0,0,0,2.11.18c.52,0,1.11-.11,1.76-.2.26,0,.4.06.44.17s0,.2-.09.33a2.44,2.44,0,0,1-.8.77l-.12.13a.37.37,0,0,0,.13.26,1.22,1.22,0,0,0,1,.37,2.13,2.13,0,0,0,.56-.15l1.81-.85a.56.56,0,0,1,.24-.07l.16,0,0,0c.06.07.05.19,0,.39l-.75.9c-.13.2-.18.35-.14.47a.6.6,0,0,0,.43.31,4.09,4.09,0,0,0,.7,0,3.84,3.84,0,0,0,2.49-1.27,1.06,1.06,0,0,1,.61-.34.29.29,0,0,1,.26.09.35.35,0,0,1,0,.34l-.58,1a.36.36,0,0,0-.06.33.56.56,0,0,0,.47.19M21.27,76.18a8.36,8.36,0,0,0-.92.15,6.11,6.11,0,0,1-1,.17,1.65,1.65,0,0,1-.69-.06c-.35-.11-.48-.2-.47-.31s.15-.16.41-.19a16.23,16.23,0,0,0,1.9-.47.25.25,0,0,0,.19-.15c0-.09,0-.25-.14-.44a1.4,1.4,0,0,0-1.33-.83l-1.71-.24c-.24,0-.48-.17-.46-.33s0-.15.26-.17h.23l1.67,0s0-.07-.05-.22c-.44-1.13-1-1.76-1.53-1.86-.23,0-.33-.09-.34-.18s.14-.2.29-.27a.47.47,0,0,0,.19-.46.35.35,0,0,1,.17-.37c.12,0,.21.1.27.28.22.49.6,1.14.82,1,.64-1,.51.64.54,1a3,3,0,0,0,1.4,2,.89.89,0,0,0,.27.06s.2,0,.22-.36l.14-.79c0-.27.11-.38.24-.4l.11,0a.54.54,0,0,1,.05.4c-.09,1.62.17,2.56.77,2.88a.89.89,0,0,0,.42.07l.16,0c.26,0,.44.07.72.62.05.1.11.2.06.28s-.12.09-.27.1l-1.41.08c-.28,0-.31-.26-.34-.47a1.07,1.07,0,0,0,0-.23c-.13-.2-.4-.29-.82-.25M26.92,79a.27.27,0,0,0,.24-.18.38.38,0,0,0-.15-.43,5.52,5.52,0,0,1-2.55-4.11c-.08-.26-.19-.35-.27-.34S24,74,24,74.16c-.12.34-.33.49-.49.5a.35.35,0,0,1-.24-.08.51.51,0,0,1-.13-.38c.07-2.12-.1-3-.73-3.55a.93.93,0,0,0-.62-.25c-.18,0-.32.16-.39.44l-.23,1c-.06.41-.27.47-.36.47a.28.28,0,0,1-.25-.1.33.33,0,0,1-.09-.3c.07-1.56.06-3.2-.61-3.58a.68.68,0,0,0-.38-.14s-.17,0-.24.26c-.12.53-.21.86-.43.87s-.32-.14-.58-.45c-.53-.7-.78-.79-.88-.79s-.19.22-.21.59l0,.48c0,.53,0,.84-.16,1a.79.79,0,0,1-.53.2h-.66a.63.63,0,0,0-.57.28.41.41,0,0,0,.19.42l1.66.88c.23.14.36.25.32.37s-.14.14-.41.16l-1.67-.16c-.19,0-.32.07-.36.14a.38.38,0,0,0,.05.32c.4.9,1.71,1.53,3.9,1.86.25.06.35.21.32.33s-.09.18-.32.2l-2.17.27a.26.26,0,0,0-.28.41c.64,1,1.62,1.4,3.2,1.27a5.76,5.76,0,0,0,.73-.09l.25,0c.27,0,.4.11.4.42a.67.67,0,0,0,0,.49.33.33,0,0,0,.22.14,8.32,8.32,0,0,1,1.59-.3,5,5,0,0,1,3.72,1.12.6.6,0,0,0,.34.1m-.47-3.74a1.12,1.12,0,0,0,.95-.46.55.55,0,0,0-.14-.43.64.64,0,0,0-.51-.15,1.32,1.32,0,0,0-.68.28.42.42,0,0,0-.12.44.48.48,0,0,0,.47.32Zm-4.19,5.1a.68.68,0,0,0,.5-.18.5.5,0,0,0,.12-.35c-.09-.54-.3-.79-.66-.76a1.15,1.15,0,0,0-.4.11.7.7,0,0,0-.27.59.68.68,0,0,0,.44.6,1.17,1.17,0,0,0,.27,0m5.68-2.12c.07-.12,0-.46-.22-1a.78.78,0,0,1,.32-.9.48.48,0,0,0,.14-.52.46.46,0,0,0-.51-.28.79.79,0,0,0-.31.08,3.35,3.35,0,0,1-.95.23h-.19a.46.46,0,0,0-.45.38.51.51,0,0,0,.35.6,1.53,1.53,0,0,1,.95.79c.33.5.64.71.8.7Zm-4.11,2.39a.79.79,0,0,0,.62-.46,1.48,1.48,0,0,1,1.34-.78h.05l.34,0s0-.13-.15-.27a1.3,1.3,0,0,0-1-.2A1.52,1.52,0,0,1,24,78.47a.76.76,0,0,0-.46-.13.48.48,0,0,0-.38.23.7.7,0,0,0,.07.74,2.21,2.21,0,0,1,.21,1,.39.39,0,0,0,.44.32M11.24,65.71c.32-.07.71-.22.72-.53,0-.54-1.07-1.39-2.63-1.48-.28,0-.37-.16-.35-.27a.25.25,0,0,1,.25-.22l.16,0a2.91,2.91,0,0,0,1,.14c.31,0,.49-.15.51-.37.08-.62-1-1.73-2.5-1.86-.26,0-.33-.17-.32-.26a.25.25,0,0,1,.23-.17l.18,0a2.56,2.56,0,0,0,.74.08l.12,0c.05-.11-.43-.56-.71-.83l-.13-.11a.37.37,0,0,1-.08-.43.35.35,0,0,1,.27-.2.33.33,0,0,1,.26.11c.3.35.54.6.72.59s.25-.17.45-.52a.28.28,0,0,1,.23-.2l.13,0a.43.43,0,0,1,0,.36,1.79,1.79,0,0,0,.05,1.81c.29.46.72,1,1,1s.38-.47.6-1c.14-.33.29-.71.49-1.13a.36.36,0,0,1,.29-.25H13c.07.08,0,.25,0,.38-.27.75-.55,1.53-.8,2.25a1.69,1.69,0,0,0,0,1.49.66.66,0,0,0,.63.25,1,1,0,0,0,.34-.07.41.41,0,0,1,.2-.06l.16,0,0,0a.43.43,0,0,1-.13.37c-.5.61-.6,1-.31,1.39a.3.3,0,0,1,.06.32l-.11.1H13a.31.31,0,0,1-.28-.12c-.27-.33-.85-.32-1.52-.29-.15,0-.26-.1-.25-.21s.07-.16.22-.18Zm5,4.1a.24.24,0,0,0,.23-.15c.07-.13,0-.33-.18-.47C14,68,13.55,66.1,14.79,63.66a1.34,1.34,0,0,0,.05-1.25.26.26,0,0,0-.24-.12.86.86,0,0,0-.51.37.7.7,0,0,1-.4.23.31.31,0,0,1-.26-.12.57.57,0,0,1,0-.55c.48-1.47.57-2.48.26-3a.94.94,0,0,0-.67-.45,1.15,1.15,0,0,0-.31,0c-.45,0-.73.48-.84,1.39-.13.36-.36.62-.57.64l-.17,0,0,0a.47.47,0,0,1-.05-.44c.42-1.16.41-1.87,0-2.12a.75.75,0,0,0-.34-.1c-.23,0-.39.26-.5.72s-.27.45-.39.46-.49-.28-.58-.58-.31-.36-.48-.34a.56.56,0,0,0-.28.1,1.14,1.14,0,0,1-.74.38,1.55,1.55,0,0,1-.41,0,.63.63,0,0,0-.45.17.48.48,0,0,0,.07.43c.27.26.39.53.31.7a.31.31,0,0,1-.24.15,1,1,0,0,1-.44-.11,1.06,1.06,0,0,0-.3,0,.43.43,0,0,0-.37.2.62.62,0,0,0,0,.6,3.65,3.65,0,0,0,1.68,1.06c.39.16.42.25.41.33s-.19.13-.26.13h-.6c-.19,0-.31.05-.36.13s0,.2,0,.4c.11.83,1.09,1.36,3.1,1.7.29.07.46.22.43.38s0,.16-.33.18H9.28a.39.39,0,0,0-.27.09s0,.11.08.28a4.05,4.05,0,0,0,2.68,1.21A2.22,2.22,0,0,1,13.43,68a8.05,8.05,0,0,0,2.5,1.8.78.78,0,0,0,.29,0m-.48-1.34c.16,0,.34-.22.37-.64a1.1,1.1,0,0,1,.94-1.29.38.38,0,0,0,.21-.42.49.49,0,0,0-.47-.4,4.23,4.23,0,0,1-1.39-.3.85.85,0,0,0-.22,0,.43.43,0,0,0-.35.19.73.73,0,0,0,.08.69c.31.25.48.86.58,1.93,0,.16.13.26.25.25m.81-3.41c.34,0,.52-.15.58-.37A.71.71,0,0,0,17,64.1a.68.68,0,0,0-.53-.14l-.35.06a.64.64,0,0,0-.42.58c0,.24.23.41.57.46h.31m-5.44,4.56a.69.69,0,0,0,.48-.28.81.81,0,0,0,.06-.65.55.55,0,0,0-.58-.47.63.63,0,0,0-.48.29.83.83,0,0,0-.05.81.53.53,0,0,0,.57.3m1.25.78a.87.87,0,0,0,.62-.34.62.62,0,0,1,.48-.27,1.68,1.68,0,0,1,.85.21,2.07,2.07,0,0,0,.25,0c.15,0,.25-.06.27-.12s-.16-.42-.84-.75a1.46,1.46,0,0,1-.88-.84.55.55,0,0,0-.52-.28.6.6,0,0,0-.54.61,4,4,0,0,1-.2,1.29.35.35,0,0,0,0,.33.53.53,0,0,0,.47.16M5.42,49h0c.08,0,.22,0,.67.43a.34.34,0,0,0,.25.11c.14,0,.21-.23.25-.41l.19-1.27A1.15,1.15,0,0,1,7,47,1.4,1.4,0,0,1,8,46.54c.13,0,.32,0,.38.11s-.06.28-.21.46a2.5,2.5,0,0,0-.84,1.57.39.39,0,0,0,0,.3.15.15,0,0,0,.14,0L7.67,49c.37,0,.52,0,.55.13s-.1.27-.88.74c-.36.22-.49.31-.47,1.08,0,.59.16.75.51.72a1.32,1.32,0,0,0,.26,0,1.1,1.1,0,0,1,.29-.1l.11,0,0,.05c0,.08,0,.23-.71,1C7,52.82,7,53,7,53.05s.12.16.31.22a.67.67,0,0,1,.36.73.32.32,0,0,1-.29.23,1,1,0,0,1-.72-.36l-.06-.53c.2-.45,0-.58-.42-.74a1.26,1.26,0,0,1-.47-.27s-.17-.17-.12-.31.24-.16.36-.18a.47.47,0,0,0,.34-.28c.19-.47-.34-1.38-.83-2.13-.13-.26-.13-.36-.1-.42Zm3.33,8.89a.24.24,0,0,0,.18-.13A.64.64,0,0,0,8.76,57c-.69-1.74-.73-2.82-.16-3.3.2-.33.2-.58,0-.77a.37.37,0,0,1-.12-.35c0-.11.14-.19.33-.27s.52-.38.86-.89c.56-.53.66-1,.57-1.22A.43.43,0,0,0,9.75,50a1.82,1.82,0,0,0-.85.38.55.55,0,0,1-.29.11.26.26,0,0,1-.32-.24.39.39,0,0,1,.3-.42c1.56-.76,2.2-1.46,2.06-2.32,0-.28-.11-.42-.24-.41a.47.47,0,0,0-.27.13,2.6,2.6,0,0,1-.89.37c-.12,0-.18,0-.19-.08s0-.26.2-.56a2,2,0,0,0,.67-2c-.11-.35-.26-.38-.37-.37a.83.83,0,0,0-.35.15,1.68,1.68,0,0,1-1,.59.8.8,0,0,1-.57-.17.81.81,0,0,0-.36-.08c-.66.07-.88,1.25-1,2.23,0,.14,0,.54-.27.56s-.31,0-.72-.66a.18.18,0,0,0-.17-.1c-.09,0-.29.1-.62.49A1.16,1.16,0,0,0,4.39,49L5,50c.1.26.12.43,0,.56a.24.24,0,0,1-.21.12.51.51,0,0,1-.2,0,1.75,1.75,0,0,0-.83-.25.26.26,0,0,0-.21.1c-.06.1-.11.32.05.88s.61,1,1.44,1.19a.86.86,0,0,1,.63,1c0,.25.08.61.88.93.53.19,1,.65,1.27,2.29a1.4,1.4,0,0,0,.73,1l.2.06M11.18,54a1,1,0,0,0,.52-.2.64.64,0,0,0,0-.6c-.09-.17-.35-.25-.78-.27a.57.57,0,0,0-.53.4.44.44,0,0,0,.19.54,1,1,0,0,0,.57.13M4.26,56a.74.74,0,0,0,.56-.39.89.89,0,0,0-.05-.79.48.48,0,0,0-.42-.13.93.93,0,0,0-.22,0,.74.74,0,0,0-.47.53.59.59,0,0,0,.15.64.88.88,0,0,0,.45.1m3.18,1.36a.46.46,0,0,0-.08-.47L6.64,56l-.17-.55a.58.58,0,0,0-.61-.52.59.59,0,0,0-.45.29,10,10,0,0,1-.68,1.26.47.47,0,0,0,0,.45.48.48,0,0,0,.44.16A2.22,2.22,0,0,0,5.57,57a.55.55,0,0,1,.38-.2c.35,0,.72.22,1.17.6a.41.41,0,0,0,.2.06ZM9.66,57s.11,0,.26-.31c.22-.7.56-1.07,1-1.11s.55-.19.59-.41a.54.54,0,0,0-.46-.54A11.35,11.35,0,0,1,9.88,54l-.16,0a.48.48,0,0,0-.36.27.58.58,0,0,0,0,.57,1.18,1.18,0,0,1,.09,1,2.15,2.15,0,0,0,0,.91c.12.26.2.28.24.27M67.74,76.38a.53.53,0,0,0,.5-.74.63.63,0,0,1,.19-.81,1.18,1.18,0,0,0,0-1.14,1,1,0,0,0-.87-.32,1.23,1.23,0,0,0-1,.57,1,1,0,0,0,.22,1c.38.26.5.53.38.82a.5.5,0,0,0,.07.44.58.58,0,0,0,.51.17m11-9.38a.75.75,0,0,0,.61-.44.48.48,0,0,0-.19-.55.59.59,0,0,1-.23-.76c-.1-.69-.43-1-.94-1a1.38,1.38,0,0,0-1.14,1c-.08.4.18.72.68.92q.69,0,.75.51a.41.41,0,0,0,.46.35m5.86-12.3a.68.68,0,0,0,.56-.52.48.48,0,0,0-.34-.57c-.3-.09-.35-.32-.41-.53l0-.13c-.23-.52-.55-.78-.93-.75a1.29,1.29,0,0,0-1,1.09c0,.28.06.74.85.87l.21,0a.57.57,0,0,1,.65.3.49.49,0,0,0,.46.27M70.42,80.46a1.34,1.34,0,0,0,1.06-1.26c0-.49-.39-.74-1-.72a1.89,1.89,0,0,1-.36.09.57.57,0,0,1-.56-.25.42.42,0,0,0-.4-.19.73.73,0,0,0-.6.59.45.45,0,0,0,.39.5.6.6,0,0,1,.53.61,1.13,1.13,0,0,0,1,.63M82.85,69.21a.78.78,0,0,0,.65-.44,1.19,1.19,0,0,0,0-1.17.7.7,0,0,0-.67-.33,1.59,1.59,0,0,0-.56.18,1,1,0,0,1-.59.35.64.64,0,0,1-.28-.06h-.2a.6.6,0,0,0-.56.62.44.44,0,0,0,.14.32.52.52,0,0,0,.4.12l.15,0,.19,0a.63.63,0,0,1,.58.29,1.48,1.48,0,0,0,.8.19m6.26-13.59a.73.73,0,0,0,.63-.39,1.24,1.24,0,0,0-.1-1.23.67.67,0,0,0-.64-.35,1.23,1.23,0,0,0-.71.37.84.84,0,0,1-.61.48l-.2,0h-.15a.46.46,0,0,0-.37.18.67.67,0,0,0-.12.39.5.5,0,0,0,.6.49,1,1,0,0,0,.2,0,.8.8,0,0,1,.37-.11.77.77,0,0,1,.57.17,1.49,1.49,0,0,0,.53.06m-31.44,28A7.6,7.6,0,0,0,59.74,83c.44-.16.92-.35,1.46-.53,1.95-.71,4.36-1.7,5.62-3a1.3,1.3,0,0,0,.23-.4,1.52,1.52,0,0,0-.22,0H66.6a14.77,14.77,0,0,0-5.4,2.37,9.22,9.22,0,0,1-3.21,1,4.79,4.79,0,0,1-.76,0c-.34,0-.54-.14-.54-.32s.56-.52,1.49-.64a1.31,1.31,0,0,0,.28,0,10.38,10.38,0,0,0,3.25-1.27c.66-.33,1.37-.69,2.12-1a4.45,4.45,0,0,1,1.61-.47h.29c.62-.07.74-.22.74-.25s-.12-.12-.39-.11l-.92,0c-2.7.22-5.21,1.28-8.12,2.52l-.59.24a2.43,2.43,0,0,1-1,.35,2,2,0,0,1-.86-.13,20.66,20.66,0,0,0-4.51-1.29.5.5,0,0,0-.43.49.44.44,0,0,0,.36.52,8.94,8.94,0,0,1,3.89,1.08,11.79,11.79,0,0,0,2.85,1.37,3.07,3.07,0,0,0,1,.09m2.52,1.59.46,0a37.41,37.41,0,0,0,6.67-2.71c.24-.12.29-.21.29-.25s-.08-.08-.26-.08a1.93,1.93,0,0,0-.34,0,7.3,7.3,0,0,0-2.59,1A15.41,15.41,0,0,1,61,84.45c-.21,0-.35,0-.37-.16s.14-.3.45-.41l5.1-2c.13-.06.2-.14.18-.21s-.21-.18-.64-.15a11,11,0,0,0-2.94,1.06A15.81,15.81,0,0,1,58,84.13a4.09,4.09,0,0,1-1.38-.1c.55,1,1.7,1.32,3.57,1.17m-4.41-4.15a1.18,1.18,0,0,0,.6-.19,39.91,39.91,0,0,1,4.94-2.13,11.23,11.23,0,0,1,1.84-.49c.37-.07.74-.15,1.12-.26a.34.34,0,0,0,.28-.4.27.27,0,0,0-.33-.26h0c-.28.08-.53.17-.76.25a7.27,7.27,0,0,1-1.37.38,3.35,3.35,0,0,0-1.31.49,3.18,3.18,0,0,1-.94.39l-1,.25-.17,0c-.23,0-.29-.06-.3-.13,0-.23.51-.51,1-.66l1.93-.54a4.12,4.12,0,0,1,2.17-.87,2.69,2.69,0,0,1,.49,0h.22s0-.08-.28-.27a2,2,0,0,0-1.13-.21,4.76,4.76,0,0,0-1.93.69,3.59,3.59,0,0,1-1.14.35,1.92,1.92,0,0,0-.82.29A15.82,15.82,0,0,0,57.27,79a5.21,5.21,0,0,1-2.77,1.54h-.08c.15.37.82.56,1.36.52M68,78a.69.69,0,0,0,.52-.32c.5-.79,1.64-1.37,3.46-1.76a18,18,0,0,0,4.86-3.52c1.36-1.09,2-2.16,2-3.19a2.78,2.78,0,0,0,0-.67s-.06,0-.17.24a7.72,7.72,0,0,1-2.73,3,12.72,12.72,0,0,0-3.38,3c-.54.39-.71.44-.8.45l-.11,0,0,0c0-.08,0-.21.14-.46.61-1.11,2.41-2.49,4.08-3.7s2.37-2,2.58-2.9a1.2,1.2,0,0,0,0-.28s-.09,0-.36.3c-.73.6-1.45,1.16-2.12,1.68a18.83,18.83,0,0,0-3.77,3.43,12.54,12.54,0,0,1-3.4,3c-.61.4-1,.7-1.16,1a.4.4,0,0,0-.14.45A.51.51,0,0,0,68,78m6-1.19a9.79,9.79,0,0,0,1.89-.31,14.93,14.93,0,0,0,3.33-2.88c1-.89,1.38-1.62,1.23-2.16,0-.16-.07-.24-.12-.23s-.07,0-.17.16A17,17,0,0,1,75.38,76a.84.84,0,0,1-.23.07c-.12,0-.21,0-.23-.13s.1-.37.37-.54l.43-.31a11.62,11.62,0,0,0,3.82-3.82.3.3,0,0,0-.05-.24l-.19-.06a.72.72,0,0,0-.45.24,14,14,0,0,1-7.35,5.35c-.24.08-.3.2-.29.27s.1.14.36.12h0c.38,0,.77,0,1.17-.06s.82,0,1.22-.07m-4.13-1.88a3.5,3.5,0,0,0,1.42-1.36A9.17,9.17,0,0,1,73.49,71a3,3,0,0,0,1.31-1.63c.09-.33,0-.41,0-.44s-.14,0-.36.22A15.37,15.37,0,0,0,71.87,72a1.14,1.14,0,0,1-.61.39l-.15,0,0,0c-.06-.09,0-.25.1-.48l1.27-1.39c.54-.59,1.06-1.06,1.48-1.45.76-.67,1.25-1.12,1.23-1.62,0-.28-.09-.32-.09-.32s0,0-.12.12a29.62,29.62,0,0,1-3.44,3.21,3.61,3.61,0,0,0-1.42,2.12,9.78,9.78,0,0,1-.4,2c0,.17,0,.29,0,.34s.08.06.16.06m9.82-6.71a.77.77,0,0,0,.42-.23,8.54,8.54,0,0,0,1.68-2.31,3.45,3.45,0,0,1,1-1.12,5.2,5.2,0,0,0,1-1,16.09,16.09,0,0,0,2.46-7.22c0-.53-.1-.55-.12-.54s-.12,0-.35.39a21.4,21.4,0,0,0-1.33,3.33A15.87,15.87,0,0,1,82.41,64a.82.82,0,0,1-.36.21l-.11,0,0,0c-.06-.08,0-.23,0-.48a28.14,28.14,0,0,1,1.26-2.83A32.55,32.55,0,0,0,84.88,57c.1-.35.05-.41.05-.41a1,1,0,0,0-.36.26,22,22,0,0,0-3,5.81l-.33.84a7.54,7.54,0,0,1-1.8,4.1.48.48,0,0,0,0,.49.29.29,0,0,0,.27.15m.59-3.38c.18,0,.28-.62.41-1.32a4.54,4.54,0,0,1,.76-2.14,20.83,20.83,0,0,0,2-4.27.46.46,0,0,0-.1-.39l-.14-.06a.53.53,0,0,0-.33.22,7.81,7.81,0,0,0-1.08,2.26A15.68,15.68,0,0,1,80.5,62c-.08.11-.19.25-.31.25l-.13,0,0,0c-.11-.16,0-.54.21-1a3,3,0,0,1,.4-.65,4.39,4.39,0,0,0,.8-1.75,3.22,3.22,0,0,1,.86-1.85.2.2,0,0,0-.08-.29.73.73,0,0,0-.39.23C80,58.93,78.18,62,80,64.67c.13.13.2.15.25.15m2.43,1.07a2.16,2.16,0,0,0,.66-.21c.27-.12.54-.19.81-.28s.49-.15.74-.25a4.33,4.33,0,0,0,1.13-.7,12.79,12.79,0,0,0,1.75-3.63,19.72,19.72,0,0,1,.76-2c.19-.43.14-.5.12-.5a1,1,0,0,0-.37.2,10.6,10.6,0,0,0-1.7,3.28,5.57,5.57,0,0,1-1.23,2.31,1,1,0,0,1-.33.12l-.12,0,0,0c0-.09,0-.24.2-.52a7.56,7.56,0,0,0,1.26-2.42,8.05,8.05,0,0,1,1.31-2.47c.3-.39.33-.49.32-.51a1.94,1.94,0,0,0-.5.19c-1.09.61-1.64,1.52-2,3.3a10,10,0,0,1-2.79,3.7c-.17.29-.14.38-.13.4l.13,0m2.67-13.81c.07,0,.12-.07.18-.2a1.82,1.82,0,0,0-.11-1.39,4.11,4.11,0,0,1-.11-2c.19-1.33,0-1.77-.27-2a.48.48,0,0,0-.25-.08h0s0,.06,0,.25a1.82,1.82,0,0,1-.05.81,4,4,0,0,0,.2,2.59.32.32,0,0,1,0,.3l-.11.09h0c-.1,0-.25,0-.35-.27a5.5,5.5,0,0,1-.17-3.42A1.4,1.4,0,0,0,84,45.18l-.13-.08c0,.08,0,.18-.1.33-.77,3.19-.37,5.26,1.29,6.49a.46.46,0,0,0,.3.16m.38,3.38a.45.45,0,0,0,.39-.47,2.37,2.37,0,0,1,.19-1.49,7,7,0,0,1,1-1.71,11.94,11.94,0,0,0,.95-1.55,10.89,10.89,0,0,0,.56-3.81c0-1.14-.27-1.42-.52-1.63s-.23-.14-.23-.14,0,0,0,.24a3.12,3.12,0,0,1-.26,2.24,6.18,6.18,0,0,0-.35,3.22c0,.37-.19.52-.36.53a.29.29,0,0,1-.25-.09.41.41,0,0,1-.12-.32A7.84,7.84,0,0,1,87,47.23a3.3,3.3,0,0,0,.5-2.35c0-.24-.12-.36-.21-.35s-.16,0-.32.2c-.78.81-1.1,2.61-1,5.69a8.33,8.33,0,0,1-.31,2.47A10.53,10.53,0,0,0,85.34,55a.43.43,0,0,0,.09.39.44.44,0,0,0,.3.11m1.38-1.89a1.9,1.9,0,0,0,.77-.38L90.21,51a2.47,2.47,0,0,0,.56-1.83,2.71,2.71,0,0,1,.17-1.36,1.92,1.92,0,0,0-.52-1.94c-.19-.2-.26-.24-.27-.24a.55.55,0,0,0,0,.19,5,5,0,0,1,0,2.84,3.58,3.58,0,0,0-.43,1.86c0,.26-.14.38-.27.39l-.12,0,0,0a.46.46,0,0,1-.08-.36l.28-1.43.37-2.14c.17-.63-.08-.87-.35-1l-.15,0h0s-.06.1,0,.36c0,2.45-.21,3.8-.57,4.27l-1.65,2.6c-.13.33-.11.43-.08.47h.07"/><rect class="cls-1" x="97.34" y="47.26" width="246.31" height="0.6"/><path class="cls-1" d="M111.24,26.41a6.19,6.19,0,0,1,2,5.1q0,3.45-2.08,5t-6.38,1.59h-2.57v5.19H97.93V24.75h6.83C107.73,24.75,109.89,25.31,111.24,26.41Zm-3.16,7.31a3.51,3.51,0,0,0,.77-2.45,2.55,2.55,0,0,0-1-2.28,5.74,5.74,0,0,0-3.14-.68h-2.46v6.25h2.91A4,4,0,0,0,108.08,33.72Z"/><path class="cls-1" d="M132.9,40.76a10.84,10.84,0,0,1-14.43,0,9,9,0,0,1-2.93-6.84,9,9,0,0,1,2.93-6.84,10.84,10.84,0,0,1,14.43,0,9,9,0,0,1,2.93,6.84A9,9,0,0,1,132.9,40.76Zm-1.46-6.83a5.94,5.94,0,0,0-1.66-4.24,5.63,5.63,0,0,0-8.16,0,6.26,6.26,0,0,0,0,8.47,5.65,5.65,0,0,0,8.16,0A5.89,5.89,0,0,0,131.44,33.93Z"/><path class="cls-1" d="M154.25,27.18A8.55,8.55,0,0,1,157,34a9,9,0,0,1-2.69,6.85c-1.8,1.68-4.54,2.53-8.23,2.53h-6.61V24.75h6.83C149.76,24.75,152.4,25.56,154.25,27.18Zm-3.17,11a5.31,5.31,0,0,0,1.59-4.17,5.46,5.46,0,0,0-1.59-4.21,7,7,0,0,0-4.88-1.47h-2.4V39.66h2.73A6.54,6.54,0,0,0,151.08,38.22Z"/><path class="cls-1" d="M174.68,24.75v3.69h-9.62v3.83h8.65v3.54h-8.65v3.85H175v3.67H160.74V24.75Z"/><path class="cls-1" d="M194.5,30.92c0,3-1.22,4.89-3.68,5.76l4.9,6.65h-5.31l-4.29-5.93h-3v5.93h-4.31V24.75h7.32q4.51,0,6.43,1.46A5.56,5.56,0,0,1,194.5,30.92Zm-5.2,2.2a2.72,2.72,0,0,0,.81-2.19,2.31,2.31,0,0,0-.83-2.06,5.53,5.53,0,0,0-2.91-.56h-3.23v5.5h3.15A4.77,4.77,0,0,0,189.3,33.12Z"/><path class="cls-1" d="M206.94,28.31V24.75H217V36.87a6,6,0,0,1-6.36,6.62,8.39,8.39,0,0,1-6.09-2.58l2.24-3a5.08,5.08,0,0,0,3.65,1.81,2.12,2.12,0,0,0,1.57-.68,2.84,2.84,0,0,0,.65-2V28.31Z"/><path class="cls-1" d="M226.71,38.53a3.59,3.59,0,0,0,2.9,1.29,3.55,3.55,0,0,0,2.89-1.29A5.36,5.36,0,0,0,233.57,35V24.75h4.31V35.14a8.09,8.09,0,0,1-2.32,6.21,9.24,9.24,0,0,1-11.9,0,8,8,0,0,1-2.34-6.19V24.75h4.31V35A5.31,5.31,0,0,0,226.71,38.53Z"/><path class="cls-1" d="M257.12,27.18A8.53,8.53,0,0,1,259.89,34a8.93,8.93,0,0,1-2.7,6.85c-1.8,1.68-4.54,2.53-8.22,2.53h-6.61V24.75h6.83C252.63,24.75,255.28,25.56,257.12,27.18Zm-3.16,11a5.31,5.31,0,0,0,1.59-4.17A5.46,5.46,0,0,0,254,29.84a7,7,0,0,0-4.88-1.47h-2.41V39.66h2.74A6.55,6.55,0,0,0,254,38.22Z"/><path class="cls-1" d="M263.62,24.75h4.31V43.33h-4.31Z"/><path class="cls-1" d="M281.56,39.66a6.48,6.48,0,0,0,5.2-2.42L289.52,40a10.72,10.72,0,0,1-15.11.85A9,9,0,0,1,271.53,34a9.07,9.07,0,0,1,2.94-6.9,10.13,10.13,0,0,1,7.2-2.76,10.41,10.41,0,0,1,8,3.48L287,30.73a6.36,6.36,0,0,0-5.08-2.44,6,6,0,0,0-4.16,1.52A5.21,5.21,0,0,0,276,33.93a5.47,5.47,0,0,0,5.58,5.73Z"/><path class="cls-1" d="M292.93,24.75h4.31V43.33h-4.31Z"/><path class="cls-1" d="M315.76,43.33l-1.8-4h-8.1l-1.79,4h-4.59l8.35-18.58H312l8.35,18.58Zm-5.83-13-2.43,5.39h4.83Z"/><path class="cls-1" d="M322.59,43.33V24.75h4.31V39.63h8.24v3.7Z"/><path class="cls-1" d="M106.64,52.7h4.13a6.25,6.25,0,0,1,2.69.56,4.31,4.31,0,0,1,1.82,1.6,4.68,4.68,0,0,1,0,4.76,4.22,4.22,0,0,1-1.82,1.59,6.11,6.11,0,0,1-2.69.57h-4.13Zm4,7.65a4.24,4.24,0,0,0,1.83-.38,2.79,2.79,0,0,0,1.21-1.09,3.34,3.34,0,0,0,0-3.28,2.73,2.73,0,0,0-1.21-1.09,4.1,4.1,0,0,0-1.83-.38H108.4v6.22Z"/><path class="cls-1" d="M127.77,60.36v1.42h-7.08V52.7h6.89v1.41h-5.14v2.36H127v1.39h-4.56v2.5Z"/><path class="cls-1" d="M132.63,52.7h1.75v7.65h4.94v1.43h-6.69Z"/><path class="cls-1" d="M157.31,60.36v1.42h-7.08V52.7h6.89v1.41H152v2.36h4.56v1.39H152v2.5Z"/><path class="cls-1" d="M163,61.61a4.57,4.57,0,0,1-1.61-.79l.61-1.31a5.11,5.11,0,0,0,1.42.72,5.55,5.55,0,0,0,1.7.28,3,3,0,0,0,1.57-.33,1,1,0,0,0,.52-.85.84.84,0,0,0-.29-.65,2.16,2.16,0,0,0-.74-.39c-.3-.1-.7-.2-1.21-.33a13.22,13.22,0,0,1-1.75-.49,2.82,2.82,0,0,1-1.15-.77,2,2,0,0,1-.48-1.42,2.39,2.39,0,0,1,.43-1.37,2.9,2.9,0,0,1,1.28-1,5.42,5.42,0,0,1,2.1-.36,7,7,0,0,1,1.7.21,5,5,0,0,1,1.44.59L168,54.68a5.83,5.83,0,0,0-1.3-.53,5,5,0,0,0-1.31-.18,2.77,2.77,0,0,0-1.54.34,1,1,0,0,0-.51.89.8.8,0,0,0,.3.64,2.19,2.19,0,0,0,.73.39c.3.09.7.2,1.21.32a13.26,13.26,0,0,1,1.73.49,2.92,2.92,0,0,1,1.15.77,2,2,0,0,1,.48,1.4,2.35,2.35,0,0,1-.42,1.36,2.85,2.85,0,0,1-1.29,1,5.3,5.3,0,0,1-2.1.37A7.49,7.49,0,0,1,163,61.61Z"/><path class="cls-1" d="M175.33,54.13H172.2V52.7h8v1.43h-3.13v7.65h-1.76Z"/><path class="cls-1" d="M190.09,59.68h-4.72l-.93,2.1h-1.81l4.25-9.08h1.73l4.26,9.08H191Zm-.58-1.33-1.78-4-1.77,4Z"/><path class="cls-1" d="M197,52.7h4.13a6.2,6.2,0,0,1,2.68.56,4.31,4.31,0,0,1,1.82,1.6,4.68,4.68,0,0,1,0,4.76,4.22,4.22,0,0,1-1.82,1.59,6.06,6.06,0,0,1-2.68.57H197Zm4,7.65a4.18,4.18,0,0,0,1.83-.38,2.88,2.88,0,0,0,1.22-1.09,3.41,3.41,0,0,0,0-3.28,2.81,2.81,0,0,0-1.22-1.09,4,4,0,0,0-1.83-.38h-2.29v6.22Z"/><path class="cls-1" d="M212.81,61.3A4.52,4.52,0,0,1,211,59.63a4.66,4.66,0,0,1,0-4.78,4.55,4.55,0,0,1,1.82-1.68,5.57,5.57,0,0,1,2.6-.6,5.64,5.64,0,0,1,2.61.6,4.66,4.66,0,0,1,1.82,1.67,4.69,4.69,0,0,1,0,4.8A4.56,4.56,0,0,1,218,61.3a5.52,5.52,0,0,1-2.61.61A5.45,5.45,0,0,1,212.81,61.3Zm4.3-1.28a3,3,0,0,0,1.19-1.14,3.34,3.34,0,0,0,0-3.28,3,3,0,0,0-1.19-1.14,3.73,3.73,0,0,0-3.4,0,2.94,2.94,0,0,0-1.18,1.14,3.28,3.28,0,0,0,0,3.28A2.94,2.94,0,0,0,213.71,60a3.73,3.73,0,0,0,3.4,0Z"/><path class="cls-1" d="M231.88,52.7H236a6.25,6.25,0,0,1,2.69.56,4.54,4.54,0,0,1,1.82,6.36,4.28,4.28,0,0,1-1.82,1.59,6.11,6.11,0,0,1-2.69.57h-4.13Zm4.05,7.65a4.24,4.24,0,0,0,1.83-.38A2.85,2.85,0,0,0,239,58.88a3.34,3.34,0,0,0,0-3.28,2.79,2.79,0,0,0-1.21-1.09,4.1,4.1,0,0,0-1.83-.38h-2.29v6.22Z"/><path class="cls-1" d="M253,60.36v1.42h-7.08V52.7h6.89v1.41h-5.14v2.36h4.56v1.39h-4.56v2.5Z"/><path class="cls-1" d="M270.51,53.09a3.13,3.13,0,0,1,1.4,1.11,3.06,3.06,0,0,1-1.4,4.57,5.41,5.41,0,0,1-2.14.39h-2.13v2.62h-1.75V52.7h3.88A5.41,5.41,0,0,1,270.51,53.09ZM270,57.26a1.58,1.58,0,0,0,.6-1.33,1.6,1.6,0,0,0-.6-1.34,2.76,2.76,0,0,0-1.74-.46h-2.05v3.6h2.05A2.7,2.7,0,0,0,270,57.26Z"/><path class="cls-1" d="M278,60.85a4,4,0,0,1-1.09-3V52.7h1.76v5.06q0,2.67,2.4,2.67c1.59,0,2.38-.89,2.38-2.67V52.7h1.73v5.12a4,4,0,0,1-1.09,3,4.18,4.18,0,0,1-3,1.06A4.24,4.24,0,0,1,278,60.85Z"/><path class="cls-1" d="M297.66,60.36v1.42h-7.08V52.7h6.89v1.41h-5.14v2.36h4.56v1.39h-4.56v2.5Z"/><path class="cls-1" d="M310.45,57.88a2.27,2.27,0,0,1,.46,1.43,2.06,2.06,0,0,1-1,1.82,4.88,4.88,0,0,1-2.75.65h-4.7V52.7h4.43a4.51,4.51,0,0,1,2.58.63,2,2,0,0,1,.9,1.73,2.17,2.17,0,0,1-1.21,2A2.52,2.52,0,0,1,310.45,57.88ZM304.27,54v2.51h2.48a2.63,2.63,0,0,0,1.41-.32,1,1,0,0,0,.49-.93,1,1,0,0,0-.49-.94,2.63,2.63,0,0,0-1.41-.32Zm4.87,5.12c0-.87-.68-1.3-2-1.3h-2.83v2.61h2.83C308.46,60.45,309.14,60,309.14,59.14Z"/><path class="cls-1" d="M315.68,52.7h1.75v7.65h4.94v1.43h-6.69Z"/><path class="cls-1" d="M332.84,59.68h-4.72l-.93,2.1h-1.81l4.25-9.08h1.73l4.26,9.08h-1.84Zm-.58-1.33-1.78-4-1.77,4Z"/></svg>