<svg id="Capa_1" data-name="Capa 1" xmlns="http://www.w3.org/2000/svg" viewBox="0 0 369.5 66.09"><defs><style>.cls-1{fill:#353535;}</style></defs><path class="cls-1" d="M30.39,35.5c-2.46,1.42-3.72,1.19-5.73-1a2.5,2.5,0,0,0-1.27,2.5,4.18,4.18,0,0,1-2.74,4.26,4.43,4.43,0,0,1-5.12-.89c-1.71-1.61-3.34-3.31-5-5s-3.28-3.25-4.9-4.9a4.65,4.65,0,0,1-1.14-5.38,4.79,4.79,0,0,1,4.73-2.82,2.28,2.28,0,0,0,1.49-.6Q17.12,15.45,23.42,9A2.5,2.5,0,0,0,24,7.43a4.68,4.68,0,0,1,2.71-4.56A4.49,4.49,0,0,1,32,3.79q5.07,5,10.05,10.05A4.39,4.39,0,0,1,43,19a4.16,4.16,0,0,1-4.24,2.76A2.53,2.53,0,0,0,36.23,23c2.13,2.08,2.36,3.36.88,5.84.24.16.54.34.81.56q11.86,10.35,23.72,20.7a7.06,7.06,0,1,1-10,9.85Q45,52.35,38.46,44.76Zm-5-24.81-13,13,9.76,9.75,13-13ZM49.81,42.86,35.55,30.43,32,33.8,44.53,48.14Zm-.41,10.9c1.51,1.71,2.94,3.48,4.51,5.11a4.6,4.6,0,0,0,6.47.09,4.45,4.45,0,0,0,.43-6.34c-1.68-1.77-3.62-3.31-5.38-4.89ZM41,16.63a7,7,0,0,0-1-1.5C37,12,33.82,8.87,30.69,5.76c-1.22-1.22-2.59-1.32-3.61-.31s-.9,2.42.29,3.61c1.84,1.86,3.7,3.71,5.55,5.56L37,18.68a2.3,2.3,0,0,0,2.7.51C40.58,18.8,41,18.05,41,16.63ZM21.43,37.14a13.31,13.31,0,0,0-1.36-2.09c-3.06-3.13-6.17-6.21-9.27-9.3-1.25-1.25-2.69-1.36-3.7-.32s-.87,2.38.36,3.61c2.09,2.11,4.19,4.2,6.29,6.3,1.14,1.13,2.25,2.28,3.42,3.39a2,2,0,0,0,2.58.36A9.86,9.86,0,0,0,21.43,37.14Zm6.42-3a6.65,6.65,0,0,0,1.07-.69c2.09-2.06,4.16-4.14,6.24-6.21.57-.57.82-1.22.2-1.85s-1.27-.4-1.84.16l-3.24,3.24c-1.05,1.05-2.14,2.07-3.12,3.19a1.71,1.71,0,0,0-.24,1.35C27,33.69,27.5,33.9,27.85,34.18ZM47.64,51.72,53.38,46,51.65,44.5c-.94,1-1.81,2-2.7,2.87s-1.8,1.81-2.71,2.73Z"/><path class="cls-1" d="M7.09,55.06a12,12,0,0,1-.61-2,4.06,4.06,0,0,1,4-4.62c6.7,0,13.39,0,20.08,0a4.08,4.08,0,0,1,3.73,5.73c-.1.24-.23.48-.38.78A6.31,6.31,0,0,1,37,61.07c0,1-.46,1.52-1.49,1.52q-15,0-29.95,0c-1,0-1.45-.5-1.5-1.51A6.26,6.26,0,0,1,7.09,55.06Zm27.5,5.14a3.44,3.44,0,0,0-3.48-3.48c-1.4,0-2.81,0-4.22,0H10.21c-2.24,0-3.75,1.46-3.64,3.49ZM20.54,50.83H11c-1.43,0-2.27.69-2.23,1.81s.84,1.7,2.23,1.7h19c1.43,0,2.27-.7,2.23-1.82s-.84-1.69-2.23-1.69Z"/><path class="cls-1" d="M20.32,21.64c-.27-.2-.73-.38-.88-.7a1.33,1.33,0,0,1,.07-1.19c1.7-1.79,3.43-3.55,5.24-5.22a1.51,1.51,0,0,1,1.43.11A1.36,1.36,0,0,1,26.37,16c-1.73,1.86-3.54,3.64-5.35,5.43C20.9,21.51,20.66,21.52,20.32,21.64Z"/><path class="cls-1" d="M16.81,25.07c-.29-.47-.83-.95-.8-1.4s.66-1,1.11-1a.91.91,0,0,1,1.07,1.16c-.09.46-.57.85-.87,1.27Z"/><path d="M115,31.29H109.2V6.37H115Z"/><path d="M119.63,31.29V13.55h3.29a1.47,1.47,0,0,1,.83.23,1.22,1.22,0,0,1,.47.66l.3,1c.35-.32.7-.62,1.06-.89a6.74,6.74,0,0,1,2.53-1.14,7.11,7.11,0,0,1,1.58-.16,6.27,6.27,0,0,1,2.57.5,5.33,5.33,0,0,1,1.89,1.41,5.92,5.92,0,0,1,1.17,2.14,8.88,8.88,0,0,1,.39,2.69V31.29h-5.3V20a3.11,3.11,0,0,0-.6-2,2.16,2.16,0,0,0-1.76-.72,3.68,3.68,0,0,0-1.64.37,6.38,6.38,0,0,0-1.48,1V31.29Z"/><path d="M150.32,17.44a1.4,1.4,0,0,1-.44.46,1.14,1.14,0,0,1-.59.14,1.86,1.86,0,0,1-.75-.17l-.81-.35a10.16,10.16,0,0,0-1-.35A4.29,4.29,0,0,0,145.5,17a2.69,2.69,0,0,0-1.55.38,1.25,1.25,0,0,0-.54,1.07,1.07,1.07,0,0,0,.35.82,3.16,3.16,0,0,0,.93.58c.39.16.83.32,1.32.47s1,.31,1.5.49a13.46,13.46,0,0,1,1.51.65,5.5,5.5,0,0,1,1.32.9,4.15,4.15,0,0,1,.93,1.31,4.49,4.49,0,0,1,.35,1.85,6.06,6.06,0,0,1-.48,2.43,5,5,0,0,1-1.43,1.91,6.54,6.54,0,0,1-2.34,1.25,10.46,10.46,0,0,1-3.21.45,10.08,10.08,0,0,1-1.81-.17,12.64,12.64,0,0,1-1.76-.47,9.21,9.21,0,0,1-1.56-.69,6.65,6.65,0,0,1-1.23-.86L139,27.43a1.71,1.71,0,0,1,.53-.54,1.48,1.48,0,0,1,.8-.2,1.63,1.63,0,0,1,.83.21l.8.44a6.75,6.75,0,0,0,1,.45,4.52,4.52,0,0,0,1.45.2,3.51,3.51,0,0,0,1-.13,1.75,1.75,0,0,0,.68-.35,1.45,1.45,0,0,0,.38-.49,1.42,1.42,0,0,0,.12-.57,1.15,1.15,0,0,0-.36-.87,3.16,3.16,0,0,0-.94-.59,10.25,10.25,0,0,0-1.33-.46c-.49-.14-1-.31-1.51-.49a11.15,11.15,0,0,1-1.51-.66,5.35,5.35,0,0,1-1.33-1,4.6,4.6,0,0,1-.94-1.45,5.33,5.33,0,0,1-.36-2.07,5.27,5.27,0,0,1,.44-2.15,5,5,0,0,1,1.3-1.78,6.62,6.62,0,0,1,2.19-1.23,9.56,9.56,0,0,1,3.08-.45,10.29,10.29,0,0,1,1.86.17,9.39,9.39,0,0,1,1.68.48,8.09,8.09,0,0,1,1.44.73,7.09,7.09,0,0,1,1.15.91Z"/><path d="M160.75,31.57a6.39,6.39,0,0,1-2.23-.37,4.52,4.52,0,0,1-1.62-1,4.34,4.34,0,0,1-1-1.64,6.28,6.28,0,0,1-.35-2.14V17.21h-1.5a1,1,0,0,1-.7-.26,1,1,0,0,1-.29-.78V14.1l2.82-.55,1-4.32a1.06,1.06,0,0,1,1.17-.82h2.77v5.18h4.31v3.62h-4.31V26a1.67,1.67,0,0,0,.3,1,1,1,0,0,0,.86.4,1.73,1.73,0,0,0,.49-.06,2.2,2.2,0,0,0,.34-.13l.27-.14a.73.73,0,0,1,.3-.06.67.67,0,0,1,.39.11,1.9,1.9,0,0,1,.3.35l1.6,2.52a7.2,7.2,0,0,1-2.3,1.15A9.11,9.11,0,0,1,160.75,31.57Z"/><path d="M174.3,8.7a2.78,2.78,0,0,1-.25,1.18,3.16,3.16,0,0,1-.71,1,3.46,3.46,0,0,1-1,.67,3.29,3.29,0,0,1-1.26.25,3,3,0,0,1-1.21-.25,3.44,3.44,0,0,1-1-.67,3.1,3.1,0,0,1-.69-1,2.94,2.94,0,0,1-.25-1.18,3.09,3.09,0,0,1,.25-1.22,3.15,3.15,0,0,1,.69-1,3.08,3.08,0,0,1,1-.67,3,3,0,0,1,1.21-.24,3.29,3.29,0,0,1,1.26.24,3.11,3.11,0,0,1,1,.67,3.2,3.2,0,0,1,.71,1A2.93,2.93,0,0,1,174.3,8.7Zm-.61,4.85V31.29h-5.31V13.55Z"/><path d="M184.19,31.57A6.35,6.35,0,0,1,182,31.2a4.27,4.27,0,0,1-2.63-2.68,6.28,6.28,0,0,1-.34-2.14V17.21h-1.51a1,1,0,0,1-.7-.26,1,1,0,0,1-.29-.78V14.1l2.82-.55,1.05-4.32a1,1,0,0,1,1.16-.82h2.77v5.18h4.31v3.62h-4.31V26a1.67,1.67,0,0,0,.3,1,1,1,0,0,0,.87.4,1.65,1.65,0,0,0,.48-.06,2.34,2.34,0,0,0,.35-.13l.27-.14a.67.67,0,0,1,.3-.06.61.61,0,0,1,.38.11,1.36,1.36,0,0,1,.3.35L189.15,30a7.25,7.25,0,0,1-2.31,1.15A9.09,9.09,0,0,1,184.19,31.57Z"/><path d="M196.61,13.55V24.81a3.1,3.1,0,0,0,.6,2,2.18,2.18,0,0,0,1.76.71,3.77,3.77,0,0,0,1.63-.36,5.85,5.85,0,0,0,1.48-1V13.55h5.31V31.29H204.1a1.24,1.24,0,0,1-1.3-.89l-.32-1a12.35,12.35,0,0,1-1.06.9,7.24,7.24,0,0,1-1.18.68,6.19,6.19,0,0,1-1.34.44,7,7,0,0,1-1.57.17,6.19,6.19,0,0,1-2.58-.51,5.19,5.19,0,0,1-1.89-1.41,6.14,6.14,0,0,1-1.16-2.14,8.9,8.9,0,0,1-.39-2.7V13.55Z"/><path d="M217.72,31.57a6.41,6.41,0,0,1-2.24-.37,4.52,4.52,0,0,1-1.62-1,4.47,4.47,0,0,1-1-1.64,6.28,6.28,0,0,1-.34-2.14V17.21H211a1,1,0,0,1-.7-.26,1,1,0,0,1-.29-.78V14.1l2.82-.55,1-4.32a1.06,1.06,0,0,1,1.17-.82h2.77v5.18h4.31v3.62h-4.31V26a1.67,1.67,0,0,0,.3,1,1,1,0,0,0,.86.4,1.68,1.68,0,0,0,.49-.06,1.86,1.86,0,0,0,.34-.13l.28-.14a.67.67,0,0,1,.3-.06.66.66,0,0,1,.38.11,1.36,1.36,0,0,1,.3.35L222.68,30a7.36,7.36,0,0,1-2.31,1.15A9.09,9.09,0,0,1,217.72,31.57Z"/><path d="M233.08,13.28a10.34,10.34,0,0,1,3.68.63,8.15,8.15,0,0,1,2.84,1.82,8,8,0,0,1,1.85,2.86,10.36,10.36,0,0,1,.66,3.79,10.45,10.45,0,0,1-.66,3.82,8,8,0,0,1-4.69,4.73,10.34,10.34,0,0,1-3.68.64,10.47,10.47,0,0,1-3.71-.64,8,8,0,0,1-4.73-4.73,10.45,10.45,0,0,1-.66-3.82,10.36,10.36,0,0,1,.66-3.79,8.05,8.05,0,0,1,1.86-2.86,8.28,8.28,0,0,1,2.87-1.82A10.47,10.47,0,0,1,233.08,13.28Zm0,14.35a3,3,0,0,0,2.69-1.29,7.11,7.11,0,0,0,.87-3.93,7,7,0,0,0-.87-3.91,3,3,0,0,0-2.69-1.29,3.1,3.1,0,0,0-2.76,1.29,7,7,0,0,0-.87,3.91,7.11,7.11,0,0,0,.87,3.93A3.1,3.1,0,0,0,233.08,27.63Z"/><path d="M264.07,31.29a1.47,1.47,0,0,1-.83-.22,1.19,1.19,0,0,1-.47-.67l-.41-1.35a9.75,9.75,0,0,1-1.11,1,6.84,6.84,0,0,1-1.26.79,6.24,6.24,0,0,1-1.45.52,7.49,7.49,0,0,1-1.69.18,5.47,5.47,0,0,1-2.56-.62,5.85,5.85,0,0,1-2-1.78,9,9,0,0,1-1.34-2.85,13.61,13.61,0,0,1-.49-3.84A12.08,12.08,0,0,1,251,18.8a8.91,8.91,0,0,1,1.55-3,7.37,7.37,0,0,1,2.4-1.94,7,7,0,0,1,3.1-.7,6.14,6.14,0,0,1,2.32.4,6.53,6.53,0,0,1,1.71,1.06v-9h5.31V31.29ZM258.7,27.5a4.21,4.21,0,0,0,1.05-.12,3.72,3.72,0,0,0,.87-.31,4.07,4.07,0,0,0,.74-.51,5.93,5.93,0,0,0,.69-.72V18.31a3.46,3.46,0,0,0-1.3-.93,4,4,0,0,0-1.47-.27,3.17,3.17,0,0,0-1.35.29,2.87,2.87,0,0,0-1.07.94,4.91,4.91,0,0,0-.71,1.66,10.47,10.47,0,0,0-.25,2.48,11.22,11.22,0,0,0,.2,2.36,5,5,0,0,0,.57,1.55,2.18,2.18,0,0,0,.89.85A2.52,2.52,0,0,0,258.7,27.5Z"/><path d="M279.06,13.28a9,9,0,0,1,3.22.55,6.85,6.85,0,0,1,2.52,1.59A7.18,7.18,0,0,1,286.44,18a9.45,9.45,0,0,1,.59,3.43,8.24,8.24,0,0,1,0,1,1.51,1.51,0,0,1-.19.6.7.7,0,0,1-.37.31,1.91,1.91,0,0,1-.59.08H275.6A5,5,0,0,0,277,26.6a4,4,0,0,0,2.82,1,5.36,5.36,0,0,0,1.59-.22,8.88,8.88,0,0,0,1.19-.5l1-.5a2.07,2.07,0,0,1,.91-.22,1.12,1.12,0,0,1,1,.46l1.54,1.9a7.84,7.84,0,0,1-1.77,1.53,9.38,9.38,0,0,1-2,.93,11.3,11.3,0,0,1-2,.46,16.28,16.28,0,0,1-1.91.13,10.1,10.1,0,0,1-3.5-.61,8.12,8.12,0,0,1-2.86-1.8,8.63,8.63,0,0,1-1.93-3A11.22,11.22,0,0,1,270.3,22a9.24,9.24,0,0,1,.61-3.37,8.22,8.22,0,0,1,1.74-2.79,8.34,8.34,0,0,1,2.76-1.9A9,9,0,0,1,279.06,13.28Zm.1,3.66a3.2,3.2,0,0,0-2.38.87,4.44,4.44,0,0,0-1.12,2.48h6.62a4.62,4.62,0,0,0-.17-1.23,3,3,0,0,0-.53-1.07,2.82,2.82,0,0,0-1-.76A3.39,3.39,0,0,0,279.16,16.94Z"/><path d="M302.15,5.68V31.29h-5.3V5.68Z"/><path d="M318.68,31.29a2.56,2.56,0,0,1-1.14-.2,1.55,1.55,0,0,1-.64-.86l-.38-1c-.44.37-.87.7-1.28,1A8.6,8.6,0,0,1,314,31a6.35,6.35,0,0,1-1.4.44,8.43,8.43,0,0,1-1.65.15,7.28,7.28,0,0,1-2.21-.32,4.45,4.45,0,0,1-1.68-.94A4.11,4.11,0,0,1,306,28.78a5.57,5.57,0,0,1-.38-2.12,4.44,4.44,0,0,1,.48-1.94,4.76,4.76,0,0,1,1.66-1.81,10.78,10.78,0,0,1,3.18-1.37,19.83,19.83,0,0,1,5.05-.54v-.76A3.33,3.33,0,0,0,315.3,18a2.34,2.34,0,0,0-1.82-.7,4.71,4.71,0,0,0-1.54.2,7.16,7.16,0,0,0-1.07.46c-.32.17-.62.33-.92.47a2.6,2.6,0,0,1-1.06.2,1.66,1.66,0,0,1-.93-.26,2,2,0,0,1-.61-.66l-1-1.66A10.94,10.94,0,0,1,310,13.9a12.59,12.59,0,0,1,4.2-.69,7.84,7.84,0,0,1,2.9.52,6.21,6.21,0,0,1,3.57,3.67,8,8,0,0,1,.47,2.81V31.29Zm-6.09-3.23a4.17,4.17,0,0,0,1.79-.36,5.57,5.57,0,0,0,1.56-1.16V24.11a13.51,13.51,0,0,0-2.62.21,6.33,6.33,0,0,0-1.62.51,2,2,0,0,0-.83.71,1.63,1.63,0,0,0-.23.86,1.52,1.52,0,0,0,.49,1.29A2.4,2.4,0,0,0,312.59,28.06Z"/><path d="M92,48.6a13.06,13.06,0,0,1-.93,5,11.8,11.8,0,0,1-2.62,4,11.93,11.93,0,0,1-4.08,2.6,14.53,14.53,0,0,1-5.3.93H69.41V36.15h9.68a14.32,14.32,0,0,1,5.3.94,11.93,11.93,0,0,1,4.08,2.6,11.62,11.62,0,0,1,2.62,3.94A13,13,0,0,1,92,48.6Zm-5.92,0a10.87,10.87,0,0,0-.47-3.34,7.13,7.13,0,0,0-1.38-2.52,6,6,0,0,0-2.2-1.59,7.48,7.48,0,0,0-3-.56H75.23v16h3.86a7.48,7.48,0,0,0,3-.55,6,6,0,0,0,2.2-1.6A7.13,7.13,0,0,0,85.63,52,10.89,10.89,0,0,0,86.1,48.6Z"/><path d="M102.39,43.06a9.22,9.22,0,0,1,3.22.54,7.12,7.12,0,0,1,2.52,1.59,7.27,7.27,0,0,1,1.64,2.56,9.49,9.49,0,0,1,.59,3.43,8.43,8.43,0,0,1,0,1,1.51,1.51,0,0,1-.19.6.68.68,0,0,1-.37.3,1.63,1.63,0,0,1-.59.09H98.93a5,5,0,0,0,1.36,3.22,4,4,0,0,0,2.82,1,5,5,0,0,0,1.59-.22,8.9,8.9,0,0,0,1.19-.49l1-.5a1.94,1.94,0,0,1,.91-.22,1.1,1.1,0,0,1,1,.46l1.54,1.9a7.84,7.84,0,0,1-1.77,1.53,9.33,9.33,0,0,1-1.95.92,9.78,9.78,0,0,1-2,.46,14.37,14.37,0,0,1-1.91.13,10.09,10.09,0,0,1-3.5-.6,8.15,8.15,0,0,1-2.86-1.81,8.53,8.53,0,0,1-1.93-3,11.14,11.14,0,0,1-.71-4.14,9.23,9.23,0,0,1,.61-3.36A8,8,0,0,1,96,45.66a8.34,8.34,0,0,1,2.76-1.9A9,9,0,0,1,102.39,43.06Zm.1,3.66a3.19,3.19,0,0,0-2.38.86A4.51,4.51,0,0,0,99,50.07h6.62a4.62,4.62,0,0,0-.17-1.23,2.9,2.9,0,0,0-.53-1.07,2.62,2.62,0,0,0-1-.76A3.25,3.25,0,0,0,102.49,46.72Z"/><path d="M114.19,61.07V47L113,46.73a2.48,2.48,0,0,1-1-.42,1,1,0,0,1-.36-.86V43.36h2.49v-1a7.34,7.34,0,0,1,.49-2.76,5.87,5.87,0,0,1,1.4-2.1,6.08,6.08,0,0,1,2.24-1.35,8.64,8.64,0,0,1,3-.48,9.28,9.28,0,0,1,1.21.07,8.84,8.84,0,0,1,1.15.25l-.1,2.58a.81.81,0,0,1-.15.46,1,1,0,0,1-.32.29,1.35,1.35,0,0,1-.41.16,1.85,1.85,0,0,1-.46.05,5.31,5.31,0,0,0-1.25.14,1.92,1.92,0,0,0-.91.49,2.17,2.17,0,0,0-.56.92,4.85,4.85,0,0,0-.19,1.45v.83h4.18V47h-4V61.07Z"/><path d="M133.39,43.06a9.22,9.22,0,0,1,3.22.54,7.21,7.21,0,0,1,2.52,1.59,7.41,7.41,0,0,1,1.64,2.56,9.49,9.49,0,0,1,.59,3.43,8.43,8.43,0,0,1-.05,1,1.7,1.7,0,0,1-.19.6.72.72,0,0,1-.37.3,1.63,1.63,0,0,1-.59.09H129.93a5,5,0,0,0,1.35,3.22,4,4,0,0,0,2.82,1,5.07,5.07,0,0,0,1.6-.22,8.23,8.23,0,0,0,1.18-.49l1-.5a2,2,0,0,1,.92-.22,1.1,1.1,0,0,1,1,.46l1.54,1.9a7.67,7.67,0,0,1-1.78,1.53,9.1,9.1,0,0,1-1.95.92,9.49,9.49,0,0,1-2,.46,14.11,14.11,0,0,1-1.9.13,10.05,10.05,0,0,1-3.5-.6,8.15,8.15,0,0,1-2.86-1.81,8.53,8.53,0,0,1-1.93-3,10.94,10.94,0,0,1-.71-4.14,9.44,9.44,0,0,1,.6-3.36A8.2,8.2,0,0,1,127,45.66a8.4,8.4,0,0,1,2.75-1.9A9.08,9.08,0,0,1,133.39,43.06Zm.1,3.66a3.17,3.17,0,0,0-2.38.86A4.51,4.51,0,0,0,130,50.07h6.62a4.61,4.61,0,0,0-.16-1.23,3.07,3.07,0,0,0-.53-1.07,2.74,2.74,0,0,0-1-.76A3.21,3.21,0,0,0,133.49,46.72Z"/><path d="M144.4,61.07V43.33h3.29a1.47,1.47,0,0,1,.83.22,1.19,1.19,0,0,1,.47.67l.3,1a12.61,12.61,0,0,1,1.07-.89,5.76,5.76,0,0,1,1.17-.7,7.37,7.37,0,0,1,1.35-.44,7.11,7.11,0,0,1,1.58-.16,6.19,6.19,0,0,1,2.58.5,5.62,5.62,0,0,1,1.89,1.4,6.14,6.14,0,0,1,1.16,2.14,9,9,0,0,1,.39,2.7V61.07h-5.3V49.8a3.09,3.09,0,0,0-.6-2,2.14,2.14,0,0,0-1.76-.73,3.69,3.69,0,0,0-1.64.38,6.12,6.12,0,0,0-1.47,1V61.07Z"/><path d="M175.09,47.21a1.3,1.3,0,0,1-.44.46,1.05,1.05,0,0,1-.59.14,1.84,1.84,0,0,1-.75-.16l-.81-.35a8.51,8.51,0,0,0-1-.35,4.39,4.39,0,0,0-1.25-.17,2.61,2.61,0,0,0-1.55.39,1.24,1.24,0,0,0-.54,1.07,1.09,1.09,0,0,0,.35.82,3,3,0,0,0,.93.57,10.58,10.58,0,0,0,1.32.47c.49.15,1,.32,1.51.5a14.08,14.08,0,0,1,1.5.64,5.84,5.84,0,0,1,1.32.91,3.9,3.9,0,0,1,.93,1.31,4.47,4.47,0,0,1,.35,1.84,6.06,6.06,0,0,1-.48,2.43,5.15,5.15,0,0,1-1.43,1.92,6.7,6.7,0,0,1-2.34,1.25,10.78,10.78,0,0,1-3.21.44,9.24,9.24,0,0,1-1.81-.17,12.13,12.13,0,0,1-1.75-.46A9.79,9.79,0,0,1,163.8,60a6.67,6.67,0,0,1-1.23-.87l1.23-1.95a2.1,2.1,0,0,1,.53-.54,1.48,1.48,0,0,1,.8-.19,1.73,1.73,0,0,1,.83.2l.8.45a5.87,5.87,0,0,0,1,.44,4.24,4.24,0,0,0,1.45.21,3.88,3.88,0,0,0,1-.13,1.89,1.89,0,0,0,.68-.35,1.38,1.38,0,0,0,.5-1.06,1.12,1.12,0,0,0-.36-.87,3,3,0,0,0-.94-.59,11.93,11.93,0,0,0-1.33-.47c-.49-.14-1-.3-1.51-.48a14.38,14.38,0,0,1-1.51-.66,5.15,5.15,0,0,1-1.33-1,4.44,4.44,0,0,1-.94-1.44,5.33,5.33,0,0,1-.36-2.07,5.4,5.4,0,0,1,.44-2.15,4.93,4.93,0,0,1,1.31-1.79,6.45,6.45,0,0,1,2.18-1.22,9.56,9.56,0,0,1,3.08-.45,9.46,9.46,0,0,1,1.86.17,8.94,8.94,0,0,1,1.69.48,7.65,7.65,0,0,1,1.43.72,6.72,6.72,0,0,1,1.15.92Z"/><path d="M187.2,43.06a10.3,10.3,0,0,1,3.68.63,7.86,7.86,0,0,1,4.69,4.68,10.28,10.28,0,0,1,.66,3.79,10.48,10.48,0,0,1-.66,3.82,7.93,7.93,0,0,1-4.69,4.72,11,11,0,0,1-7.38,0,8.44,8.44,0,0,1-2.88-1.83A8.09,8.09,0,0,1,178.76,56a10.48,10.48,0,0,1-.66-3.82,10.28,10.28,0,0,1,.66-3.79,8.09,8.09,0,0,1,1.86-2.87,8.39,8.39,0,0,1,2.88-1.81A10.37,10.37,0,0,1,187.2,43.06Zm0,14.35a3,3,0,0,0,2.7-1.29,7.2,7.2,0,0,0,.86-3.93,7.19,7.19,0,0,0-.86-3.92A3,3,0,0,0,187.2,47a3.1,3.1,0,0,0-2.75,1.28,7.08,7.08,0,0,0-.88,3.92,7.1,7.1,0,0,0,.88,3.93A3.08,3.08,0,0,0,187.2,57.41Z"/><path d="M199.14,61.07V43.33h3.15a2.52,2.52,0,0,1,.66.07,1.2,1.2,0,0,1,.44.21,1,1,0,0,1,.28.39,4.25,4.25,0,0,1,.16.58l.29,1.66a8.58,8.58,0,0,1,2.19-2.38A4.45,4.45,0,0,1,209,43a3,3,0,0,1,1.95.58l-.68,3.9a.74.74,0,0,1-.28.5.9.9,0,0,1-.55.15,3.75,3.75,0,0,1-.68-.08,5.45,5.45,0,0,0-1-.07,3.65,3.65,0,0,0-3.29,2.22V61.07Z"/><path d="M218.74,43.33V61.07h-5.3V43.33Zm4.3-7.46-4.45,4.5a2.7,2.7,0,0,1-.75.56,2.52,2.52,0,0,1-1,.16H213.7L216,36.9a2.33,2.33,0,0,1,.69-.76,2.13,2.13,0,0,1,1.2-.27Z"/><path d="M235.27,61.07a2.46,2.46,0,0,1-1.14-.21,1.52,1.52,0,0,1-.64-.85l-.38-1c-.44.38-.87.71-1.28,1a8.43,8.43,0,0,1-1.27.72,6.45,6.45,0,0,1-1.41.45,9.15,9.15,0,0,1-1.65.14,7.22,7.22,0,0,1-2.2-.31,4.69,4.69,0,0,1-1.69-.94,4.06,4.06,0,0,1-1.07-1.54,5.54,5.54,0,0,1-.37-2.12,4.63,4.63,0,0,1,.47-1.94,4.92,4.92,0,0,1,1.66-1.81,10.75,10.75,0,0,1,3.19-1.36,19.21,19.21,0,0,1,5-.55V50a3.29,3.29,0,0,0-.64-2.27,2.36,2.36,0,0,0-1.82-.7,4.73,4.73,0,0,0-1.54.21,6.26,6.26,0,0,0-1.07.46c-.31.17-.62.32-.92.46a2.44,2.44,0,0,1-1.06.21,1.59,1.59,0,0,1-.93-.27,2,2,0,0,1-.61-.66L223,45.79a10.87,10.87,0,0,1,3.56-2.11,12.59,12.59,0,0,1,4.2-.69,7.64,7.64,0,0,1,2.9.52,6.14,6.14,0,0,1,3.57,3.67,7.91,7.91,0,0,1,.48,2.8V61.07Zm-6.09-3.23a4.17,4.17,0,0,0,1.79-.36,5.3,5.3,0,0,0,1.56-1.17V53.88a13.51,13.51,0,0,0-2.62.21,6.29,6.29,0,0,0-1.62.52,1.93,1.93,0,0,0-.83.71,1.7,1.7,0,0,0-.23.86,1.48,1.48,0,0,0,.49,1.28A2.42,2.42,0,0,0,229.18,57.84Z"/><path d="M253.85,52.74v8.33h-5.79V36.15h8.8a14.39,14.39,0,0,1,4.52.62,8.68,8.68,0,0,1,3.11,1.72,6.7,6.7,0,0,1,1.81,2.58,8.73,8.73,0,0,1,.58,3.22,9.45,9.45,0,0,1-.6,3.42,6.86,6.86,0,0,1-1.83,2.67,8.53,8.53,0,0,1-3.12,1.73,14.18,14.18,0,0,1-4.47.63Zm0-4.36h3a3.67,3.67,0,0,0,4.24-4.09,4.56,4.56,0,0,0-.26-1.56,3,3,0,0,0-.78-1.2,3.34,3.34,0,0,0-1.31-.78,5.62,5.62,0,0,0-1.89-.28h-3Z"/><path d="M274.85,43.33V54.59a3.09,3.09,0,0,0,.6,2,2.16,2.16,0,0,0,1.76.72,3.81,3.81,0,0,0,1.64-.36,6.09,6.09,0,0,0,1.48-1V43.33h5.3V61.07h-3.29a1.26,1.26,0,0,1-1.3-.89l-.32-1a11,11,0,0,1-1.06.9,6.91,6.91,0,0,1-1.17.69,7.91,7.91,0,0,1-1.35.44,7,7,0,0,1-1.57.16,6.27,6.27,0,0,1-2.57-.5,5.33,5.33,0,0,1-1.89-1.41,6.09,6.09,0,0,1-1.17-2.14,8.9,8.9,0,0,1-.39-2.7V43.33Zm9.65-7.46-4.45,4.5a2.7,2.7,0,0,1-.75.56,2.52,2.52,0,0,1-1,.16h-3.18l2.33-4.19a2.21,2.21,0,0,1,.68-.76,2.13,2.13,0,0,1,1.2-.27Z"/><path d="M289.73,61.07V35.46H295v9.75a8,8,0,0,1,2.25-1.56,6.75,6.75,0,0,1,2.95-.59,5.55,5.55,0,0,1,2.56.6,5.66,5.66,0,0,1,2,1.75,8.75,8.75,0,0,1,1.34,2.83,13.49,13.49,0,0,1,.49,3.81,11.81,11.81,0,0,1-.56,3.7,9.35,9.35,0,0,1-1.55,2.94,7.27,7.27,0,0,1-2.4,2,6.75,6.75,0,0,1-3.09.7,6.1,6.1,0,0,1-1.41-.15,4.58,4.58,0,0,1-1.14-.44,5,5,0,0,1-1-.67,11.54,11.54,0,0,1-.85-.86l-.19.89a1.1,1.1,0,0,1-.43.75,1.48,1.48,0,0,1-.83.21Zm8.66-14a4.77,4.77,0,0,0-1.05.11,4,4,0,0,0-.88.32,3.67,3.67,0,0,0-.74.52,6.88,6.88,0,0,0-.68.73v7.52a3.34,3.34,0,0,0,1.3.94,4.21,4.21,0,0,0,1.47.26,3,3,0,0,0,1.35-.29,2.69,2.69,0,0,0,1.07-.93,5,5,0,0,0,.71-1.67,10.54,10.54,0,0,0,.25-2.5,11.35,11.35,0,0,0-.2-2.36,5,5,0,0,0-.57-1.54,2.22,2.22,0,0,0-.88-.85A2.59,2.59,0,0,0,298.39,47Z"/><path d="M315.05,35.46V61.07h-5.3V35.46Z"/><path d="M325.42,38.47a2.83,2.83,0,0,1-.26,1.19,3.09,3.09,0,0,1-.7,1,3.48,3.48,0,0,1-1,.66,3.1,3.1,0,0,1-1.25.25A2.93,2.93,0,0,1,321,41.3a3.55,3.55,0,0,1-1-.66,3,3,0,0,1-.68-1,2.82,2.82,0,0,1-.25-1.19,2.88,2.88,0,0,1,.25-1.21,3,3,0,0,1,.68-1,3.19,3.19,0,0,1,1-.67,3.09,3.09,0,0,1,1.22-.24,3.27,3.27,0,0,1,1.25.24,3.15,3.15,0,0,1,1,.67,3,3,0,0,1,.7,1A2.89,2.89,0,0,1,325.42,38.47Zm-.62,4.86V61.07h-5.3V43.33Z"/><path d="M341.87,47.54a2.84,2.84,0,0,1-.46.46,1,1,0,0,1-.63.17,1.33,1.33,0,0,1-.71-.19l-.71-.42a5.83,5.83,0,0,0-.93-.42,4.1,4.1,0,0,0-1.31-.18,3.73,3.73,0,0,0-1.69.36,3.19,3.19,0,0,0-1.17,1,4.53,4.53,0,0,0-.68,1.64,9.6,9.6,0,0,0-.23,2.18,6.58,6.58,0,0,0,1,3.91,3.13,3.13,0,0,0,2.71,1.37,3.69,3.69,0,0,0,1.46-.23,4.18,4.18,0,0,0,.92-.51l.69-.52a1.29,1.29,0,0,1,.8-.24,1.07,1.07,0,0,1,.95.46l1.54,1.9a7.89,7.89,0,0,1-1.73,1.53,8.62,8.62,0,0,1-1.85.92,8.71,8.71,0,0,1-1.91.46,13.33,13.33,0,0,1-1.86.13,8,8,0,0,1-3.11-.61,7.62,7.62,0,0,1-2.6-1.79,8.51,8.51,0,0,1-1.78-2.88,11.63,11.63,0,0,1-.08-7.49,8.11,8.11,0,0,1,1.69-2.89A8,8,0,0,1,333,43.76a9.69,9.69,0,0,1,3.83-.7,9.41,9.41,0,0,1,3.66.66,9,9,0,0,1,2.84,2Z"/><path d="M358,61.07a2.46,2.46,0,0,1-1.14-.21,1.56,1.56,0,0,1-.64-.85l-.37-1c-.45.38-.88.71-1.29,1a8.43,8.43,0,0,1-1.27.72,6.54,6.54,0,0,1-1.4.45,9.32,9.32,0,0,1-1.65.14A7.29,7.29,0,0,1,348,61a4.87,4.87,0,0,1-1.69-.94,4,4,0,0,1-1.06-1.54,5.35,5.35,0,0,1-.38-2.12,4.5,4.5,0,0,1,.48-1.94A4.83,4.83,0,0,1,347,52.68a10.56,10.56,0,0,1,3.18-1.36,19.26,19.26,0,0,1,5-.55V50a3.29,3.29,0,0,0-.64-2.27,2.35,2.35,0,0,0-1.82-.7,4.73,4.73,0,0,0-1.54.21,6.62,6.62,0,0,0-1.07.46c-.31.17-.62.32-.91.46a2.47,2.47,0,0,1-1.06.21,1.55,1.55,0,0,1-.93-.27,2,2,0,0,1-.61-.66l-1-1.66a10.81,10.81,0,0,1,3.57-2.11,12.5,12.5,0,0,1,4.2-.69,7.68,7.68,0,0,1,2.9.52A6.3,6.3,0,0,1,358.53,45a6.44,6.44,0,0,1,1.37,2.22,7.91,7.91,0,0,1,.48,2.8V61.07Zm-6.09-3.23a4.19,4.19,0,0,0,1.8-.36,5.4,5.4,0,0,0,1.55-1.17V53.88a13.33,13.33,0,0,0-2.61.21,6.25,6.25,0,0,0-1.63.52,2,2,0,0,0-.83.71,1.7,1.7,0,0,0-.23.86,1.49,1.49,0,0,0,.5,1.28A2.37,2.37,0,0,0,351.86,57.84Z"/></svg>