<svg id="Capa_1" data-name="Capa 1" xmlns="http://www.w3.org/2000/svg" viewBox="0 0 62.45 62.45"><defs><style>.cls-1{fill:#fff;}</style></defs><path class="cls-1" d="M30.33,52.27c-5.52-.31-12.8-.63-20-1.17C6.11,50.79,3.71,48.45,3,44.32a80.94,80.94,0,0,1-.82-18.79,61.74,61.74,0,0,1,.75-7.32c.84-4.74,3.3-7,8.1-7.27,8.1-.39,16.21-.72,24.32-.75,5.82,0,11.64.42,17.45.74,3.15.17,6,1.26,7.33,4.34a16.75,16.75,0,0,1,1.23,5.05,89,89,0,0,1-.38,24c-.65,4-3.15,6.32-7.18,6.81-1.44.17-2.89.38-4.34.44C43.65,51.82,37.87,52,30.33,52.27ZM26.05,22.14V40l15.52-8.94Z"/></svg>