<svg id="Capa_1" data-name="Capa 1" xmlns="http://www.w3.org/2000/svg" viewBox="0 0 217.02 144.27"><defs><style>.cls-1{fill:#fff;}</style></defs><path class="cls-1" d="M13.36,116.35a3.1,3.1,0,0,0,.66-2.14,2.34,2.34,0,0,0-.84-2,4.83,4.83,0,0,0-2.65-.59H8.46v5.48H10.9a3.18,3.18,0,0,0,2.46-.74ZM16,110a5.54,5.54,0,0,1,1.71,4.46A5.37,5.37,0,0,1,16,118.83a8.63,8.63,0,0,1-5.36,1.39H8.48v4.54H4.82V108.5h5.75c2.49,0,4.31.49,5.46,1.45Z"/><path class="cls-1" d="M33,116.53a5.32,5.32,0,0,0-1.4-3.7,4.61,4.61,0,0,0-6.88,0,5.24,5.24,0,0,0-1.39,3.7,5.37,5.37,0,0,0,1.39,3.71,4.65,4.65,0,0,0,6.88,0A5.31,5.31,0,0,0,33,116.53Zm1.23,6a8.41,8.41,0,0,1-6.07,2.4,8.34,8.34,0,0,1-6.06-2.4,8.55,8.55,0,0,1,0-12,8.38,8.38,0,0,1,6.06-2.41,8.39,8.39,0,0,1,6.07,2.41,8,8,0,0,1,2.46,6,8.12,8.12,0,0,1-2.46,6Z"/><path class="cls-1" d="M49.55,120.29a4.74,4.74,0,0,0,1.34-3.66A4.82,4.82,0,0,0,49.55,113a5.71,5.71,0,0,0-4.11-1.3h-2v9.89h2.31a5.29,5.29,0,0,0,3.82-1.27Zm2.67-9.67a7.61,7.61,0,0,1,2.32,5.91,8,8,0,0,1-2.27,6c-1.52,1.48-3.83,2.21-6.93,2.21H39.78V108.48h5.75q4.35,0,6.67,2.12Z"/><polygon class="cls-1" points="69.42 108.5 69.42 111.73 61.31 111.73 61.31 115.08 68.59 115.08 68.59 118.19 61.31 118.19 61.31 121.56 69.67 121.56 69.67 124.77 57.69 124.77 57.69 108.51 69.42 108.51 69.42 108.5"/><path class="cls-1" d="M81.72,115.83a2.48,2.48,0,0,0,.67-1.92,2.07,2.07,0,0,0-.69-1.81,4.53,4.53,0,0,0-2.44-.49H76.53v4.82h2.64A4,4,0,0,0,81.72,115.83Zm4.38-1.94c0,2.61-1,4.3-3.1,5l4.11,5.82H82.65L79,119.57H76.53v5.19H72.91V108.5h6.16c2.53,0,4.33.42,5.41,1.28a4.93,4.93,0,0,1,1.62,4.11Z"/><path class="cls-1" d="M96.58,111.61V108.5h8.47v10.61a5.77,5.77,0,0,1-1.5,4.35,5.33,5.33,0,0,1-3.85,1.45,7,7,0,0,1-5.13-2.26L96.46,120a4.21,4.21,0,0,0,3.07,1.58,1.76,1.76,0,0,0,1.31-.59,2.5,2.5,0,0,0,.54-1.78v-7.64h-4.8Z"/><path class="cls-1" d="M113.21,120.56a2.94,2.94,0,0,0,2.44,1.13,2.9,2.9,0,0,0,2.43-1.13,4.9,4.9,0,0,0,.89-3.08v-9h3.62v9.1a7.21,7.21,0,0,1-2,5.42,6.9,6.9,0,0,1-5,1.9,7,7,0,0,1-5-1.9,7.22,7.22,0,0,1-2-5.42v-9.1h3.63v9a4.79,4.79,0,0,0,.91,3.08Z"/><path class="cls-1" d="M136.16,120.29a4.78,4.78,0,0,0,1.33-3.66,4.85,4.85,0,0,0-1.33-3.68,5.74,5.74,0,0,0-4.11-1.3h-2v9.89h2.31a5.37,5.37,0,0,0,3.83-1.27Zm2.66-9.67a7.61,7.61,0,0,1,2.32,5.91,7.94,7.94,0,0,1-2.27,6c-1.52,1.48-3.82,2.21-6.92,2.21h-5.56V108.48h5.74q4.35,0,6.67,2.12Z"/><rect class="cls-1" x="144.28" y="108.5" width="3.62" height="16.26"/><path class="cls-1" d="M159.37,121.55a5.38,5.38,0,0,0,4.39-2.12l2.32,2.39a8.76,8.76,0,0,1-12.7.75,8.6,8.6,0,0,1,.05-12,8.32,8.32,0,0,1,6.06-2.43,8.6,8.6,0,0,1,6.71,3l-2.26,2.56a5.28,5.28,0,0,0-4.28-2.14,5,5,0,0,0-3.5,1.33,4.62,4.62,0,0,0-1.45,3.61,4.93,4.93,0,0,0,1.36,3.64,4.53,4.53,0,0,0,3.34,1.36Z"/><rect class="cls-1" x="168.94" y="108.5" width="3.62" height="16.26"/><path class="cls-1" d="M183.27,113.33l-2.06,4.72h4.08Zm4.9,11.43-1.52-3.53h-6.82l-1.52,3.53h-3.86l7-16.26H185l7,16.26Z"/><polygon class="cls-1" points="193.91 124.76 193.91 108.5 197.54 108.5 197.54 121.52 204.48 121.52 204.48 124.76 193.91 124.76 193.91 124.76"/><path class="cls-1" d="M15.55,139.68a3.39,3.39,0,0,0,1.54-.33,2.39,2.39,0,0,0,1-1,3.12,3.12,0,0,0,0-2.87,2.59,2.59,0,0,0-1-1,3.35,3.35,0,0,0-1.54-.34H13.62v5.45h1.93Zm-3.4-6.7h3.47a5.14,5.14,0,0,1,2.26.49,3.64,3.64,0,0,1,1.53,1.4A3.87,3.87,0,0,1,20,137a4,4,0,0,1-.54,2.09,3.64,3.64,0,0,1-1.53,1.4,4.88,4.88,0,0,1-2.26.49H12.15Z"/><polygon class="cls-1" points="29.93 139.68 29.93 140.91 23.96 140.91 23.96 132.96 29.76 132.96 29.76 134.19 25.43 134.19 25.43 136.26 29.27 136.26 29.27 137.48 25.43 137.48 25.43 139.67 29.91 139.67 29.93 139.68"/><polygon class="cls-1" points="34.02 132.98 35.5 132.98 35.5 139.68 39.66 139.68 39.66 140.93 34.04 140.93 34.04 132.98 34.02 132.98"/><polygon class="cls-1" points="54.8 139.68 54.8 140.91 48.83 140.91 48.83 132.96 54.63 132.96 54.63 134.19 50.3 134.19 50.3 136.26 54.14 136.26 54.14 137.48 50.3 137.48 50.3 139.67 54.78 139.67 54.8 139.68"/><path class="cls-1" d="M59.58,140.78a3.77,3.77,0,0,1-1.36-.69l.5-1.15a3.89,3.89,0,0,0,1.2.63,4.37,4.37,0,0,0,1.43.23,2.48,2.48,0,0,0,1.31-.28.87.87,0,0,0,.44-.75.73.73,0,0,0-.23-.55,1.93,1.93,0,0,0-.63-.36c-.25-.08-.59-.18-1-.28a11.55,11.55,0,0,1-1.46-.44,2.57,2.57,0,0,1-1-.67,1.84,1.84,0,0,1-.41-1.25,2.12,2.12,0,0,1,.36-1.2,2.45,2.45,0,0,1,1.08-.86,4.2,4.2,0,0,1,1.76-.32A5.81,5.81,0,0,1,63,133a4.06,4.06,0,0,1,1.21.52l-.47,1.15a5.1,5.1,0,0,0-1.1-.48,4.2,4.2,0,0,0-1.09-.15,2.19,2.19,0,0,0-1.3.31.89.89,0,0,0-.42.79.69.69,0,0,0,.24.55,1.49,1.49,0,0,0,.62.34,9,9,0,0,0,1,.29,11.07,11.07,0,0,1,1.45.42,2.6,2.6,0,0,1,1,.67,1.79,1.79,0,0,1,.41,1.23,2.09,2.09,0,0,1-.36,1.2,2.51,2.51,0,0,1-1.08.86,4.23,4.23,0,0,1-1.76.32,5.75,5.75,0,0,1-1.77-.27Z"/><polygon class="cls-1" points="69.96 134.22 67.33 134.22 67.33 132.98 74.07 132.98 74.07 134.22 71.44 134.22 71.44 140.93 69.96 140.93 69.96 134.22 69.96 134.22"/><path class="cls-1" d="M81.89,137.91l-1.5-3.47-1.48,3.47Zm.49,1.17h-4l-.78,1.83H76.11L79.68,133h1.45l3.59,7.95H83.17Z"/><path class="cls-1" d="M91.56,139.68a3.35,3.35,0,0,0,1.53-.33,2.45,2.45,0,0,0,1-1,3.12,3.12,0,0,0,0-2.87,2.52,2.52,0,0,0-1-1,3.41,3.41,0,0,0-1.53-.34H89.62v5.45h1.94Zm-3.4-6.7h3.47a5.06,5.06,0,0,1,2.25.49,3.66,3.66,0,0,1,1.54,1.4A3.87,3.87,0,0,1,96,137a4.06,4.06,0,0,1-.54,2.09,3.66,3.66,0,0,1-1.54,1.4,4.81,4.81,0,0,1-2.25.49H88.16Z"/><path class="cls-1" d="M105.12,139.38a2.64,2.64,0,0,0,1-1,3,3,0,0,0,.37-1.44,2.77,2.77,0,0,0-.37-1.43,2.57,2.57,0,0,0-1-1,3,3,0,0,0-2.86,0,2.57,2.57,0,0,0-1,1,3,3,0,0,0-.37,1.43,2.78,2.78,0,0,0,.37,1.44,2.64,2.64,0,0,0,1,1,3.1,3.1,0,0,0,2.86,0Zm-3.62,1.13A3.8,3.8,0,0,1,100,139a4.16,4.16,0,0,1,0-4.17,3.8,3.8,0,0,1,1.53-1.47,4.87,4.87,0,0,1,4.38,0,3.8,3.8,0,0,1,1.53,1.47A4,4,0,0,1,108,137a4.06,4.06,0,0,1-.56,2.11,3.84,3.84,0,0,1-1.53,1.46,4.79,4.79,0,0,1-4.38,0Z"/><path class="cls-1" d="M121,139.68a3.35,3.35,0,0,0,1.53-.33,2.45,2.45,0,0,0,1-1,3.12,3.12,0,0,0,0-2.87,2.52,2.52,0,0,0-1-1,3.41,3.41,0,0,0-1.53-.34H119v5.45H121Zm-3.4-6.7H121a5.06,5.06,0,0,1,2.25.49,3.66,3.66,0,0,1,1.54,1.4,3.87,3.87,0,0,1,.54,2.08,4.06,4.06,0,0,1-.54,2.09,3.66,3.66,0,0,1-1.54,1.4,4.81,4.81,0,0,1-2.25.49h-3.47Z"/><polygon class="cls-1" points="135.33 139.68 135.33 140.91 129.37 140.91 129.37 132.96 135.16 132.96 135.16 134.19 130.83 134.19 130.83 136.26 134.68 136.26 134.68 137.48 130.83 137.48 130.83 139.67 135.31 139.67 135.33 139.68"/><path class="cls-1" d="M149.65,137a1.57,1.57,0,0,0,0-2.32,2.27,2.27,0,0,0-1.46-.41h-1.72v3.15h1.72a2.27,2.27,0,0,0,1.46-.4Zm.41-3.65a2.58,2.58,0,0,1,1.18,1,2.76,2.76,0,0,1,.4,1.52,2.69,2.69,0,0,1-.4,1.5,2.56,2.56,0,0,1-1.18,1,4.75,4.75,0,0,1-1.81.33h-1.78v2.29H145V133h3.26a4.53,4.53,0,0,1,1.81.34Z"/><path class="cls-1" d="M156.41,140.11a3.64,3.64,0,0,1-.93-2.65V133H157v4.43c0,1.57.67,2.34,2,2.34s2-.77,2-2.34V133h1.45v4.48a3.6,3.6,0,0,1-.91,2.65,4,4,0,0,1-5.12,0Z"/><polygon class="cls-1" points="172.92 139.68 172.92 140.91 166.96 140.91 166.96 132.96 172.75 132.96 172.75 134.19 168.42 134.19 168.42 136.26 172.26 136.26 172.26 137.48 168.42 137.48 168.42 139.67 172.9 139.67 172.92 139.68"/><path class="cls-1" d="M182.58,138.62c0-.76-.58-1.14-1.72-1.14h-2.4v2.29h2.4C182,139.77,182.58,139.38,182.58,138.62Zm-4.1-4.48v2.19h2.09a1.89,1.89,0,0,0,1.18-.29,1,1,0,0,0,0-1.63,2.05,2.05,0,0,0-1.18-.29h-2.09Zm5.21,3.37a2.07,2.07,0,0,1,.39,1.25,1.87,1.87,0,0,1-.8,1.6,4,4,0,0,1-2.31.55H177V133h3.72a3.62,3.62,0,0,1,2.17.56,1.76,1.76,0,0,1,.76,1.51,1.94,1.94,0,0,1-.27,1.05,2,2,0,0,1-.74.71,2.07,2.07,0,0,1,1,.72Z"/><polygon class="cls-1" points="188.09 132.98 189.57 132.98 189.57 139.68 193.73 139.68 193.73 140.93 188.1 140.93 188.1 132.98 188.09 132.98"/><path class="cls-1" d="M202,137.91l-1.5-3.47-1.49,3.47Zm.48,1.17h-4l-.78,1.83h-1.51l3.57-7.95h1.45l3.59,7.95h-1.55Z"/><rect class="cls-1" x="5.02" y="128.75" width="207.17" height="0.56"/><path class="cls-1" d="M152.13,47.18h-.07a.61.61,0,0,1-.23,0s-.05,0-.07-.11a1.86,1.86,0,0,1,.12-.44,2.13,2.13,0,0,0,.1-.74,1.44,1.44,0,0,0-.69-1.1,2,2,0,0,0-1.4-.27,1.85,1.85,0,0,0-1.08.51,2.14,2.14,0,0,0-.45.59l-.46.75a4.55,4.55,0,0,1-.61.86,1.22,1.22,0,0,1-.77.37,1.15,1.15,0,0,1-.84-.16.87.87,0,0,1-.36-.58,1.33,1.33,0,0,1,.54-1.21,3.9,3.9,0,0,1,1-.61h.07l-.05-.38-2.33.55.06.34h.08l.22,0,.07.1a2.15,2.15,0,0,1-.12.48,1.94,1.94,0,0,0-.09.84,1.75,1.75,0,0,0,.73,1.24,2,2,0,0,0,1.16.36,1.51,1.51,0,0,0,.3,0,2.07,2.07,0,0,0,1.05-.42,4,4,0,0,0,.86-1.09l.47-.8a2.55,2.55,0,0,1,.51-.64,1.17,1.17,0,0,1,.6-.25.89.89,0,0,1,.66.15.84.84,0,0,1,.29.49,1.32,1.32,0,0,1-.27.86,2.49,2.49,0,0,1-1.25.77h-.07l.05.39,2.34-.47,0-.32Zm-5.36-3.43a3.51,3.51,0,0,1-1.62-.37,2.52,2.52,0,0,1-1.34-1.66,2.45,2.45,0,0,1,.52-2.17,4.26,4.26,0,0,1,2.37-1.4,4,4,0,0,1,2.84.2,2.49,2.49,0,0,1,.92,3.8A4.07,4.07,0,0,1,148,43.59a5.16,5.16,0,0,1-1.25.16m-1.48-1.2a4.19,4.19,0,0,0,2.42-.07,4.28,4.28,0,0,0,2.21-1,1.41,1.41,0,0,0,.42-1.3,1.45,1.45,0,0,0-1-1,3.07,3.07,0,0,0-.91-.13,7,7,0,0,0-1.5.2,4.33,4.33,0,0,0-2.18,1.05,1.35,1.35,0,0,0-.43,1.31,1.42,1.42,0,0,0,1,1M149,35.78c.15,0,.3.18.43.44l0,.06.33-.13-.79-2-.33.13v.09a.79.79,0,0,1,.05.55c-.07.12-.27.3-.91.56l-2.89,1.16,3.24-4.58-.57-1.44-.36.14,0,.08a.72.72,0,0,1,.06.34.78.78,0,0,1-.16.35l-.09.16-4.19,1.68a2.57,2.57,0,0,1-1,.25c-.15,0-.3-.18-.46-.45l0-.07-.34.14.8,2,.33-.14V35c-.1-.34-.07-.49,0-.56s.29-.3.91-.56l3.44-1.38-3.71,5.24,0,0,.1.26L148,36a2.25,2.25,0,0,1,1-.24m-7.6-2.74-.32.18-1.15-2,.32-.18,0,.06c.19.24.26.31.31.32a.27.27,0,0,0,.2-.05,1,1,0,0,0,.2-.15,3.76,3.76,0,0,0,.29-.28l.64-.75-1-1.77c-.66.16-1,.24-1.2.27a1.27,1.27,0,0,0-.32.12.31.31,0,0,0-.18.25,1,1,0,0,0,.12.36l0,.07-.32.18L138,28.14l.31-.18.05.07a.55.55,0,0,0,.44.23A9.84,9.84,0,0,0,140.3,28L145.61,27l.13.25L141.68,32c-.32.39-.42.54-.43.62a.64.64,0,0,0,.05.39l0,.07Zm.12-4.72.82,1.42,1.72-2-2.54.54Zm-2.51-.94H139l.1-.43H139a3.46,3.46,0,0,1-.91-.13,2,2,0,0,1-1-.66,1.61,1.61,0,0,1-.23-1.58,3.79,3.79,0,0,1,1.35-1.77,4.11,4.11,0,0,1,2.15-1,1.5,1.5,0,0,1,1.47.55,1.44,1.44,0,0,1,.2,1.48,3.14,3.14,0,0,1-.59,1l-.05.07.22.27,1.92-1.6-.2-.27-.07,0a.26.26,0,0,1-.22,0l-.15-.08a4,4,0,0,1-.19-.51,3.2,3.2,0,0,0-.45-.86,2.59,2.59,0,0,0-2.14-1H140a4.24,4.24,0,0,0-2.51,1A4,4,0,0,0,136,24a2.59,2.59,0,0,0,1.88,3.29,3.81,3.81,0,0,0,.74.08H139m-4.06-4.95,3.32-3.18c.32-.31.49-.38.58-.38s.23.06.52.31l.07.07.26-.26-1.81-1.9-.27.25.06.07c.26.3.29.45.29.54s-.08.25-.39.55l-3.32,3.19c-.33.34-.5.39-.57.39s-.24-.07-.54-.32l-.07-.07-.27.25,1.82,1.9.27-.25-.05-.07a1.29,1.29,0,0,1-.3-.53c0-.07,0-.22.4-.56m-2-1a1.42,1.42,0,0,1-.24-.42,2.05,2.05,0,0,1,.05-.68l.63-3.11,2.07-.66a3.62,3.62,0,0,1,1-.19.84.84,0,0,1,.44.21l.07.05.23-.29L135.5,15l-.24.28.07.06c.17.15.24.21.25.25a.22.22,0,0,1-.05.25l-.13.1a5.27,5.27,0,0,1-.52.19l-1.47.44.3-1.59a.9.9,0,0,1,.07-.23.62.62,0,0,1,.15-.27c.07-.09.12-.12.21-.09s.13.07.35.24l.07.05.23-.29-2-1.72-.23.29.07.05a.82.82,0,0,1,.26.57,10.43,10.43,0,0,1-.21,1.55l-.37,1.81-2.2.67a7.17,7.17,0,0,1-1.12.29.91.91,0,0,1-.48-.14l-.06-.05-.24.29,1.6,1.35L130,19l-.07-.07a1.46,1.46,0,0,1-.25-.3.21.21,0,0,1,0-.27.92.92,0,0,1,.3-.17c.11,0,.29-.1.54-.18l1.57-.49c-.2,1-.35,1.7-.4,1.95a1.88,1.88,0,0,1-.19.49l-.18.08a1.57,1.57,0,0,1-.39-.23l-.07-.05-.24.28,2,1.69.24-.27,0-.07Zm-4-5.26-.05.05a2,2,0,0,1-1.11.54h0a2.43,2.43,0,0,1-1.13-.45,4.37,4.37,0,0,1-.74-.53c0-.06,0-.18.07-.28l1.31-2.09.67.45c.34.22.41.37.43.46a2.34,2.34,0,0,1-.22.76l0,.06.32.19,1.37-2.17-.31-.21,0,.07c-.32.35-.49.49-.59.52s-.32,0-.59-.18l-.67-.46L128.66,11c.08-.13.13-.17.15-.17l.14.05,1,.61c.47.3.62.51.64.61a1.54,1.54,0,0,1-.21.86l0,.06.32.21.86-1.42-3.86-2.44-.2.3.07,0c.28.22.33.36.35.44a1.22,1.22,0,0,1-.25.62l-2.46,3.88c-.25.4-.39.49-.46.49a1,1,0,0,1-.55-.14l-.07,0-.2.3,3.91,2.48,1.38-1.4-.34-.22Zm-4.93-1.35c-.31-.16-.39-.3-.41-.38a1.49,1.49,0,0,1,.17-.66l1.86-4.2c.18-.38.3-.52.37-.55a.8.8,0,0,1,.55.05l.09,0,.15-.33L125,8.06l-3.64,3.83.33-5.28-1.63-.72-.15.33.08,0c.34.17.44.31.46.39a1.55,1.55,0,0,1-.15.66l-1.69,3.84a2.33,2.33,0,0,1-.52.86.85.85,0,0,1-.64,0h-.09l-.15.3,1.94.86.15-.33-.07,0c-.28-.18-.37-.3-.4-.39a2,2,0,0,1,.27-1l1.45-3.31-.34,5.55.22.1,4-4.2-1.65,3.76c-.22.51-.35.64-.4.67a.91.91,0,0,1-.59-.05h-.09l-.15.31,2.29,1,.16-.34-.09,0Zm-10-10.61a.64.64,0,0,1-.12.2l-.09,0h0a2.29,2.29,0,0,1-.38-.25,1.77,1.77,0,0,0-.68-.3,1.44,1.44,0,0,0-1.26.34,2.15,2.15,0,0,0-.67,1.26,1.87,1.87,0,0,0,.15,1.18,3,3,0,0,0,.42.62l.59.66a6.24,6.24,0,0,1,.64.83,1.36,1.36,0,0,1,.12.85,1.24,1.24,0,0,1-.41.75.83.83,0,0,1-.66.16,1.38,1.38,0,0,1-1-.87,4.05,4.05,0,0,1-.27-1.15V8.47l-.35-.07-.17,2.39.34.07v-.09l.12-.18.11,0a3.5,3.5,0,0,1,.41.26,2.22,2.22,0,0,0,.79.33,1.11,1.11,0,0,0,.35,0,1.69,1.69,0,0,0,1-.36,2.06,2.06,0,0,0,.77-1.29,1.94,1.94,0,0,0-.08-1.13,4.38,4.38,0,0,0-.79-1.15l-.61-.69a2.75,2.75,0,0,1-.47-.67,1.29,1.29,0,0,1-.07-.66.89.89,0,0,1,.34-.57.76.76,0,0,1,.56-.12,1.28,1.28,0,0,1,.74.5,2.62,2.62,0,0,1,.37,1.44v.08l.37.07.23-2.38-.32-.06,0,.06Zm-7.3-1a2.37,2.37,0,0,1,1.89,1.06A4.21,4.21,0,0,1,109.22,7a4,4,0,0,1-1,2.67,2.48,2.48,0,0,1-1.82.83h-.14a2.42,2.42,0,0,1-1.93-1.13,4.24,4.24,0,0,1-.66-2.68,4.11,4.11,0,0,1,1-2.66,2.41,2.41,0,0,1,2-.84m1.47,3.7a4.44,4.44,0,0,0-.37-2.4,1.42,1.42,0,0,0-1.13-.78h-.07a1.42,1.42,0,0,0-1.15.67,4.4,4.4,0,0,0-.62,2.33,4.51,4.51,0,0,0,.37,2.38,1.42,1.42,0,0,0,1.15.79,1.36,1.36,0,0,0,1.21-.66,4.35,4.35,0,0,0,.62-2.34m-7-3.1a3.24,3.24,0,0,1,1.7,2.91,4.79,4.79,0,0,1-.13,1.52A3.29,3.29,0,0,1,102,9.51a2.79,2.79,0,0,1-.66.54,3.87,3.87,0,0,1-1.56.44l-2.38.2,0-.35h.08a1.41,1.41,0,0,0,.52-.24s.11-.2,0-.66l-.4-4.58c0-.46-.12-.61-.17-.66s-.18-.12-.54-.12H96.8l0-.37,2.31-.2a3.83,3.83,0,0,1,2,.3M99.51,9.93A2.35,2.35,0,0,0,101,9.34a2.87,2.87,0,0,0,.71-2.51,3.23,3.23,0,0,0-1-2.26,2.3,2.3,0,0,0-1.48-.52H99c-.22,0-.29,0-.32.08a.38.38,0,0,0,0,.27l.47,5.24c0,.19.07.24.09.26a.55.55,0,0,0,.2,0Zm-2.42.52H96.8a.69.69,0,0,1-.34-.06s-.15-.16-.25-.64l-.89-4.5c-.09-.42,0-.61,0-.68a1,1,0,0,1,.55-.28H96l-.07-.37-2.58.5.09.36h.08a.86.86,0,0,1,.61,0c.06.05.16.2.25.64l.89,4.5c.1.47,0,.64,0,.69s-.18.17-.55.27h-.09l.07.39,2.58-.53-.07-.35h-.08ZM92,5.35a.78.78,0,0,1,.47-.41l.07,0-.11-.35-2,.64.12.35h.07c.27-.07.47-.07.55,0a1.83,1.83,0,0,1,.49.94l1,3L88.26,5.89l-1.49.47.12.35.09,0a.85.85,0,0,1,.33,0s.15,0,.36.2l.13.1,1.35,4.31a2,2,0,0,1,.17,1,.85.85,0,0,1-.49.42l-.09,0,.12.34,2-.64-.1-.34H90.7a1,1,0,0,1-.56,0,2,2,0,0,1-.49-.94L88.54,7.57l5,4.15.27-.09L92.15,6.36a2.22,2.22,0,0,1-.17-1m-6.2,3.16a2.15,2.15,0,0,1-.3-.95c0-.15.15-.3.4-.47l.07,0-.15-.32-1.89.91.15.32h.07a.69.69,0,0,1,.6,0c.11,0,.27.23.58.84l1.18,2.41a4,4,0,0,1,.45,1.37,1.22,1.22,0,0,1-.81,1.26,1.12,1.12,0,0,1-1.38-.19,3.38,3.38,0,0,1-.69-1l-1.45-3c-.2-.42-.2-.59-.18-.64s.11-.2.43-.4l.07,0-.15-.33L80.51,9.29l.15.34.08,0a.83.83,0,0,1,.56-.08c.07,0,.2.13.39.56L83.1,13a3.6,3.6,0,0,0,.93,1.3,1.85,1.85,0,0,0,1.19.46,2.48,2.48,0,0,0,1-.26,1.9,1.9,0,0,0,1.23-1.88,4.35,4.35,0,0,0-.5-1.66L85.8,8.52Zm-7.67,7.22a4.42,4.42,0,0,0-1.29-.16H75.75a2.33,2.33,0,0,1-.75-.09,1,1,0,0,1-.53-.39.91.91,0,0,1-.21-.64.71.71,0,0,1,.26-.5,1.28,1.28,0,0,1,.88-.22,2.43,2.43,0,0,1,1.31.67l.06.05.28-.23-1.63-1.75-.26.2,0,.06a.54.54,0,0,1,.08.22l-.06.12a4.27,4.27,0,0,1-.44.14,1.53,1.53,0,0,0-.68.3,1.42,1.42,0,0,0-.57,1.16A2.1,2.1,0,0,0,74,16a1.94,1.94,0,0,0,1,.66,3.29,3.29,0,0,0,.74.08h1a3.21,3.21,0,0,1,1,.07,1.38,1.38,0,0,1,.72.47,1.25,1.25,0,0,1,.31.8.85.85,0,0,1-.32.6,1.32,1.32,0,0,1-1.32.17,3.71,3.71,0,0,1-1-.56l-.07,0-.29.22,1.69,1.7.27-.2,0-.07-.09-.2,0-.12.46-.13a2.21,2.21,0,0,0,.77-.37,1.65,1.65,0,0,0,.68-1.27A2.06,2.06,0,0,0,79,16.4a2,2,0,0,0-.91-.67m-3.86,2.42a4,4,0,0,1,1.33,2.53,2.47,2.47,0,0,1-2.46,2.75,2,2,0,0,1-.35,0,4.14,4.14,0,0,1-2.45-1.28A4.16,4.16,0,0,1,69,19.62a2.49,2.49,0,0,1,.7-2.06,2.42,2.42,0,0,1,2-.72,4.07,4.07,0,0,1,2.53,1.3m.27,4.17a1.39,1.39,0,0,0,.3-1.34,4.28,4.28,0,0,0-1.34-2,4.1,4.1,0,0,0-2.06-1.3,2.46,2.46,0,0,0-.37,0,1.21,1.21,0,0,0-.94.37,1.47,1.47,0,0,0-.31,1.37,4.51,4.51,0,0,0,1.33,2,4.4,4.4,0,0,0,2,1.3,1.43,1.43,0,0,0,1.36-.34M70.83,24a2.83,2.83,0,0,1,.51,1.35,2.34,2.34,0,0,1,0,.84,4,4,0,0,1-.69,1.47l-1.4,1.92L69,29.31l0-.07c.17-.3.19-.46.17-.54s-.08-.2-.47-.49L65,25.5c-.34-.25-.5-.3-.59-.3s-.23.06-.45.32l0,.06-.31-.22,1.37-1.87a3.76,3.76,0,0,1,1.53-1.29,3.3,3.3,0,0,1,3.32.62,4.11,4.11,0,0,1,1.06,1.1m-.28,2a2.91,2.91,0,0,0-1.44-2.19,3.37,3.37,0,0,0-2-.78,1,1,0,0,0-.34,0,2.24,2.24,0,0,0-1.55,1c-.13.16-.15.25-.13.28s0,.09.16.21l4.25,3.1c.15.1.22.11.25.1s.1-.05.26-.26a2.45,2.45,0,0,0,.54-1.51m-1.72,3.48.32.17-1.08,2-.32-.17,0-.07a1.12,1.12,0,0,0,.12-.42s0-.1-.15-.15a1,1,0,0,0-.24-.09,2.24,2.24,0,0,0-.39-.08l-1-.17-1,1.8c.47.47.76.76.86.88a1,1,0,0,0,.27.2.28.28,0,0,0,.3,0,1.31,1.31,0,0,0,.24-.29l.05-.07.32.17-.86,1.62-.32-.17v-.08a.53.53,0,0,0,0-.49,9.19,9.19,0,0,0-1-1.11l-3.73-4,.14-.27,6.2.93a2.43,2.43,0,0,0,.74.05.67.67,0,0,0,.32-.23l0-.07ZM63,29.93l1.79,1.87.77-1.45Zm2.86,5.46c-.16.35-.3.47-.37.5s-.33,0-.67-.13L60,33.91l.14-.34a1.19,1.19,0,0,1,.52-.74,2.42,2.42,0,0,1,1.08.05h.08l.14-.34-1.82-.66-1.75,4.54,1.78.74.14-.36-.07,0a2.06,2.06,0,0,1-.83-.69,1.25,1.25,0,0,1,.11-.89l.13-.36,4.73,1.82a1.93,1.93,0,0,1,.7.39c0,.07.06.22,0,.62v.09l.32.13.94-2.41-.36-.13,0,.08Zm-2.93,3.54a2.16,2.16,0,0,0-1.13,0,3.92,3.92,0,0,0-1.19.71l-.73.55a2.23,2.23,0,0,1-.7.42,1.06,1.06,0,0,1-.66,0,.78.78,0,0,1-.56-.37.72.72,0,0,1-.08-.55,1.23,1.23,0,0,1,.55-.71,2.36,2.36,0,0,1,1.45-.27H60l.1-.36L57.71,38l-.08.32.06,0a1.55,1.55,0,0,1,.2.14s0,0,0,.13a4.18,4.18,0,0,1-.26.37,1.93,1.93,0,0,0-.36.64,1.48,1.48,0,0,0,.25,1.29,2.16,2.16,0,0,0,1.22.75,1.82,1.82,0,0,0,1.19-.08,2.5,2.5,0,0,0,.64-.37l.71-.54a7.24,7.24,0,0,1,.88-.59,1.41,1.41,0,0,1,1.58.4,1,1,0,0,1,.14.68,1.34,1.34,0,0,1-1,.94,3.36,3.36,0,0,1-1.16.2H61.7l-.08.36L64,43l.09-.33-.07,0-.18-.11,0-.12a3.77,3.77,0,0,1,.29-.39,1.78,1.78,0,0,0,.39-.76,1.7,1.7,0,0,0-.24-1.43A2.06,2.06,0,0,0,63,38.93m-1.24,4.43,1.85.66L63,48.62l-.37,0V48.5c0-.36-.05-.51-.1-.56s-.17-.13-.64-.2l-4.55-.57c-.14,0-.25,0-.35,0a1.17,1.17,0,0,0-.33,0c-.06,0-.16.17-.23.51v.08l-.39,0,.59-4.53,1.65.18-.05.37h-.08c-.54,0-.78.1-.86.19s-.22.27-.29.84l-.13,1.11v.15a.65.65,0,0,0,.22.07l2.19.29.08-.79c0-.41,0-.56-.08-.63a1.87,1.87,0,0,0-.73-.3h-.07l.06-.39,2.54.32L61,45h-.09a1.68,1.68,0,0,0-.77.13c-.08,0-.19.19-.24.57l-.08.8,2.44.32c.15,0,.26,0,.29,0a4.06,4.06,0,0,0,.17-.9,2.76,2.76,0,0,0-.07-1.21,2,2,0,0,0-1-.81l-.05,0,.05-.41Z"/><path class="cls-1" d="M148.25,61.86a2.21,2.21,0,0,0,.84-.44l2.59-2.53a2.86,2.86,0,0,0,.63-2.12,3.35,3.35,0,0,1,.18-1.58,2.3,2.3,0,0,0-.57-2.24c-.22-.24-.29-.27-.3-.27v.23a6.08,6.08,0,0,1,0,3.27,4.45,4.45,0,0,0-.49,2.16c0,.28-.15.44-.3.45l-.14,0,0,0a1.07,1.07,0,0,1-.08-.43l.3-1.65.42-2.46c.19-.72-.08-1-.39-1.19l-.17-.07h0a.8.8,0,0,0-.05.42c0,2.83-.24,4.4-.62,4.94l-1.84,3c-.13.39-.12.51-.08.54h.08m-1.53,2.21a.52.52,0,0,0,.44-.54,2.67,2.67,0,0,1,.21-1.72,8.11,8.11,0,0,1,1.05-2,15.89,15.89,0,0,0,1.06-1.8,12.72,12.72,0,0,0,.62-4.42c-.05-1.31-.3-1.63-.57-1.88s-.25-.17-.25-.17,0,0,0,.28a3.56,3.56,0,0,1-.28,2.58,7.47,7.47,0,0,0-.39,3.73c0,.43-.22.6-.39.62a.42.42,0,0,1-.28-.1.52.52,0,0,1-.14-.37,9.27,9.27,0,0,1,.41-3.76,4,4,0,0,0,.55-2.73c0-.29-.12-.4-.23-.4s-.17.05-.36.23c-.87.95-1.23,3-1.13,6.59a10.15,10.15,0,0,1-.33,2.85,13,13,0,0,0-.37,2.39.49.49,0,0,0,.1.45.36.36,0,0,0,.33.12m-.43-3.89a.61.61,0,0,0,.2-.22,2.22,2.22,0,0,0-.12-1.62,5,5,0,0,1-.12-2.3c.2-1.54,0-2.06-.3-2.33a.57.57,0,0,0-.29-.1h0s0,.07,0,.29a2.36,2.36,0,0,1-.07.94,4.83,4.83,0,0,0,.24,3,.3.3,0,0,1,0,.34l-.12.1h0c-.12,0-.27-.07-.39-.31a6.59,6.59,0,0,1-.2-4,1.67,1.67,0,0,0-.32-1.8l-.16-.08c0,.08-.05.2-.11.37-.86,3.69-.41,6.08,1.45,7.5.13.13.25.2.32.18m-3,15.94a2.81,2.81,0,0,0,.72-.24c.31-.13.61-.23.91-.33s.54-.17.83-.29a4.1,4.1,0,0,0,1.26-.81A15.14,15.14,0,0,0,149,70.22c.25-.76.52-1.55.84-2.3.21-.48.16-.57.14-.57a1.25,1.25,0,0,0-.41.24,12.44,12.44,0,0,0-1.88,3.79,6.65,6.65,0,0,1-1.37,2.68,1,1,0,0,1-.37.13l-.13,0,0,0c-.05-.1,0-.27.22-.59a9.61,9.61,0,0,0,1.42-2.8,9.15,9.15,0,0,1,1.45-2.85c.32-.45.35-.57.35-.59a1.64,1.64,0,0,0-.56.24c-1.19.71-1.82,1.75-2.22,3.81a11.35,11.35,0,0,1-3.1,4.28c-.18.33-.15.44-.15.47l.15,0m-2.73-1.28c.2,0,.32-.7.46-1.51a5.44,5.44,0,0,1,.84-2.48,25.49,25.49,0,0,0,2.24-4.94.57.57,0,0,0-.12-.45l-.15-.07a.79.79,0,0,0-.37.25,9.59,9.59,0,0,0-1.2,2.61,19.82,19.82,0,0,1-1.41,3.31c-.09.13-.2.28-.36.3l-.13,0,0,0c-.11-.17,0-.61.24-1.2a3.52,3.52,0,0,1,.44-.76,5,5,0,0,0,.89-2,3.84,3.84,0,0,1,1-2.14.23.23,0,0,0-.08-.34.87.87,0,0,0-.44.27c-2,2.45-4.06,6-2,9.08.14.16.24.17.29.17m-.69,3.93a.69.69,0,0,0,.45-.27,9.32,9.32,0,0,0,1.87-2.68,3.93,3.93,0,0,1,1.15-1.3,6.36,6.36,0,0,0,1.13-1.13c1.78-3.3,2.68-6,2.73-8.34,0-.6-.1-.64-.14-.62s-.13,0-.4.46a25.79,25.79,0,0,0-1.49,3.84,18.41,18.41,0,0,1-2.29,5.19.77.77,0,0,1-.38.23l-.12,0,0,0c-.06-.08-.06-.25,0-.55.37-1,.87-2.12,1.4-3.27a41.54,41.54,0,0,0,1.87-4.5c.11-.4.06-.47.06-.47s-.13,0-.38.3A25,25,0,0,0,142,72.29l-.37,1a9,9,0,0,1-2,4.75.57.57,0,0,0,0,.55.28.28,0,0,0,.3.17m-11,7.75a3.94,3.94,0,0,0,1.58-1.56A10.4,10.4,0,0,1,133,82a3.57,3.57,0,0,0,1.45-1.87c.1-.39.05-.49,0-.53s-.15,0-.39.26a17.21,17.21,0,0,0-2.84,3.27,1.31,1.31,0,0,1-.68.45l-.17,0,0,0c-.07-.1,0-.28.12-.55l1.4-1.6a21.92,21.92,0,0,1,1.65-1.67c.84-.79,1.38-1.3,1.36-1.87,0-.34-.1-.37-.1-.37s0,0-.13.13a32.85,32.85,0,0,1-3.83,3.73,4.21,4.21,0,0,0-1.58,2.44,13.16,13.16,0,0,1-.44,2.34c0,.2,0,.32,0,.39s.1.07.17.07m4.56,2.12a10.43,10.43,0,0,0,2.11-.37A16.85,16.85,0,0,0,139.37,85c1.06-1,1.53-1.87,1.36-2.49,0-.19-.08-.27-.13-.27s-.09,0-.19.18a19.29,19.29,0,0,1-5.29,5.33,1.17,1.17,0,0,1-.25.08c-.14,0-.24-.05-.25-.15s.1-.42.4-.63l.47-.35a13,13,0,0,0,4.25-4.41.38.38,0,0,0-.05-.29l-.2-.07a.81.81,0,0,0-.51.27,15.67,15.67,0,0,1-8.17,6.2c-.25.09-.34.24-.32.32s.1.17.4.14.86-.07,1.32-.07a11.76,11.76,0,0,0,1.34-.08M126.88,90a.75.75,0,0,0,.59-.37c.56-.91,1.82-1.59,3.86-2a20.15,20.15,0,0,0,5.41-4.06c1.5-1.27,2.26-2.51,2.24-3.69a6.05,6.05,0,0,0,0-.78s-.07,0-.19.29a9,9,0,0,1-3,3.49A14.13,14.13,0,0,0,132,86.32c-.6.46-.79.53-.89.53h-.12l0-.07c0-.1,0-.25.15-.54.68-1.28,2.68-2.88,4.53-4.28,1.71-1.23,2.63-2.33,2.87-3.35,0-.26,0-.32,0-.32s-.1,0-.4.33c-.81.71-1.62,1.35-2.36,2a21.13,21.13,0,0,0-4.2,4A14.64,14.64,0,0,1,127.76,88c-.69.45-1.18.8-1.3,1.16a.49.49,0,0,0-.17.52.59.59,0,0,0,.59.32m-13.61,3.54a1.24,1.24,0,0,0,.67-.22,43.63,43.63,0,0,1,5.5-2.48,11.62,11.62,0,0,1,2-.55,12,12,0,0,0,1.25-.31.42.42,0,0,0,.32-.47.3.3,0,0,0-.37-.3h0c-.3.1-.59.18-.84.28a8,8,0,0,1-1.51.44,3.67,3.67,0,0,0-1.47.56,3.12,3.12,0,0,1-1,.45l-1.06.27-.18,0c-.25,0-.32-.07-.32-.15,0-.27.55-.59,1.13-.76l2.14-.63a4.6,4.6,0,0,1,2.41-1c.18,0,.35,0,.53,0h.26s0-.08-.31-.3a2.17,2.17,0,0,0-1.24-.25A5.06,5.06,0,0,0,119,89a3.53,3.53,0,0,1-1.26.4,2.2,2.2,0,0,0-.91.32A17.59,17.59,0,0,0,115,91.16a5.84,5.84,0,0,1-3.08,1.77h-.09c.17.44.91.66,1.52.61m4.82,4.83a4,4,0,0,0,.5-.05,40.37,40.37,0,0,0,7.42-3.13c.27-.14.32-.26.32-.29s-.1-.1-.29-.1h-.37a7.93,7.93,0,0,0-2.88,1.13A16.42,16.42,0,0,1,119,97.51c-.23,0-.39-.05-.4-.18s.15-.34.5-.48l5.68-2.32c.14-.07.22-.17.2-.24s-.23-.22-.7-.18A12.36,12.36,0,0,0,121,95.32a17.18,17.18,0,0,1-5.31,1.82A4.41,4.41,0,0,1,114.2,97c.6,1.1,1.88,1.52,4,1.35m-2.85-1.85a8.91,8.91,0,0,0,2.3-.71c.48-.19,1-.4,1.61-.61,2.18-.82,4.86-2,6.25-3.5a2.41,2.41,0,0,0,.27-.46h-.5a16.44,16.44,0,0,0-6,2.75,10,10,0,0,1-3.55,1.16,4,4,0,0,1-.85,0c-.37,0-.6-.15-.6-.37s.62-.6,1.65-.74h.3a11.35,11.35,0,0,0,3.62-1.47c.73-.38,1.52-.79,2.36-1.17a4.94,4.94,0,0,1,1.79-.54l.32,0c.69-.07.82-.25.82-.29s-.13-.13-.43-.11a8.77,8.77,0,0,0-1,0c-3,.25-5.8,1.48-9,2.91l-.65.29a2.56,2.56,0,0,1-1.15.4,2.3,2.3,0,0,1-1-.15,22.35,22.35,0,0,0-5-1.5.6.6,0,0,0-.49.56.51.51,0,0,0,.4.6,9.6,9.6,0,0,1,4.33,1.25,12.69,12.69,0,0,0,3.17,1.58,2.7,2.7,0,0,0,1.06.1m34.95-32.4a.8.8,0,0,0,.7-.45,1.52,1.52,0,0,0-.11-1.43.73.73,0,0,0-.71-.39,1.4,1.4,0,0,0-.79.42c-.22.35-.44.54-.69.56h-.22l-.17,0a.49.49,0,0,0-.41.22.87.87,0,0,0-.13.45.57.57,0,0,0,.67.58.9.9,0,0,0,.22,0,.87.87,0,0,1,.41-.14.86.86,0,0,1,.62.2,1.42,1.42,0,0,0,.59.07m-6.94,15.72a.88.88,0,0,0,.72-.5A1.45,1.45,0,0,0,144,78a.77.77,0,0,0-.74-.37,1.6,1.6,0,0,0-.62.2,1.16,1.16,0,0,1-.66.41.68.68,0,0,1-.32-.07h-.22a.66.66,0,0,0-.62.71.52.52,0,0,0,.15.37.53.53,0,0,0,.45.13l.15,0,.22,0a.69.69,0,0,1,.64.33,1.52,1.52,0,0,0,.9.22m-13.82,13a1.55,1.55,0,0,0,1.18-1.45c0-.55-.44-.86-1.16-.82a2.69,2.69,0,0,1-.41.1.63.63,0,0,1-.62-.29.48.48,0,0,0-.44-.22.88.88,0,0,0-.67.69c0,.29.12.49.44.58a.69.69,0,0,1,.59.7c.32.51.69.76,1.09.73m15.75-29.79a.79.79,0,0,0,.63-.61.55.55,0,0,0-.37-.65c-.34-.11-.39-.38-.46-.63l0-.15c-.25-.59-.61-.89-1-.86a1.45,1.45,0,0,0-1.14,1.26c0,.32.06.86.94,1,.08,0,.15,0,.23,0a.63.63,0,0,1,.73.35.5.5,0,0,0,.5.3m-6.5,14.24a.83.83,0,0,0,.68-.51.58.58,0,0,0-.21-.64.73.73,0,0,1-.27-.89c-.11-.79-.47-1.2-1-1.14a1.57,1.57,0,0,0-1.28,1.12c-.09.46.2.85.75,1.07.53,0,.8.23.83.59a.46.46,0,0,0,.52.4M126.53,88.16a.69.69,0,0,0,.52-.29.65.65,0,0,0,0-.57.76.76,0,0,1,.2-.93,1.38,1.38,0,0,0,0-1.31,1.06,1.06,0,0,0-1-.37,1.29,1.29,0,0,0-1.08.66,1.16,1.16,0,0,0,.23,1.16c.43.3.56.61.43.94A.58.58,0,0,0,126,88a.66.66,0,0,0,.58.2M62,65.65s.13,0,.28-.35c.26-.81.63-1.25,1.17-1.28.37,0,.62-.22.65-.48a.59.59,0,0,0-.5-.62c-.47-.2-.93-.44-1.35-.67l-.18,0a.49.49,0,0,0-.39.31.68.68,0,0,0,0,.67,1.38,1.38,0,0,1,.11,1.11,2.23,2.23,0,0,0,0,1.06c.13.31.21.32.26.32m-2.47.43a.54.54,0,0,0-.09-.54l-.8-1.07-.19-.64a.62.62,0,0,0-.67-.6.61.61,0,0,0-.51.33A11.38,11.38,0,0,1,56.47,65a.54.54,0,0,0,0,.53.52.52,0,0,0,.48.18,1,1,0,0,0,.41-.1.61.61,0,0,1,.44-.22c.38,0,.79.25,1.29.69a.53.53,0,0,0,.22.09ZM56,64.54a.84.84,0,0,0,.62-.46,1,1,0,0,0,0-.91.53.53,0,0,0-.47-.15c-.08,0-.15,0-.25,0a.85.85,0,0,0-.52.61.75.75,0,0,0,.16.74,1.34,1.34,0,0,0,.51.12m7.7-2.29a.89.89,0,0,0,.57-.24.77.77,0,0,0,0-.69c-.1-.19-.39-.29-.88-.3a.64.64,0,0,0-.59.45.5.5,0,0,0,.22.63,1.28,1.28,0,0,0,.62.15M61,66.73a.25.25,0,0,0,.21-.15A.84.84,0,0,0,61,65.8c-.77-2-.81-3.27-.17-3.82.24-.37.24-.66,0-.9a.4.4,0,0,1-.13-.4.54.54,0,0,1,.35-.32c.37-.14.57-.44,1-1,.62-.6.73-1.14.62-1.41a.45.45,0,0,0-.52-.29,1.87,1.87,0,0,0-.94.44.7.7,0,0,1-.32.13.31.31,0,0,1-.35-.28.49.49,0,0,1,.33-.49c1.74-.88,2.45-1.7,2.29-2.68,0-.34-.13-.49-.27-.49s-.16.05-.3.15a3.33,3.33,0,0,1-1,.44c-.14,0-.19-.05-.22-.1s0-.3.22-.64a2.33,2.33,0,0,0,.74-2.31c-.12-.4-.29-.44-.42-.44a.84.84,0,0,0-.39.17,1.87,1.87,0,0,1-1.11.69.88.88,0,0,1-.63-.2.84.84,0,0,0-.4-.08c-.74.06-1,1.44-1.06,2.57,0,.15,0,.63-.31.64s-.33-.06-.8-.77a.19.19,0,0,0-.19-.12c-.1,0-.32.12-.69.57a1.4,1.4,0,0,0-.19,1.6l.64,1.13a.8.8,0,0,1,.06.66.37.37,0,0,1-.24.15.58.58,0,0,1-.22,0,2.25,2.25,0,0,0-.93-.31.27.27,0,0,0-.22.12c-.06.12-.13.37.06,1a2,2,0,0,0,1.6,1.38,1,1,0,0,1,.7,1.15c0,.29.09.71,1,1.06.59.22,1.05.76,1.42,2.66a1.64,1.64,0,0,0,.8,1.2l.22.07M57.26,56.45h.05c.09,0,.26,0,.75.49a.5.5,0,0,0,.28.13c.15,0,.24-.27.29-.48l.2-1.47a1.33,1.33,0,0,1,.22-1,1.5,1.5,0,0,1,1-.49c.15,0,.37,0,.42.14s-.07.33-.24.53a3,3,0,0,0-.94,1.82.49.49,0,0,0,0,.36.16.16,0,0,0,.15,0,1.14,1.14,0,0,0,.26,0c.4,0,.57,0,.6.15s-.11.32-1,.86c-.41.25-.54.36-.53,1.27.06.69.17.86.56.82a1.1,1.1,0,0,0,.29-.05.86.86,0,0,1,.32-.12h.12v.09c0,.1,0,.27-.79,1.13-.35.32-.4.48-.39.59s.14.18.34.25c.39.27.49.62.4.84a.38.38,0,0,1-.32.27,1,1,0,0,1-.79-.42l-.07-.61c.22-.54,0-.67-.47-.86a1.24,1.24,0,0,1-.52-.32s-.2-.18-.13-.35.27-.19.4-.2a.58.58,0,0,0,.39-.34c.2-.54-.39-1.6-.93-2.46-.13-.29-.13-.42-.1-.47l.07-.07ZM65,81.27a1,1,0,0,0,.69-.41.76.76,0,0,1,.54-.32,2,2,0,0,1,.94.26h.29a.31.31,0,0,0,.3-.14c0-.13-.19-.49-.93-.86a1.66,1.66,0,0,1-1-1,.58.58,0,0,0-.58-.32.68.68,0,0,0-.6.7,4.7,4.7,0,0,1-.22,1.49.36.36,0,0,0,0,.38.54.54,0,0,0,.52.19m-1.43-.91a.92.92,0,0,0,.54-.32,1,1,0,0,0,.07-.76c-.11-.44-.39-.57-.65-.54a.68.68,0,0,0-.53.34,1,1,0,0,0,0,.94.56.56,0,0,0,.62.36m6.06-5.29c.37,0,.58-.17.64-.43a.91.91,0,0,0-.18-.69.82.82,0,0,0-.59-.15,3.24,3.24,0,0,0-.39.07.71.71,0,0,0-.47.66c0,.28.25.47.62.54h.36M68.7,79c.19,0,.39-.25.43-.74a1.24,1.24,0,0,1,1-1.48.46.46,0,0,0,.24-.49.55.55,0,0,0-.53-.45,4.78,4.78,0,0,1-1.55-.36,1.76,1.76,0,0,0-.23,0,.4.4,0,0,0-.39.24.85.85,0,0,0,.08.79c.34.3.54,1,.64,2.24,0,.19.14.3.27.29m.51,1.5c.13,0,.24-.07.27-.17a.55.55,0,0,0-.2-.56c-2.48-1.41-3-3.57-1.65-6.38A1.68,1.68,0,0,0,67.69,72a.27.27,0,0,0-.27-.14c-.16,0-.37.17-.57.42a.79.79,0,0,1-.44.27.34.34,0,0,1-.28-.13.75.75,0,0,1,0-.64c.54-1.7.64-2.86.29-3.47a1,1,0,0,0-.74-.51.88.88,0,0,0-.36,0c-.48,0-.8.56-.92,1.62-.14.42-.39.7-.64.74l-.19,0v0a.51.51,0,0,1-.08-.5c.47-1.35.45-2.17,0-2.46a.67.67,0,0,0-.37-.12c-.25,0-.43.3-.54.84s-.3.53-.43.54c-.29,0-.54-.32-.64-.67s-.36-.42-.54-.41a.57.57,0,0,0-.31.12,1.27,1.27,0,0,1-.82.44,2.64,2.64,0,0,1-.46,0c-.27,0-.44.08-.5.2s0,.28.06.49c.31.3.44.6.36.81a.3.3,0,0,1-.27.16,1.25,1.25,0,0,1-.49-.11,2.23,2.23,0,0,0-.34,0,.45.45,0,0,0-.4.24.72.72,0,0,0,.05.69,4,4,0,0,0,1.87,1.23c.44.17.47.29.45.37s-.21.15-.28.15h-.68a.44.44,0,0,0-.38.15c-.07.09,0,.24,0,.47.14,1,1.21,1.59,3.45,2,.32.08.51.25.48.43s-.05.19-.37.22h-.81a.48.48,0,0,0-.31.12.44.44,0,0,0,.09.32,4.36,4.36,0,0,0,3,1.4,2.49,2.49,0,0,1,1.84,1.38,8.72,8.72,0,0,0,2.78,2.07.93.93,0,0,0,.32.05m-5.55-4.76c.36-.09.8-.26.81-.61,0-.62-1.18-1.6-2.93-1.72-.3,0-.4-.18-.39-.32s.14-.23.29-.25l.18,0a3,3,0,0,0,1.12.17c.33,0,.54-.17.57-.42.08-.73-1.15-2-2.78-2.16-.29,0-.35-.18-.35-.28s.08-.19.25-.21h.2a2.35,2.35,0,0,0,.83.12l.13,0c0-.14-.49-.64-.79-1L60.68,69a.43.43,0,0,1-.08-.49.42.42,0,0,1,.3-.23.35.35,0,0,1,.29.12c.34.4.61.69.79.67s.29-.18.51-.59c0-.12.11-.22.25-.24h.15a.48.48,0,0,1,0,.44,2.16,2.16,0,0,0,0,2.09c.32.52.79,1.22,1.1,1.18s.42-.54.67-1.19c.15-.39.32-.83.54-1.32,0-.12.15-.29.32-.29h.1a.53.53,0,0,1,0,.44c-.3.86-.6,1.77-.89,2.6a2,2,0,0,0,0,1.73.73.73,0,0,0,.69.29,1.53,1.53,0,0,0,.37-.08.67.67,0,0,1,.22-.07l.19,0v0c.06.1,0,.25-.12.42-.56.71-.67,1.18-.35,1.6a.4.4,0,0,1,.06.37l-.13.12h0a.43.43,0,0,1-.31-.15c-.3-.37-.94-.37-1.7-.32a.26.26,0,0,1-.28-.26c0-.08.08-.18.25-.2h.07ZM77.68,93a.91.91,0,0,0,.7-.54,1.56,1.56,0,0,1,1.48-.89h.07a1.41,1.41,0,0,0,.37-.07s0-.15-.17-.3A1.44,1.44,0,0,0,79.07,91a1.55,1.55,0,0,1-1.25-.45,1,1,0,0,0-.52-.16.48.48,0,0,0-.42.27.81.81,0,0,0,.08.85,2.74,2.74,0,0,1,.24,1.14.44.44,0,0,0,.48.37m4.57-2.74c.08-.14.07-.53-.24-1.22a.88.88,0,0,1,.36-1,.56.56,0,0,0,.15-.61A.52.52,0,0,0,82,87.1a.69.69,0,0,0-.34.1,3.68,3.68,0,0,1-1.06.27h-.2a.58.58,0,0,0-.51.45.61.61,0,0,0,.39.7,1.72,1.72,0,0,1,1.06.9c.35.58.71.83.88.81l.08,0Zm-6.33,2.44a.72.72,0,0,0,.55-.22.52.52,0,0,0,.14-.4c-.1-.63-.34-.91-.73-.88a1,1,0,0,0-.44.13.84.84,0,0,0-.3.7.76.76,0,0,0,.49.69h.3m4.64-5.92a1.23,1.23,0,0,0,1.06-.54.7.7,0,0,0-.15-.49.67.67,0,0,0-.56-.16,1.33,1.33,0,0,0-.76.33.54.54,0,0,0-.13.51.53.53,0,0,0,.52.37h0Zm.53,4.4a.3.3,0,0,0,.27-.2.44.44,0,0,0-.15-.51,6.47,6.47,0,0,1-2.84-4.75c-.09-.3-.21-.4-.29-.4s-.19.11-.25.27c-.14.38-.37.55-.56.57a.32.32,0,0,1-.25-.1.54.54,0,0,1-.14-.44c.09-2.46-.12-3.49-.82-4.11a1.18,1.18,0,0,0-.68-.29c-.2,0-.35.19-.43.51l-.26,1.18c-.07.47-.3.54-.4.54a.44.44,0,0,1-.29-.12.45.45,0,0,1-.1-.36c.08-1.8.07-3.7-.67-4.14a.86.86,0,0,0-.42-.17c-.06,0-.19,0-.27.3-.14.63-.22,1-.48,1s-.35-.17-.65-.53c-.59-.82-.86-.92-1-.91s-.2.26-.24.68v.55c0,.61,0,1-.16,1.2a.81.81,0,0,1-.59.22h-.73a.78.78,0,0,0-.64.32.46.46,0,0,0,.22.49l1.84,1c.25.17.4.29.35.43s-.15.16-.45.18l-1.86-.18a.52.52,0,0,0-.4.15.5.5,0,0,0,0,.37c.44,1,1.9,1.77,4.33,2.16.28.06.39.23.37.37s-.1.21-.35.23l-2.41.31a.37.37,0,0,0-.32.13.44.44,0,0,0,0,.34c.7,1.16,1.8,1.61,3.55,1.48a5.55,5.55,0,0,0,.81-.1.77.77,0,0,1,.29,0c.3,0,.43.12.43.49s0,.45,0,.55a.29.29,0,0,0,.25.15,8.15,8.15,0,0,1,1.77-.33A5.38,5.38,0,0,1,80.72,91a.51.51,0,0,0,.37.12M74.82,88c-.32,0-.67.11-1,.19a7.34,7.34,0,0,1-1.09.19,1.76,1.76,0,0,1-.76-.07c-.41-.14-.54-.24-.52-.36s.15-.18.45-.21A20.08,20.08,0,0,0,74,87.17.31.31,0,0,0,74.2,87c0-.12,0-.29-.15-.52a1.57,1.57,0,0,0-1.49-1l-1.9-.26c-.27,0-.54-.21-.51-.39s0-.17.29-.19h.25l1.86-.06a.38.38,0,0,0,0-.26c-.49-1.31-1.08-2-1.71-2.15-.27,0-.37-.11-.38-.22s.15-.24.32-.31a.54.54,0,0,0,.2-.54.43.43,0,0,1,.2-.43c.14,0,.24.11.3.32.24.57.66,1.31.91,1.14.71-1.19.56.74.59,1.15a3.41,3.41,0,0,0,1.57,2.34.84.84,0,0,0,.3.07s.22,0,.24-.41l.15-.92c0-.32.14-.44.27-.46h.12a.73.73,0,0,1,.07.49c-.11,1.87.18,3,.86,3.32a.8.8,0,0,0,.45.08h.19c.28,0,.48.05.79.69.06.12.12.24.06.34s-.13.1-.28.12l-1.57.08c-.3,0-.34-.3-.37-.54a.68.68,0,0,0,0-.27c-.15-.23-.44-.33-.91-.28m16.33,10.7a4.53,4.53,0,0,0,2.71-2c.44-.53.77-.93,1.08-1a1.39,1.39,0,0,1,.5-.16,1.43,1.43,0,0,0,.9-.35,7.3,7.3,0,0,1,2.84-1.47,1,1,0,0,1,.37,0h.32c.7-.05,1.07-.41,1.12-.69a.48.48,0,0,0-.37-.54,4.05,4.05,0,0,0-1.1,0,7.9,7.9,0,0,0-2.51.67,1.93,1.93,0,0,1-.62.17,1.17,1.17,0,0,1-1-.39c-.73-.67-1.26-1-1.58-1-.11,0-.26,0-.36.35s-.4.49-.62.5a.71.71,0,0,1-.56-.35l-1-1.72c-.15-.47-.57-.69-1.3-.62a1.75,1.75,0,0,0-.43.07.72.72,0,0,0-.54.27A.59.59,0,0,0,89,91l.35.79c.15.27.19.48.12.61l-.14.12h-.05a.85.85,0,0,1-.54-.31c-1.11-1.36-2-1.92-3.11-1.83a.39.39,0,0,0-.34.15.47.47,0,0,0,0,.44l.25.79c.07.22.07.34-.12.49a.72.72,0,0,1-.35-.14,3.39,3.39,0,0,0-2.24-1,1.66,1.66,0,0,0-.76.27.69.69,0,0,0-.28.29.56.56,0,0,0,.11.32c.15.13.21.25.17.39a.59.59,0,0,1-.35.32l-2,.79c-.43.27-.63.49-.66.71a.59.59,0,0,0,.29.5,4.09,4.09,0,0,0,2.35.2c.58,0,1.23-.11,2-.23.28,0,.44.07.49.2s0,.22-.1.39a2.83,2.83,0,0,1-.9.89l-.11.15a.54.54,0,0,0,.15.29,1.32,1.32,0,0,0,1.09.42,1.61,1.61,0,0,0,.63-.17l2-1a.71.71,0,0,1,.27-.09l.19,0,0,.05a.91.91,0,0,1,0,.45l-.85,1.05a.65.65,0,0,0-.15.55.69.69,0,0,0,.47.36,5.08,5.08,0,0,0,.78,0,4.25,4.25,0,0,0,2.78-1.49,1.14,1.14,0,0,1,.67-.38.39.39,0,0,1,.29.1.42.42,0,0,1,0,.39l-.66,1.09a.44.44,0,0,0,0,.39c.07.13.26.2.53.22M91.37,95a4,4,0,0,0-2.14,1.53c-.14.12-.22.19-.36.19H88.7c-.06-.1,0-.25,0-.49l.37-.82a.46.46,0,0,0,0-.44.41.41,0,0,0-.37-.26,1.84,1.84,0,0,0-.68-.06,5.85,5.85,0,0,0-2.52,1.08,1.38,1.38,0,0,1-.26.06c-.16,0-.23-.06-.25-.12s0-.28.24-.43l.67-.69a.48.48,0,0,0,.09-.27.34.34,0,0,0-.22-.12,11.44,11.44,0,0,0-4.17-.2c-.43,0-.69-.07-.67-.24s.17-.24.42-.25l1.84-.2a.33.33,0,0,0,.27-.11c0-.06,0-.16,0-.25l-.15-.4c-.07-.14-.07-.24.1-.39a.83.83,0,0,1,.38.13,5,5,0,0,0,3.32,1.27c.14,0,.22-.07.24-.12s0-.12-.13-.32l-.46-.67a.46.46,0,0,1-.1-.44l.12-.12h0a.48.48,0,0,1,.4.29c1,1.38,2.07,2,3.35,1.9a.64.64,0,0,0,.38-.17.53.53,0,0,0,0-.35l-.44-.88a.59.59,0,0,1,0-.52l.08-.08h0a.45.45,0,0,1,.36.25l.89,1.46a1.45,1.45,0,0,0,1.45.68,1.76,1.76,0,0,0,1.16-.51.35.35,0,0,1,.22-.13c.15,0,.29.13.34.37a.71.71,0,0,1-.39.79c-.56.14-.84.32-.86.62-.22.73-.68,1.12-1,1.15a.29.29,0,0,1-.25-.1c0-.09-.08-.25.09-.54s.22-.52.11-.69S92.24,95,91.55,95h-.18Zm19,5.44a3.16,3.16,0,0,0,.6-.11c.09,0,.16-.09.17-.14a.29.29,0,0,0,0-.22A6.29,6.29,0,0,0,108,97.65a8.5,8.5,0,0,1-1.35-.71.56.56,0,0,0-.32-.12c-.1,0-.18.07-.28.22s-.46.61-.41.84.14.25.32.36c.41.2.78.35,1.17.5l.89.37a3.81,3.81,0,0,1,1.11.79,1.63,1.63,0,0,0,.84.53h.46m-9.82,1.13c.1,0,.23,0,.33-.34a5.4,5.4,0,0,1,2-1.8,9.59,9.59,0,0,0,2.34-2c.08-.15.39-.62.3-.76s-.32-.08-.54-.07-.3,0-.49.06h-.15a1,1,0,0,0-.71.43,11.56,11.56,0,0,1-1.92,1.52A10.57,10.57,0,0,0,99.91,100c-.41.4-.44.7-.19,1l.56.48a.52.52,0,0,0,.3.06m-3.86-.65a2.55,2.55,0,0,0,1.59-.94,5.6,5.6,0,0,1,2.22-2A8.5,8.5,0,0,0,102,97a.29.29,0,0,0,.14-.23c0-.05-.07-.12-.17-.19l-.69-.4a.34.34,0,0,0-.22-.07.86.86,0,0,0-.42.2c-.44.32-.9.63-1.35.93-1.4.93-2.73,1.78-2.82,3.22,0,.18,0,.33.09.38l.15,0Zm10.28.81a.53.53,0,0,0,.37-.2l.41-.54a.5.5,0,0,0,.1-.25c0-.12-.14-.2-.26-.29a5,5,0,0,0-1.46-.74,6.85,6.85,0,0,1-1.42-.67h-.22a.84.84,0,0,0-.75.64.52.52,0,0,0,.23.62,21.41,21.41,0,0,1,2.58,1.27.72.72,0,0,0,.42.16m2.28-5,.67-.47.12-.13-.1-.19a5.73,5.73,0,0,0-3.44-1.5s-.1.22,0,.76c0,.25.11.29.23.3a5.14,5.14,0,0,1,2.21,1.18c.08.09.13.14.18.12Zm-11.44-.1a.7.7,0,0,0,.53-.32,4.11,4.11,0,0,1,1.94-.81.66.66,0,0,0,.41-.74c0-.2-.17-.4-.42-.37A5.92,5.92,0,0,0,97,95.88a.23.23,0,0,0-.05.27l.62.43a.64.64,0,0,0,.27,0m12.61,1.3a.74.74,0,0,0,.37-.12.79.79,0,0,0,.43-.69c0-.2-.18-.35-.43-.42h-.22a.85.85,0,0,0-.68.55.61.61,0,0,0,0,.49.52.52,0,0,0,.48.19m-14.12-.17a.68.68,0,0,0,.5-.24.7.7,0,0,0,0-.64.68.68,0,0,0-.62-.21,1.57,1.57,0,0,0-.3,0,.46.46,0,0,0-.34.47.55.55,0,0,0,.44.54,1.53,1.53,0,0,0,.37,0m8.66-1.9a.79.79,0,0,0,.56-.27.72.72,0,0,0,.15-.52V92.74a.75.75,0,0,0-.78-.84.53.53,0,0,0-.44.24,1.16,1.16,0,0,0-.21.82l0,2.41c0,.34.35.49.69.46m-2.9.1a.84.84,0,0,0,.69-.58,10.11,10.11,0,0,0,0-2.81.67.67,0,0,0-.67-.49.63.63,0,0,0-.57.54,5.47,5.47,0,0,0,0,3,.58.58,0,0,0,.63.39M83.67,75.09c.47.2.91.4,1.28.59a5.6,5.6,0,0,0,1.66.62h.21c.47,0,.79-.19.86-.47a.65.65,0,0,0-.37-.69.55.55,0,0,0-.26-.1l-.06.08a.53.53,0,0,1-.51.35,1.45,1.45,0,0,1-.42-.06,45.26,45.26,0,0,1-6-3,.55.55,0,0,0-.31-.09.24.24,0,0,0-.22.12l.07.25a26.15,26.15,0,0,0,4.08,2.38m-.56,1.87c.1-.52-.54-1.79-3.65-3.24l-.17,0s-.14,0-.17.08a.33.33,0,0,0,.13.34l.58.41.3.2a9.08,9.08,0,0,1,1.8,1.41.48.48,0,0,1,.21.39.28.28,0,0,1-.16.27c-.1.19,0,.24,0,.25a1.33,1.33,0,0,0,.7.22.42.42,0,0,0,.45-.32M89.51,81c-.42-1.28-3.05-2.39-6.67-2.85-.22,0-.39.1-.4.25s.08.32.35.41c2.85.62,4.55,1.23,5.51,2,.3.24.42.42.42.59a.61.61,0,0,1-.24.41c-.11.12-.23.2-.21.39,0,.35.13.42.37.4a1.65,1.65,0,0,0,.33,0A1.44,1.44,0,0,0,89.51,81m26.91,3.54-2.43.59a.38.38,0,0,0-.13.42.45.45,0,0,0,.44.39h.13l2.29-.57a.33.33,0,0,0,.15-.42.49.49,0,0,0-.43-.41m.25-1.53a.35.35,0,0,1-.14-.36c0-.15.21-.27.53-.35l2.66-.81a.23.23,0,0,0,.15-.25c0-.1-.1-.34-.56-.32h0c-2.51.42-3.84,1-4,1.6-.07.37.3.84,1.06,1.31a.83.83,0,0,0,.34.07.45.45,0,0,0,.4-.18c0-.11,0-.24-.11-.34l-.31-.37Zm-.14-2.29a5.82,5.82,0,0,0,2.89-.63c.11-.06.25-.18.21-.33s-.25-.27-.45-.26a.47.47,0,0,0-.29.09,12.72,12.72,0,0,1-3,.42,17.61,17.61,0,0,1-1.94-.1.42.42,0,0,0-.44.3c0,.15.15.35.61.42.94.09,1.7.12,2.37.12m8.23-1.52a6.06,6.06,0,0,0-2.33-.54,2.12,2.12,0,0,0-1.51.53,1.4,1.4,0,0,0-.48,1c0,.64.53,1.33,1.65,1.32a5,5,0,0,0,2.45-.85c.12-.11.13-.18.13-.18a.34.34,0,0,0-.22-.1,3,3,0,0,1-.49-.1,4.67,4.67,0,0,0-1.41-.17c-.34,0-.49.08-.61.28a.38.38,0,0,1-.33.17.55.55,0,0,1-.54-.44c0-.08,0-.42.47-.62a2.39,2.39,0,0,1,.77-.13,3.62,3.62,0,0,1,1.45.3,3.38,3.38,0,0,0,.53,0c.43,0,.64-.15.67-.24s0-.2-.2-.32M75.16,70.42c-.1,0-.27.1-.27.2s.33.44.92.56a3,3,0,0,1,2,.62c.33.32.28.57.25.66a.48.48,0,0,1-.44.3.44.44,0,0,1-.44-.32c0-.19-.12-.32-.45-.44a5,5,0,0,0-1.22-.32,1.61,1.61,0,0,1-.43-.07h-.19a.28.28,0,0,0,0,.17c1.2,1.55,2.14,1.77,2.58,1.77a1,1,0,0,0,.94-.55,1.39,1.39,0,0,0-.06-1.35c-.49-.81-1.64-1.25-3.22-1.21m11.3,11.77a3.36,3.36,0,0,0-2.07,1c-.08.13-.12.24-.08.3s.13.1.28.1a1.58,1.58,0,0,0,.61-.16,2.49,2.49,0,0,1,1.48-.64h.22c.44.06.57.3.56.52a.45.45,0,0,1-.42.44.42.42,0,0,1-.26-.11.27.27,0,0,0-.28-.11.69.69,0,0,0-.24,0,3.28,3.28,0,0,0-1,.44l-.1,0-.23.12a.6.6,0,0,0-.12.08s0,0,.12.12a5.54,5.54,0,0,0,1.56.29A1.47,1.47,0,0,0,87.84,84a1.14,1.14,0,0,0,0-1.14,1.44,1.44,0,0,0-1.29-.68m5.39,1.54a13.18,13.18,0,0,0-3-.51.25.25,0,0,0-.24.22.32.32,0,0,0,.24.32,12.66,12.66,0,0,1,3,1.09l.14,0s0,0,.06-.19l0-.65c-.07-.21-.09-.22-.29-.31m.22-6A9.51,9.51,0,0,1,89,75c-.1-.17-.22-.27-.33-.26a.24.24,0,0,0-.21.12.59.59,0,0,0-.05.47,6.11,6.11,0,0,0,3.68,3c.13,0,.23,0,.25-.11s-.07-.24-.22-.34m27,5a1.66,1.66,0,0,1,1.28.57,1.54,1.54,0,0,1,.4,1.69,1.65,1.65,0,0,1-1.47,1A1.69,1.69,0,0,1,118,85.4a1.74,1.74,0,0,1-.31-1.84,1.61,1.61,0,0,1,1.39-.79m.67,2.22a.86.86,0,0,0,.18-1,.91.91,0,0,0-.84-.54.75.75,0,0,0-.49.19,1,1,0,0,0-.17,1,.93.93,0,0,0,.81.47.84.84,0,0,0,.53-.19M80.13,76.77a1.49,1.49,0,0,1,1.13.52,1.47,1.47,0,0,1,.32,1.6,1.55,1.55,0,0,1-1.33,1,1.46,1.46,0,0,1-1.15-.58,1.71,1.71,0,0,1-.22-1.75,1.49,1.49,0,0,1,1.25-.74m.59,2.11a.9.9,0,0,0,.17-.95.84.84,0,0,0-.75-.49.67.67,0,0,0-.47.21.94.94,0,0,0-.17,1,.78.78,0,0,0,.73.42.82.82,0,0,0,.49-.18m8-5.4a1.55,1.55,0,0,1-1.36,1,1.51,1.51,0,0,1-1.16-.58A1.7,1.7,0,0,1,86,72.12a1.46,1.46,0,0,1,1.3-.74,1.59,1.59,0,0,1,1.46,2.1m-.87,0a.88.88,0,0,0,.17-.94.84.84,0,0,0-.78-.49.72.72,0,0,0-.47.18,1,1,0,0,0-.17,1,.77.77,0,0,0,.73.42.67.67,0,0,0,.5-.19M67.59,49.93a.54.54,0,0,1,.47.57c.09.21.21.32.37.31a.36.36,0,0,0,.34-.24c.09-.15,0-.35-.12-.57a.62.62,0,0,1,0-.64.89.89,0,0,0-.13-.71.7.7,0,0,0-.53-.2,1.06,1.06,0,0,0-1,.62c-.08.35.27.66.58.84m.26,2.21c-.26,0-.64.42-.72.74,0,.14,0,.19.07.24a1.52,1.52,0,0,0,1,.47.37.37,0,0,0,.37-.2c.1-.26-.1-.68-.55-1.15l-.16-.08Zm1.69.51a1.51,1.51,0,0,0,.07-1.2.29.29,0,0,0-.07-.22.46.46,0,0,0-.32-.1,1.07,1.07,0,0,0-.88.45c0,.12,0,.22.09.36.35.6.71.81.91.81a.26.26,0,0,0,.2-.1m1.15-.14a.62.62,0,0,0,.43-.29,2.49,2.49,0,0,0,.24-.84.34.34,0,0,0-.24-.4,1.27,1.27,0,0,0-.52-.1,1.49,1.49,0,0,0-.39,0c-.15.05-.2.22-.16.5.06.63.33,1.06.62,1.06M69,54A1.71,1.71,0,0,1,70.42,53a2.19,2.19,0,0,1,1.69,1.08,2.65,2.65,0,0,1,.32,2.53,1.14,1.14,0,0,1-1,.64H71.2a3.07,3.07,0,0,1-2-1.64A2.06,2.06,0,0,1,69,54m1.32-.22a.93.93,0,0,0-.88.92,2.24,2.24,0,0,0,1.35,1.86H71a.65.65,0,0,0,.57-.27c.2-.29.15-.83-.15-1.6s-.85-.95-1.06-.93m5.12,12a.45.45,0,0,1,.25,0,5.12,5.12,0,0,0,1.53.27,2.83,2.83,0,0,0,.53-.07.31.31,0,0,0,.21-.32.29.29,0,0,0-.3-.2,8.52,8.52,0,0,1-6.25-4.13,1.56,1.56,0,0,1,.08-1.72,5.48,5.48,0,0,1,2.2-1.8,1.66,1.66,0,0,1,.84-.24,1.3,1.3,0,0,1,.92.36,10.89,10.89,0,0,1,3.09,4.92c0,.33.18.49.32.49s.28-.14.33-.41L79,62a1,1,0,0,1,.07-.81c.64-.86.69-1.51.12-2-.22.57-.44.84-.73.84s-.43-.17-.64-.54a8.21,8.21,0,0,0-2.1-2.22c-.34-.21-.49-.44-.41-.68-.15-1-.49-1.06-.94-1.14h-.09l0,0c.24.74-.08,1.28-1,1.57a5.5,5.5,0,0,0-3.13,2.81.65.65,0,0,1-.57.51,1.3,1.3,0,0,1-.71-.32v.13c.07.71.34,1.11.84,1.26a.64.64,0,0,1,.66.48,4.3,4.3,0,0,0,.77,1.06c.22.18.31.35.26.52s-.31.3-.79.35l0,.05a1.58,1.58,0,0,0,1.29.46l.22,0a.65.65,0,0,1,.49.21l1,.59c.25.13.37.28.37.45s-.17.39-.54.59h0l.05,0a1.46,1.46,0,0,0,.74.23,1.05,1.05,0,0,0,.79-.4.47.47,0,0,1,.41-.24m9.37-5.78a6.89,6.89,0,0,1-.71.09c-.12,0-.19,0-.2.08s-.07.15,0,.51.46.85.76.85c.12,0,.24-.1.35-.3a.74.74,0,0,0,.09-.4v-.42c0-.26,0-.34-.15-.41l-.15,0Zm1.93.17-.67-.24h-.17l-.13,0a.52.52,0,0,0,0,.3l0,.9c.1.18.21.25.33.25a1,1,0,0,0,.41-.15c.15-.17.28-.32.42-.51a.5.5,0,0,0,.1-.38.48.48,0,0,0-.29-.19m1,2a1.74,1.74,0,0,0,.91-.47.38.38,0,0,0-.14-.54L88,60.71l-.17-.05c-.1,0-.22.1-.32.27a1.19,1.19,0,0,0-.25.81c.07.25.2.39.42.39h.09ZM87,64.54c-.41,1.23-1,1.85-1.81,1.87a2.21,2.21,0,0,1-.67-.12,2.92,2.92,0,0,1-.91-2.09,2.35,2.35,0,0,1,.52-1.84,1.43,1.43,0,0,1,1.06-.42,1.89,1.89,0,0,1,1.47.66A2.23,2.23,0,0,1,87,64.52m-2.68.68a1.17,1.17,0,0,0,.7.3c.46,0,.8-.42,1-1.25A1.59,1.59,0,0,0,86,62.89a1,1,0,0,0-.76-.37,1,1,0,0,0-.76.38,2.56,2.56,0,0,0-.08,2.26v0m-5.82,1.9c0,.81,0,1.57-.74,1.67l0,0a1.65,1.65,0,0,0,.91.25,1.25,1.25,0,0,0,.65-.18.6.6,0,0,1,.36-.17.49.49,0,0,1,.25.07l2.22,1.06c.31.13.46.29.46.45s-.1.34-.39.54A1.74,1.74,0,0,0,83,71a1.57,1.57,0,0,0,1-.39.67.67,0,0,1,.45-.17h.22c.37,0,.76,0,1.15,0a11.63,11.63,0,0,0,2.71-.34.73.73,0,0,0,.32-.76.27.27,0,0,0-.27-.18l-.17,0a9.66,9.66,0,0,1-2.48.41,10.21,10.21,0,0,1-5.73-1.87c-.42-.16-.57-.63-.43-1.42a8.27,8.27,0,0,1,1.38-2.78.62.62,0,0,1,.54-.32,4.82,4.82,0,0,0,.62.05c.69,0,.79-.29.79-.52s0-.1,0-.1h-.09l-.22.05A2,2,0,0,1,81.41,62a1.25,1.25,0,0,0-.79-.44H80.5a.92.92,0,0,1,.25.59.94.94,0,0,1-.35.66,6.46,6.46,0,0,0-1.87,4.23m10.92,0a.22.22,0,0,0,.2-.14.28.28,0,0,0,0-.28A4.18,4.18,0,0,0,88,65.06l-.2,0a.2.2,0,0,0-.2.13.29.29,0,0,0,.08.32,7,7,0,0,1,1.62,1.61l.14.05Zm6.11,7.14c0,.26-.17.46-.61.63l.12,0a1.6,1.6,0,0,0,.42,0,1.75,1.75,0,0,0,1-.41,2.26,2.26,0,0,1,1.21-.45,2.81,2.81,0,0,1,1,.2c.39.17.57.34.63.54a.6.6,0,0,1-.19.49h.29c.59,0,1-.34,1.29-1.06a2.11,2.11,0,0,1,1.25-.85,1.51,1.51,0,0,0,.42-1c0-.15,0-.24-.15-.34a.4.4,0,0,0-.19.07,7.3,7.3,0,0,1-3.55.92,18.53,18.53,0,0,1-7.13-1.8,1.39,1.39,0,0,1-.81-1.63l.93-2.82a2.23,2.23,0,0,1,2.11-1.31c1.45,0,3.53.88,6.35,2.76l.13.09,0-.07a.66.66,0,0,0-.11-.67l-1-.83a1.11,1.11,0,0,1-.42-.91c-.1-.91-.47-1.16-.86-1.31l-.1,0v.15l-.09.73a.41.41,0,0,1-.4.28h-.24a3.26,3.26,0,0,1-2.56-1.48c-.35-.45-.59-.79-1.18-.77h-.27l.31.26a.7.7,0,0,1,.2.57c0,.22-.24.37-.61.47a1.36,1.36,0,0,0-.59.12.85.85,0,0,1-.4.1,1.24,1.24,0,0,1-.66-.22h0a1.32,1.32,0,0,0-.81-.27,1.94,1.94,0,0,0-.42.07h0l.07,0a1.35,1.35,0,0,1,.59,1.72l-1.12,3.4a2.39,2.39,0,0,0,.66,2.35c.79.3,1.18.59,1.2.91s-.17.45-.54.65h0a1.34,1.34,0,0,0,.65.17,1.43,1.43,0,0,0,1-.42,1.35,1.35,0,0,1,.84-.32,1.52,1.52,0,0,1,.55.1c1.27.34,1.84.66,1.87,1m39.65-7.75c-.3,0-.56.18-.56.38a1,1,0,0,1-.74,1c-.18.1-.1.37-.1.37.07.22.25.46.46.44l.16,0a1.09,1.09,0,0,1,.93-.45,2.64,2.64,0,0,1,.46,0,.47.47,0,0,0,.42-.32.9.9,0,0,0-.29-1,1,1,0,0,0-.74-.37m-3.56.7a.54.54,0,0,0-.32-.17s-.11,0-.23.21a2.12,2.12,0,0,0-.3.67.88.88,0,0,0,.06.56.5.5,0,0,0,.37.12,1,1,0,0,0,.26,0,1.81,1.81,0,0,0,.81-.59l0-.14a.94.94,0,0,0-.17-.22,2.79,2.79,0,0,1-.54-.42m2.07,1.89a5.47,5.47,0,0,1-.57-.71c-.1-.12-.17-.17-.22-.17s-.14,0-.25.17a2.28,2.28,0,0,0-.7.83.7.7,0,0,0,0,.52.63.63,0,0,0,.45.2,2.34,2.34,0,0,0,1.2-.52c.13-.13.13-.18.05-.3m.57,1.51c-.05-.32-.18-.33-.3-.33h-.17a6.29,6.29,0,0,0-1,.3.32.32,0,0,0-.25.29.36.36,0,0,0,.18.38,4.9,4.9,0,0,0,1.18.31h.12s.14,0,.17,0a.25.25,0,0,0,0-.23,1.56,1.56,0,0,1,0-.68M129.73,69a2,2,0,0,1,1.77,1.07,1.72,1.72,0,0,1-.05,1.84A4,4,0,0,1,129,73.06a2.73,2.73,0,0,1-1.43-.4c-.76-1-.44-2,1.1-3.25a1.75,1.75,0,0,1,1.11-.41m1.08,2.13a1.15,1.15,0,0,0-.07-1.12,1,1,0,0,0-.89-.43,1.61,1.61,0,0,0-1.05.42c-.61.52-.91,1-.89,1.36a.76.76,0,0,0,.3.57,1.76,1.76,0,0,0,.78.16,2.31,2.31,0,0,0,1.82-1m-.26,3.77a1,1,0,0,1-.86-.32,1,1,0,0,1,.07-1l.05-.12h-.34c-.75.12-.92.39-1,.81a.64.64,0,0,1-.42.76,12.43,12.43,0,0,1-5.24,1.4,14,14,0,0,1-4-.66c-.78-.22-1.42-.39-2.12-.52-.46,0-.78.17-.85.35a.31.31,0,0,0,.14.3l1.57.54c.21,0,.85.19.91.81s.52,1.08,1,1.08h.18l.09,0h0v-.07a.82.82,0,0,1-.09-.71.34.34,0,0,1,.34-.27.88.88,0,0,1,.32.07,12.58,12.58,0,0,0,2.8.25,10,10,0,0,0,1.75-.15l.22,0a.53.53,0,0,1,.42.17,2.41,2.41,0,0,0,1.46.61,1,1,0,0,0,.69-.25,1,1,0,0,1-.65-.68c-.07-.37,0-.44.35-.54a3.89,3.89,0,0,0,1.65-.81.75.75,0,0,1,.63-.23h.05c1.06,0,1.28-.34,1.36-.56V75l0-.14h-.14a1.23,1.23,0,0,1-.32,0m-3.47-4.48a.93.93,0,0,0,0-.79c0-.19-.15-.22-.54-.27s-1.11-.13-1.13-1.08V68l0,0-.17,0a1.52,1.52,0,0,0-1,1,3.83,3.83,0,0,1-.31.52,1.36,1.36,0,0,1-.82.39c-.34,0-.61-.21-.86-.64a.88.88,0,0,0-.07-.24,2.25,2.25,0,0,0-.2.27,1.3,1.3,0,0,0-.19,1,2.66,2.66,0,0,1-.35,1.68A3.11,3.11,0,0,1,119,73.86a2.52,2.52,0,0,1-.69-.09l-.13,0a.34.34,0,0,0-.32.3c0,.17,0,.3.07.34a3.92,3.92,0,0,0,1.26.23,3.08,3.08,0,0,0,2.41-1.34c1-1.45,2.31-3.27,3.76-3.29a1.91,1.91,0,0,1,.91.24h0a.77.77,0,0,0,.57.42.31.31,0,0,0,.27-.15M111.31,31.82a.8.8,0,0,1-.57-.31c-.07-.08-.12-.11-.15-.11s-.07,0-.19.11c-.4.38-.32.63-.2.8a2.19,2.19,0,0,0,1.35.81c.29,0,.54-.19.78-.56a5.88,5.88,0,0,0,.52-2,.56.56,0,0,0,0-.34.63.63,0,0,0-.31-.11h0l-.15-.09a9.29,9.29,0,0,1-1.58-1v.08c-.1.32-.07.54.1.68l.79.66a1.06,1.06,0,0,1,.2,1.07.55.55,0,0,1-.49.37m-1.8,3.29a.47.47,0,0,1-.3-.1l-.84-.64-.17,0a.28.28,0,0,0-.24.15.26.26,0,0,0,0,.27A7,7,0,0,0,109.24,36a.82.82,0,0,0,.44.19.62.62,0,0,0,.35-.14,6.09,6.09,0,0,1,.68-.74,2.85,2.85,0,0,0,.89-1.2.9.9,0,0,0,0-.32.35.35,0,0,0-.25,0,2.83,2.83,0,0,1-1.72-.93l-.17,0a.37.37,0,0,0-.29.19.27.27,0,0,0,0,.27l.85.87a.65.65,0,0,1-.51,1m-2,.1-.17,0a.23.23,0,0,0-.19.08s0,.1,0,.19a5.08,5.08,0,0,0,.38.52c.36.4.8.91.27,1.43-.15.1-.15.14,0,.34a.45.45,0,0,0,.39.25.89.89,0,0,0,.41-.13l.69-.88.06-.2s0,0-.13,0c-.42,0-.73-.44-1-.79a2.14,2.14,0,0,0-.78-.73m-1.62.64a.49.49,0,0,0-.06.24,2.74,2.74,0,0,0,.28,1.14v0a2.5,2.5,0,0,1,.32,1.24c0,.34-.28.39-.39.39a.3.3,0,0,1-.21,0c-.36,0-.59-.72-.65-1,0-.13.19-.32.24-.23s.19.25.24.22c.23,0-.15-1-.15-1a.44.44,0,0,0-.34-.1.77.77,0,0,0-.41.17c-.18.08-.3.2-.18.56a5.61,5.61,0,0,0,1.25,2.64.41.41,0,0,0,.26.1.63.63,0,0,0,.46-.28,3.55,3.55,0,0,0-.47-4,.5.5,0,0,0-.15-.1m-2.51,5.93a.71.71,0,0,0,.13-.3c-.2-1.06-.34-2-.44-3.05-.06-.24-.15-.3-.2-.3s-.13.08-.13.22a12.89,12.89,0,0,0,.45,3.36l.19.09Zm.25-4.19a1.53,1.53,0,0,0-.07.87,9.26,9.26,0,0,1,.59,3.91.89.89,0,0,1-.81.76.76.76,0,0,1-.71-.52,14.1,14.1,0,0,1-.37-3.73.38.38,0,0,0-.38-.32.3.3,0,0,0-.24.12.34.34,0,0,0-.08.27,10.78,10.78,0,0,0,.8,5,1.18,1.18,0,0,0,.88.44c.62,0,1.26-.59,1.72-1.55.37-1.33,0-3-1.1-5.19l-.16-.1h-.07Zm-4.18,1.34-.12,0a.3.3,0,0,0-.25.24,14.67,14.67,0,0,0-.19,4.45.36.36,0,0,0,.34.27c.15,0,.32-.12.35-.39a18.18,18.18,0,0,1-.06-4.38l-.05-.15Zm-1.3.41a.46.46,0,0,0-.2-.09.4.4,0,0,0-.39.33,9.74,9.74,0,0,0,0,5.1,2,2,0,0,0,2,1.55,1.7,1.7,0,0,0,1.72-1.63,19.45,19.45,0,0,1-.23-5.56.46.46,0,0,0-.1-.31.51.51,0,0,0-.34-.13.28.28,0,0,0-.29.23,14.56,14.56,0,0,0-.23,4.42,2.36,2.36,0,0,0,0,.35,1.41,1.41,0,0,1-.12,1.18.74.74,0,0,1-.55.29,1.14,1.14,0,0,1-.9-.59,8.29,8.29,0,0,1-.28-4.82.44.44,0,0,0-.1-.29m-2.95-.55a.51.51,0,0,0-.24-.12.4.4,0,0,0-.35.25,6.62,6.62,0,0,0,.22,5.61.25.25,0,0,0,.2.14l.08-.05a.56.56,0,0,0,0-.44c-.59-2.46-.55-4.08.1-5.07a.25.25,0,0,0,0-.32m-2.58,4.44a8.31,8.31,0,0,0,1.69,3.54,1.84,1.84,0,0,0,1.21.44,1.48,1.48,0,0,0,1.5-1.14,1.87,1.87,0,0,0-.17-1c0-.13-.08-.25-.12-.38a9.19,9.19,0,0,1-.06-4.91c0-.08.05-.2,0-.28a.33.33,0,0,0-.31-.12.47.47,0,0,0-.42.24A8.66,8.66,0,0,0,96,45a1,1,0,0,1-.14.88.75.75,0,0,1-.56.28.87.87,0,0,1-.7-.39c-1.52-2.44-1.79-4.56-.81-6.48a.57.57,0,0,0,0-.51.39.39,0,0,0-.27-.15.51.51,0,0,0-.39.25,5.66,5.66,0,0,0-.42,4.42m-2.53-5.43a4.72,4.72,0,0,0-1,3.86,8.92,8.92,0,0,0,.67,1.79,11.52,11.52,0,0,1,.49,1.13,3.91,3.91,0,0,1,.27,1.68c0,.08,0,.27.46.27a3.11,3.11,0,0,0,.6-.1,1.58,1.58,0,0,0,.95-.71,1.19,1.19,0,0,0,0-.87c-1.26-2.87-1.33-4.67-.22-6.19a.39.39,0,0,0,0-.39.31.31,0,0,0-.27-.15.46.46,0,0,0-.34.19,3.2,3.2,0,0,0-.91,2.49,7.31,7.31,0,0,0,.41,2c.13.45.3,1,.42,1.53a.54.54,0,0,1-.07.51.33.33,0,0,1-.27.15c-.1,0-.32,0-.49-.48s-.32-1-.45-1.34v0a6.86,6.86,0,0,1-.54-2,4.42,4.42,0,0,1,.89-2.92.42.42,0,0,0,.07-.4.32.32,0,0,0-.32-.16.42.42,0,0,0-.37.21m.29-1.25a1.47,1.47,0,0,0,1,.66.45.45,0,0,0,.35-.21l0-.16-.49-.37a.48.48,0,0,1-.2-.27.76.76,0,0,1,.18-.56,8.77,8.77,0,0,0,1.1-1.5c.1-.19.13-.35.06-.45l-.06-.06a.53.53,0,0,0-.21.17,18.31,18.31,0,0,1-1.55,2c-.25.3-.28.52-.16.76m2.78-3a.31.31,0,0,0-.12.12,13.73,13.73,0,0,1-1.2,2c-.05.1-.07.2,0,.25l.08,0,.14,0a5.89,5.89,0,0,0,1.23-2.17.25.25,0,0,0-.12-.24m1.77.16a12.5,12.5,0,0,1-1.06,2.49c0,.12-.07.23,0,.3l.08.05a.84.84,0,0,0,.24-.15,6.77,6.77,0,0,0,1.07-2.53c0-.18,0-.27-.18-.35a.18.18,0,0,0-.15.19m-2,4.11a2.35,2.35,0,0,0,.86.2,1.47,1.47,0,0,0,1.27-.86l1.09-3.08c0-.26,0-.36-.08-.41s-.09.07-.12.15A19.24,19.24,0,0,1,94.52,37a1,1,0,0,1-.71.42.62.62,0,0,1-.54-.29.74.74,0,0,1,0-.77,16.69,16.69,0,0,0,1.2-2.73.27.27,0,0,0-.1-.32c-.07,0-.15.08-.2.2a19.48,19.48,0,0,1-1.52,3,1.24,1.24,0,0,0-.22.93.88.88,0,0,0,.49.5m5.59-5.07a.37.37,0,0,0-.3.29,25.52,25.52,0,0,1-.57,3.18.28.28,0,0,0,0,.24l.12,0c.14,0,.29-.15.39-.39A22.34,22.34,0,0,0,98.63,33c0-.22-.09-.22-.1-.2m-1.44,4.92a.58.58,0,0,1-.52-.23,1.07,1.07,0,0,1,.05-1l.81-2.91a.33.33,0,0,0-.05-.26l-.13-.06c-.12,0-.24.12-.32.28-.19.69-.44,1.33-.71,2-.2.49-.37,1-.57,1.57a1,1,0,0,0-.07.76,1.7,1.7,0,0,0,1.48.52h.1c1.47-.19,2.23-.72,2.33-1.63l.57-3.85a.54.54,0,0,0-.14-.38l-.16-.09c-.12,0-.27.12-.36.44l-.49,2.93c-.22,1.22-.79,1.82-1.78,1.84m5-2.28a10.11,10.11,0,0,0,.17-3.92c0-.17-.1-.25-.14-.25a.38.38,0,0,0-.18.28l-.17,3.94c0,.14.1.16.13.16s.16,0,.19-.21m-.89-3.38a.63.63,0,0,0-.24.2,11.56,11.56,0,0,0-.61,4.62,1.06,1.06,0,0,0,1.07.89,2.17,2.17,0,0,0,1.85-1.6,17.43,17.43,0,0,0,.25-4.92c0-.29-.12-.47-.25-.47l-.19.1a.57.57,0,0,0-.13.39,12,12,0,0,1-.34,4.53c-.39.64-.76,1-1.08,1s-.45-.08-.52-.71a16.5,16.5,0,0,1,.35-3.75c0-.1,0-.17-.16-.27m2.83,3.35a1.62,1.62,0,0,0-.27.44c-.1.55,0,.69,0,.71h0a.5.5,0,0,0,.2-.05,2.71,2.71,0,0,0,1.08-2.19l-.22-3.69c0-.22-.15-.36-.27-.36l-.17.09a.57.57,0,0,0-.13.45l0,.83c0,.42,0,.82,0,1.24s0,.81,0,1.2a1.52,1.52,0,0,1-.34,1.3ZM99,53.6c.16,0,.27,0,.31-.1s.07-.18-.07-.52a24.24,24.24,0,0,0-3.71-5,.46.46,0,0,0-.35-.17l-.1,0a.53.53,0,0,0,0,.21c.81,1,1.75,2.22,2.46,3.32.12.18.17.35.1.47v0l-.13.1h0l-.06,0a.75.75,0,0,1-.37-.15,55.9,55.9,0,0,1-3.82-4.94.34.34,0,0,0-.27-.15.41.41,0,0,0-.35.22.32.32,0,0,0,0,.35l.23.36c1.55,2.3,3.51,5.18,5.92,5.94Zm-1.17-6.67A12.33,12.33,0,0,0,101,51.41a.33.33,0,0,0,.17.09l.09,0a.6.6,0,0,0-.07-.36A51,51,0,0,0,98,46.64H97.8a.75.75,0,0,0,0,.27m5.2,6.73a1.67,1.67,0,0,0,.11-1.38,19.56,19.56,0,0,0-2.65-4.77l-.2-.29a.64.64,0,0,0-.54-.22c-.15,0-.24.05-.25.09a.32.32,0,0,0,.08.18,29.3,29.3,0,0,1,2.8,4.67.72.72,0,0,1,0,.77.57.57,0,0,1-.51.32.64.64,0,0,1-.5-.27,46.94,46.94,0,0,1-4-5,.43.43,0,0,0-.32-.14.37.37,0,0,0-.3.15.45.45,0,0,0,.05.41A34.24,34.24,0,0,0,101,53.49a1.69,1.69,0,0,0,1.18.47,1,1,0,0,0,.79-.34m-.45-7.6,2.24,4a.55.55,0,0,0,.4.27l.12-.07s.1-.2-.12-.67l-2.41-4.47c0-.1-.08-.12-.15-.12h-.1v.22a.43.43,0,0,1,0,.34c-.05.13-.08.24.09.49m3.1,6.52a1.49,1.49,0,0,0,1.24-.74,2.12,2.12,0,0,0-.13-2.11,28,28,0,0,1-2.14-4.46c-.09-.24-.24-.39-.39-.37a.51.51,0,0,0-.34.21.4.4,0,0,0,0,.34,40.67,40.67,0,0,0,2.26,4.7,1.19,1.19,0,0,1,.1,1.2.7.7,0,0,1-.62.35,1,1,0,0,1-.84-.45,18.1,18.1,0,0,1-1.79-2.66l-.15-.26c-.35-.59-.73-1.19-1.08-1.72a.36.36,0,0,0-.32-.16.39.39,0,0,0-.35.23.36.36,0,0,0,.1.39l3,4.7a1.7,1.7,0,0,0,1.4.81m2.37-5.07a.4.4,0,0,0,.33-.19.46.46,0,0,0-.06-.47l-2.14-3.76a.67.67,0,0,0-.11-.18s-.07,0-.1.1a1.08,1.08,0,0,0-.09.86l2,3.57a.34.34,0,0,0,.17.07m-2.8-3.34c-.1,0-.15.05-.16.1a.7.7,0,0,0,0,.63c.68,1.41,1.47,3.08,2.41,4.65a1.46,1.46,0,0,0,1.13.69,1.19,1.19,0,0,0,1-.59,3,3,0,0,0,0-2.83,26.77,26.77,0,0,0-3-5,.35.35,0,0,0-.24-.12.22.22,0,0,0-.18.12.61.61,0,0,0,0,.57,25.72,25.72,0,0,1,2.83,5,1.38,1.38,0,0,1,0,1.37.67.67,0,0,1-.59.33.79.79,0,0,1-.67-.4,32.76,32.76,0,0,1-2.36-4.4.34.34,0,0,0-.25-.15M107,40.46a.67.67,0,0,0,0,.61,31.33,31.33,0,0,1,1.82,2.86l.08.14c.47.81.88,1.46,1.16,1.9.14.15.26.24.36.24s.25-.24.27-.54c-.09-1.87-1.06-4.15-3-6.93l-.07.1a.5.5,0,0,0,0,.49,15.8,15.8,0,0,1,2,3.86.51.51,0,0,1,0,.51l-.1.08h-.08c-.15,0-.29-.12-.39-.32a16.39,16.39,0,0,0-1.84-3l-.15-.1-.12.08Zm3.42-15.15c1,.31,1.25,1,1.18,1.42a.72.72,0,0,1-.66.67,1.22,1.22,0,0,1-.74-.33,1.16,1.16,0,0,0,.07.43,2.33,2.33,0,0,0,1.8,1.27.63.63,0,0,0,.54-.24,1.15,1.15,0,0,0,0-1,5.38,5.38,0,0,1-.61-2.68c0-.18,0-.23-.1-.28a1,1,0,0,0-.29.13,1.59,1.59,0,0,1-.59.14,2.82,2.82,0,0,1-1.09-.32l-.14.11a.27.27,0,0,0,0,.21l.64.48Zm-.54-2.17a1.57,1.57,0,0,1-.49-.07h-.08a.56.56,0,0,0,.06.19,2.36,2.36,0,0,0,1.45.6.69.69,0,0,0,.64-.3c.17-.32,0-.87-.33-1.55l-.07-.13v-.09c0-.06,0-.22-.64-.76l0,0c0,.15-.2.25-.45.3a2.26,2.26,0,0,1-.54.05,6.2,6.2,0,0,1-.71,0l-.1.07a.51.51,0,0,0,.36.34c1.31,0,1.76.43,1.76.82s-.35.57-.82.59m4.46-2.58a4.67,4.67,0,0,0,2.08,1.08.29.29,0,0,0,.22-.08.83.83,0,0,0,.25-.73,1.26,1.26,0,0,0-.78-.81.77.77,0,0,1-.17.53.71.71,0,0,1-.42.18.65.65,0,0,1-.67-.57,1.55,1.55,0,0,0-.72-1,1.36,1.36,0,0,1,.15,1,.45.45,0,0,0,.08.47m-14.1,33.11h-.09a.62.62,0,0,0,.06.52l3.5,4.23.18.1.07,0a.62.62,0,0,0-.1-.3l-3.5-4.47Zm4.46,7c.42,0,.68-.37.68-.94-.12-1.87-1.59-3.47-3-5a.6.6,0,0,0-.32-.14l-.12.07,0,.12a24.79,24.79,0,0,1,2.7,3.79,1,1,0,0,1,0,.91.49.49,0,0,1-.42.23.71.71,0,0,1-.54-.25,42.38,42.38,0,0,0-4.23-5.05.33.33,0,0,0-.25-.12l-.15.1a.42.42,0,0,0,.11.28,68.41,68.41,0,0,1,4.57,5.57,1.33,1.33,0,0,0,.93.47m-.85-7.91-.13,0,.07.17a19.41,19.41,0,0,1,2.76,4.36l.14.12.06,0a.71.71,0,0,0,0-.37A7.27,7.27,0,0,0,104,52.83h-.07Zm3.8,7.38a.91.91,0,0,0,.42.11c.18,0,.6-.09.72-.71a11.19,11.19,0,0,0-2-6.39.3.3,0,0,0-.27-.13.55.55,0,0,0-.39.18.31.31,0,0,0,0,.29,16,16,0,0,0,.85,2l.06.12a15.89,15.89,0,0,1,1,2.53.81.81,0,0,1,0,.72.33.33,0,0,1-.3.16.72.72,0,0,1-.49-.24,16.13,16.13,0,0,1-2.09-2.93l-.1-.15A17.59,17.59,0,0,0,104,54.16a.63.63,0,0,0-.42-.29l-.15.09a.67.67,0,0,0,0,.59,18.77,18.77,0,0,0,4.24,5.59m2.61-4.43a.34.34,0,0,0,.19-.29,5.78,5.78,0,0,0-1.77-4.23.37.37,0,0,0-.22,0,.19.19,0,0,0-.17.1.41.41,0,0,0,0,.38,13.62,13.62,0,0,1,1.79,4,.19.19,0,0,0,.15.14m0-5.71a.65.65,0,0,0-.3.27.63.63,0,0,0-.09.55,11.3,11.3,0,0,1,1.33,5.9c0,.67-.4.71-.47.71a.64.64,0,0,1-.55-.36,19.84,19.84,0,0,1-1.32-2.69v-.05c-.34-.71-.67-1.52-1-2.18-.08-.1-.11-.11-.11-.11s-.09.05-.16.33a1.92,1.92,0,0,0,.22,1.23c.32.63.64,1.33.9,1.89v0a10.11,10.11,0,0,0,1.83,3.17.93.93,0,0,0,.53.2c.21,0,.4-.15.57-.47.76-1.36-.1-6.25-1.22-8.29-.05-.13-.11-.13-.13-.13m2.86,14.13a1.52,1.52,0,0,0,.43.07.31.31,0,0,0,.21-.07c.06,0,.07-.15.06-.28a13.19,13.19,0,0,0-.88-3.66,3.33,3.33,0,0,1-.3-1.09c0-.12,0-.21-.11-.27l-.18.11a1.5,1.5,0,0,0-.07,1.32l.73,1.85a.79.79,0,0,1,0,.68l-.12.08h-.09a.49.49,0,0,1-.38-.27,4.64,4.64,0,0,1-.61-1.72c-.2-.76-.4-.84-.59-.92H111V60c.39,1.6.91,3.35,2.12,4.09m-6-.84h.08s.17,0,.22-.13a.3.3,0,0,0,0-.29l-.89-1.38-.1,0-.12,0v.2l.86,1.58Zm1.57-2.1v.21l1.06,1.89.08,0s.19-.06.24-.14a.32.32,0,0,0-.07-.32L109,61.22l-.12,0-.12,0Zm2,4.43a1,1,0,0,0,.36.06c.16,0,.4-.06.5-.57A3.68,3.68,0,0,0,111.3,63l-1.43-3.18a.92.92,0,0,0-.17-.25s-.09,0-.17.28a2.05,2.05,0,0,0,.37,1.6,11.15,11.15,0,0,1,.66,1.2l.27.52a1.19,1.19,0,0,1,0,1,.52.52,0,0,1-.43.23.72.72,0,0,1-.52-.27l-1.4-2a2.48,2.48,0,0,0-1.26-1.25.75.75,0,0,0-.39-.07h0l.09.24a16.41,16.41,0,0,1,1.06,1.55l0,.05a7.36,7.36,0,0,0,2.71,3m-5.51-4.06a.3.3,0,0,0-.25.12.42.42,0,0,0,0,.27l1.79,2.41a1.12,1.12,0,0,0,.86.45.43.43,0,0,0,.38-.18.88.88,0,0,0,.11-.74c0-.19-.14-.27-.19-.27l-.1.13a.56.56,0,0,1-.39.22.55.55,0,0,1-.4-.22l-1.52-2.09a.6.6,0,0,0-.27-.1M115,70a1.36,1.36,0,0,0,.81.3,1.08,1.08,0,0,0,.54-.15,3.41,3.41,0,0,0,1.93-1.72,1.31,1.31,0,0,0-.25-1.12,1.59,1.59,0,0,0-1.28-.63h-.24a2.59,2.59,0,0,1-2-1,1.79,1.79,0,0,0-.84-.64.8.8,0,0,0-.29,0c-.1,0-.11,0-.11,0v.13a2.23,2.23,0,0,0,.84,1.23,9.58,9.58,0,0,0,1.6.91c.34.21.49.41.47.63s-.22.44-.61.62a.82.82,0,0,1-.3.07c-.28,0-.54-.2-.79-.61a11.28,11.28,0,0,0-1.82-2.15l-.19-.07-.2.07a1.37,1.37,0,0,0-.59.53.55.55,0,0,1-.4.26.72.72,0,0,1-.36-.14.69.69,0,0,0-.21.05,11,11,0,0,0-2.6,2.11,1,1,0,0,1-.47.24h0l-.17-.07,0,0,0-.06c-.07-.17,0-.42.27-.63a8.68,8.68,0,0,0,2.11-1.85.34.34,0,0,0,.05-.24.54.54,0,0,0-.24-.33,1.48,1.48,0,0,0-.86-.19,2.93,2.93,0,0,0-.94.17,3.85,3.85,0,0,1-.91.1,5.07,5.07,0,0,1-1.52-.22,2,2,0,0,0-.42,0,.76.76,0,0,0-.72.41,2.69,2.69,0,0,0-.17.5,5.6,5.6,0,0,0,0,1.37,2.8,2.8,0,0,0,.19.43.38.38,0,0,0,.3.16,1.35,1.35,0,0,0,.52-.17,1.48,1.48,0,0,0,.75-1.32.61.61,0,0,1,.43-.43,6.22,6.22,0,0,1,1.67-.36,1.64,1.64,0,0,1,.51.05c.22,0,.35.14.38.27s-.13.34-.26.44a9.88,9.88,0,0,1-2.28,1.11,1.18,1.18,0,0,0-.62,1.4c0,.35.38.76,1.06,1.26a1.1,1.1,0,0,0,.61.17,1.22,1.22,0,0,0,1.06-.76c0-.23.25-.43.69-.67A8.81,8.81,0,0,0,110.64,68a.56.56,0,0,1,.3-.14c.24,0,.31.24.37.48l.07.23c.14.24.29.36.44.36s.42-.16.67-.49a.56.56,0,0,1,.36-.19H113l0,0c.1.1.1.27.07.53s0,.22.08.26a.43.43,0,0,1,.29-.1,1,1,0,0,1,.54.2l1,.86Zm3.2,2.53h.05a1.29,1.29,0,0,0,.59.13,1.59,1.59,0,0,0,1.48-1.26,2,2,0,0,0-.89-2.31.64.64,0,0,0-.35-.15.49.49,0,0,0-.32.17,8.79,8.79,0,0,1-.81,1,.52.52,0,0,0-.07.37.5.5,0,0,0,.27.27,1.08,1.08,0,0,1,.61.77c0,.32-.16.63-.58,1m-12.82.35h0c.17,0,.29,0,.32-.1v-.08c-.39-.32-.57-.59-.57-.86s.25-.54.59-.79.23-.48.1-.66a3.31,3.31,0,0,1-.81-1,.37.37,0,0,0-.34-.2.9.9,0,0,0-.47.2,1.81,1.81,0,0,0-.64,2.09,1.9,1.9,0,0,0,1.79,1.34m-2.31-4.84a1.17,1.17,0,0,0,.08-.35,7.42,7.42,0,0,1,0-1.27c0-.1,0-.28-.49-.37h-.25a1.76,1.76,0,0,0-1.74,1.3,1.88,1.88,0,0,0,.73,2.1.6.6,0,0,0,.27.11h0a1.23,1.23,0,0,0-.07-.46.68.68,0,0,1,.1-.62c.19-.26.56-.36,1.2-.37ZM76.45,64.17a.82.82,0,0,0,.49.18.51.51,0,0,0,.49-.38.52.52,0,0,0-.3-.58l-.17,0a3.1,3.1,0,0,1-1.13-.52,2.54,2.54,0,0,0,.64,1.35m-2-2.5-.19,0a3.46,3.46,0,0,1-1.18-.4,2.45,2.45,0,0,0,.78,1.28,1,1,0,0,0,.43.13.53.53,0,0,0,.51-.42.51.51,0,0,0-.34-.56m.29-1.8a2.7,2.7,0,0,0-.88-1,3,3,0,0,1,0,1c0,.1,0,.32,0,.37v0a.54.54,0,0,0,.56.47.39.39,0,0,0,.32-.16c.08-.09.17-.32,0-.75M76,61.15v0a.58.58,0,0,0,.56.48.42.42,0,0,0,.33-.16.83.83,0,0,0,0-.75,2.57,2.57,0,0,0-.9-1,4.07,4.07,0,0,1,0,1,.76.76,0,0,0,0,.37m6.52,4.09a2.42,2.42,0,0,0-.27,0,2.73,2.73,0,0,0-1,.26,3,3,0,0,1,.8.59h0c.09.1.22.21.29.21a.59.59,0,0,0,.25.05.54.54,0,0,0,.52-.43c0-.29-.2-.53-.6-.66M84,68.53a1,1,0,0,0,.47.14.5.5,0,0,0,.51-.51.46.46,0,0,0-.44-.47h-.3a2.93,2.93,0,0,1-1.1-.19,2.48,2.48,0,0,0,.85,1m3.65-.3a.81.81,0,0,0,.52.15.5.5,0,0,0,.51-.5c0-.14,0-.44-.54-.47a3.16,3.16,0,0,1-1.28-.24,2.91,2.91,0,0,0,.79,1m9.94,2.23a1.09,1.09,0,0,0,.46.12.53.53,0,0,0,.55-.53.41.41,0,0,0-.48-.43,4,4,0,0,1-.56,0,3,3,0,0,1-.89-.12,2.74,2.74,0,0,0,.92.91m-2,0a3.24,3.24,0,0,1-1.68.49,3.22,3.22,0,0,0,1.6.81c1.45,0,1.08-1.69.08-1.3m-.55-1.86c0-.28-.17-.64-.78-.7a2.45,2.45,0,0,0-1.21.37,3.34,3.34,0,0,1,1.29.69.51.51,0,0,0,.29.08.43.43,0,0,0,.39-.44m2.19.11a.5.5,0,0,0,.44-.39.79.79,0,0,0-.46-.83,2.55,2.55,0,0,0-1-.17,2.06,2.06,0,0,0-.35,0,3.45,3.45,0,0,1,1,1.13.5.5,0,0,0,.39.22m3.7,1.26a3,3,0,0,0-1.55.86,3.42,3.42,0,0,1,1.77.49c1,.39,1.25-1.4-.22-1.35m6.94,3.57a.57.57,0,0,0,.54.39.79.79,0,0,0,.63-.4,2.71,2.71,0,0,0,.33-1.25,4.31,4.31,0,0,1-1.26.76.4.4,0,0,0-.22.49m16.83,2.17a.74.74,0,0,0,.27,0,2.83,2.83,0,0,0,1.13-.69,5,5,0,0,1-1.57-.29h-.15a.39.39,0,0,0-.42.4.53.53,0,0,0,.19.41.69.69,0,0,0,.55.18m1.72-3.21h-.34a2.32,2.32,0,0,0-1,.22c-.36.23-.51.53-.41.82a.6.6,0,0,0,.54.42.45.45,0,0,0,.37-.22,3.24,3.24,0,0,1,.88-1.23m-2.82.74a3.77,3.77,0,0,1,.36-1.44,2.09,2.09,0,0,0-1.11.58.79.79,0,0,0-.19.85.67.67,0,0,0,.56.35.39.39,0,0,0,.38-.34m-2,2.43a3.27,3.27,0,0,1,1.77-.54,3.21,3.21,0,0,0-1.7-.82c-1.5,0-1.1,1.8-.07,1.36M105.32,77a.39.39,0,0,0,.37-.32,2.85,2.85,0,0,1,.49-1.4,2.37,2.37,0,0,0-1.18.56c-.34.39-.27.69-.19.83a.6.6,0,0,0,.51.35M110,70.87a3.41,3.41,0,0,1,.89-1.19h-.32a2.45,2.45,0,0,0-1.06.2c-.36.24-.51.5-.42.79a.55.55,0,0,0,.54.42.47.47,0,0,0,.38-.22m1.5,2.87a.61.61,0,0,0,.27,0,2.75,2.75,0,0,0,1.1-.67,5.14,5.14,0,0,1-1.52-.27h-.13a.39.39,0,0,0-.42.4.51.51,0,0,0,.18.39.74.74,0,0,0,.54.19m.79-3.62h-.15c-.54.13-.69.47-.66.74s.22.47.46.45a.47.47,0,0,0,.3-.1,3.19,3.19,0,0,1,1.23-.84,3,3,0,0,0-1.16-.25m2,6.55a.62.62,0,0,0,.34-.09l.12-.08a.59.59,0,0,1-.37-.44,1.2,1.2,0,0,1,.45-1c2.13-1.13,2.78-2.11,2.51-3.79,0-.09,0-.15-.06-.2a.55.55,0,0,0-.42-.16.58.58,0,0,0-.59.39,3.67,3.67,0,0,1-1.18,2.34,12.48,12.48,0,0,1-6,1.81,2,2,0,0,0-2,1.18l-.74,1.87a.84.84,0,0,1-.85.75l-1.83-.16a.67.67,0,0,1-.49-.22.59.59,0,0,1-.12-.46,15.25,15.25,0,0,1,.62-4.5,1.63,1.63,0,0,0-.15-1.38c-.07-.12-.15-.17-.18-.17s-.1,0-.24.31c-.67,1.23-1,3.28-1,6.26,0,.58.13.91.65,1l3.81.27c.56,0,.81-.22.83-.69.2-1.94.84-3,1.9-3,.86-.15,1.9-.32,3-.49l.24,0c.44,0,.64.15.72.29a2,2,0,0,0,1,.35m-2.64-57.33a.93.93,0,0,1-.57-.26,4,4,0,0,0-2-1.31,1,1,0,0,0-.24,0l0,0a7.35,7.35,0,0,0,3.74,2.56.94.94,0,0,0,.35,0,.34.34,0,0,0,.25-.07.31.31,0,0,0,0-.2A1.72,1.72,0,0,0,112,18.46a.75.75,0,0,1,0,.7.37.37,0,0,1-.32.17m-5.33-.6a5.39,5.39,0,0,0-.6.05c-.09,0-.1,0-.1.06s0,.14.23.24a2.81,2.81,0,0,0,.81.15,1.15,1.15,0,0,0,.44-.08c.12-.07.13-.12.13-.12s0-.07-.21-.2a1.81,1.81,0,0,0-.68-.1M107.86,20h0l-.13.05a3.29,3.29,0,0,0,1.78.66c.27,0,.38-.09.41-.14a.3.3,0,0,0,0-.23,6.42,6.42,0,0,0-6-3.19c-.3,0-.6,0-.92,0-.12,0-.2.05-.2.09s.38.44.82.44a8.12,8.12,0,0,1,1-.07,4.38,4.38,0,0,1,3.72,1.45c.2.25.25.44.18.6s-.3.27-.67.27m-2.37,10.64.3,0c.34,0,.37-.12.37-.22,0-.47-.27-.47-.35-.47a1.29,1.29,0,0,0-.38.08.33.33,0,0,0-.23.29c0,.12.12.23.29.3m.37,1.8.13,0a3.33,3.33,0,0,0,1.53-2.12,1.32,1.32,0,0,0-.22-1.1,1.86,1.86,0,0,0-1.33-.49h-.16c-.29,0-.48.14-.51.27a.23.23,0,0,0,.1.27l.83.17a.81.81,0,0,1,.48.39,1.65,1.65,0,0,1-.23,1.15c-.61.74-.89.77-.78,1.26,0,.23.11.23.16.22m-.19-5.7a.28.28,0,0,0,.19-.1c0-.37,0-.52-.14-.59s-.1-.07-.35-.05-.27.14-.29.2a.33.33,0,0,0,.1.32.9.9,0,0,0,.49.24m-.44-1.94a.19.19,0,0,0-.2.19.29.29,0,0,0,.17.23c.91,0,1.25.56,1.25,1.72-.12.56-.36.52-.56.52a1.37,1.37,0,0,1-.52-.13.26.26,0,0,0-.29.1s0,.08,0,.19a1.78,1.78,0,0,0,1.25.47.54.54,0,0,0,.35-.1c.37-.27.46-.76.29-1.57a1.66,1.66,0,0,0-1.72-1.6m-.51-1.6c.1,0,.14-.12.14-.2a.49.49,0,0,0-.52-.49c-.1,0-.12.06-.12.08s0,.14.2.42a.47.47,0,0,0,.3.19m-1.06-1.55h-.13a.25.25,0,0,0-.19.13.43.43,0,0,0,.42.21,1.55,1.55,0,0,1,1.69,1,.49.49,0,0,1,0,.52c-.1.15-.19.2-.47.2v.17a.64.64,0,0,0,.43.15.66.66,0,0,0,.51-.24.78.78,0,0,0,.07-.7,2.14,2.14,0,0,0-2.31-1.4M96.57,54.33c.1,0,.14-.24.15-.29a1.07,1.07,0,0,0-.23-.67c-.09-.1-.15-.12-.19-.12l-.15.12a1,1,0,0,0,.14.76c.1.13.2.2.27.2m3.33,4.14.07,0a.88.88,0,0,0,.1-.46L99.91,57a.36.36,0,0,0-.27-.22c-.12,0-.15.12-.17.19a1.57,1.57,0,0,0,.24,1.31c.08.09.15.14.2.14m-.1,2.14a1.51,1.51,0,0,0,.54.13.53.53,0,0,0,.48-.24,2.71,2.71,0,0,0,.19-2,1.44,1.44,0,0,0-.35-.54h-.09a1.21,1.21,0,0,0-.08.22l0,1.16c0,.32-.1.49-.28.49a.72.72,0,0,1-.36-.15A7.57,7.57,0,0,1,99,56c0-.48-.28-.76-.43-.76s-.16.13-.16.35c0,1.87.16,3.93,1.4,5Zm-4.65-8.68a.79.79,0,0,0-.44-.32h0l0,0v.13c.29,1.76.78,3.66,2.23,4.65a.82.82,0,0,0,.4.1c.4,0,.54-.42.59-.55a2.92,2.92,0,0,0-.27-1.72.41.41,0,0,0-.32-.17.14.14,0,0,0-.15.14l0,.89a.4.4,0,0,1-.1.3l-.13.09h0a.52.52,0,0,1-.33-.15,4.21,4.21,0,0,1-1.18-2.9.67.67,0,0,0-.22-.51m-3-3.59,0,.1a3.34,3.34,0,0,0,.8,2.5,1.56,1.56,0,0,0,1,.54.26.26,0,0,0,.22-.1.73.73,0,0,0,0-.58,1,1,0,0,0-.54-.5.27.27,0,0,1-.24.15c-.3,0-.59-.47-.6-1a1,1,0,0,0-.59-1.14m1.53,4.82c-.13-.17-.17-.33-.1-.44a.41.41,0,0,1,.4-.2h.11l0-.11a1.85,1.85,0,0,0-1.33-.72c-.13,0-.17,0-.18.12-.07,1,.52,1.73,1.75,2.22h.25l0-.08Zm2.71,5.44c-.08.12-.11.2-.1.25s.22.13.47.13A1.85,1.85,0,0,0,98,58.64l.09-.15v0a1,1,0,0,0-.59-.14,1.7,1.7,0,0,0-1.06.29m-1.77,2h.06a3.31,3.31,0,0,0,.73-.09A7.94,7.94,0,0,1,98,59.9c.19,0,.32-.1.32-.23s-.08-.25-.32-.3l-.37,0a9.32,9.32,0,0,0-2.39.5h-.15c-.17,0-.24-.06-.26-.11A.58.58,0,0,1,95,59.2a5.59,5.59,0,0,1,2.59-1.57.29.29,0,0,0,.22-.34s0-.23-.34-.22a5.16,5.16,0,0,0-3.33,2.16,1,1,0,0,0-.17,1,.73.73,0,0,0,.65.35m-.37-4.85h0c-.15,0-.21.08-.22.13a.26.26,0,0,0,.08.29,7.17,7.17,0,0,0,1.79.79h0a.18.18,0,0,0,.17-.15.27.27,0,0,0-.15-.29,8.39,8.39,0,0,0-1.71-.77M93,55a2,2,0,0,0-.65.65.74.74,0,0,0,0,.71c.33.69,1.68,1,2.34,1.2h.1c.19,0,.32-.07.34-.17l-.07-.17a4.51,4.51,0,0,1-1.72-1.1.67.67,0,0,1-.05-.65.66.66,0,0,1,.62-.27,3.12,3.12,0,0,1,.88.15h0L95,55.3a.48.48,0,0,0-.07-.25,1.35,1.35,0,0,0-.68-.37,1.58,1.58,0,0,0-1.18.3m-1.16,2.67h.19a6.36,6.36,0,0,1,2,.7.26.26,0,0,0,.36-.08.33.33,0,0,0-.17-.24,5.84,5.84,0,0,0-3-1,2.89,2.89,0,0,0-.84.13.81.81,0,0,0-.52.61.35.35,0,0,0,.24.34l1.88.5,1.3.56h.13c.14,0,.26,0,.27-.12l-.1-.2A5.23,5.23,0,0,0,92,58.12c-.41-.12-.39-.27-.39-.32s.05-.17.32-.19m-2.29-1a2.61,2.61,0,0,1,1.13-.78,3.76,3.76,0,0,0,1.3-1,2.23,2.23,0,0,0-.56-2.82.49.49,0,0,0-.25-.08.39.39,0,0,0-.29.17.63.63,0,0,0-.07.52l.44.74a.92.92,0,0,1-.44,1.3,7.69,7.69,0,0,0-2.09,1.43.67.67,0,0,1-.53.35.75.75,0,0,1-.44-.16l-.76-.66a.49.49,0,0,1-.1-.51.36.36,0,0,1,.34-.18.61.61,0,0,1,.23,0l.54.24.17,0s.1,0,.13-.15a1.15,1.15,0,0,0-.7-1.12,1.19,1.19,0,0,0-.44-.05,1.86,1.86,0,0,0-1.5,1c-.39.59.44,1.18,1.3,1.82.23.16.53.39.77.58a1.09,1.09,0,0,0,.51.15.71.71,0,0,0,.37-.1,3.09,3.09,0,0,0,1-.79m-4.55-5.06c.14-.13.14-.18.14-.18l-.1,0a1.12,1.12,0,0,0-.44,0,1.41,1.41,0,0,0-1.23.57,1.2,1.2,0,0,0,.06,1.18,1,1,0,0,1,.12,1.08,1.49,1.49,0,0,0,0,1,1.4,1.4,0,0,0,1.06.81.46.46,0,0,0,.28-.06L85,55.78a.57.57,0,0,1,0-.88.48.48,0,0,0,.15-.22.62.62,0,0,0-.2-.34,1.8,1.8,0,0,1,.23-2.72m-1.55,5,.17,0c.24-.1.24-.16.24-.16s0,0-.14-.12a1.4,1.4,0,0,1-.67-1.57A1.17,1.17,0,0,0,83,53.52a1.16,1.16,0,0,1-.25-1.1l0-.06-.27.06a.77.77,0,0,0-.38.46,1.6,1.6,0,0,0,.32,1.19,1.1,1.1,0,0,1,.25,1,1.68,1.68,0,0,0,.42,1.28.69.69,0,0,0,.5.25M82.5,57l.17,0v0a1.51,1.51,0,0,1-.54-1.38,3,3,0,0,0-.6-1.74.6.6,0,0,0-.14.2.74.74,0,0,0,0,.63,1.2,1.2,0,0,1,.22,1c-.08.79.2,1.21.91,1.33m3.25-3a1.08,1.08,0,0,0,.52-.22,5.7,5.7,0,0,0,.44-.37c.12-.12.14-.2,0-.32a1,1,0,0,1-.24-1.25.36.36,0,0,0,0-.32.16.16,0,0,0-.11,0h-.07a1.16,1.16,0,0,0-.41.25h0a1.62,1.62,0,0,0-.72,1.75c.06.38.25.53.55.53h0Zm-.6,2.58-.24.08,0,.14a1,1,0,0,0,1,.54,1,1,0,0,0,.38-.05l.09,0a.25.25,0,0,0-.07-.16,1.55,1.55,0,0,0-1.19-.49M85,57.61a1.66,1.66,0,0,0-.08-.22,1.7,1.7,0,0,0-1-.28H83.8c-.1,0-.12.08-.12.1s0,.08.09.17a1.33,1.33,0,0,0,1,.32h.13l.14-.09ZM83.33,58a.72.72,0,0,0,.25,0s.07-.05,0-.17a2,2,0,0,0-.79-.2c-.08,0-.08,0-.08.05a.65.65,0,0,0,.57.35M74.63,51a3.22,3.22,0,0,1,1.66,2.91c.23,2.95,1.7,4.42,4.38,4.37h0A3.06,3.06,0,0,0,81.9,58a.19.19,0,0,0,.13-.14c0-.1-.07-.3-.27-.54a.74.74,0,0,0-.64-.28,1.07,1.07,0,0,0-.37.06h0a1.79,1.79,0,0,1-.71.17,2,2,0,0,1-.6-.1,3.08,3.08,0,0,1-2.35-3c0-1.65-.4-2.78-1.33-3.36A7.86,7.86,0,0,1,73,48.43a3.31,3.31,0,0,1,.16-3.49c.1-.2.21-.42.32-.67a3.64,3.64,0,0,0,.28-1.45c0-1.48-.39-2.29-1.16-2.49h-.15s-.22,0-.25.1,0,.27.26.55c1,.8,1,2.14-.06,4.37-.63,1.38-.71,2.49-.2,3.28A8.83,8.83,0,0,0,74.65,51m-.72-5a2.12,2.12,0,0,0,.49,2.31,18.76,18.76,0,0,0,2.42,1.72,3.51,3.51,0,0,1,1.38,2.73v0c0,.25.1.51.16.78a2,2,0,0,0,1.82,1.66h.13A.36.36,0,0,0,80.7,55c0-.14-.12-.22-.2-.25-1-.36-1.38-.76-1.47-1.39-.3-1.39-.74-3.08-1.41-3.57a18.47,18.47,0,0,1-2.41-1.75,1.08,1.08,0,0,1-.52-.59c-.26-.74.06-2,1-3.77a3.91,3.91,0,0,0-2.27-4.37.79.79,0,0,0-.24,0c-.13,0-.15,0-.17.07a.36.36,0,0,0,.16.37c1.66,1.28,2.71,2.48.8,6.3m7.72-9A8.07,8.07,0,0,0,77,45.63a5.63,5.63,0,0,0,5.08,4.72h4.49a.83.83,0,0,1,.69.41c.09.16.14.48-.16,1-.1.17-.14.31-.1.36l.11,0a.7.7,0,0,0,.39-.17A1.59,1.59,0,0,0,88,50.23a1.43,1.43,0,0,0-1.38-.86c-.81,0-1.47.05-2.07.07-2.09,0-3.16-.1-3.69-.47a5.09,5.09,0,0,1-3-4.43c-.1-2.55,1.55-5.16,4.28-6.81,1.26-.81,2.76-1.83,3-2.58a.76.76,0,0,0,0-.57l-.08,0a.87.87,0,0,0-.27.12,9.85,9.85,0,0,1-3.22,2.42m4.55,9.84a14,14,0,0,0-1.86.16l-.16,0c-.44,0-.83.1-1.18.12-1.1,0-1.87-.37-2.33-2.39,0-.27-.07-.38-.17-.44a.53.53,0,0,0-.23.47c0,2.63,1.78,2.68,4.31,2.74a21.15,21.15,0,0,1,2.41.14,3.37,3.37,0,0,1,2.53,2.31A3,3,0,0,1,88.3,53c-.24.2-.34.42-.27.57a.64.64,0,0,0,.59.29.62.62,0,0,0,.37-.1A3.65,3.65,0,0,0,90.42,50a4.07,4.07,0,0,0-3.42-3c-.27,0-.52,0-.77,0m-1.59-15.3a.53.53,0,0,0-.27-.08.5.5,0,0,0-.42.28.79.79,0,0,0,.19.8,3.94,3.94,0,0,1,1.62,2,2.58,2.58,0,0,1-.56,2.17l-4.06,3.74c-2.7,2.58-3.07,4.92-1.15,7.13l.14.06a.69.69,0,0,0-.1-.32c-1.45-3,.5-4.7,3-6.84l0,0A25.66,25.66,0,0,0,86.65,37c.92-1.88.27-3.65-2-5.4M70.91,39.94l.22,1.3a.46.46,0,0,0,.42.32.36.36,0,0,0,.29-.14.57.57,0,0,0,.07-.44,1.37,1.37,0,0,1,.1-1.5l.47-.43a.53.53,0,0,0,0-.44.37.37,0,0,0-.35-.2l-.21,0-.62.54a.87.87,0,0,0-.44,1m-1.3.86c.14.18.31.3.44.28a.19.19,0,0,0,.2-.11.69.69,0,0,0,0-.64c-.4-1,0-1.3.54-1.79l.09-.07a.4.4,0,0,0,0-.38.34.34,0,0,0-.3-.17.82.82,0,0,0-.27.06c-1.08.68-1.26,1.34-.78,2.8m-1.56-.69c0,.17.08.29.23.35h.14a.35.35,0,0,0,.35-.18.43.43,0,0,0,0-.44c-.4-.71-.1-1,.25-1.41h0c.1-.14.22-.24.32-.39a.49.49,0,0,0,.14-.39.33.33,0,0,0-.34-.29.56.56,0,0,0-.35.14,5.94,5.94,0,0,1-.75.59l-.11.08-.14.09-.17.1s-.27.17-.08.59a6.11,6.11,0,0,1,.5,1.19m18.27-9.33a1,1,0,0,0-.47-.12.39.39,0,0,0-.34.14c0,.08,0,.17.1.22,2.09,1.5,2.63,3.35,1.6,5.51,0,.15,0,.23,0,.26l.07,0a1,1,0,0,0,.35-.17c1.35-2.14.91-4.06-1.3-5.88m5.38,2.07a1.29,1.29,0,0,0,1,.29,1.51,1.51,0,0,0,1.47-1l.47-2a.39.39,0,0,0-.05-.25l-.15-.05c-.21,0-.46.18-.54.59a5,5,0,0,1-.63,1.83.44.44,0,0,1-.38.24.31.31,0,0,1-.26-.52,2.47,2.47,0,0,0,.46-1,.29.29,0,0,0,0-.22l-.08,0a.41.41,0,0,0-.24.13,7.91,7.91,0,0,1-.94,1.39c-.17.28-.19.47,0,.64m4-7.4s.15.07.2.05l.07-.1a.29.29,0,0,0-.17-.34,15,15,0,0,0-2.18-.87.08.08,0,0,0-.11,0,.17.17,0,0,0,.1.2,19.93,19.93,0,0,1,2.07,1m.88,5.13a11.38,11.38,0,0,0,0-1.85c0-.12-.06-.12-.08-.12s-.15.07-.19.19a8.3,8.3,0,0,1-.2,1.78.37.37,0,0,0,0,.26l.14.05a.33.33,0,0,0,.32-.31m-1.08.8.22-1.77c0-.14,0-.22-.09-.29s-.12.07-.2.22c-.27.57-.93,2.43-.54,3.1a.55.55,0,0,0,.36.24,3.06,3.06,0,0,0,.52,0,2,2,0,0,0,1.5-.55c.74-.83.64-2.48.52-3.95v-.3c-.08-.29-.19-.4-.27-.4l-.15.08a.5.5,0,0,0-.12.41A7.32,7.32,0,0,1,97,31.35a1.29,1.29,0,0,1-.88.67c-.24,0-.49-.17-.52-.66M102,28.53c.19.37.41-.12.37-.27-.42-1.45-1.78-3.6-2.12-3.47A15.93,15.93,0,0,1,102,28.53m-1.85.95a1.55,1.55,0,0,0,0-.43,9.91,9.91,0,0,0-1.26-3.2l0-.05,0,.15a20.45,20.45,0,0,1,.92,3.64s.27.32.34-.13M98.46,27h-.07a.79.79,0,0,0,0,.23,18.73,18.73,0,0,1,.36,4.23.41.41,0,0,0,.08.27.85.85,0,0,0,.59.16,5,5,0,0,0,1.52-.68,1.15,1.15,0,0,0,.6-1.09,8.52,8.52,0,0,0-1.87-4.65c-.08-.11-.13-.12-.17-.12h0a.85.85,0,0,0,0,.32c1.27,2.29,1.59,3.74,1,4.66a1.48,1.48,0,0,1-.81.44c-.18,0-.44-.1-.52-.59a10.2,10.2,0,0,0-.64-3.08l-.1-.07Zm4.19-1.06a5.14,5.14,0,0,0-2.14-2.21c-.21-.1-.26.08-.21.13a8,8,0,0,1,2.79,4.37,1.14,1.14,0,0,1-.22.94l-.11.12a5.18,5.18,0,0,0-.41.4.37.37,0,0,0,0,.39.43.43,0,0,0,.44.25h.1l1.47-1.12a.62.62,0,0,0,.18-.44.48.48,0,0,0-.1-.32,5.74,5.74,0,0,1-1.74-2.53m-.52-4.87a.67.67,0,0,0,.49.14.63.63,0,0,0,.42-.12L103,21a3.5,3.5,0,0,0-3.33-.93c-.3.17,2.12.11,2.49,1m-4.24-3h0c.55,0,.75.23.77.42s-.18.45-.77.5l-.11,0,.17.1a4.55,4.55,0,0,0,.61,0,1.11,1.11,0,0,0,1-.37.45.45,0,0,0,0-.42,1.06,1.06,0,0,0-1-.43,1.91,1.91,0,0,0-.6.11m-.43,2.64c3.07.69,5.24,1.69,5.82,4.26,0,1,.23,1.69.62,2L104,27v-.24c.08-2.56-.73-4.28-2.43-5.12a12.16,12.16,0,0,0-3.74-1.52,1.22,1.22,0,0,1-1.1-1.38,1.66,1.66,0,0,1,1.52-1.62h.17c.27,0,.4-.12.42-.18s-.07-.1-.19-.14h-.37c-1,0-2,.25-2.12,1.89-.15,1.19.27,1.85,1.31,2m11.48,66.59a1,1,0,0,0-.54.18,1.91,1.91,0,0,1-1,.29h-.22c-3.18.07-6.35,0-9.64-.19a2.31,2.31,0,0,1-.94-.27,1.6,1.6,0,0,0-.66-.15.37.37,0,0,0-.32.14.66.66,0,0,0,0,.54c.64.92,6,.82,8,.81l2,0h1.74a3.41,3.41,0,0,0,1.8-.54.39.39,0,0,0,.2-.44.5.5,0,0,0-.52-.33M96.39,85.16a.59.59,0,0,0-.51-.34.2.2,0,0,0-.18.07l-.41.73a.66.66,0,0,1-.59.37.71.71,0,0,1-.55-.26.67.67,0,0,1-.12-.6,1.48,1.48,0,0,1,.52-.78,1,1,0,0,0,0-1,3.56,3.56,0,0,1-.22-2.39l.29-1.09a.84.84,0,0,0-.34-1,.76.76,0,0,1-.37-.9.71.71,0,0,1,.62-.5.57.57,0,0,1,.29.07.79.79,0,0,1,.47.53l.1.24a.68.68,0,0,0,.51.29.32.32,0,0,0,.25-.12.64.64,0,0,0,0-.59,1.77,1.77,0,0,0-1.82-1.33,1.39,1.39,0,0,0-1.06.42,1.37,1.37,0,0,0-.35,1.06,1.16,1.16,0,0,0,.38,1h0a1.5,1.5,0,0,1,0,1.58,2.63,2.63,0,0,0,0,2.13,2.21,2.21,0,0,1,0,1.75l-.14.25a1.22,1.22,0,0,0-.17,1,1.44,1.44,0,0,0,1.49,1.12,2.09,2.09,0,0,0,1.07-.32,2,2,0,0,0,.76-1.42m16.19-6.94a1.5,1.5,0,0,0-1.55-1,1.69,1.69,0,0,0-1.8,1.63.35.35,0,0,0,.09.3.43.43,0,0,0,.33.15A.42.42,0,0,0,110,79c.14-.79.61-.87.79-.89a.83.83,0,0,1,.78.54.69.69,0,0,1-.29.78.9.9,0,0,0-.39,1.28,2.93,2.93,0,0,1,0,3.08,1,1,0,0,0,.59,1.43h0a.59.59,0,0,1,.08.64.81.81,0,0,1-.7.44.82.82,0,0,1-.78-.62.52.52,0,0,0-.49-.46.41.41,0,0,0-.35.19.37.37,0,0,0,0,.35c.49,1,1.09,1.5,1.85,1.48a2.72,2.72,0,0,0,1.08-.27,1.52,1.52,0,0,0,.56-1,1.39,1.39,0,0,0-.34-1c-.39-.22-.46-.7-.24-1.44a2.59,2.59,0,0,0,0-2.49,1.27,1.27,0,0,1,.19-1.42,1.31,1.31,0,0,0,.23-1.39m-12.5.1h.24l.23,0c.41,0,.46-.33.46-.42a.35.35,0,0,0-.3-.38,5.06,5.06,0,0,0-1,0h0a6.57,6.57,0,0,1-2-.22,2.67,2.67,0,0,0-.26-.09.69.69,0,0,0-.38-.1.41.41,0,0,0-.36.14.64.64,0,0,0,0,.55,3,3,0,0,0,2.37.63c.32,0,.63,0,.9,0m4.31,5.06v0c.56,1.47,1.21,3.32,2.68,3.35h.17l0,0a5.72,5.72,0,0,1-1.73-2.93c-.37-1.11-.69-2.09-1.86-2.41h-.28l.08.14c.41.21.66.92,1,1.82m-4.42-4a.94.94,0,0,0-.34,0s.06.09.16.15c.89.49,1.45,1.94,2,3.49.69,1.85,1.41,3.78,2.74,3.74h0a1,1,0,0,0,.29-.05h0c-.78-.4-1.28-1.77-1.81-3.2-.69-1.85-1.46-4-3-4.18m-2.38.34c.85.52,1.33,1.87,1.82,3.28.61,1.71,1.23,3.46,2.51,3.78a1.66,1.66,0,0,0,.53.08h.06a1,1,0,0,0-.15-.15c-.79-.27-1.23-1.58-1.73-3.1-.59-1.79-1.27-3.79-2.6-4.21a3.88,3.88,0,0,0-.42,0,.65.65,0,0,0-.29.06s0,.13.27.3M80.16,24.08a.43.43,0,0,0,0,.39,1.3,1.3,0,0,1,.23,1.37l0,0a1.18,1.18,0,0,0,.22-1.73c-.08-.1-.2-.24-.32-.21a.37.37,0,0,0-.2.22M77.47,27.2a.93.93,0,0,0-.07.69.64.64,0,0,0,.42.31c.13,0,.27,0,.42,0a5.61,5.61,0,0,0,3.27-1.55l.1-.15-.1,0a7.26,7.26,0,0,1-2.85,1,.53.53,0,0,1-.39-.27c-.08-.2,0-.49.26-.87a8,8,0,0,0,1.08-1.17c.1-.1.11-.18.06-.35a1.84,1.84,0,0,1-.06-.4,3,3,0,0,1,0-.31.93.93,0,0,1,.25-.6,2,2,0,0,1,.54-.46.37.37,0,0,0,.16-.45.61.61,0,0,0-.56-.41c-.66.25-.89.59-.83,1.16A1.74,1.74,0,0,1,78.86,25a9,9,0,0,0-1.38,2.22m3.22,2-.08,0a4.19,4.19,0,0,1-1.17.22A1.93,1.93,0,0,1,78,28.9l-.14,0-.11.08a.56.56,0,0,0,0,.37,1.89,1.89,0,0,0,1.4.73,2.39,2.39,0,0,0,1.38-.57c.12-.09.14-.17.12-.21M76.08,31c.26.77.64,1.18,1.17,1.28H79.5a.48.48,0,0,0,.37-.46.4.4,0,0,0-.25-.39l-1.8,0c-.67,0-1-1-1.28-1.94C76,27.47,77,26,78,24.79c.09-.12.12-.18.15-.22H78l0,0a.44.44,0,0,1-.18-.25.61.61,0,0,1,.18-.43l.31-.28v-.1l-.17-.07h0a10.19,10.19,0,0,0-2.7,2.44,1.59,1.59,0,0,0-.19,1.45L76.05,31Zm26.1-11.8.81.34c.44.22.88.45,1.3.71,1.65.94,2.69,2,3.4,5.29l.09.35c.69,3.13,1.11,5-2,7.55a.78.78,0,0,0-.12.79.38.38,0,0,0,.35.25h0a5.88,5.88,0,0,0,2.48-2.36c1.84-2.47-.18-8.08-.86-9.92a4.82,4.82,0,0,0-2.74-2.7l-3.49-1.61a1.26,1.26,0,0,1-.54-1.1c0-.42.32-.5.77-.76a3.17,3.17,0,0,1,1.52-.3c.44,0,.88,0,1.3.07a30.86,30.86,0,0,1,15.75,5.22h0a.68.68,0,0,1,.12.66c-.14.27-.49.39-1.18.42a1.3,1.3,0,0,1-1-.39l-.45-.72c0-.12-.1-.17-.14-.17s-.13.07-.17.2l-.18,1c0,.15,0,.2.17.23a7,7,0,0,0,2.24.37,5.65,5.65,0,0,0,3.55-1.31c.17-.22.26-.42.19-.52s-.27-.19-.61-.2h-.37a5.53,5.53,0,0,1-3.22-1,32.36,32.36,0,0,0-16.73-4.37,2.68,2.68,0,0,0-1.45.27,1.82,1.82,0,0,0-1,1.21,1.72,1.72,0,0,0,.43,1.47,4.06,4.06,0,0,0,1.72,1.06m8.95,27.18h0a1.34,1.34,0,0,0-.07.84,12.62,12.62,0,0,1,1.77,4.87l0,.09.12-.12a13.39,13.39,0,0,0-1.77-5.63Zm1.28,10c0,.17.08.47.32.45a.8.8,0,0,0,.56-.33c1.44-1.89,1-7.84-.9-10.79l-.13-.07a.44.44,0,0,0-.2.16.53.53,0,0,0,0,.52c1.45,3.28,1.92,5.78,1.52,7.85-.07.24-.19.54-.44.54s-.37-.12-.49-.74a14.27,14.27,0,0,0-2.1-6,2.06,2.06,0,0,0,0,1.18,19.14,19.14,0,0,1,1.87,7.23M110,38.79a.26.26,0,0,0,.22-.4l-.69-.69-.1,0a.42.42,0,0,0-.2.14.3.3,0,0,0,0,.29l.74.7h0Zm-1.55-.43s-.15,0-.19.11a.56.56,0,0,0,0,.51l1.33,1.53a.66.66,0,0,0,.51.2,2.16,2.16,0,0,0,1.55-1.19,1.39,1.39,0,0,0,.13-1.33,9.28,9.28,0,0,0-1.36-1.67l-.12-.07a.49.49,0,0,0-.19.17.64.64,0,0,0,0,.57l.63.81a1.11,1.11,0,0,1-.11,1,.78.78,0,0,1-.69.43.93.93,0,0,1-.54-.2l-.79-.89-.2-.07Zm3.25-3.43c0,.11,0,.21.09.31l.62.45.15.07c.12,0,.17-.12.19-.15a.35.35,0,0,0-.09-.36l-.62-.47-.1,0a.29.29,0,0,0-.25.17M111,36.05a.38.38,0,0,0,.08.43l1.75,1.3a.65.65,0,0,0,.36.1,1.07,1.07,0,0,0,.71-.37l.22-.37c.47-.74.8-1.26.26-2a4.86,4.86,0,0,0-1.71-1.47c-.07,0-.12.05-.17.15a.54.54,0,0,0,0,.54l.89.94a1,1,0,0,1,0,1,.88.88,0,0,1-.72.5.66.66,0,0,1-.41-.13l-1-.71-.16-.08A.66.66,0,0,0,111,36m3.63-3.79a.29.29,0,0,0,.27-.18.31.31,0,0,0-.07-.32l-1.15-.66-.15.12v.23l1,.81Zm-1.42.63L115,34.11a1,1,0,0,0,.56.18.75.75,0,0,0,.44-.15,2.69,2.69,0,0,0,.79-1.11,1.35,1.35,0,0,0-.57-1.67l-2.36-1.73-.1,0-.07.05a.6.6,0,0,0,.08.56,10.51,10.51,0,0,1,1.82,1.6,1,1,0,0,1,.16,1,.57.57,0,0,1-.51.38.8.8,0,0,1-.47-.17l-1.42-.88a.64.64,0,0,0-.17.17.51.51,0,0,0,.09.54m2.71-4.43.2,0c.21,0,.41-.08.37-.13-.4-.61-3.52-2.18-3.52-2.18a.55.55,0,0,0,.14.34A15,15,0,0,0,116,28.4m-3.35-4.15-.09.09a.53.53,0,0,0,.2.54c.39.27,1,.6,1.64,1,1.28.74,2.61,1.5,2.86,2a1.17,1.17,0,0,1,.05,1.17.63.63,0,0,1-.59.39,1.2,1.2,0,0,1-.49-.13l-2.88-1.67-.06,0h0a1.32,1.32,0,0,0,.44,1A15.91,15.91,0,0,0,115.73,30l.2.12a3,3,0,0,0,1.15.45.63.63,0,0,0,.43-.15,2.45,2.45,0,0,0,.48-2.56,20.11,20.11,0,0,0-5.39-3.57m-1.27-3.45a2.41,2.41,0,0,0,.69.64,21.8,21.8,0,0,1,5.71,3,.62.62,0,0,1,.19.67.53.53,0,0,1-.52.32,1.42,1.42,0,0,1-.56-.15,17.22,17.22,0,0,0-4.67-2.51l-.06.08a.44.44,0,0,0,.3.46,24.36,24.36,0,0,1,5,3,1.24,1.24,0,0,0,.67.25.72.72,0,0,0,.56-.35c.35-1-.09-1.87-1.33-2.75a28.51,28.51,0,0,0-5.92-2.59h0Zm-.22,22.57.15.09.16-.1a.37.37,0,0,0,0-.24l-.76-1.35-.17-.08a.31.31,0,0,0-.25.13V42l.86,1.37Zm2-.6L111.58,41l-.15,0a.5.5,0,0,0-.2.12.4.4,0,0,0,0,.37l1,1.11a.7.7,0,0,1,.23.52c0,.36-.33.64-.65.91l0,0a2,2,0,0,0-.5.52.35.35,0,0,0,0,.37.25.25,0,0,0,.22.12l.16,0L112.92,44a.86.86,0,0,0,.2-1.17m1.36-1.88a.58.58,0,0,0,.34.13.35.35,0,0,0,.32-.18.5.5,0,0,0-.12-.46,7.68,7.68,0,0,0-1.67-1.55.49.49,0,0,0-.23-.08.3.3,0,0,0-.31.3c0,.13.11.25.27.42.53.57.91.94,1.39,1.4m.87,2a2,2,0,0,0,1.6-.77A1.15,1.15,0,0,0,117,41a14.63,14.63,0,0,0-2.64-2.94l-.12-.06a.62.62,0,0,0-.19.16.28.28,0,0,0,0,.28,11.49,11.49,0,0,1,2,2.33,1,1,0,0,1-.08.89,1.19,1.19,0,0,1-.89.46,1.1,1.1,0,0,1-.58-.16,13.62,13.62,0,0,1-2-1.87l-.12,0a.48.48,0,0,0-.18.12.35.35,0,0,0,0,.37,7.05,7.05,0,0,0,2.47,2.21,1.74,1.74,0,0,0,.65.11m.23-6.74,3.22,3.05.23.09.17-.07v-.12a12.67,12.67,0,0,0-3.75-3.6.83.83,0,0,0,.15.67m1.43-1.53a.69.69,0,0,0-.27-.1.28.28,0,0,0-.24.17.41.41,0,0,0,.14.43A16.59,16.59,0,0,1,120,38.78a.84.84,0,0,1,0,.86.87.87,0,0,1-.79.4,1.77,1.77,0,0,1-.77-.2,20,20,0,0,1-3.21-2.77l-.21-.21A.43.43,0,0,0,115,37a.58.58,0,0,0,0,.53c1.77,2,3,3.06,3.58,3.27a6.19,6.19,0,0,0,1.31.16,1.36,1.36,0,0,0,1.11-.4,1.88,1.88,0,0,0,0-1.6,17.82,17.82,0,0,0-3.91-4.3m.57-3.18a.54.54,0,0,0-.05.44,62.07,62.07,0,0,0,5.56,5.45l.13.06.12-.07a.32.32,0,0,0,0-.24,35.23,35.23,0,0,0-5.68-5.71l0,.08Zm1-1-.08,0a.72.72,0,0,0,0,.59,42,42,0,0,1,5.85,6.25.84.84,0,0,1,.14.93,1,1,0,0,1-.85.51,1,1,0,0,1-.69-.27,50.43,50.43,0,0,1-3.82-3.78c-.53-.55-1.08-1.14-1.6-1.67l-.14-.06-.13.13a.7.7,0,0,0,0,.66L121.34,38a5.48,5.48,0,0,0,2,1.46,3.23,3.23,0,0,0,.9.09,1.52,1.52,0,0,0,1.23-.49,1.64,1.64,0,0,0,.08-1.43,25.17,25.17,0,0,0-6.77-7.2l0,0Zm9.73,7.3a1.12,1.12,0,0,1-.81-.54,47.21,47.21,0,0,0-8.19-8.78l-.1-.07-.09.08a1.25,1.25,0,0,0,.07,1.05,47.59,47.59,0,0,1,5.56,5.8l.07.06a31.88,31.88,0,0,0,3,3.27,2,2,0,0,0,1.13.32,1.11,1.11,0,0,0,.88-.39,1,1,0,0,0,.13-.84,33.88,33.88,0,0,0-10.24-11.46c-.1-.1-.17-.13-.22-.13h-.07a1.23,1.23,0,0,0,.37,1.06,50,50,0,0,1,8.7,9.62.8.8,0,0,1,.1.74.4.4,0,0,1-.32.17m5,.09a.93.93,0,0,0,.55.25.18.18,0,0,0,.17-.09c.09-.15,0-.45-.17-.84a41.64,41.64,0,0,0-12.09-13.71,1.25,1.25,0,0,0-.56-.14.41.41,0,0,0-.32.1s0,.17.4.37c3.1,2.45,7,6,12,14.06M123.09,22.4a.55.55,0,0,0,.24.39c5,3.6,9,8.77,12.16,15.83a.82.82,0,0,1-.08.63.46.46,0,0,1-.31.13,2.08,2.08,0,0,1-.94-.37,10.74,10.74,0,0,1-2.91-2.86,44.66,44.66,0,0,0-11.39-12.1c-.12-.1-.19-.15-.26-.13l-.1,0a.94.94,0,0,0,.31.76c3.45,2.34,7.24,6.67,11.57,13.21a6.86,6.86,0,0,0,6,3,6.27,6.27,0,0,0,.74,0c.4-.11.46-.21.46-.21s-.06-.13-.24-.27a6.31,6.31,0,0,1-2.28-3.2,37.11,37.11,0,0,0-12.33-14.71.75.75,0,0,0-.39-.11c-.1,0-.16,0-.18.08m-30,2.29v.05c.12.39,3.22,1.89,3.57,2.06a1.15,1.15,0,0,0,.47.13.6.6,0,0,0,.44-.22,1,1,0,0,0,.22-1.26,7.48,7.48,0,0,0-4.11-2.29h-.08v.13a.43.43,0,0,0,.18.14,10.58,10.58,0,0,1,2.92,1.58l.06.05c.19.15.39.31.32.59a.87.87,0,0,1-.3.41l-.17.05a3,3,0,0,1-1-.39l-.18-.1h0a10.37,10.37,0,0,0-2.19-1l-.09,0Zm1.58,3.44c-.32,0-.74-.78-.89-1l-.15-.08h-.08a1.18,1.18,0,0,0,0,.28,2.7,2.7,0,0,0,.74,1.45.71.71,0,0,0,.44.15,1.76,1.76,0,0,0,1.17-.75.81.81,0,0,0-.06-.88,6.33,6.33,0,0,0-2.5-1.65h-.13v0a9.54,9.54,0,0,0,.84.62h0a5.61,5.61,0,0,1,1,.9.6.6,0,0,1,.09.54.94.94,0,0,1-.58.44m-1.87,1c-.15,0-.43-.44-.55-.74l-.1-.07-.12.07a.52.52,0,0,0,0,.25,1.59,1.59,0,0,0,.64,1.06.5.5,0,0,0,.35.1.63.63,0,0,0,.59-.52A1.64,1.64,0,0,0,92.85,28l0,.05a1.82,1.82,0,0,1,.24,1c0,.17-.17.16-.27.17m1.45-6.48a8,8,0,0,1,2,.85l.44.24c.53.27,1.1.57,1.74.84l.2.07a2.09,2.09,0,0,0,.24-.15,3.1,3.1,0,0,0,.86-1.72l0-.07H99.6a2,2,0,0,1-.65.14,2.38,2.38,0,0,1-.78-.14,8.69,8.69,0,0,0-3.59-1.16h-.15l0,.07v.17l0,.05a10.91,10.91,0,0,1,3.76,1.5l0,0c.1.07.32.19.34.3l0,.09a.54.54,0,0,1-.31.12l-.17-.07-.18-.09a27.35,27.35,0,0,0-3.57-1.43h0c-.13,0-.17.07-.17.1a.33.33,0,0,0,.14.26m-2.19-1.05c.4-.34.79-1.3,1.06-.79S93,22,92.85,22.3s0,.39.18.49l.09.05a.36.36,0,0,0,.13-.12,3,3,0,0,0,.39-2.16A1.65,1.65,0,0,0,93,19.48l-.18-.08a.5.5,0,0,0-.2.19l-.22.8a1.68,1.68,0,0,1-.44.8.86.86,0,0,0-.32.59c0,.21.12.1.39-.14m-4.4,6.24a2.89,2.89,0,0,0,.77-.19,19.25,19.25,0,0,1,3.26-1.38c.11,0,.28-.07.35,0a.49.49,0,0,1-.14.8l-1.38.62s-.1.1-.1.12.14.1.47.1h0c1.4-.32,1.93-.86,1.76-1.67a.75.75,0,0,0-.71-.45,2.21,2.21,0,0,0-1.2.2c-.69.27-1.75.87-2.39,1.11a4.7,4.7,0,0,0-.81.4c-.15.09-.57.48.07.38m3.23-3.17a7.87,7.87,0,0,1-1.8,1.06,2.32,2.32,0,0,0-.93.61c0,.11,0,.16-.06.16h.11a10.19,10.19,0,0,0,3.32-1.82c.69-.55.9-1.11.61-1.68-.08-.1-.13-.12-.18-.12a.44.44,0,0,0-.24.1c-.57.54-2.92,1.77-3.34,2.11-.15.12-.18.2-.18.23s0,.19.2.12c.37-.1,1.9-1.08,2.27-1.24.53-.24.61-.16.63-.09s-.15.36-.42.54M88,24.57h.07c2.34-1.09,2.83-2.49,2.91-3.23a2.07,2.07,0,0,0-.59-1.84h0a3.45,3.45,0,0,1-.62,3.07c-.53.42-1.13.89-1.76,1.33l-.27.2a.2.2,0,0,0-.1.24.43.43,0,0,0,.36.23m.13-1.48c.15,0,.22-.25.27-.47s0-.81.37-.89.17.38.29.45.2-.05.23-.2a1.72,1.72,0,0,0-.6-1.38l-.09-.07s0,0-.1.17a7.21,7.21,0,0,0-.44,2.19c0,.13,0,.2.07.2m-1.33,2c-.14,0-.22.07-.17.17.59,1,.32,1.4-.55,1.8-.32.09-.14.41.15.37a.62.62,0,0,0,.28,0,1.32,1.32,0,0,0,.76-2c-.15-.27-.34-.34-.45-.32m-3.09,1.57a4.8,4.8,0,0,0,1.23.47h.12a.46.46,0,0,0,.35-.19,2.19,2.19,0,0,0,.43-1.06,3.3,3.3,0,0,1,.72-1.45l.19-.2a1.75,1.75,0,0,0,.47-.86c.17-.74.05-1.2-.41-1.52v.31a3.51,3.51,0,0,1-1.58,2.51l-.35.25a5.74,5.74,0,0,0-1,.77c-.27.26-.41.49-.39.68a.38.38,0,0,0,.2.3m-3.07,3.78A5.89,5.89,0,0,1,81.83,29a.65.65,0,0,1,.52-.19,2.82,2.82,0,0,1,.41,0c.2,0,.45-.07.52-.27s0-.28-.19-.42L82.91,28l.1-.1a1,1,0,0,1,.69-.27,2.08,2.08,0,0,1,.77.16l1.74.53a2.89,2.89,0,0,0,.84.11,5.84,5.84,0,0,0,1.2-.16,3.94,3.94,0,0,1,.86-.14,3.16,3.16,0,0,1,2.17.93c.22.27.22.44,0,.67a9.7,9.7,0,0,1-2.46,1.55,1.69,1.69,0,0,1-.47.09c-.17,0-.29,0-.48-.05s-.32-.11-.33-.12a.31.31,0,0,1,.06-.2,3.36,3.36,0,0,1,1.32-.58,1.22,1.22,0,0,0,.67-.33.54.54,0,0,0,0-.81h0a1.88,1.88,0,0,0-.76-.17,2.61,2.61,0,0,0-1.63.74,2.23,2.23,0,0,1-1.16.34,2.84,2.84,0,0,0-.58-.05,2,2,0,0,0-2,1.21,1.78,1.78,0,0,0,.74,2c.09.08.25.27.19.4s-.34.25-.69.25h-.09A3.19,3.19,0,0,1,80.5,31.9a1.66,1.66,0,0,1,.17-1.45M82,29.51a2,2,0,0,0-.82,1.4,2.14,2.14,0,0,0,.74,1.5.85.85,0,0,0,.5.27c.37,0,.39-.51.39-.69v0a1.94,1.94,0,0,1,1.52-2.15,4.92,4.92,0,0,1,1.14-.17H86c.25,0,.4-.12.44-.26a.46.46,0,0,0-.14-.45,1.75,1.75,0,0,0-1.18-.42,2.22,2.22,0,0,0-.55.08,3.19,3.19,0,0,0-1.1.86.52.52,0,0,1-.34.12.49.49,0,0,1-.25,0,1,1,0,0,0-.44-.1,1.14,1.14,0,0,0-.4.08h0m36.9,36c.1,0,.15,0,.15-.11a.5.5,0,0,0-.4-.41c-1-.17-2.33-1.65-3.71-3.23l-.72-.83-.16-.07-.11.14s0,.17,0,.24l2.93,3.37a2.71,2.71,0,0,0,2,.89Zm3.13.66a1.79,1.79,0,0,0,.48-.07.13.13,0,0,0,.1-.16.34.34,0,0,0-.37-.27,4,4,0,0,1-2.36-.91q-3.28-3-6.41-6.29c-.1-.08-.15-.12-.21-.12h-.06a1,1,0,0,0,.12.61,1.7,1.7,0,0,0,.31.39l0,.05c1.21,1.26,2.79,2.85,4.83,4.85a7.25,7.25,0,0,0,2,1.52,3.27,3.27,0,0,0,1.55.4m-8.2-8.34c1.82,2,3.74,3.94,5.88,6a2.82,2.82,0,0,0,1.45.86l.1,0a1.08,1.08,0,0,0-.14-.17c-1.9-1.61-3.91-3.6-5.61-5.32l-.33-.37-.12-.12a7.31,7.31,0,0,0-1.1-1h-.18a.54.54,0,0,0,0,.23m11.15,8a2.24,2.24,0,0,0,1.25-.37c.1-.08.15-.17.13-.24s-.1-.16-.22-.21l-.2,0-.23,0-.14,0A3.69,3.69,0,0,1,125,65a2.88,2.88,0,0,1-1.87-.7c-2-1.71-3.61-3.17-5-4.45l-.13-.12c-1-1-2.06-1.87-3.14-2.8a.32.32,0,0,0-.22-.08h-.08a.75.75,0,0,0,0,.27c0,.1.08.17.24.32l.48.5c2.48,2.33,4.72,4.44,7,6.49A5.08,5.08,0,0,0,124,65.65a4.91,4.91,0,0,0,1,.13m-7.92-21,.2,0h.07v-.18A1.87,1.87,0,0,0,117,44a1.41,1.41,0,0,0-.64-.42,1.15,1.15,0,0,0-.46-.08.24.24,0,0,0-.17,0l0,.15a3.79,3.79,0,0,0,1.31,1m6.39,18-8.26-6.91a.48.48,0,0,0-.25-.1l-.07,0a.72.72,0,0,0,.24.49c2.39,2.19,5,4.46,7.71,6.77a8.52,8.52,0,0,0,1.11.84.9.9,0,0,0,.46.12.32.32,0,0,0,.3-.15.17.17,0,0,0,0-.15Zm3.08-.55a10.45,10.45,0,0,0,1.62,1,.75.75,0,0,0,.32.06c.1,0,.15,0,.15-.06s0-.19-.2-.36l-12.69-9.8-.17-.07-.08.05c0,.12,0,.4.35.71l10.68,8.46Zm5.29.74c-1.13-.71-1.92-1.23-2.54-1.67-4.4-3.32-8.85-6.54-13.6-9.81a.46.46,0,0,0-.25-.11s-.05,0-.07.08a.85.85,0,0,0,.45.83L130,62.65l.17.1a1.22,1.22,0,0,1,.52.44c.05.12.14.39-.25.67a3,3,0,0,1-1.38.37,4.14,4.14,0,0,1-2.45-.92c-3.77-3-7.53-6-11-8.83a.43.43,0,0,0-.26-.12l-.08,0a.62.62,0,0,0,0,.52,1.07,1.07,0,0,0,.39.53c3.67,3,7.34,6,10.93,8.91A4.81,4.81,0,0,0,129,65a4.66,4.66,0,0,0,3-1.23.61.61,0,0,0-.13-.88M116.18,46l.12,0c.49.17.91.34,1.25.49a3.38,3.38,0,0,1,1.11.74,18.56,18.56,0,0,1,2.12,2.6l.12.16a27.71,27.71,0,0,0,1.75,2.28.51.51,0,0,0,.34.17.27.27,0,0,0,.22-.1.47.47,0,0,0,0-.41,26.3,26.3,0,0,0-1.88-4.55,1,1,0,0,0-.85-.42h-.05v.09l.46.82,0,.19v0l0,0a.26.26,0,0,1-.22.13h0l-.17-.08h0l0-.07a8.39,8.39,0,0,0-1.18-1.41,2.31,2.31,0,0,0-.69-.46c-.42-.18-1-.39-1.57-.62a9,9,0,0,1-1.15-.71c-.37-.32-.79-.69-1.23-1.11a.48.48,0,0,0-.23-.09.2.2,0,0,0-.19.12.65.65,0,0,0,0,.57,3.26,3.26,0,0,0,1.21,1.18,3.65,3.65,0,0,0,.74.32M120,41.72a.46.46,0,0,0-.4.17V42a5.72,5.72,0,0,0,2.15,2.19l.21,0h.06a.42.42,0,0,0-.13-.27,6.65,6.65,0,0,1-1.47-2,.44.44,0,0,0-.42-.22m5.68,11.79,0,.09c.09.28.17.54.27.79a1.82,1.82,0,0,0,.32.62.46.46,0,0,0,.31.19c.13,0,.2-.15.23-.26a1.47,1.47,0,0,0,0-.62c-.22-4.23-.81-6.65-1.87-7.82-.24-.23-.34-.23-.34-.23s0,0,0,.2a.86.86,0,0,0,.13.44,6.85,6.85,0,0,1,.68,1.92.61.61,0,0,1-.09.57l-.1.07h-.07c-.16,0-.35-.17-.47-.47a5,5,0,0,0-2.2-2.68,13.78,13.78,0,0,1-3.22-2.48,6.23,6.23,0,0,1-.84-1.33c-.06-.1-.11-.19-.22-.22s-.39.29-.46.57a.42.42,0,0,0,.07.37,6.46,6.46,0,0,0,2.73,2.85,7.31,7.31,0,0,1,3.76,3.64c.7,1.67,1.12,3,1.39,3.81m4.55-10a8.43,8.43,0,0,1-.81-1.87l-.2-1.06a1.07,1.07,0,0,0-.23-.53,1.06,1.06,0,0,0-.64-.32.33.33,0,0,0-.24.09.29.29,0,0,0,0,.28,7.38,7.38,0,0,0,2,4h0c.08.1.13.14.21.15l.07,0a.75.75,0,0,0,0-.24,1.22,1.22,0,0,0-.18-.45M133,53.77H133c-.12,0-.29-.07-.44-.4a1.9,1.9,0,0,1-.17-.56l-.69-4.23a7.43,7.43,0,0,0-1.57-3.27,14.72,14.72,0,0,1-3.06-5.2c-.15-.59-.37-.74-.46-.74s-.23.16-.27.5a1.24,1.24,0,0,0,.07.66,10.5,10.5,0,0,0,2.7,4.85,4,4,0,0,1,1.41,2.56V48c.12.49.22,1,.32,1.5v0a37.44,37.44,0,0,0,1.79,6.58,5.82,5.82,0,0,1,.47,2c.08,1.58.17,2.54.27,3.33s.29.91.42.91.29-.21.37-.79a36.77,36.77,0,0,0,0-8,28.1,28.1,0,0,0-.53-4.32,4.69,4.69,0,0,0-.8-1.75c-.27-.3-.38-.39-.45-.39a.9.9,0,0,0,0,.44,32.23,32.23,0,0,1,.93,5.48.78.78,0,0,1-.14.67l-.11.08ZM125.08,41a.51.51,0,0,0-.52-.37c-.17,0-.29.06-.32.13v.12a6.33,6.33,0,0,0,1.78,3l.22.12.07,0a.82.82,0,0,0-.07-.31A6.71,6.71,0,0,1,125.1,41m4.5,12.59h-.07c-.19,0-.37-.19-.46-.48a11.11,11.11,0,0,1-1-3.6c-.11-.52-.21-1-.36-1.52a4.07,4.07,0,0,0-1.3-2.29A11.13,11.13,0,0,1,123,41.19c-.18-.43-.42-.68-.59-.68a.25.25,0,0,0-.21.15,1,1,0,0,0-.11.86,10.65,10.65,0,0,0,1.49,2.68,4.29,4.29,0,0,0,.64.64l.13.1a11.41,11.41,0,0,1,2.07,2,5,5,0,0,1,.73,2.22,4.5,4.5,0,0,1,.08.51v.12a21.2,21.2,0,0,0,2.11,5.81,6.29,6.29,0,0,1,.57,1.9l.36,2.46c.11.63.32.79.43.79l.12,0A1,1,0,0,0,131,60a48.14,48.14,0,0,0-.34-7.3c-.37-2.91-.89-4.8-1.55-5.76a.74.74,0,0,0-.59-.42h0a.89.89,0,0,0,.1.47,17.43,17.43,0,0,1,1.39,5.87.7.7,0,0,1-.16.59l-.11.08Zm5.05-11.06-.08-.72a.75.75,0,0,0-.12-.39,1.29,1.29,0,0,0-.81-.62.71.71,0,0,0-.27,0l-.1,0a.26.26,0,0,0,0,.19,6.56,6.56,0,0,0,2,3.87l.13,0h0a1.09,1.09,0,0,0,0-.42l-.52-1.23a1.86,1.86,0,0,1-.18-.69m4.06,6.23a9.36,9.36,0,0,1-.41,2.8,18.82,18.82,0,0,0-.54,3.08c.05,3.81.12,8.55-1,10-.44.42-.64.47-.71.47l-.09,0a1.7,1.7,0,0,1-.1-.89,14,14,0,0,0,.19-4.59l-.83-4.12c-.15-2.88-.3-4.87-.5-6.27a3.62,3.62,0,0,0-.69-1.94c-.29-.37-.59-.71-.91-1.09v0a7.27,7.27,0,0,1-1.5-2.1l-1.2-4.1a.47.47,0,0,1,.1-.42.92.92,0,0,1,.61-.32.35.35,0,0,1,.29.14l.43,1.41a7.6,7.6,0,0,1,.21.76c.05.23.1.44.15.62a8.73,8.73,0,0,0,1.19,2.56A9.45,9.45,0,0,1,135.54,48a20.26,20.26,0,0,1,.46,4.58v.1c0,1,.07,2.06.17,3.3,0,.51.23.69.43.69s.39-.2.41-.65a14.18,14.18,0,0,1,.05-3.32,10.52,10.52,0,0,0,.64-4.28,23.19,23.19,0,0,0-1.5-6.25v-.27a.8.8,0,0,1,.34-.12.75.75,0,0,1,.6.25,21.55,21.55,0,0,1,1.62,6.76"/></svg>