<svg id="Capa_1" data-name="Capa 1" xmlns="http://www.w3.org/2000/svg" viewBox="0 0 345 131"><defs><style>.cls-1{fill:#fff;}</style></defs><path class="cls-1" d="M12.66,55.27l1.57.56-.5,3.88-.31,0v-.06a.84.84,0,0,0-.08-.48s-.15-.11-.55-.16L9,58.48l-.31,0a.47.47,0,0,0-.26,0c-.07,0-.14.14-.21.42V59l-.31,0,.49-3.84,1.4.16-.05.31H9.63a1.22,1.22,0,0,0-.73.15c-.07.06-.18.23-.24.71l-.12.94c0,.11,0,.13,0,.13a.41.41,0,0,0,.18,0l1.86.24.07-.68c.05-.33,0-.47-.06-.52a1.63,1.63,0,0,0-.61-.26l-.06,0L10,56l2.15.28,0,.3H12a1.58,1.58,0,0,0-.65.1c-.06,0-.15.15-.2.48l-.07.68,2.06.26c.13,0,.22,0,.24,0a3,3,0,0,0,.15-.75,2.29,2.29,0,0,0-.06-1,1.63,1.63,0,0,0-.82-.68l-.05,0Zm1-3.74a1.74,1.74,0,0,0-1,0,3.93,3.93,0,0,0-1,.6l-.61.48a2.26,2.26,0,0,1-.59.35.93.93,0,0,1-.55,0,.69.69,0,0,1-.47-.32.61.61,0,0,1-.08-.47,1.08,1.08,0,0,1,.48-.6,2,2,0,0,1,1.22-.23h.07l.08-.3-2-.34L9.18,51l.05,0a.83.83,0,0,1,.17.11s0,0,0,.12l-.23.31a1.44,1.44,0,0,0-.3.55,1.2,1.2,0,0,0,.2,1.07,1.83,1.83,0,0,0,1,.64,1.56,1.56,0,0,0,1-.06,1.92,1.92,0,0,0,.54-.32l.6-.46a5,5,0,0,1,.74-.5,1.13,1.13,0,0,1,.73,0,1,1,0,0,1,.6.38.74.74,0,0,1,.11.57,1.15,1.15,0,0,1-.8.79,3.24,3.24,0,0,1-1,.16h-.06l-.07.29,2,.28.08-.28-.07,0-.16-.1,0-.1a1.51,1.51,0,0,1,.23-.32,1.67,1.67,0,0,0,.33-.65,1.43,1.43,0,0,0-.19-1.21,1.79,1.79,0,0,0-1.06-.71m2.44-3a1,1,0,0,1-.32.42,1.07,1.07,0,0,1-.57-.11l-4.09-1.58.11-.29c.14-.36.28-.56.44-.62a2,2,0,0,1,.92,0h.06l.12-.29-1.55-.55L9.74,49.4l1.52.63.11-.3-.06,0a1.68,1.68,0,0,1-.7-.59,1.07,1.07,0,0,1,.09-.75l.11-.3,4,1.54c.43.18.55.28.57.33s.06.17,0,.52l0,.06.28.12.8-2.05-.3-.11Zm-2.42-4.62,1.51,1.59.65-1.23Zm4.95-.43.27.15L18,45.34l-.27-.14,0-.06a1.3,1.3,0,0,0,.1-.36s0-.08-.12-.13l-.21-.07a2.36,2.36,0,0,0-.33-.07l-.82-.14-.8,1.53.72.74a1.2,1.2,0,0,0,.23.17.25.25,0,0,0,.26,0,1,1,0,0,0,.2-.24l0-.06.27.15L16.57,48l-.27-.14,0-.07a.49.49,0,0,0,0-.41,7.35,7.35,0,0,0-.82-.94l-3.14-3.33.12-.22,5.25.78a2.82,2.82,0,0,0,.63,0,.55.55,0,0,0,.26-.2Zm1.45-3a2.45,2.45,0,0,0-1.21-1.85A2.93,2.93,0,0,0,17.18,38l-.28,0a1.93,1.93,0,0,0-1.31.85c-.11.15-.13.22-.12.25s0,.08.14.17l3.59,2.62c.13.09.18.09.21.09s.09,0,.21-.22a2,2,0,0,0,.46-1.27m.22-1.68A2.59,2.59,0,0,1,20.74,40a2.09,2.09,0,0,1,0,.71A3.4,3.4,0,0,1,20.13,42l-1.19,1.63-.25-.18,0-.06a1,1,0,0,0,.15-.45c0-.06-.07-.18-.4-.41l-3.14-2.29c-.29-.21-.43-.26-.5-.26s-.19.06-.38.28l0,0-.25-.18L15.3,38.5a3.18,3.18,0,0,1,1.3-1.1,2.77,2.77,0,0,1,2.81.54,3.7,3.7,0,0,1,.89.92m3.09-1.35a1.24,1.24,0,0,0,.26-1.14,3.76,3.76,0,0,0-1.14-1.71,3.59,3.59,0,0,0-1.74-1.1l-.32,0a1,1,0,0,0-.8.31A1.19,1.19,0,0,0,19.39,35a3.7,3.7,0,0,0,1.13,1.7,3.78,3.78,0,0,0,1.72,1.1,1.21,1.21,0,0,0,1.15-.28M23.17,34a3.38,3.38,0,0,1,1.13,2.14,2.06,2.06,0,0,1-.58,1.71,2,2,0,0,1-1.49.62h0a1.62,1.62,0,0,1-.3,0,3.51,3.51,0,0,1-2.06-1.07,3.48,3.48,0,0,1-1.13-2.12,2.08,2.08,0,0,1,.58-1.73A2,2,0,0,1,21,32.9,3.41,3.41,0,0,1,23.17,34m3.3-2a3.56,3.56,0,0,0-1.09-.14h-.91a2,2,0,0,1-.64-.09.94.94,0,0,1-.44-.32.73.73,0,0,1-.18-.53.61.61,0,0,1,.24-.43,1,1,0,0,1,.73-.18,2,2,0,0,1,1.11.56l.05,0,.25-.19-1.38-1.48-.22.17,0,.06a.46.46,0,0,1,.07.18l-.07.11a1.43,1.43,0,0,1-.36.11,1.52,1.52,0,0,0-.57.25,1.19,1.19,0,0,0-.49,1A1.78,1.78,0,0,0,23,32.21a1.52,1.52,0,0,0,.84.56,2.35,2.35,0,0,0,.63.08h.82a3.83,3.83,0,0,1,.81,0,1.08,1.08,0,0,1,.61.4A1.09,1.09,0,0,1,27,34a.76.76,0,0,1-.27.52,1.15,1.15,0,0,1-1.12.14,2.93,2.93,0,0,1-.88-.47l0,0-.24.19,1.42,1.44.23-.18,0-.06L26,35.35l0-.09a1.52,1.52,0,0,1,.39-.12,1.87,1.87,0,0,0,.65-.31,1.43,1.43,0,0,0,.58-1.07,1.73,1.73,0,0,0-.41-1.21,1.62,1.62,0,0,0-.76-.58M33,25.87a1.91,1.91,0,0,1-.26-.8.66.66,0,0,1,.34-.39l.06,0L33,24.36l-1.59.77.13.28.06,0a.65.65,0,0,1,.51,0c.08,0,.23.19.48.71l1,2a3.2,3.2,0,0,1,.38,1.15,1,1,0,0,1-.68,1.07,1,1,0,0,1-1.17-.15,3,3,0,0,1-.58-.87L30.27,26.8c-.17-.35-.17-.49-.15-.55s.09-.17.36-.34l.06,0-.14-.28-1.92.93.13.28.07,0a.81.81,0,0,1,.48-.08c.05,0,.17.12.33.47l1.2,2.45a3.23,3.23,0,0,0,.78,1.11,1.56,1.56,0,0,0,1,.39,2.07,2.07,0,0,0,.86-.22,1.61,1.61,0,0,0,1-1.59,3.72,3.72,0,0,0-.42-1.4Zm5.26-2.68c0-.13.18-.24.4-.35l.05,0-.08-.29-1.72.54.1.29H37a.8.8,0,0,1,.48,0,1.58,1.58,0,0,1,.4.8l.8,2.52-3.66-3L33.8,24l.1.3.07,0a.83.83,0,0,1,.29,0,.71.71,0,0,1,.3.17l.12.09,1.14,3.65A1.61,1.61,0,0,1,36,29c0,.12-.17.24-.4.35l-.07,0,.09.29,1.71-.54-.09-.29-.06,0a.8.8,0,0,1-.47,0c-.09-.06-.24-.26-.41-.8l-.94-3,4.22,3.5.22-.07L38.36,24a1.73,1.73,0,0,1-.14-.83m4.32,4.3-.24,0a.49.49,0,0,1-.29-.06s-.12-.13-.21-.54L41,23.1c-.07-.36,0-.51,0-.57s.14-.15.46-.24h.07L41.51,22l-2.18.44.06.3h.07a.84.84,0,0,1,.52,0c.06,0,.14.17.21.54l.76,3.8c.09.41,0,.54,0,.58s-.16.14-.47.24l-.07,0,.06.3,2.18-.43-.06-.31Zm2.05-.44a2.07,2.07,0,0,0,1.26-.51,2.44,2.44,0,0,0,.6-2.12,2.73,2.73,0,0,0-.82-1.91,1.9,1.9,0,0,0-1.26-.44l-.25,0c-.18,0-.24.05-.26.07s0,.06,0,.22l.39,4.43c0,.15.05.2.07.21a.36.36,0,0,0,.18,0Zm1.33-5.19a2.77,2.77,0,0,1,1.45,2.46,3.88,3.88,0,0,1-.11,1.28,2.55,2.55,0,0,1-.57,1.08,2.14,2.14,0,0,1-.55.46,3.26,3.26,0,0,1-1.32.37l-2,.17,0-.3.07,0c.29-.07.4-.13.44-.19s.08-.16,0-.56L43,22.74c0-.38-.1-.51-.14-.55s-.17-.1-.46-.1h-.08l0-.31,2-.18a3.23,3.23,0,0,1,1.68.26m5.95,2.62a3.76,3.76,0,0,0-.32-2,1.21,1.21,0,0,0-1-.65h-.06a1.17,1.17,0,0,0-1,.57,3.75,3.75,0,0,0-.53,2,3.64,3.64,0,0,0,.32,2,1.11,1.11,0,0,0,2,.12,3.68,3.68,0,0,0,.53-2m-1.26-3.16a2.07,2.07,0,0,1,1.61.89,3.49,3.49,0,0,1,.59,2.32A3.45,3.45,0,0,1,52,26.8a2.1,2.1,0,0,1-1.55.69h-.11a2.08,2.08,0,0,1-1.65-.95,3.57,3.57,0,0,1-.55-2.26A3.43,3.43,0,0,1,48.93,22a2,2,0,0,1,1.68-.71m6.18.85a.72.72,0,0,1-.1.18l-.07,0h0a1.85,1.85,0,0,1-.32-.2,1.69,1.69,0,0,0-.57-.27,1.22,1.22,0,0,0-1.06.29,1.78,1.78,0,0,0-.57,1.06,1.66,1.66,0,0,0,.13,1,2.22,2.22,0,0,0,.36.52l.5.56a4.56,4.56,0,0,1,.54.7,1,1,0,0,1,.1.72.94.94,0,0,1-.35.63.7.7,0,0,1-.55.15,1.13,1.13,0,0,1-.84-.74,3.05,3.05,0,0,1-.24-1v-.06l-.3-.05-.15,2,.29.05,0-.07.08-.16.1,0a2.1,2.1,0,0,1,.34.21,1.84,1.84,0,0,0,.67.29,1.62,1.62,0,0,0,.31,0,1.32,1.32,0,0,0,.87-.3,1.88,1.88,0,0,0,.58-2.06,3.51,3.51,0,0,0-.67-1l-.51-.58a2.4,2.4,0,0,1-.4-.57.94.94,0,0,1,0-.56.73.73,0,0,1,.28-.48.64.64,0,0,1,.47-.11,1.08,1.08,0,0,1,.63.44,2.06,2.06,0,0,1,.31,1.2v.07l.31.05.2-2-.27-.05Zm8.45,9a.82.82,0,0,1-.35-.32,1.08,1.08,0,0,1,.15-.56l1.56-3.55c.15-.33.25-.44.32-.47a.67.67,0,0,1,.46,0l.07,0,.12-.29-1.39-.61L63.1,28.66l.29-4.46L62,23.59l-.12.28.06,0c.29.14.37.25.39.32a1,1,0,0,1-.13.56L60.77,28c-.23.51-.36.67-.44.72a.68.68,0,0,1-.55,0l-.06,0-.13.29,1.65.72.12-.28-.06,0c-.24-.15-.31-.26-.33-.32s0-.35.22-.87l1.23-2.79-.29,4.69.18.08,3.38-3.54-1.41,3.18c-.18.42-.29.54-.34.57a.78.78,0,0,1-.5-.05l-.06,0-.13.28,1.93.85.13-.28Zm4.18,1.14,0,0a1.78,1.78,0,0,1-.94.45h0a2,2,0,0,1-1-.39,2.72,2.72,0,0,1-.62-.44c0-.05,0-.16.06-.23L68,30l.58.39c.28.18.34.31.35.38a1.49,1.49,0,0,1-.18.64l0,.06.26.17,1.16-1.83-.25-.17-.05.05a1.53,1.53,0,0,1-.5.44c-.1,0-.27,0-.5-.16l-.57-.39,1-1.58c.07-.11.11-.14.14-.15l.1.05.81.51c.4.25.52.42.54.52a1.24,1.24,0,0,1-.17.72l0,.06.26.18.73-1.2-3.26-2.07-.16.26.06,0c.23.18.28.3.29.37s0,.21-.22.52L66.3,31c-.21.34-.33.41-.38.42a.85.85,0,0,1-.46-.12l-.06,0-.16.26,3.3,2.1,1.17-1.19Zm3.38,4.45a1.11,1.11,0,0,1-.2-.36,1.7,1.7,0,0,1,.05-.57l.52-2.64,1.75-.55a2.86,2.86,0,0,1,.88-.15.8.8,0,0,1,.37.17l.06.05.2-.24L75,31.3l-.2.24,0,.05a1,1,0,0,1,.22.22.18.18,0,0,1,0,.21l-.12.09a2.52,2.52,0,0,1-.44.16l-1.23.37.26-1.34a1,1,0,0,1,0-.2.67.67,0,0,1,.12-.24.15.15,0,0,1,.18-.07,1.59,1.59,0,0,1,.3.21l.06,0,.2-.24-1.72-1.45-.2.24,0,.05a.65.65,0,0,1,.23.48,6.71,6.71,0,0,1-.19,1.3L72.32,33l-1.86.57a6.17,6.17,0,0,1-1,.24.62.62,0,0,1-.39-.11l-.06,0-.2.23L70.21,35l.2-.24,0-.05a1.27,1.27,0,0,1-.22-.26.2.2,0,0,1,0-.23.78.78,0,0,1,.25-.14l.45-.16,1.33-.41c-.17.87-.29,1.43-.35,1.64a1.43,1.43,0,0,1-.15.42l-.15.07a1.26,1.26,0,0,1-.33-.2l-.06-.05-.2.24L72.65,37l.19-.23Zm1.74.86,2.8-2.69c.27-.26.41-.31.49-.32s.2,0,.44.27l.06.05.22-.22L77,33.1l-.22.21,0,.06c.21.25.24.39.24.45s-.07.22-.34.47L73.94,37c-.29.28-.42.33-.48.33A1.08,1.08,0,0,1,73,37L73,37l-.23.21,1.54,1.61.22-.22,0-.05c-.21-.26-.25-.4-.25-.46s0-.19.34-.47M78,41.78h0l.09-.34H78a3,3,0,0,1-.77-.11,1.6,1.6,0,0,1-.83-.56,1.39,1.39,0,0,1-.2-1.34,3.14,3.14,0,0,1,1.14-1.49,3.75,3.75,0,0,1,1.82-.85,1.3,1.3,0,0,1,1.24.47,1.23,1.23,0,0,1,.17,1.26,3.08,3.08,0,0,1-.5.84l0,0,.18.23,1.63-1.35-.18-.23-.05,0a.27.27,0,0,1-.19,0l-.13-.08a2.13,2.13,0,0,1-.15-.42,3.07,3.07,0,0,0-.38-.72,2.2,2.2,0,0,0-1.81-.86h-.06a3.55,3.55,0,0,0-2.13.83,3.46,3.46,0,0,0-1.28,1.79,2.21,2.21,0,0,0,.39,2,2.14,2.14,0,0,0,1.2.74,2.7,2.7,0,0,0,.63.07H78m2.11.78.7,1.2,1.45-1.65Zm-.1,4-.26.16-1-1.67.27-.15,0,0a1,1,0,0,0,.25.28s.07,0,.17-.05a.51.51,0,0,0,.17-.13,1.93,1.93,0,0,0,.24-.25l.55-.62-.88-1.49-1,.23a.81.81,0,0,0-.27.1.25.25,0,0,0-.15.21.71.71,0,0,0,.09.29l0,.07-.26.15-.78-1.32.26-.16,0,0a.46.46,0,0,0,.37.19,7.8,7.8,0,0,0,1.23-.19l4.49-.92.12.22-3.43,4a2.13,2.13,0,0,0-.37.52.58.58,0,0,0,0,.33Zm6.44,2.32c.13,0,.26.15.37.36l0,.06.29-.11-.68-1.67-.29.12,0,.06c.08.29.06.42,0,.47s-.24.26-.77.47l-2.44,1,2.74-3.88-.49-1.22-.29.12,0,.07A.6.6,0,0,1,85,45a.64.64,0,0,1-.15.31l-.07.12-3.55,1.43a2.12,2.12,0,0,1-.82.21q-.19,0-.39-.39l0-.06-.28.12.67,1.66.28-.11v-.07c-.07-.28,0-.41,0-.46s.24-.26.77-.47l2.91-1.18-3.14,4.44,0,0,.1.22,4.33-1.74a1.71,1.71,0,0,1,.82-.2m-3.06,5.71a3.73,3.73,0,0,0,2.06-.06,3.69,3.69,0,0,0,1.86-.89,1.2,1.2,0,0,0,.35-1.1,1.19,1.19,0,0,0-.84-.83,2.18,2.18,0,0,0-.77-.12,5.36,5.36,0,0,0-1.27.18,3.71,3.71,0,0,0-1.84.88,1.18,1.18,0,0,0-.37,1.12,1.2,1.2,0,0,0,.82.82m1.23,1a3,3,0,0,1-1.37-.31A2.08,2.08,0,0,1,82.5,52a3.55,3.55,0,0,1,2-1.18A3.47,3.47,0,0,1,86.9,51a2.08,2.08,0,0,1,1.17,1.41,2.11,2.11,0,0,1-.39,1.8,3.53,3.53,0,0,1-2.06,1.23,4.49,4.49,0,0,1-1.05.13m4.51,2.92H89l-.2,0s0,0,0-.1a1.42,1.42,0,0,1,.09-.37,1.51,1.51,0,0,0,.09-.62,1.22,1.22,0,0,0-.59-.93,1.78,1.78,0,0,0-1.18-.23,1.55,1.55,0,0,0-.92.43,2.27,2.27,0,0,0-.39.49l-.38.65a6,6,0,0,1-.51.72,1.08,1.08,0,0,1-.66.31,1,1,0,0,1-.71-.14.74.74,0,0,1-.3-.48,1.11,1.11,0,0,1,.46-1,3.47,3.47,0,0,1,.86-.52l.05,0,0-.3-2,.47,0,.28h.06l.19,0,.06.08a2.33,2.33,0,0,1-.1.4,1.84,1.84,0,0,0-.08.72,1.48,1.48,0,0,0,.62,1,1.69,1.69,0,0,0,1,.3h.26a1.62,1.62,0,0,0,.89-.36,3.2,3.2,0,0,0,.73-.92l.4-.67a2.11,2.11,0,0,1,.42-.54,1,1,0,0,1,.51-.22.7.7,0,0,1,.55.13.62.62,0,0,1,.25.42,1.15,1.15,0,0,1-.23.72,2.1,2.1,0,0,1-1.06.66l-.06,0,0,.31,2-.41Z"/><path class="cls-1" d="M78.43,59.85a7.68,7.68,0,0,1-.34,2.37,17.1,17.1,0,0,0-.46,2.61c.05,3.23.11,7.24-.87,8.42-.37.35-.54.39-.6.4l-.07,0c0-.05-.13-.22-.09-.75A11.81,11.81,0,0,0,76.15,69l-.69-3.49c-.13-2.44-.26-4.12-.43-5.3a3.08,3.08,0,0,0-.58-1.65c-.24-.31-.5-.6-.78-.92l0,0a6.23,6.23,0,0,1-1.25-1.78l-1-3.46a.46.46,0,0,1,.09-.36.74.74,0,0,1,.51-.27.27.27,0,0,1,.24.12L72.59,53c.06.2.12.41.17.64s.09.36.14.53a7.87,7.87,0,0,0,1,2.16,7.94,7.94,0,0,1,1.81,2.8A18,18,0,0,1,76.11,63v.09c0,.81.06,1.73.14,2.8,0,.43.2.58.37.58S77,66.33,77,66a13.21,13.21,0,0,1,0-2.81,8.9,8.9,0,0,0,.54-3.62,20.14,20.14,0,0,0-1.27-5.28V54a.36.36,0,0,1,.28-.11.64.64,0,0,1,.52.22,18.11,18.11,0,0,1,1.36,5.71M75,54.58,74.89,54a.76.76,0,0,0-.11-.33,1.14,1.14,0,0,0-.68-.53.64.64,0,0,0-.22,0l-.09,0s0,0,0,.15a5.47,5.47,0,0,0,1.65,3.27l.12,0h0a.71.71,0,0,0,0-.34l-.44-1a1.59,1.59,0,0,1-.17-.59m-4.28,9.34H70.6c-.16,0-.32-.16-.38-.4a9.37,9.37,0,0,1-.87-3.05c-.09-.43-.17-.86-.3-1.28a3.42,3.42,0,0,0-1.11-1.94,9.54,9.54,0,0,1-2.89-3.81c-.16-.36-.35-.57-.51-.57a.21.21,0,0,0-.18.12.88.88,0,0,0-.1.74A9.52,9.52,0,0,0,65.51,56a3,3,0,0,0,.54.54l.11.09a9.51,9.51,0,0,1,1.75,1.7,4.25,4.25,0,0,1,.61,1.88c0,.15.06.29.08.44l0,.1a17.27,17.27,0,0,0,1.76,4.91,5.67,5.67,0,0,1,.49,1.6l.31,2.09c.09.53.27.67.36.67l.1,0a.89.89,0,0,0,.13-.57,39.28,39.28,0,0,0-.29-6.17,12.43,12.43,0,0,0-1.31-4.88.62.62,0,0,0-.49-.35h-.05a.65.65,0,0,0,.09.4,14.73,14.73,0,0,1,1.17,5,.63.63,0,0,1-.12.5ZM66.85,53.29a.42.42,0,0,0-.43-.31.37.37,0,0,0-.28.11v.11a5.35,5.35,0,0,0,1.52,2.56l.18.09,0,0s0-.13-.06-.25a6.14,6.14,0,0,1-1-2.29m6.7,10.8,0,0h0c-.1,0-.24-.06-.37-.35a1.34,1.34,0,0,1-.14-.47l-.58-3.57A6.12,6.12,0,0,0,71.07,57a12.63,12.63,0,0,1-2.59-4.41c-.12-.49-.3-.62-.38-.62s-.19.15-.24.43a1.08,1.08,0,0,0,.06.56A9,9,0,0,0,70.2,57a3.36,3.36,0,0,1,1.2,2.17v0c.09.42.18.84.26,1.27v0a30.79,30.79,0,0,0,1.5,5.57,4.94,4.94,0,0,1,.41,1.66c.07,1.33.14,2.15.23,2.82s.24.77.35.77.24-.18.31-.67a31.3,31.3,0,0,0,0-6.76,27.48,27.48,0,0,0-.45-3.65,3.84,3.84,0,0,0-.68-1.49c-.23-.26-.33-.32-.38-.33a.79.79,0,0,0,0,.37,28,28,0,0,1,.79,4.64.7.7,0,0,1-.12.56Zm-2.29-8.66a6.19,6.19,0,0,1-.68-1.57L70.41,53a.82.82,0,0,0-.2-.44.74.74,0,0,0-.54-.27.24.24,0,0,0-.2.07.3.3,0,0,0,0,.24,6.36,6.36,0,0,0,1.72,3.37h0a.29.29,0,0,0,.19.11h0l.06,0a.46.46,0,0,0,0-.2.92.92,0,0,0-.16-.39M67.4,63.88l0,.07c.08.24.15.46.23.67a1.56,1.56,0,0,0,.27.53.43.43,0,0,0,.25.15c.12,0,.18-.14.2-.21a1.45,1.45,0,0,0,0-.53c-.19-3.58-.69-5.63-1.59-6.61-.2-.2-.28-.21-.29-.21s0,0,0,.17a.58.58,0,0,0,.11.37,6,6,0,0,1,.57,1.63.53.53,0,0,1-.06.47l-.09.06H67c-.15,0-.3-.14-.41-.4a4.37,4.37,0,0,0-1.86-2.27A11.61,11.61,0,0,1,62,55.69a6.53,6.53,0,0,1-.72-1.13c-.05-.09-.08-.16-.19-.18s-.33.24-.39.48a.33.33,0,0,0,.07.31A5.44,5.44,0,0,0,63,57.58a6.23,6.23,0,0,1,3.18,3.07c.6,1.41,1,2.51,1.19,3.23m-4.84-10a.43.43,0,0,0-.35.14v.08A4.76,4.76,0,0,0,64,56l.18,0,.06,0s0-.09-.11-.2a5.64,5.64,0,0,1-1.25-1.71.39.39,0,0,0-.36-.18M59.3,57.56l.11,0c.4.14.76.28,1.05.41a2.78,2.78,0,0,1,.93.63,15.76,15.76,0,0,1,1.79,2.19l.1.14c.46.63.93,1.29,1.49,1.93a.44.44,0,0,0,.28.14.21.21,0,0,0,.19-.09.39.39,0,0,0,0-.34,21.8,21.8,0,0,0-1.6-3.84.82.82,0,0,0-.71-.35h-.05v.07l.38.7,0,.16v0l0,0a.25.25,0,0,1-.19.12h0L63,59.48l0,0,0,0a6.29,6.29,0,0,0-1-1.19,1.91,1.91,0,0,0-.58-.39c-.36-.16-.79-.32-1.33-.52a6.46,6.46,0,0,1-1-.6c-.32-.27-.67-.58-1-.93a.37.37,0,0,0-.21-.08.18.18,0,0,0-.16.1.52.52,0,0,0,0,.48,2.9,2.9,0,0,0,1,1,3.36,3.36,0,0,0,.62.27M72.51,71.87c-1-.59-1.62-1-2.15-1.41-3.73-2.82-7.49-5.54-11.51-8.3a.35.35,0,0,0-.21-.1s0,0-.06.07a.73.73,0,0,0,.38.71l12,8.79.15.1a1.09,1.09,0,0,1,.44.37c0,.09.11.33-.22.57a2.58,2.58,0,0,1-1.16.31,3.35,3.35,0,0,1-2.07-.79c-3.19-2.51-6.37-5.07-9.33-7.46a.4.4,0,0,0-.22-.09l-.06,0a.5.5,0,0,0,0,.45.87.87,0,0,0,.33.43c3.1,2.51,6.22,5,9.25,7.54a3.92,3.92,0,0,0,2,.56,4.06,4.06,0,0,0,2.54-1,.53.53,0,0,0-.12-.75M68,71.26a9.13,9.13,0,0,0,1.38.85.66.66,0,0,0,.27.06c.07,0,.12,0,.13-.06s0-.16-.17-.3L58.92,63.52l-.15-.06-.06,0c0,.1,0,.35.3.61Zm-2.6.47-7-5.84a.43.43,0,0,0-.22-.09l-.05,0c0,.07,0,.22.19.41C60.4,68.1,62.6,70,64.9,72a7.68,7.68,0,0,0,.95.72.9.9,0,0,0,.38.1.29.29,0,0,0,.25-.13s0-.06,0-.13ZM60,56.5l.17,0,.07,0a.43.43,0,0,0,0-.13,1.62,1.62,0,0,0-.3-.47,1.1,1.1,0,0,0-.53-.35,1.29,1.29,0,0,0-.39-.08.19.19,0,0,0-.14.05l0,.12A3.27,3.27,0,0,0,60,56.5m6.68,17.79a2,2,0,0,0,1-.31c.08-.08.13-.14.11-.21a.3.3,0,0,0-.18-.19l-.17,0-.21,0-.11,0a2.59,2.59,0,0,1-.47,0,2.41,2.41,0,0,1-1.58-.6c-1.72-1.45-3-2.68-4.24-3.76l-.12-.1c-.89-.81-1.73-1.59-2.64-2.37a.21.21,0,0,0-.18-.07H57.9a.37.37,0,0,0,0,.23c0,.08.08.13.2.26l.41.43c2.1,2,4,3.74,6,5.49a4.43,4.43,0,0,0,1.39,1,3.89,3.89,0,0,0,.85.11m-9.44-6.77c1.54,1.67,3.16,3.33,5,5a2.46,2.46,0,0,0,1.23.73l.1,0a.89.89,0,0,0-.12-.14c-1.6-1.37-3.3-3.05-4.75-4.51l-.29-.31-.1-.1a7.06,7.06,0,0,0-.92-.88h-.15a.24.24,0,0,0,0,.19m6.94,7a2.4,2.4,0,0,0,.4-.06c.08,0,.11-.07.09-.14a.31.31,0,0,0-.32-.23,3.42,3.42,0,0,1-2-.77c-1.85-1.7-3.67-3.49-5.41-5.31a.27.27,0,0,0-.18-.09h0a.74.74,0,0,0,.1.51,1.16,1.16,0,0,0,.26.33l0,0c1,1.07,2.36,2.41,4.08,4.1a6.15,6.15,0,0,0,1.66,1.27,3,3,0,0,0,1.31.35M61.58,74c.08,0,.13-.05.13-.1a.43.43,0,0,0-.35-.34c-.86-.15-2-1.4-3.14-2.74l-.61-.69-.13-.07-.1.12a.23.23,0,0,0,0,.21l2.47,2.85a2.29,2.29,0,0,0,1.69.76ZM30.48,43.56a1.68,1.68,0,0,0-.69,1.18A1.79,1.79,0,0,0,30.42,46a.68.68,0,0,0,.43.23c.32,0,.33-.43.34-.59v0a1.63,1.63,0,0,1,1.29-1.82,3.91,3.91,0,0,1,1-.14h.39c.22,0,.33-.1.37-.22s0-.24-.11-.39a1.62,1.62,0,0,0-1-.36,1.54,1.54,0,0,0-.46.08,2.55,2.55,0,0,0-.93.72.49.49,0,0,1-.49.06.79.79,0,0,0-.38-.09.86.86,0,0,0-.34.07h0m-1.09.78a4.68,4.68,0,0,1,1-1.23A.52.52,0,0,1,30.8,43c.11,0,.23,0,.35,0s.38-.06.44-.22,0-.24-.16-.36l-.15-.11.09-.09A.8.8,0,0,1,32,42a1.7,1.7,0,0,1,.65.13l1.46.44a2.13,2.13,0,0,0,.72.09,4.5,4.5,0,0,0,1-.14,2.75,2.75,0,0,1,.73-.11,2.68,2.68,0,0,1,1.84.78c.19.23.18.37,0,.57A8.21,8.21,0,0,1,36.24,45a2,2,0,0,1-.39.07,2.58,2.58,0,0,1-.39,0c-.23-.05-.27-.08-.28-.1s0-.1,0-.17a3.17,3.17,0,0,1,1.11-.49,1,1,0,0,0,.57-.29.45.45,0,0,0,0-.68h0a1.78,1.78,0,0,0-.64-.13,2.27,2.27,0,0,0-1.38.62,2,2,0,0,1-1,.29,2.54,2.54,0,0,0-.49-.05,1.71,1.71,0,0,0-1.66,1,1.52,1.52,0,0,0,.63,1.69c.07.07.21.23.15.35s-.28.21-.58.22h-.07a2.69,2.69,0,0,1-2.64-1.76,1.37,1.37,0,0,1,.15-1.24M32,41.12a3.76,3.76,0,0,0,1,.4l.1,0a.45.45,0,0,0,.3-.17,2.2,2.2,0,0,0,.36-.9,2.85,2.85,0,0,1,.61-1.23l.16-.17a1.52,1.52,0,0,0,.4-.73,1.1,1.1,0,0,0-.35-1.29v.26a3,3,0,0,1-1.35,2.11l-.3.22a5,5,0,0,0-.81.65.86.86,0,0,0-.34.57.4.4,0,0,0,.17.26m2.57-1.35c-.11,0-.19.06-.14.14.5.86.28,1.18-.46,1.53-.27.07-.12.33.12.31a.53.53,0,0,0,.23,0A1.12,1.12,0,0,0,34.94,40c-.13-.23-.29-.29-.39-.27m1.11-1.68c.13,0,.19-.21.23-.4s0-.69.31-.75.15.33.25.38.17,0,.2-.17A1.47,1.47,0,0,0,36.14,36l-.07,0s0,0-.09.14a6.46,6.46,0,0,0-.37,1.85c0,.12,0,.17,0,.17m-.08,1.25h.05c2-.93,2.4-2.11,2.47-2.74a1.74,1.74,0,0,0-.49-1.54l0,0h0a2.94,2.94,0,0,1-.53,2.6c-.44.36-.95.75-1.47,1.13l-.23.16c-.08.07-.11.14-.08.21a.34.34,0,0,0,.31.19m2.44.11a7.09,7.09,0,0,1-1.52.9,1.86,1.86,0,0,0-.79.51.38.38,0,0,0-.05.14h.1a8.76,8.76,0,0,0,2.81-1.53c.58-.47.75-.94.5-1.42a.18.18,0,0,0-.15-.1.37.37,0,0,0-.2.08c-.48.46-2.46,1.49-2.82,1.78-.13.1-.16.17-.16.2a.12.12,0,0,0,.18.1c.3-.08,1.61-.91,1.93-1.06s.51-.13.53-.07-.14.3-.36.46m-2.73,2.69a2.45,2.45,0,0,0,.65-.15,15.78,15.78,0,0,1,2.75-1.17c.11,0,.25-.06.31,0a.41.41,0,0,1-.11.67L37.71,42c-.07,0-.08.09-.08.09s.12.1.39.09h0c1.18-.27,1.63-.73,1.48-1.41a.63.63,0,0,0-.59-.38,2,2,0,0,0-1,.17c-.59.23-1.48.74-2,.94a3.92,3.92,0,0,0-.68.34c-.13.07-.48.39,0,.31M39,36.87c.34-.29.67-1.09.89-.67a1.51,1.51,0,0,1-.23,1.22c-.14.21,0,.33.16.42l.07,0s.07,0,.12-.1A2.48,2.48,0,0,0,40.35,36a1.31,1.31,0,0,0-.51-.9L39.69,35c-.06,0-.12.06-.17.15l-.19.68a1.33,1.33,0,0,1-.37.66.8.8,0,0,0-.28.51c0,.19.1.08.33-.11m1.84.88a6.81,6.81,0,0,1,1.69.73l.38.2c.43.23.92.49,1.46.72l.17.05c.07,0,.13-.06.2-.13v0a2.45,2.45,0,0,0,.72-1.44l0,0H45.4a1.78,1.78,0,0,1-.56.1,1.92,1.92,0,0,1-.66-.12,7.3,7.3,0,0,0-3-1l-.12,0,0,0v0h0L41,37l.05,0a9.86,9.86,0,0,1,3.18,1.27l0,0c.09,0,.27.16.28.26l0,.07a.29.29,0,0,1-.25.1l-.15-.06-.16-.08a20.29,20.29,0,0,0-3-1.2h0c-.11,0-.14,0-.15.09a.26.26,0,0,0,.12.21m-1.25,5.5c-.13,0-.37-.37-.48-.63L39,42.56l-.1.06a.23.23,0,0,0,0,.21,1.43,1.43,0,0,0,.54.91.55.55,0,0,0,.3.09.54.54,0,0,0,.5-.44,1.4,1.4,0,0,0-.57-1.17l0,.05a1.8,1.8,0,0,1,.2.84c0,.15-.14.14-.22.14m1.6-.84c-.26,0-.63-.65-.75-.86l-.13-.07h-.06a.43.43,0,0,0,0,.23,2.44,2.44,0,0,0,.63,1.22.58.58,0,0,0,.37.13,1.58,1.58,0,0,0,1-.64.69.69,0,0,0-.06-.74A5.26,5.26,0,0,0,40.1,40.3H40l0,0a7.48,7.48,0,0,0,.69.54h0a4,4,0,0,1,.87.74.5.5,0,0,1,.08.45.76.76,0,0,1-.49.36m-1.3-2.92v0a16.85,16.85,0,0,0,3,1.74,1,1,0,0,0,.41.11.56.56,0,0,0,.37-.18.82.82,0,0,0,.18-1.06,6.45,6.45,0,0,0-3.47-2h-.08v0l0,.08a.26.26,0,0,0,.17.11A8.75,8.75,0,0,1,43,39.76l0,0c.15.12.33.26.27.5a1,1,0,0,1-.26.34l-.13,0a2.06,2.06,0,0,1-.87-.33l-.16-.08h0A8.4,8.4,0,0,0,40,39.46Zm25.36-2s0,.18.19.33c4.22,3,7.58,7.42,10.29,13.4a.66.66,0,0,1-.07.52.37.37,0,0,1-.27.11,1.61,1.61,0,0,1-.79-.32,9.27,9.27,0,0,1-2.47-2.43,38,38,0,0,0-9.63-10.23c-.09-.08-.15-.12-.21-.12l-.08,0a.72.72,0,0,0,.25.64c2.92,2,6.13,5.64,9.79,11.17a5.75,5.75,0,0,0,5,2.52l.63,0c.35-.08.38-.17.38-.18s0-.11-.19-.23A5.3,5.3,0,0,1,76.18,50,31.47,31.47,0,0,0,65.75,37.53a.57.57,0,0,0-.33-.1c-.08,0-.14,0-.16.07m8.7,13a.75.75,0,0,0,.47.22.21.21,0,0,0,.15-.07,1,1,0,0,0-.15-.71A35.17,35.17,0,0,0,64.2,38.34a1,1,0,0,0-.47-.12c-.17,0-.26.06-.27.09s0,.14.34.31C66.42,40.68,69.68,43.71,74,50.5m-4.21,0a1,1,0,0,1-.69-.45,40,40,0,0,0-6.93-7.43l-.08,0L62,42.6a1,1,0,0,0,.06.89,40.2,40.2,0,0,1,4.7,4.9l.05.06a26.75,26.75,0,0,0,2.57,2.77,2,2,0,0,0,1,.28,1,1,0,0,0,.74-.33.8.8,0,0,0,.11-.7,28.27,28.27,0,0,0-8.66-9.69c-.09-.09-.14-.12-.18-.12l0,0a1.09,1.09,0,0,0,.3.88,42.62,42.62,0,0,1,7.36,8.14.67.67,0,0,1,.09.62.32.32,0,0,1-.27.14m-8.22-6.14-.08,0a.59.59,0,0,0,0,.5,34.54,34.54,0,0,1,4.94,5.29.73.73,0,0,1,.12.79.82.82,0,0,1-.71.43.83.83,0,0,1-.58-.23A44,44,0,0,1,62,48c-.45-.47-.92-1-1.36-1.41l-.12,0-.12.11a.61.61,0,0,0,0,.56l3.33,3.58A4.45,4.45,0,0,0,65.43,52a3.38,3.38,0,0,0,.75.07,1.25,1.25,0,0,0,1-.41,1.4,1.4,0,0,0,.07-1.21,21.21,21.21,0,0,0-5.72-6.08Zm-.88.87a.51.51,0,0,0,0,.37,51.28,51.28,0,0,0,4.71,4.62l.11,0,.1-.06a.21.21,0,0,0,0-.21,29.16,29.16,0,0,0-4.8-4.82Zm-.51,2.66a.42.42,0,0,0-.22-.08.25.25,0,0,0-.2.14.33.33,0,0,0,.11.37,13.92,13.92,0,0,1,2.84,3.07.72.72,0,0,1,0,.72.74.74,0,0,1-.67.34,1.34,1.34,0,0,1-.65-.17,17.81,17.81,0,0,1-2.71-2.35l-.18-.18s-.09.06-.14.14a.49.49,0,0,0,0,.44,11.88,11.88,0,0,0,3,2.76,4.87,4.87,0,0,0,1.11.14,1.17,1.17,0,0,0,.94-.35,1.63,1.63,0,0,0,0-1.35,14.92,14.92,0,0,0-3.31-3.64M58.91,49.1l2.72,2.58.19.06.15-.06v-.1a11,11,0,0,0-3.2-3,.7.7,0,0,0,.13.57m-.24,5.68A1.71,1.71,0,0,0,60,54.13a1,1,0,0,0,.08-.93,13.1,13.1,0,0,0-2.23-2.49l-.11,0a.22.22,0,0,0-.16.13.26.26,0,0,0,0,.24,9.56,9.56,0,0,1,1.69,2,.79.79,0,0,1-.07.75,1,1,0,0,1-.76.37A.82.82,0,0,1,58,54a12.3,12.3,0,0,1-1.67-1.58l-.1,0a.18.18,0,0,0-.16.11.36.36,0,0,0,0,.32,5.77,5.77,0,0,0,2.1,1.86,1.21,1.21,0,0,0,.54.09m-.76-1.68a.43.43,0,0,0,.28.11.31.31,0,0,0,.28-.15.38.38,0,0,0-.11-.38A6.69,6.69,0,0,0,57,51.37a.37.37,0,0,0-.2-.07.26.26,0,0,0-.26.25c0,.11.09.21.24.37.44.49.77.8,1.17,1.18m-1.13,1.6-1.3-1.48-.13,0a.21.21,0,0,0-.17.1.32.32,0,0,0,0,.31l.82.95a.58.58,0,0,1,.2.43c0,.3-.29.54-.56.77l0,0a1.69,1.69,0,0,0-.42.44.31.31,0,0,0,0,.32.21.21,0,0,0,.18.1l.14,0,1.08-.9a.71.71,0,0,0,.16-1m-1.7.51.13.06.13-.08a.2.2,0,0,0,0-.2l-.65-1.14-.14-.08a.33.33,0,0,0-.21.12l0,.16Zm.19-19.1a1.68,1.68,0,0,0,.58.54,18.93,18.93,0,0,1,4.83,2.52.52.52,0,0,1,.15.57.46.46,0,0,1-.43.28,1.12,1.12,0,0,1-.47-.13A14.59,14.59,0,0,0,56,37.77l-.06.07a.38.38,0,0,0,.26.39,21.76,21.76,0,0,1,4.23,2.49,1,1,0,0,0,.58.22.56.56,0,0,0,.46-.3c.3-.82-.07-1.58-1.13-2.32a24.23,24.23,0,0,0-5-2.19ZM56.33,39l-.08.07a.45.45,0,0,0,.18.45c.33.23.81.51,1.37.84a8.06,8.06,0,0,1,2.43,1.7,1,1,0,0,1,.05,1,.58.58,0,0,1-.51.33.9.9,0,0,1-.41-.12l-2.43-1.41-.06,0h0a1.1,1.1,0,0,0,.36.8A12.42,12.42,0,0,0,59,43.87l.17.09a2.43,2.43,0,0,0,1,.38.68.68,0,0,0,.37-.12,2.09,2.09,0,0,0,.4-2.16,16.83,16.83,0,0,0-4.55-3m2.82,3.49.17,0c.17,0,.34-.08.31-.12a16.16,16.16,0,0,0-3-1.84.62.62,0,0,0,.11.29,12.93,12.93,0,0,0,2.39,1.64m-2.32,3.76,1.48,1.07a.84.84,0,0,0,.46.17.64.64,0,0,0,.37-.13,2.34,2.34,0,0,0,.67-1,1.13,1.13,0,0,0-.48-1.4l-2-1.47-.09,0-.06,0a.48.48,0,0,0,.07.46A10.1,10.1,0,0,1,58.8,45.4a.84.84,0,0,1,.12.85.45.45,0,0,1-.42.31.64.64,0,0,1-.4-.15l-1.19-.74a.22.22,0,0,0-.15.15.43.43,0,0,0,.07.46M58,45.76a.25.25,0,0,0,.23-.16.25.25,0,0,0-.06-.27l-1-.56-.13.1v.19l.85.69ZM55,49a.36.36,0,0,0,.08.37l1.48,1.09a.55.55,0,0,0,.29.09,1,1,0,0,0,.61-.31l.19-.32c.39-.62.68-1.07.22-1.73A4.11,4.11,0,0,0,56.4,47c-.06,0-.1,0-.13.12a.46.46,0,0,0,0,.46l.76.8a.81.81,0,0,1,0,.81.72.72,0,0,1-.61.42.55.55,0,0,1-.34-.11l-.82-.6-.12-.06c-.07,0-.15.08-.19.2m.6-.91a.21.21,0,0,0,.07.25l.53.39.13.06a.21.21,0,0,0,.16-.14.3.3,0,0,0-.07-.29L55.88,48l-.09,0a.26.26,0,0,0-.21.15M52.84,51a.17.17,0,0,0-.16.1.43.43,0,0,0,0,.42l1.12,1.3a.58.58,0,0,0,.42.18,1.86,1.86,0,0,0,1.32-1,1.16,1.16,0,0,0,.11-1.12,6.88,6.88,0,0,0-1.16-1.41l-.09-.06s-.11.06-.16.14a.53.53,0,0,0,0,.49l.52.68a1,1,0,0,1-.08.88.69.69,0,0,1-.58.38.82.82,0,0,1-.46-.17L53,51Zm1.31.37a.24.24,0,0,0,.2-.12.24.24,0,0,0,0-.22l-.59-.59-.09,0a.21.21,0,0,0-.17.12.27.27,0,0,0,0,.23l.62.59Zm2,14.93c0,.15.08.4.28.39a.72.72,0,0,0,.48-.28c1.23-1.59.8-6.62-.76-9.11l-.11-.06a.25.25,0,0,0-.18.12.46.46,0,0,0,0,.44c1.22,2.78,1.63,4.89,1.28,6.65-.06.19-.15.45-.37.45s-.31-.1-.42-.63a12.19,12.19,0,0,0-1.77-5.08,1.74,1.74,0,0,0,0,1,16,16,0,0,1,1.58,6.1m-1-8.46,0,0a1,1,0,0,0-.06.68,10.86,10.86,0,0,1,1.49,4.12l0,.07.1-.09a11.22,11.22,0,0,0-1.5-4.76Zm-7.56-23a5.78,5.78,0,0,1,.68.29c.36.18.73.38,1.1.6,1.39.79,2.27,1.74,2.87,4.47l.07.29c.58,2.65.93,4.25-1.73,6.39a.65.65,0,0,0-.09.67.33.33,0,0,0,.29.22h.05a5,5,0,0,0,2.09-2c1.55-2.09-.16-6.83-.72-8.39a4.07,4.07,0,0,0-2.32-2.28l-3-1.37a1.07,1.07,0,0,1-.45-.93c0-.36.27-.43.66-.64a2.74,2.74,0,0,1,1.27-.26,10,10,0,0,1,1.1.05,26.08,26.08,0,0,1,13.32,4.42h0a.51.51,0,0,1,.09.54c-.1.23-.41.33-1,.36a1.1,1.1,0,0,1-.83-.33l-.38-.62c0-.1-.09-.15-.12-.15a.2.2,0,0,0-.14.17l-.17.82c0,.12,0,.18.15.19a5.72,5.72,0,0,0,1.9.31,4.8,4.8,0,0,0,3-1.11c.14-.19.21-.35.16-.44s-.23-.16-.51-.17h-.31A4.56,4.56,0,0,1,62,35.09a27.35,27.35,0,0,0-14.16-3.68,2.34,2.34,0,0,0-1.23.23,1.52,1.52,0,0,0-.82,1,1.47,1.47,0,0,0,.37,1.25,3.39,3.39,0,0,0,1.46.89M25.5,44.73c.22.65.54,1,1,1.08H28.4a.42.42,0,0,0,.31-.39.31.31,0,0,0-.22-.32l-1.53,0c-.57,0-.86-.82-1.08-1.63a4.29,4.29,0,0,1,1.21-4c.07-.09.1-.15.13-.18l-.12,0h0a.28.28,0,0,1-.14-.21c0-.1,0-.21.16-.35l.26-.24,0-.08-.16-.06h0a8.43,8.43,0,0,0-2.29,2.07,1.31,1.31,0,0,0-.15,1.22Zm3.91-1.51-.08,0a3.15,3.15,0,0,1-1,.18,1.55,1.55,0,0,1-1.19-.44l-.11,0-.11.07a.32.32,0,0,0,0,.31,1.58,1.58,0,0,0,1.18.61,2.07,2.07,0,0,0,1.17-.49c.09-.07.11-.14.1-.18m-2.74-1.75a.74.74,0,0,0-.05.59.55.55,0,0,0,.35.26,2.17,2.17,0,0,0,.36,0A4.86,4.86,0,0,0,30.09,41l.08-.13-.09,0a5.92,5.92,0,0,1-2.41.84.4.4,0,0,1-.33-.22c-.07-.18,0-.41.22-.74a6.14,6.14,0,0,0,.91-1c.09-.08.1-.16.05-.3a1.34,1.34,0,0,1-.05-.35,1.93,1.93,0,0,1,0-.25,1,1,0,0,1,.21-.51,1.76,1.76,0,0,1,.46-.39.32.32,0,0,0,.13-.38.51.51,0,0,0-.47-.34c-.56.21-.77.49-.7,1a1.42,1.42,0,0,1-.27,1.3,7.46,7.46,0,0,0-1.17,1.88m2.27-2.64a.35.35,0,0,0,0,.32,1.09,1.09,0,0,1,.2,1.16l0,0a1,1,0,0,0,.19-1.47c-.07-.09-.18-.19-.28-.17a.26.26,0,0,0-.16.19m14.73,47c.71.44,1.11,1.57,1.54,2.77.51,1.44,1,2.92,2.13,3.19a1.73,1.73,0,0,0,.43.08h.06a.39.39,0,0,0-.13-.13c-.67-.23-1-1.33-1.47-2.61-.5-1.51-1.07-3.21-2.2-3.56l-.36,0a.58.58,0,0,0-.24,0s0,.11.24.26m2-.29a.87.87,0,0,0-.29,0,.5.5,0,0,0,.13.13c.76.42,1.22,1.65,1.71,3,.59,1.57,1.2,3.19,2.32,3.17h0l.24,0-.05,0c-.65-.32-1.07-1.47-1.52-2.69-.58-1.57-1.24-3.35-2.55-3.54M49.36,89V89c.46,1.25,1,2.81,2.25,2.84l.15,0,0,0a4.88,4.88,0,0,1-1.47-2.48c-.32-1-.59-1.77-1.57-2l-.13,0-.12,0,.07.13c.34.18.56.78.84,1.53m-3.64-4.26.2,0h.2c.34,0,.38-.28.38-.35a.32.32,0,0,0-.26-.33,5.28,5.28,0,0,0-.79,0h0a4.91,4.91,0,0,1-1.66-.19l-.21-.08a.66.66,0,0,0-.33-.08.34.34,0,0,0-.3.12.54.54,0,0,0,0,.46c.31.38,1,.55,2,.54.27,0,.53,0,.76,0m10.58-.11A1.29,1.29,0,0,0,55,83.78a1.43,1.43,0,0,0-1.52,1.39.33.33,0,0,0,.07.26.4.4,0,0,0,.29.12.34.34,0,0,0,.32-.23c.12-.67.51-.74.68-.75a.7.7,0,0,1,.66.45.58.58,0,0,1-.24.66.75.75,0,0,0-.34,1.08,2.45,2.45,0,0,1,0,2.6.86.86,0,0,0,.49,1.21l0,0a.5.5,0,0,1,.07.52.66.66,0,0,1-.61.36.68.68,0,0,1-.65-.52.43.43,0,0,0-.41-.38.34.34,0,0,0-.29.16.29.29,0,0,0,0,.29c.42.87.93,1.28,1.57,1.26a2.18,2.18,0,0,0,.91-.23,1.29,1.29,0,0,0,.47-.86,1.24,1.24,0,0,0-.29-.87c-.33-.18-.39-.58-.2-1.21A2.27,2.27,0,0,0,56,87a1,1,0,0,1,.16-1.19,1.1,1.1,0,0,0,.19-1.18M42.63,90.48a.47.47,0,0,0-.42-.29.16.16,0,0,0-.15.06l-.35.62a.57.57,0,0,1-.5.31.56.56,0,0,1-.56-.73,1.23,1.23,0,0,1,.45-.65.89.89,0,0,0,0-.87,3.05,3.05,0,0,1-.18-2l.24-.92a.71.71,0,0,0-.29-.81.65.65,0,0,1-.32-.75.57.57,0,0,1,.53-.42.53.53,0,0,1,.25,0,.64.64,0,0,1,.39.45l.09.2a.58.58,0,0,0,.43.25.24.24,0,0,0,.21-.11.56.56,0,0,0,0-.5,1.51,1.51,0,0,0-1.54-1.13,1.2,1.2,0,0,0-.9.36,1.18,1.18,0,0,0-.3.9,1,1,0,0,0,.33.82h0a1.21,1.21,0,0,1,0,1.32,2.21,2.21,0,0,0,0,1.8,1.94,1.94,0,0,1,0,1.48l-.12.22a1,1,0,0,0-.15.88,1.2,1.2,0,0,0,1.26.94,1.88,1.88,0,0,0,.91-.27,1.7,1.7,0,0,0,.65-1.2m10.65,1.77a.88.88,0,0,0-.46.16,1.49,1.49,0,0,1-.81.24h-.19c-2.7,0-5.37,0-8.15-.16a1.94,1.94,0,0,1-.8-.23,1.23,1.23,0,0,0-.56-.13.3.3,0,0,0-.27.11.57.57,0,0,0,0,.46c.54.78,5.06.7,6.76.68l1.73,0c.58,0,1.16,0,1.47,0a3.05,3.05,0,0,0,1.53-.45.31.31,0,0,0,.16-.37.43.43,0,0,0-.43-.29m-9.7-56.31c2.6.59,4.43,1.43,4.91,3.6A2.23,2.23,0,0,0,49,41.21l.08,0v-.2c.06-2.17-.63-3.62-2.06-4.32a10,10,0,0,0-3.16-1.28A1,1,0,0,1,43,34.29a1.39,1.39,0,0,1,1.28-1.37h.15c.23,0,.35-.11.35-.17s0-.08-.15-.11h-.31c-.88,0-1.71.21-1.8,1.58-.12,1,.23,1.57,1.11,1.71m.36-2.24,0,0c.47,0,.65.18.66.34s-.16.39-.66.43l-.09,0a.63.63,0,0,0,.15.08,3.28,3.28,0,0,0,.52,0c.41,0,.72-.12.83-.32a.36.36,0,0,0,0-.36,1,1,0,0,0-.83-.36,2.38,2.38,0,0,0-.51.09m3.59,2.55a.65.65,0,0,0,.41.12c.23,0,.35-.08.36-.11l0-.06a3,3,0,0,0-2.83-.78c-.26.14,1.8.09,2.11.83M48,40.37a4.48,4.48,0,0,0-1.81-1.87c-.19-.09-.22.08-.19.12a6.66,6.66,0,0,1,2.37,3.69,1,1,0,0,1-.19.8l-.11.1a2.65,2.65,0,0,0-.33.34.32.32,0,0,0-.05.34.42.42,0,0,0,.38.22h.09l1.24-1a.49.49,0,0,0,.15-.37.41.41,0,0,0-.08-.27A5,5,0,0,1,48,40.37m-3.54.92h-.06a.3.3,0,0,0,0,.19,15.1,15.1,0,0,1,.29,3.57.31.31,0,0,0,.08.22.7.7,0,0,0,.5.13,4,4,0,0,0,1.28-.57,1,1,0,0,0,.52-.92A7.34,7.34,0,0,0,45.45,40c-.08-.08-.12-.1-.15-.09h0a.42.42,0,0,0,0,.27c1.06,2,1.33,3.16.87,3.94a1.15,1.15,0,0,1-.68.37c-.16,0-.36-.08-.44-.51a9,9,0,0,0-.54-2.61Zm1.44,2.09a1.39,1.39,0,0,0,0-.35,8.32,8.32,0,0,0-1.07-2.7l0,0,0,.13a15.6,15.6,0,0,1,.79,3.08s.22.27.29-.12m1.57-.79c.16.32.35-.1.31-.22-.36-1.22-1.51-3.06-1.79-2.94a14.66,14.66,0,0,1,1.48,3.16M42,45l.19-1.49a.24.24,0,0,0-.08-.24.35.35,0,0,0-.16.19c-.23.48-.79,2.06-.47,2.63a.39.39,0,0,0,.3.19,3.39,3.39,0,0,0,.44,0,1.67,1.67,0,0,0,1.26-.48c.64-.69.54-2.09.45-3.33l0-.25c-.06-.24-.14-.34-.21-.34l-.12.07a.44.44,0,0,0-.1.35,6.35,6.35,0,0,1-.3,2.67,1.05,1.05,0,0,1-.75.56c-.19,0-.41-.14-.43-.55m.91-.64a10.23,10.23,0,0,0,0-1.57c0-.1,0-.09-.08-.09a.19.19,0,0,0-.15.15,8.52,8.52,0,0,1-.17,1.51.25.25,0,0,0,0,.21l.11.05a.29.29,0,0,0,.28-.26M42.17,40a.17.17,0,0,0,.17,0L42.4,40a.23.23,0,0,0-.13-.28,14.44,14.44,0,0,0-1.84-.75c-.08,0-.09,0-.09,0a.15.15,0,0,0,.08.17,13.57,13.57,0,0,1,1.75.87m-3.44,6.26a1.17,1.17,0,0,0,.81.24,1.27,1.27,0,0,0,1.24-.86l.4-1.71a.28.28,0,0,0,0-.21l-.13,0c-.17,0-.38.16-.46.5A4,4,0,0,1,40,45.73a.39.39,0,0,1-.33.2.25.25,0,0,1-.25-.14.28.28,0,0,1,0-.3,2.21,2.21,0,0,0,.38-.82.23.23,0,0,0,0-.19l-.08,0a.33.33,0,0,0-.2.12,6.41,6.41,0,0,1-.8,1.17c-.15.24-.16.39,0,.54m-4.58-1.74a.88.88,0,0,0-.4-.1.3.3,0,0,0-.28.12c0,.07.05.15.08.19,1.77,1.26,2.22,2.83,1.35,4.66a.3.3,0,0,0,0,.23l.06,0a.59.59,0,0,0,.29-.14c1.14-1.81.78-3.44-1.09-5M18.67,52.4c0,.14.08.23.19.29l.11,0a.37.37,0,0,0,.3-.18.38.38,0,0,0,0-.37c-.35-.6-.09-.87.21-1.2h0c.08-.1.18-.19.27-.31a.42.42,0,0,0,.11-.34.27.27,0,0,0-.29-.24.53.53,0,0,0-.3.11,4,4,0,0,1-.62.5l-.1.07-.12.07-.13.08c-.07,0-.23.15-.07.49a6.19,6.19,0,0,1,.43,1M20,53a.53.53,0,0,0,.38.25.25.25,0,0,0,.18-.1.64.64,0,0,0,0-.54c-.35-.82,0-1.1.46-1.51l.07-.05a.35.35,0,0,0,0-.34.3.3,0,0,0-.26-.14.59.59,0,0,0-.24.07c-.91.56-1.06,1.12-.66,2.36m1.1-.72.19,1.1a.39.39,0,0,0,.35.27.33.33,0,0,0,.24-.12.46.46,0,0,0,.05-.37,1.14,1.14,0,0,1,.1-1.27l.4-.37a.38.38,0,0,0,0-.37.33.33,0,0,0-.3-.17L22,51l-.53.46a.74.74,0,0,0-.37.81m11.62-7a.44.44,0,0,0-.24-.07.39.39,0,0,0-.35.24.66.66,0,0,0,.16.67,3.28,3.28,0,0,1,1.37,1.72,2.15,2.15,0,0,1-.47,1.83l-3.44,3.17c-2.27,2.18-2.59,4.15-1,6l.11,0a.5.5,0,0,0-.08-.26c-1.23-2.55.42-4,2.52-5.78l0,0a23.8,23.8,0,0,0,3.05-3c.78-1.59.23-3.1-1.69-4.58M34,58.15c-.59,0-1.11.08-1.57.13l-.15,0a7.71,7.71,0,0,1-1,.1c-.93,0-1.59-.32-2-2,0-.23-.06-.32-.14-.38a.5.5,0,0,0-.2.4c0,2.23,1.52,2.27,3.65,2.32a18.94,18.94,0,0,1,2,.12,2.83,2.83,0,0,1,2.13,1.95,2.49,2.49,0,0,1-1.06,2.48c-.2.18-.28.35-.23.49a.55.55,0,0,0,.51.25.6.6,0,0,0,.31-.09,3.11,3.11,0,0,0,1.22-3.2,3.41,3.41,0,0,0-2.9-2.55c-.23,0-.44,0-.65,0M30.18,49.8a6.82,6.82,0,0,0-3.94,7.25,4.73,4.73,0,0,0,4.29,4h3.8a.68.68,0,0,1,.58.33.79.79,0,0,1-.14.82c-.09.15-.11.26-.09.3l.1,0a.57.57,0,0,0,.33-.15,1.35,1.35,0,0,0,.45-1.46,1.19,1.19,0,0,0-1.16-.73l-1.75.06c-1.76,0-2.67-.09-3.12-.4A4.27,4.27,0,0,1,27,56.11a6.74,6.74,0,0,1,3.61-5.76c1.07-.68,2.34-1.55,2.55-2.18.07-.22.09-.4,0-.48l-.08,0a.46.46,0,0,0-.23.1,8.1,8.1,0,0,1-2.73,2m-6.56,7.57a1.81,1.81,0,0,0,.41,2,17.1,17.1,0,0,0,2,1.45,3,3,0,0,1,1.16,2.32v0c0,.21.08.43.13.65a1.7,1.7,0,0,0,1.53,1.4H29c.19,0,.3-.12.31-.2s-.1-.19-.17-.21c-.81-.31-1.16-.64-1.24-1.17-.26-1.19-.63-2.6-1.2-3a15.55,15.55,0,0,1-2-1.49.87.87,0,0,1-.44-.5c-.2-.62.07-1.67.83-3.19a3.3,3.3,0,0,0-1.92-3.7.49.49,0,0,0-.2,0c-.11,0-.13,0-.14.06a.34.34,0,0,0,.13.31c1.41,1.09,2.29,2.1.68,5.33m.58,4.21a2.76,2.76,0,0,1,1.4,2.47c.19,2.49,1.44,3.74,3.7,3.7h0a2.4,2.4,0,0,0,1-.28c.09,0,.11-.07.11-.11s-.06-.26-.23-.45a.65.65,0,0,0-.54-.25.94.94,0,0,0-.31.06h0a1.91,1.91,0,0,1-.6.13,1.72,1.72,0,0,1-.51-.08,2.62,2.62,0,0,1-2-2.5c0-1.41-.34-2.36-1.13-2.84a6.72,6.72,0,0,1-2.3-2,2.81,2.81,0,0,1,.13-2.95q.13-.27.27-.57a2.9,2.9,0,0,0,.24-1.23c0-1.25-.33-1.94-1-2.11h-.13c-.07,0-.19,0-.22.09s0,.24.23.47c.82.67.8,1.81-.06,3.69a2.93,2.93,0,0,0-.17,2.78,7.62,7.62,0,0,0,2.09,2m7.34,5.87a1.33,1.33,0,0,0,.21,0s.06,0,0-.14a1.64,1.64,0,0,0-.67-.17c-.06,0-.07,0-.07,0a.53.53,0,0,0,.49.3m1.39-.28s0-.1-.08-.18a1.24,1.24,0,0,0-.81-.24h-.12c-.08,0-.09.07-.09.08s0,.08.07.14a1.07,1.07,0,0,0,.8.27h.12Zm.15-.93-.2.07,0,.11a.84.84,0,0,0,.82.45,1.76,1.76,0,0,0,.33,0l.08,0a.23.23,0,0,0,0-.14,1.33,1.33,0,0,0-1-.41m.51-2.2a1.09,1.09,0,0,0,.45-.19c.12-.1.26-.21.37-.32s.11-.18,0-.28a.86.86,0,0,1-.2-1,.31.31,0,0,0,0-.27s0,0-.11,0h0a1.53,1.53,0,0,0-.35.21h0a1.38,1.38,0,0,0-.62,1.48c.06.3.21.44.47.44ZM30.83,66.6l.14,0v0a1.33,1.33,0,0,1-.45-1.17A2.5,2.5,0,0,0,30,63.89a.67.67,0,0,0-.12.18.68.68,0,0,0,0,.53,1,1,0,0,1,.19.87c-.07.67.18,1,.77,1.13m.91-.33.14,0c.2-.08.2-.14.2-.14s0,0-.1-.1a1.19,1.19,0,0,1-.57-1.33,1,1,0,0,0-.15-1,1,1,0,0,1-.21-.93l0-.06-.22.06a.65.65,0,0,0-.33.39,1.49,1.49,0,0,0,.27,1A.91.91,0,0,1,31,65a1.42,1.42,0,0,0,.36,1.09.56.56,0,0,0,.43.2m1.32-4.22c.11-.11.11-.16.11-.16l-.09,0a2.19,2.19,0,0,0-.36,0,1.22,1.22,0,0,0-1,.48,1,1,0,0,0,.06,1,.85.85,0,0,1,.1.91,1.27,1.27,0,0,0,0,.84,1.13,1.13,0,0,0,.9.67.53.53,0,0,0,.24,0l0-.09a.5.5,0,0,1,0-.75.27.27,0,0,0,.12-.19c0-.07-.05-.17-.16-.28a1.54,1.54,0,0,1,.19-2.31m3.81,4.24a2.36,2.36,0,0,1,1-.66,3.17,3.17,0,0,0,1.1-.82,1.86,1.86,0,0,0-.47-2.37.4.4,0,0,0-.22-.08.38.38,0,0,0-.24.14.57.57,0,0,0-.06.44l.38.63a.78.78,0,0,1-.38,1.1,6.77,6.77,0,0,0-1.77,1.21.53.53,0,0,1-.83.15l-.65-.56a.43.43,0,0,1-.09-.42.29.29,0,0,1,.28-.15l.2,0,.45.21.15.05s.08,0,.11-.13a.93.93,0,0,0-.61-.94,1,1,0,0,0-.37,0,1.58,1.58,0,0,0-1.27.85c-.33.5.37,1,1.1,1.53.2.14.45.33.65.49a.85.85,0,0,0,.43.13A.77.77,0,0,0,36,67a2.57,2.57,0,0,0,.84-.68m1.9.85h.16a5.2,5.2,0,0,1,1.66.6c.15.07.27,0,.3-.07s0-.14-.14-.21a5,5,0,0,0-2.52-.82,2.78,2.78,0,0,0-.72.1c-.27.14-.44.34-.44.52a.33.33,0,0,0,.2.3l1.6.43,1.1.47.11,0c.11,0,.21-.06.23-.12l-.09-.17a4.25,4.25,0,0,0-1.39-.63c-.34-.1-.33-.24-.32-.28s0-.14.26-.15M39.71,65a1.68,1.68,0,0,0-.56.57.67.67,0,0,0,0,.6c.28.58,1.43.87,2,1h.09c.15,0,.27-.06.29-.14l-.06-.15h0A3.89,3.89,0,0,1,40,65.94a.53.53,0,0,1,0-.55.55.55,0,0,1,.52-.23,2.17,2.17,0,0,1,.74.14h0l.13-.07a.25.25,0,0,0-.06-.22,1.23,1.23,0,0,0-.57-.31,1.31,1.31,0,0,0-1,.26m1,.62h0a.18.18,0,0,0-.19.12.22.22,0,0,0,.07.24,5.92,5.92,0,0,0,1.5.67h.06a.15.15,0,0,0,.14-.12.22.22,0,0,0-.13-.25,6.63,6.63,0,0,0-1.43-.66M41,69.7h.06a3,3,0,0,0,.61-.07,6.24,6.24,0,0,1,2.21-.5c.16,0,.26-.09.27-.19s-.07-.22-.26-.26a1.71,1.71,0,0,0-.32,0,7.84,7.84,0,0,0-2,.42l-.13,0a.22.22,0,0,1-.22-.12c-.07-.13,0-.32.13-.45a4.7,4.7,0,0,1,2.19-1.32.24.24,0,0,0,.18-.28s0-.2-.29-.19a4.37,4.37,0,0,0-2.82,1.82.91.91,0,0,0-.14.84.63.63,0,0,0,.56.29M42.5,68c-.08.1-.11.18-.09.22s.19.11.4.11a1.72,1.72,0,0,0,1-.3l.07-.12v0s-.15-.12-.49-.11a1.5,1.5,0,0,0-.9.23m-2.29-4.6a.38.38,0,0,1-.09-.36.36.36,0,0,1,.35-.17l.09,0,0-.07a1.58,1.58,0,0,0-1.12-.62c-.12,0-.15,0-.16.1-.06.86.43,1.47,1.48,1.88h.21l0-.07Zm-1.28-4.06,0,.09a2.77,2.77,0,0,0,.67,2.11,1.31,1.31,0,0,0,.82.46.24.24,0,0,0,.18-.09.58.58,0,0,0,0-.48.8.8,0,0,0-.44-.43.23.23,0,0,1-.2.14c-.25,0-.5-.4-.51-.83a.84.84,0,0,0-.5-1m2.54,3a.72.72,0,0,0-.37-.28h0l0,0v.12c.24,1.47.66,3.09,1.89,3.92a.73.73,0,0,0,.34.08c.35,0,.46-.35.5-.46a2.5,2.5,0,0,0-.23-1.46.4.4,0,0,0-.28-.14.12.12,0,0,0-.13.11l0,.76a.34.34,0,0,1-.08.26l-.12.06h0a.45.45,0,0,1-.28-.12,3.63,3.63,0,0,1-1-2.46.63.63,0,0,0-.18-.43m3.93,7.31a1.24,1.24,0,0,0,.46.1.5.5,0,0,0,.42-.19,2.37,2.37,0,0,0,.16-1.69v0a1.37,1.37,0,0,0-.3-.43h-.07a.43.43,0,0,0-.08.17l0,1c0,.27-.08.41-.24.41a.56.56,0,0,1-.3-.13,6.2,6.2,0,0,1-.72-3.14c0-.4-.24-.64-.37-.64s-.13.12-.13.3c0,1.58.13,3.32,1.19,4.26Zm.07-1.8.05,0a.61.61,0,0,0,.08-.38l-.12-.8c-.06-.1-.15-.19-.24-.19s-.12.1-.13.16a1.38,1.38,0,0,0,.19,1.12.31.31,0,0,0,.17.11m-2.83-3.48c.09,0,.12-.21.13-.25a.94.94,0,0,0-.2-.57c-.07-.09-.13-.11-.15-.11l-.12.11a.84.84,0,0,0,.11.64c.08.12.17.18.23.18m6-27.59h-.12c-.11,0-.15.09-.15.12s.07.17.36.17a1.28,1.28,0,0,1,1.42.82.42.42,0,0,1,0,.44c-.08.13-.16.17-.41.17h0l0,.15a.69.69,0,0,0,.39.12.55.55,0,0,0,.42-.2.65.65,0,0,0,0-.6,1.79,1.79,0,0,0-1.94-1.19m.88,1.31c.08,0,.11-.1.12-.17s-.12-.38-.45-.41a.23.23,0,0,0-.11.07s0,.12.18.35a.4.4,0,0,0,.26.16M50,39.49a.17.17,0,0,0-.18.15.25.25,0,0,0,.14.21c.76,0,1,.46,1,1.44-.1.47-.3.44-.46.45a1.08,1.08,0,0,1-.45-.12.21.21,0,0,0-.24.08.2.2,0,0,0,0,.15,1.53,1.53,0,0,0,1.06.41.49.49,0,0,0,.3-.1c.31-.22.39-.64.24-1.32A1.39,1.39,0,0,0,50,39.49m.35,1.61a.17.17,0,0,0,.16-.1c0-.31,0-.44-.12-.49s-.08,0-.3,0-.22.12-.24.17,0,.17.09.27a.82.82,0,0,0,.41.2m.16,4.81.12,0a2.86,2.86,0,0,0,1.3-1.8,1.18,1.18,0,0,0-.19-.93,1.57,1.57,0,0,0-1.13-.41h-.14A.4.4,0,0,0,50,43a.21.21,0,0,0,.08.23l.7.15a.69.69,0,0,1,.41.32,1.4,1.4,0,0,1-.2,1c-.51.63-.76.67-.66,1.07,0,.19.09.19.13.19m-.31-1.53.26,0c.29,0,.31-.11.31-.19,0-.4-.22-.4-.3-.4a1.19,1.19,0,0,0-.31.07.28.28,0,0,0-.2.23c0,.1.1.2.24.26m2-9h0l-.12,0a2.77,2.77,0,0,0,1.51.55c.23,0,.31-.06.34-.1a.27.27,0,0,0,0-.2,5.4,5.4,0,0,0-5-2.69,7.33,7.33,0,0,0-.79,0c-.1,0-.17,0-.17.07s.34.36.7.38a7.91,7.91,0,0,1,.84-.06,3.76,3.76,0,0,1,3.15,1.23q.25.32.15.51c-.08.15-.26.23-.57.23M50.94,34.3a3.77,3.77,0,0,0-.51,0c-.07,0-.09,0-.09.06s0,.11.19.19a1.89,1.89,0,0,0,.69.12,1,1,0,0,0,.37-.06c.11-.07.11-.1.11-.1s0-.07-.18-.17a1.35,1.35,0,0,0-.58-.08m4.49.5a.82.82,0,0,1-.48-.22,3.45,3.45,0,0,0-1.67-1.11l-.2,0,0,0a6.28,6.28,0,0,0,3.17,2.17l.3,0a.29.29,0,0,0,.21-.06.26.26,0,0,0,0-.18,1.48,1.48,0,0,0-1.15-1.4.64.64,0,0,1,0,.6.32.32,0,0,1-.27.15m2.24,48.49a.65.65,0,0,0,.29-.06l.11-.08a.49.49,0,0,1-.31-.36,1.06,1.06,0,0,1,.38-.89c1.8-.94,2.35-1.78,2.12-3.2a.23.23,0,0,0-.06-.18.48.48,0,0,0-.35-.12.52.52,0,0,0-.5.32,3.11,3.11,0,0,1-1,2,10.48,10.48,0,0,1-5.06,1.52,1.74,1.74,0,0,0-1.68,1L51,84.81a.69.69,0,0,1-.71.63l-1.55-.14a.59.59,0,0,1-.42-.18.49.49,0,0,1-.1-.38,12.45,12.45,0,0,1,.53-3.81,1.35,1.35,0,0,0-.13-1.16c-.06-.1-.12-.15-.16-.15s-.09,0-.19.26a12.05,12.05,0,0,0-.89,5.3c0,.47.12.76.55.86l3.23.24c.47,0,.68-.18.69-.58.17-1.64.72-2.49,1.61-2.52.73-.12,1.61-.27,2.57-.41l.2,0c.37,0,.53.12.6.24a1.81,1.81,0,0,0,.86.3m-1.75-5.53h-.14c-.45.11-.58.39-.55.61s.18.4.38.39a.38.38,0,0,0,.25-.09,2.79,2.79,0,0,1,1-.71,2.21,2.21,0,0,0-1-.21m-.71,3.07a.73.73,0,0,0,.22,0,2.11,2.11,0,0,0,.92-.57A4.48,4.48,0,0,1,55.08,80H55a.34.34,0,0,0-.35.36.48.48,0,0,0,.15.33.59.59,0,0,0,.45.16m-1.29-2.42a2.83,2.83,0,0,1,.76-1H54.4a2.26,2.26,0,0,0-.9.17.62.62,0,0,0-.36.67.51.51,0,0,0,.46.36.38.38,0,0,0,.32-.19m-4,5.16a.33.33,0,0,0,.31-.27,2.75,2.75,0,0,1,.41-1.19,2.13,2.13,0,0,0-1,.47c-.28.33-.23.58-.16.7a.49.49,0,0,0,.43.29m13.77-1.23a2.84,2.84,0,0,1,1.5-.46,2.82,2.82,0,0,0-1.44-.7c-1.27,0-.92,1.53-.06,1.16m1.74-2.06a3.33,3.33,0,0,1,.3-1.22,1.83,1.83,0,0,0-.94.5.65.65,0,0,0-.16.71.56.56,0,0,0,.48.3.33.33,0,0,0,.32-.29m2.36-.64-.28,0a2.19,2.19,0,0,0-.88.19.62.62,0,0,0-.34.7.48.48,0,0,0,.44.35.37.37,0,0,0,.32-.18,2.64,2.64,0,0,1,.74-1m-1.47,2.72.23,0a2.43,2.43,0,0,0,1-.59,4.55,4.55,0,0,1-1.32-.25H66.1a.34.34,0,0,0-.36.36.5.5,0,0,0,.16.35.65.65,0,0,0,.47.16M52.12,80.55a.47.47,0,0,0,.45.33.64.64,0,0,0,.52-.34,2.15,2.15,0,0,0,.29-1.05,3.78,3.78,0,0,1-1.08.65.33.33,0,0,0-.18.41m-5.89-3a2.47,2.47,0,0,0-1.32.73,2.77,2.77,0,0,1,1.5.41c.88.34,1.06-1.18-.18-1.14m-3.15-1.06a.41.41,0,0,0,.36-.33.64.64,0,0,0-.39-.7,2.38,2.38,0,0,0-.81-.14l-.3,0a2.84,2.84,0,0,1,.81,1,.41.41,0,0,0,.33.19m-1.85-.07c0-.25-.15-.54-.65-.6a2.22,2.22,0,0,0-1,.31,2.73,2.73,0,0,1,1.1.58.59.59,0,0,0,.25.08.37.37,0,0,0,.33-.37M41.72,78a2.62,2.62,0,0,1-1.43.42,2.74,2.74,0,0,0,1.36.68c1.23,0,.91-1.43.07-1.1m1.67,0a.86.86,0,0,0,.38.1.43.43,0,0,0,.46-.44.37.37,0,0,0-.4-.38,4.62,4.62,0,0,1-.48,0,2.89,2.89,0,0,1-.75-.1,2.3,2.3,0,0,0,.79.77M35,76.15a.74.74,0,0,0,.44.13.43.43,0,0,0,.43-.42c0-.11,0-.37-.45-.4a2.73,2.73,0,0,1-1.09-.19,2.49,2.49,0,0,0,.67.88m-3.07.29a.89.89,0,0,0,.4.11.43.43,0,0,0,.43-.43.37.37,0,0,0-.37-.4l-.25,0a2.54,2.54,0,0,1-.92-.16,2.21,2.21,0,0,0,.71.86m-1.3-2.75h-.23a2.32,2.32,0,0,0-.87.21,2.68,2.68,0,0,1,.69.5l0,0a.74.74,0,0,0,.25.17.57.57,0,0,0,.22,0,.44.44,0,0,0,.43-.37c0-.24-.16-.44-.51-.56m-5.49-3.48v0a.47.47,0,0,0,.47.41.32.32,0,0,0,.28-.14.69.69,0,0,0,0-.62,2.16,2.16,0,0,0-.75-.81,3.17,3.17,0,0,1,0,.83.67.67,0,0,0,0,.31m-1-1.1a2.17,2.17,0,0,0-.75-.81,2.68,2.68,0,0,1,0,.83.88.88,0,0,0,0,.32v0a.45.45,0,0,0,.46.4.32.32,0,0,0,.27-.14c.07-.08.15-.26.05-.62m-.26,1.54-.16,0a2.68,2.68,0,0,1-1-.35,2,2,0,0,0,.65,1.08.59.59,0,0,0,.37.11.42.42,0,0,0,.42-.35.43.43,0,0,0-.29-.47m1.67,2.12a.65.65,0,0,0,.41.15.43.43,0,0,0,.41-.32.41.41,0,0,0-.26-.48.5.5,0,0,0-.15-.05,2.54,2.54,0,0,1-.95-.45,2,2,0,0,0,.54,1.15m22.52,3.29a.4.4,0,0,0,.07-.31,7.07,7.07,0,0,1,0-1.06c0-.08,0-.24-.4-.31h-.22A1.51,1.51,0,0,0,46,75.47a1.57,1.57,0,0,0,.61,1.78.93.93,0,0,0,.24.09h0a.78.78,0,0,0,0-.38.59.59,0,0,1,.08-.53c.15-.21.47-.3,1-.31ZM50,80.16h0a.36.36,0,0,0,.26-.08V80c-.34-.28-.5-.5-.5-.73s.22-.46.5-.67.2-.4.08-.56a2.54,2.54,0,0,1-.68-.79.34.34,0,0,0-.29-.18.84.84,0,0,0-.4.18A1.53,1.53,0,0,0,48.49,79,1.6,1.6,0,0,0,50,80.16m10.84-.28h0a1.31,1.31,0,0,0,.5.1,1.37,1.37,0,0,0,1.26-1.06,1.71,1.71,0,0,0-.75-2,.48.48,0,0,0-.3-.13.38.38,0,0,0-.27.14,6.58,6.58,0,0,1-.68.85.38.38,0,0,0-.06.31.37.37,0,0,0,.23.23.93.93,0,0,1,.52.66c0,.26-.13.53-.49.84m-2.7-2.14a1.11,1.11,0,0,0,.69.25,1,1,0,0,0,.46-.12,2.92,2.92,0,0,0,1.64-1.45,1.13,1.13,0,0,0-.22-1,1.37,1.37,0,0,0-1.08-.53h-.2a2.15,2.15,0,0,1-1.66-.88,1.8,1.8,0,0,0-.71-.55,1.12,1.12,0,0,0-.24,0c-.09,0-.1,0-.1,0v.11a2,2,0,0,0,.72,1,8.09,8.09,0,0,0,1.34.76c.29.18.41.35.4.54s-.17.36-.51.53a.79.79,0,0,1-.25.05c-.25,0-.47-.16-.67-.51a9.59,9.59,0,0,0-1.54-1.83l-.15-.06a.35.35,0,0,0-.17.06,1.2,1.2,0,0,0-.5.45.43.43,0,0,1-.33.22.64.64,0,0,1-.31-.11.41.41,0,0,0-.17,0,9.56,9.56,0,0,0-2.2,1.78.69.69,0,0,1-.39.2h0l-.15-.06,0,0,0-.05A.52.52,0,0,1,52,76.1a7.25,7.25,0,0,0,1.77-1.56.24.24,0,0,0,.05-.2.45.45,0,0,0-.19-.27,1.43,1.43,0,0,0-.73-.17,3.29,3.29,0,0,0-.8.14,3.19,3.19,0,0,1-.77.09A4.42,4.42,0,0,1,50,74a1.34,1.34,0,0,0-.35,0,.67.67,0,0,0-.61.33,3.18,3.18,0,0,0-.15.43,3.9,3.9,0,0,0,0,1.15,1.89,1.89,0,0,0,.16.38.3.3,0,0,0,.25.12,1.12,1.12,0,0,0,.45-.14,1.27,1.27,0,0,0,.62-1.11.58.58,0,0,1,.37-.38,4.71,4.71,0,0,1,1.41-.29,2.72,2.72,0,0,1,.43,0q.28.06.33.24c0,.15-.11.27-.23.36a8.35,8.35,0,0,1-1.92.94,1,1,0,0,0-.53,1.17c0,.3.32.65.9,1.07a.93.93,0,0,0,.51.13,1,1,0,0,0,.89-.64c0-.19.22-.37.58-.56A6.91,6.91,0,0,0,54.46,76a.43.43,0,0,1,.26-.12c.2,0,.25.2.31.4l0,.2q.16.3.36.3c.16,0,.35-.13.58-.41a.46.46,0,0,1,.3-.15l.12,0h0c.08.09.08.23.06.45s0,.18.06.21a.41.41,0,0,1,.24-.08.79.79,0,0,1,.46.17ZM49.8,70.59a.26.26,0,0,0-.22.1.3.3,0,0,0,0,.23l1.51,2a1,1,0,0,0,.73.38.41.41,0,0,0,.33-.15.75.75,0,0,0,.09-.63c0-.15-.12-.22-.16-.22l-.09.11a.4.4,0,0,1-.67,0L50,70.68a.24.24,0,0,0-.23-.09M54.46,74a.88.88,0,0,0,.29.06c.15,0,.35-.06.43-.48A3.2,3.2,0,0,0,55,71.8l-1.21-2.7c-.09-.18-.13-.21-.14-.21s-.07,0-.14.24a1.75,1.75,0,0,0,.31,1.35c.19.3.37.64.56,1l.22.44a1,1,0,0,1,0,.88.47.47,0,0,1-.36.2.62.62,0,0,1-.44-.23l-1.19-1.73a2.1,2.1,0,0,0-1.07-1,.75.75,0,0,0-.32-.06h-.05l.08.19a14.07,14.07,0,0,1,.9,1.32l0,0A6.24,6.24,0,0,0,54.46,74m-1.64-3.75v.18l.9,1.59.08,0a.23.23,0,0,0,.19-.11c.05-.09,0-.2-.06-.28L53,70.27l-.1,0ZM51.5,72h.07a.29.29,0,0,0,.18-.12.24.24,0,0,0,0-.25L51,70.51l-.08,0-.11,0,0,.17Zm5,.71a1.38,1.38,0,0,0,.36.05.24.24,0,0,0,.18-.06s0-.12,0-.25a11.12,11.12,0,0,0-.74-3.09,2.62,2.62,0,0,1-.25-.92.23.23,0,0,0-.08-.24l-.16.1a1.22,1.22,0,0,0-.05,1.11L56.44,71c.08.27.09.44,0,.56l-.09.07,0,0h0a.44.44,0,0,1-.34-.23A3.88,3.88,0,0,1,55.42,70c-.17-.64-.34-.71-.5-.78h-.18v.07c.33,1.35.76,2.84,1.79,3.46m-2.41-12c-.06,0-.17.08-.26.22a.59.59,0,0,0-.07.47,9.78,9.78,0,0,1,1.14,5c0,.56-.34.6-.41.6a.56.56,0,0,1-.46-.3,18.65,18.65,0,0,1-1.12-2.28v0c-.27-.6-.56-1.29-.86-1.84-.07-.09-.1-.1-.1-.1s-.07,0-.12.28a1.56,1.56,0,0,0,.18,1c.27.53.54,1.13.75,1.61v0a8.73,8.73,0,0,0,1.55,2.68.74.74,0,0,0,.43.16c.19,0,.34-.12.49-.4.65-1.14-.08-5.28-1-7,0-.11-.1-.11-.11-.11m0,4.83c.06,0,.14-.07.16-.24a4.89,4.89,0,0,0-1.5-3.58.36.36,0,0,0-.19,0,.15.15,0,0,0-.15.08.33.33,0,0,0,.05.31A12.26,12.26,0,0,1,54,65.49a.16.16,0,0,0,.12.12M52,69.38a.8.8,0,0,0,.36.09c.15,0,.52-.06.62-.6a9.45,9.45,0,0,0-1.67-5.4.25.25,0,0,0-.23-.11.42.42,0,0,0-.33.16.24.24,0,0,0,0,.24,13.75,13.75,0,0,0,.72,1.74l0,.1a14.23,14.23,0,0,1,.85,2.14.73.73,0,0,1,0,.62.35.35,0,0,1-.27.13.57.57,0,0,1-.4-.2,13.35,13.35,0,0,1-1.77-2.48l-.08-.13a13,13,0,0,0-.9-1.37c-.13-.16-.25-.24-.35-.24l-.13.07a.58.58,0,0,0,0,.51A15.69,15.69,0,0,0,52,69.38m-3.17-6.21-.12,0,.07.14A16.6,16.6,0,0,1,51.06,67l.13.1.05,0a.54.54,0,0,0,0-.32,6.11,6.11,0,0,0-2.41-3.58Zm.69,6.68c.35,0,.56-.31.56-.8-.09-1.58-1.33-2.94-2.53-4.26a.5.5,0,0,0-.27-.11l-.1.06,0,.1A22.13,22.13,0,0,1,49.46,68a.81.81,0,0,1,0,.77.44.44,0,0,1-.37.2.58.58,0,0,1-.45-.22,36.91,36.91,0,0,0-3.58-4.28.36.36,0,0,0-.21-.11l-.14.09c0,.07,0,.15.1.25a57.22,57.22,0,0,1,3.86,4.71,1.1,1.1,0,0,0,.78.4m-3.81-5.93h-.07a.53.53,0,0,0,0,.43l3,3.57.16.09.06,0a.42.42,0,0,0-.09-.25l-3-3.78Zm11.92-28a4.09,4.09,0,0,0,1.75.91.21.21,0,0,0,.18-.07.69.69,0,0,0,.21-.62,1,1,0,0,0-.66-.68h0a.61.61,0,0,1-.13.43.52.52,0,0,1-.35.16.57.57,0,0,1-.58-.48,1.31,1.31,0,0,0-.61-.87h0a1.12,1.12,0,0,1,.13.81.38.38,0,0,0,.07.4M53.79,38.1a1.31,1.31,0,0,1-.41-.06h-.07a.29.29,0,0,0,.06.15,1.88,1.88,0,0,0,1.22.5.61.61,0,0,0,.55-.25,1.55,1.55,0,0,0-.29-1.32l-.06-.1V37c0-.06,0-.19-.54-.64l0,0c0,.13-.17.22-.39.26a3.15,3.15,0,0,1-.46,0l-.61,0-.09,0a.4.4,0,0,0,.31.29c1.11,0,1.5.37,1.5.7s-.3.49-.69.5m.45,1.84c.82.26,1,.81,1,1.2a.61.61,0,0,1-.55.57,1,1,0,0,1-.62-.29.68.68,0,0,0,0,.37,1.93,1.93,0,0,0,1.52,1.06.5.5,0,0,0,.45-.2.91.91,0,0,0,0-.85,4.59,4.59,0,0,1-.51-2.27c0-.15,0-.2-.08-.24a1.17,1.17,0,0,0-.25.12,1.29,1.29,0,0,1-.5.11,2,2,0,0,1-.92-.27l-.12.1a.16.16,0,0,0,0,.17Zm-2.9,12.8a.61.61,0,0,0,0,.52,28.67,28.67,0,0,1,1.55,2.42l.07.12c.41.69.74,1.24,1,1.61a.46.46,0,0,0,.29.19c.13,0,.22-.19.23-.45-.07-1.58-.9-3.49-2.54-5.85l0,.08a.42.42,0,0,0,0,.42,13.22,13.22,0,0,1,1.7,3.26.46.46,0,0,1,0,.43l-.09.07h-.07c-.12,0-.24-.09-.32-.27a14.08,14.08,0,0,0-1.55-2.54l-.13-.09Zm-1.57,3.12a.18.18,0,0,0-.15.09.59.59,0,0,0,0,.53,40.31,40.31,0,0,0,2,3.93,1.22,1.22,0,0,0,1,.58,1,1,0,0,0,.81-.5,2.56,2.56,0,0,0,0-2.39A22.55,22.55,0,0,0,51,53.86a.26.26,0,0,0-.2-.1.16.16,0,0,0-.15.09.54.54,0,0,0,0,.48A22.17,22.17,0,0,1,53,58.61a1.22,1.22,0,0,1,0,1.16.59.59,0,0,1-.5.29.7.7,0,0,1-.58-.34A24.91,24.91,0,0,1,50,56a.32.32,0,0,0-.22-.13m2.37,2.83a.32.32,0,0,0,.27-.16.38.38,0,0,0,0-.39L50.56,55a.32.32,0,0,0-.1-.15s-.06,0-.1.09a.91.91,0,0,0-.07.72l1.71,3a.16.16,0,0,0,.14.06m-2,4.29a1.27,1.27,0,0,0,1-.63,1.79,1.79,0,0,0-.11-1.78,22.48,22.48,0,0,1-1.8-3.78c-.07-.2-.19-.32-.33-.32a.36.36,0,0,0-.28.19.26.26,0,0,0,0,.28,33.32,33.32,0,0,0,1.91,4,1,1,0,0,1,.08,1,.61.61,0,0,1-.53.3.9.9,0,0,1-.71-.38,16.92,16.92,0,0,1-1.51-2.25l-.13-.22c-.3-.5-.61-1-.91-1.45a.36.36,0,0,0-.27-.14.37.37,0,0,0-.31.21.31.31,0,0,0,.09.33l2.57,4a1.47,1.47,0,0,0,1.19.69M47.5,57.44l1.89,3.41a.43.43,0,0,0,.34.22l.1-.06s.09-.17-.1-.56l-2-3.78c0-.07-.08-.1-.13-.1h-.08l0,.17a.33.33,0,0,1,0,.28.37.37,0,0,0,.07.41m.41,6.43A1.39,1.39,0,0,0,48,62.7a16.59,16.59,0,0,0-2.24-4l-.16-.24a.54.54,0,0,0-.46-.19.3.3,0,0,0-.21.06s0,.07.08.16a24,24,0,0,1,2.36,3.95.65.65,0,0,1,0,.66.51.51,0,0,1-.42.28.57.57,0,0,1-.44-.23,39.38,39.38,0,0,1-3.36-4.22.37.37,0,0,0-.27-.11.27.27,0,0,0-.25.14.36.36,0,0,0,0,.34,29.65,29.65,0,0,0,3.55,4.49,1.41,1.41,0,0,0,1,.4.86.86,0,0,0,.66-.29m-4.34-5.66A10.45,10.45,0,0,0,46.24,62a.31.31,0,0,0,.15.07l.07,0a.4.4,0,0,0-.05-.3A44.34,44.34,0,0,0,43.74,58H43.6a.33.33,0,0,0,0,.23m1,5.67c.13,0,.22,0,.25-.09s.06-.16-.06-.44a20.39,20.39,0,0,0-3.13-4.24.38.38,0,0,0-.3-.15l-.09,0a.23.23,0,0,0,0,.17C42,60,42.77,61,43.38,62a.41.41,0,0,1,.09.4l0,0-.1.09h-.08a.56.56,0,0,1-.32-.14,52.17,52.17,0,0,1-3.24-4.17.28.28,0,0,0-.23-.12.36.36,0,0,0-.3.19.26.26,0,0,0,0,.29l.19.3c1.32,1.95,3,4.39,5,5ZM48.9,48.51a1.39,1.39,0,0,0-.22.37c-.09.47,0,.58,0,.61h0a.38.38,0,0,0,.16-.05,2.32,2.32,0,0,0,.92-1.86l-.18-3.11c0-.19-.13-.3-.23-.3l-.15.07a.58.58,0,0,0-.11.4l0,.69c0,.35,0,.7,0,1.05s0,.67,0,1a1.25,1.25,0,0,1-.29,1.1Zm-2.39-2.86a.29.29,0,0,0-.2.17,10.1,10.1,0,0,0-.51,3.91.88.88,0,0,0,.89.75,1.83,1.83,0,0,0,1.57-1.34A14.9,14.9,0,0,0,48.47,45c0-.25-.1-.41-.22-.4l-.15.08A.44.44,0,0,0,48,45a10.15,10.15,0,0,1-.29,3.84c-.32.53-.65.83-.92.84s-.38-.07-.43-.6a14.28,14.28,0,0,1,.29-3.18.23.23,0,0,0-.14-.23m.76,2.87a8.51,8.51,0,0,0,.14-3.32c0-.15-.09-.22-.11-.22s-.13.09-.16.25L47,48.56c0,.12.08.13.11.13s.13,0,.16-.17M43,50.42a.48.48,0,0,1-.44-.2c-.11-.17-.1-.42.05-.79L43.28,47a.27.27,0,0,0-.05-.22l-.12-.06c-.09,0-.19.1-.27.25a17.62,17.62,0,0,1-.6,1.72c-.16.41-.31.79-.49,1.32a1,1,0,0,0-.06.64,1.48,1.48,0,0,0,1.26.45H43c1.24-.16,1.88-.61,2-1.38l.48-3.25a.49.49,0,0,0-.11-.33L45.21,46c-.1,0-.23.1-.3.36l-.41,2.48c-.18,1-.67,1.53-1.51,1.54m1.19-4.17a.3.3,0,0,0-.25.24,22.68,22.68,0,0,1-.48,2.7.24.24,0,0,0,0,.19l.11,0c.11,0,.24-.13.32-.33a19.59,19.59,0,0,0,.37-2.68c0-.18-.07-.18-.09-.17m-4.73,4.27a1.82,1.82,0,0,0,.73.17A1.23,1.23,0,0,0,41.24,50l.92-2.62c.05-.21,0-.29-.08-.34a.23.23,0,0,0-.09.13,16.56,16.56,0,0,1-1.21,2.61.77.77,0,0,1-.61.35.51.51,0,0,1-.44-.24.63.63,0,0,1,0-.65,13.29,13.29,0,0,0,1-2.31.22.22,0,0,0-.08-.27.24.24,0,0,0-.17.16,15.32,15.32,0,0,1-1.28,2.52,1,1,0,0,0-.18.79.76.76,0,0,0,.4.42M41.14,47a9.79,9.79,0,0,1-.9,2.11.26.26,0,0,0,0,.26l.08,0a.31.31,0,0,0,.19-.13,5.94,5.94,0,0,0,.92-2.14.27.27,0,0,0-.16-.29c-.06,0-.12.07-.13.15m-1.49-.1s-.07,0-.1.1a11,11,0,0,1-1,1.7.27.27,0,0,0,0,.22l.08,0,.12,0a4.69,4.69,0,0,0,1-1.83c0-.07,0-.12-.1-.2m-2.34,2.54a1.22,1.22,0,0,0,.85.56.4.4,0,0,0,.3-.17l0-.15L38,49.4a.37.37,0,0,1-.17-.24A.63.63,0,0,1,38,48.7a6.82,6.82,0,0,0,.93-1.28A.4.4,0,0,0,39,47l-.06,0c-.06,0-.12,0-.17.14a17.22,17.22,0,0,1-1.31,1.68c-.21.26-.25.44-.15.64m-.22,1a4,4,0,0,0-.84,3.26,7.59,7.59,0,0,0,.57,1.51c.12.27.28.59.41.95a3.69,3.69,0,0,1,.23,1.43c0,.07,0,.23.38.23a2.27,2.27,0,0,0,.52-.09,1.28,1.28,0,0,0,.8-.6,1,1,0,0,0,0-.74C38.08,54,38,52.51,39,51.23a.32.32,0,0,0,0-.33.26.26,0,0,0-.23-.13.41.41,0,0,0-.29.15,2.68,2.68,0,0,0-.76,2.1A6.07,6.07,0,0,0,38,54.67c.12.39.26.83.36,1.3a.49.49,0,0,1-.05.43.29.29,0,0,1-.23.13c-.1,0-.28-.05-.41-.4s-.27-.83-.39-1.14v0a6.22,6.22,0,0,1-.44-1.69,3.74,3.74,0,0,1,.76-2.46v0a.36.36,0,0,0,.06-.33.3.3,0,0,0-.27-.13.41.41,0,0,0-.32.17m2.16,4.58a7,7,0,0,0,1.42,3,1.55,1.55,0,0,0,1,.37,1.23,1.23,0,0,0,1.26-1,1.59,1.59,0,0,0-.14-.86l-.11-.33a7.65,7.65,0,0,1-.05-4.14c0-.07.05-.17,0-.24a.28.28,0,0,0-.25-.11A.42.42,0,0,0,42,52a7.35,7.35,0,0,0,0,4.51,1,1,0,0,1-.12.75.64.64,0,0,1-.47.24.74.74,0,0,1-.6-.33c-1.28-2.07-1.51-3.86-.68-5.48a.44.44,0,0,0,0-.42.28.28,0,0,0-.23-.13.49.49,0,0,0-.33.22,4.72,4.72,0,0,0-.35,3.74m2.17-3.75a.25.25,0,0,0-.21-.1.32.32,0,0,0-.29.22,5.56,5.56,0,0,0,.19,4.74.21.21,0,0,0,.17.11l.08,0s.07-.11,0-.36c-.5-2.08-.47-3.45.09-4.29a.26.26,0,0,0,0-.27m2.47.43a.24.24,0,0,0-.17-.06.34.34,0,0,0-.33.26,8.28,8.28,0,0,0,0,4.32,1.71,1.71,0,0,0,1.71,1.3,1.43,1.43,0,0,0,1.44-1.38,16.71,16.71,0,0,1-.2-4.71.34.34,0,0,0-.1-.26.36.36,0,0,0-.28-.12.24.24,0,0,0-.24.2,11.83,11.83,0,0,0-.2,3.74c0,.08,0,.18,0,.3a1.21,1.21,0,0,1-.1,1,.62.62,0,0,1-.47.24,1,1,0,0,1-.75-.5A7.08,7.08,0,0,1,44,52a.31.31,0,0,0-.09-.24M45,51.4l-.1,0c-.08,0-.17.06-.22.21a12.36,12.36,0,0,0-.16,3.75.3.3,0,0,0,.29.23.33.33,0,0,0,.29-.33,16.2,16.2,0,0,1-.06-3.7Zm3.54-1.15a1.2,1.2,0,0,0-.06.74,7.75,7.75,0,0,1,.51,3.3.76.76,0,0,1-.69.64.64.64,0,0,1-.6-.45,11.26,11.26,0,0,1-.31-3.14.31.31,0,0,0-.32-.27.27.27,0,0,0-.2.09.31.31,0,0,0-.08.24,8.86,8.86,0,0,0,.69,4.26,1,1,0,0,0,.74.37c.53,0,1.07-.5,1.46-1.32.31-1.12,0-2.52-.93-4.39l-.14-.08Zm-.22,3.54c.07,0,.11-.16.11-.25-.16-.89-.28-1.72-.36-2.59-.05-.2-.13-.26-.17-.25s-.11.06-.11.18a11.22,11.22,0,0,0,.38,2.84Zm2.1-5s0,0-.06.19a2.31,2.31,0,0,0,.24,1l0,0A2.4,2.4,0,0,1,50.83,51c0,.29-.25.33-.33.33a.53.53,0,0,1-.19,0c-.31,0-.5-.61-.54-.87s.15-.27.2-.2.16.21.21.18-.14-.79-.14-.79a.33.33,0,0,0-.28-.09.64.64,0,0,0-.34.15c-.17.07-.26.17-.17.46a4.82,4.82,0,0,0,1,2.24.42.42,0,0,0,.22.08.56.56,0,0,0,.39-.24,3,3,0,0,0-.41-3.38.27.27,0,0,0-.12-.08m1.35-.54-.14,0a.17.17,0,0,0-.16.07s0,.08,0,.15a1.93,1.93,0,0,0,.33.44c.3.34.67.76.23,1.21-.13.08-.13.12,0,.28a.4.4,0,0,0,.34.22.7.7,0,0,0,.35-.12l.58-.74.06-.17a.14.14,0,0,0-.11,0c-.36,0-.61-.36-.85-.67a1.61,1.61,0,0,0-.65-.6m1.72-.09a.41.41,0,0,1-.26-.09l-.71-.54-.14,0a.2.2,0,0,0-.19.14.23.23,0,0,0,0,.23,6,6,0,0,0,1.06,1.07.59.59,0,0,0,.36.16A.56.56,0,0,0,53.9,49a4.19,4.19,0,0,1,.57-.62,2.48,2.48,0,0,0,.76-1,.56.56,0,0,0,0-.27A.43.43,0,0,0,55,47a2.47,2.47,0,0,1-1.46-.78l-.13-.05a.28.28,0,0,0-.24.16.22.22,0,0,0,0,.23l.71.74a.52.52,0,0,1,0,.54.55.55,0,0,1-.44.29M55,45.35a.71.71,0,0,1-.49-.25c0-.07-.09-.1-.13-.1s-.06,0-.15.09c-.35.32-.28.53-.17.67a1.79,1.79,0,0,0,1.13.68.84.84,0,0,0,.66-.46,5.12,5.12,0,0,0,.45-1.73.34.34,0,0,0-.05-.28,1,1,0,0,0-.25-.11h0l-.13-.05a7.8,7.8,0,0,1-1.35-.86l0,.07c-.06.28,0,.45.11.57l.67.55a.87.87,0,0,1,.17.91.48.48,0,0,1-.41.31M68.32,78a.8.8,0,0,0,0-.67c0-.15-.13-.19-.46-.23s-.94-.12-1-.92v-.28l-.14,0a1.28,1.28,0,0,0-.84.8,3.74,3.74,0,0,1-.25.44,1.17,1.17,0,0,1-.7.33c-.28,0-.52-.17-.73-.55a1,1,0,0,0-.06-.2A1,1,0,0,0,64,77a1.09,1.09,0,0,0-.16.82,2.21,2.21,0,0,1-.3,1.42c-.6,1.06-1.31,1.6-2.09,1.61a1.65,1.65,0,0,1-.57-.07l-.12,0a.3.3,0,0,0-.27.26c0,.14,0,.26.05.28a3,3,0,0,0,1.07.2,2.62,2.62,0,0,0,2-1.14c.87-1.23,1.95-2.76,3.18-2.79a1.67,1.67,0,0,1,.77.2l0,0a.64.64,0,0,0,.49.34.27.27,0,0,0,.23-.13m2.93,3.73a.77.77,0,0,1-.73-.27.84.84,0,0,1,.06-.82l0-.1h-.29c-.65.1-.78.32-.81.68a.52.52,0,0,1-.36.64A10.57,10.57,0,0,1,64.73,83a11.83,11.83,0,0,1-3.42-.56c-.65-.18-1.2-.33-1.79-.44-.39,0-.66.14-.7.3a.24.24,0,0,0,.11.25l1.32.45c.18,0,.72.16.77.69s.44.91.83.91l.15,0,.08,0h0v0A.79.79,0,0,1,62,84a.31.31,0,0,1,.29-.23,1.19,1.19,0,0,1,.28,0A11.16,11.16,0,0,0,64.9,84a9.94,9.94,0,0,0,1.48-.13h.18a.41.41,0,0,1,.36.14,2.12,2.12,0,0,0,1.24.52.86.86,0,0,0,.58-.22h0a.81.81,0,0,1-.55-.57c-.06-.31,0-.38.3-.46a3.41,3.41,0,0,0,1.4-.68.66.66,0,0,1,.52-.2h0c.9,0,1.09-.28,1.15-.46v-.21h-.12l-.26,0m.21-3.22a1,1,0,0,0-.06-.94.85.85,0,0,0-.75-.37,1.47,1.47,0,0,0-.89.36c-.51.45-.76.83-.76,1.15a.65.65,0,0,0,.27.49,1.5,1.5,0,0,0,.65.12,2,2,0,0,0,1.54-.81m-.93-1.81a1.71,1.71,0,0,1,1.49.91,1.44,1.44,0,0,1,0,1.55,3.39,3.39,0,0,1-2.1,1h0a2.33,2.33,0,0,1-1.21-.35c-.64-.85-.36-1.68.92-2.75a1.5,1.5,0,0,1,.94-.35m3.86,1.35c0-.27-.15-.29-.25-.29H74a4.69,4.69,0,0,0-.81.24.25.25,0,0,0-.2.25.3.3,0,0,0,.15.32,4,4,0,0,0,1,.26h.11c.07,0,.12,0,.14,0a.25.25,0,0,0,0-.2,1.52,1.52,0,0,1,0-.56m-.47-1.29a6.18,6.18,0,0,1-.49-.61c-.09-.1-.14-.15-.18-.14s-.11,0-.21.14a1.75,1.75,0,0,0-.58.69.55.55,0,0,0,0,.44.49.49,0,0,0,.39.17,2,2,0,0,0,1-.44c.1-.11.11-.16,0-.25m-1.74-1.61a.44.44,0,0,0-.27-.14s-.1,0-.19.17a1.73,1.73,0,0,0-.25.57.63.63,0,0,0,.06.47.39.39,0,0,0,.31.1l.21,0a1.4,1.4,0,0,0,.68-.5l0-.11s0-.12-.14-.19a2.49,2.49,0,0,1-.46-.35m3-.61c-.25,0-.47.16-.47.34a.83.83,0,0,1-.64.81c-.15.08-.09.31-.09.31.06.19.21.39.39.38l.14,0a1,1,0,0,1,.78-.4,3.43,3.43,0,0,1,.39,0,.4.4,0,0,0,.36-.28.79.79,0,0,0-.23-.84.85.85,0,0,0-.63-.32M41.64,81.12c0,.21-.14.39-.51.53l.1,0a1.72,1.72,0,0,0,.36,0,1.58,1.58,0,0,0,.87-.35,1.83,1.83,0,0,1,1-.39,2.22,2.22,0,0,1,.82.18c.32.13.48.28.52.46a.46.46,0,0,1-.15.41h.24c.5,0,.85-.29,1.09-.9a1.7,1.7,0,0,1,1.05-.71,1.28,1.28,0,0,0,.36-.82.26.26,0,0,0-.12-.29.47.47,0,0,0-.16.05,6.19,6.19,0,0,1-3,.79,15.73,15.73,0,0,1-6-1.53,1.17,1.17,0,0,1-.69-1.38l.78-2.38A1.9,1.9,0,0,1,40,73.79c1.23,0,3,.75,5.37,2.35l.11.06,0,0a.59.59,0,0,0-.09-.57l-.87-.7a.92.92,0,0,1-.35-.77c-.08-.77-.4-1-.73-1.11l-.08,0a.55.55,0,0,0,0,.12l-.07.62A.34.34,0,0,1,43,74h-.2a2.71,2.71,0,0,1-2.16-1.24c-.3-.39-.5-.67-1-.66a.93.93,0,0,0-.23,0h0l.25.2a.57.57,0,0,1,.17.5c0,.18-.21.31-.52.4a1.33,1.33,0,0,0-.49.09.75.75,0,0,1-.34.09,1.14,1.14,0,0,1-.56-.19h0a1.38,1.38,0,0,0-.69-.22,1.51,1.51,0,0,0-.36.06h0l.06,0a1.13,1.13,0,0,1,.5,1.45l-.94,2.88a2,2,0,0,0,.55,2c.67.25,1,.5,1,.77s-.13.38-.46.55h0a1,1,0,0,0,.56.13,1.22,1.22,0,0,0,.8-.36,1.12,1.12,0,0,1,.71-.27,1.26,1.26,0,0,1,.47.08c1.06.28,1.55.56,1.58.88m-5.19-6a.2.2,0,0,0,.17-.11.25.25,0,0,0,0-.25,3.7,3.7,0,0,0-1.38-1.37l-.17,0a.2.2,0,0,0-.18.11.25.25,0,0,0,.07.27,5.58,5.58,0,0,1,1.36,1.35Zm-9.23,0c0,.68,0,1.32-.62,1.42h0l0,0a1.53,1.53,0,0,0,.76.22,1.1,1.1,0,0,0,.56-.16.46.46,0,0,1,.3-.14.34.34,0,0,1,.22.07l1.89.89c.25.12.38.24.39.4s-.09.28-.33.45a1.38,1.38,0,0,0,.55.11A1.31,1.31,0,0,0,31.8,78a.56.56,0,0,1,.38-.14h.19c.31,0,.64,0,1,0a9.39,9.39,0,0,0,2.29-.29.61.61,0,0,0,.26-.65.22.22,0,0,0-.22-.16l-.14,0a7.63,7.63,0,0,1-2.1.35,8.57,8.57,0,0,1-4.84-1.59c-.36-.13-.49-.53-.37-1.2a7,7,0,0,1,1.17-2.35.51.51,0,0,1,.45-.27h0a3.32,3.32,0,0,0,.53,0c.59,0,.66-.25.66-.45s0-.08,0-.08H31l-.19,0a1.66,1.66,0,0,1-1.11-.54,1.09,1.09,0,0,0-.66-.37h-.11a.76.76,0,0,1,.21.5.81.81,0,0,1-.29.56,5.41,5.41,0,0,0-1.59,3.57m4.93-1.57a1,1,0,0,0,.6.26c.39,0,.66-.36.85-1.06a1.31,1.31,0,0,0-.1-1.15.82.82,0,0,0-.65-.31.85.85,0,0,0-.63.32,2.17,2.17,0,0,0-.08,1.91v0M34.41,73c-.35,1-.86,1.57-1.53,1.58a1.81,1.81,0,0,1-.57-.09,2.5,2.5,0,0,1-.77-1.77A2,2,0,0,1,32,71.12a1.22,1.22,0,0,1,.9-.36,1.59,1.59,0,0,1,1.24.55A1.9,1.9,0,0,1,34.41,73m.58-2a1.49,1.49,0,0,0,.77-.39.33.33,0,0,0-.12-.46l-.45-.33-.14,0c-.09,0-.18.08-.28.22a1.14,1.14,0,0,0-.22.69c.06.22.17.32.36.32Zm-.8-1.69-.57-.2h-.14l-.12,0a.43.43,0,0,0,0,.26l0,.75c.09.15.18.22.29.22a.84.84,0,0,0,.35-.13,3.75,3.75,0,0,0,.35-.44.42.42,0,0,0,.08-.33c0-.06-.11-.11-.24-.15m-1.63-.14a4.54,4.54,0,0,1-.59.06c-.1,0-.16,0-.18.06s-.05.13,0,.43.39.72.65.72c.09,0,.2-.09.29-.25a.65.65,0,0,0,.07-.34l0-.37c0-.21,0-.29-.14-.34ZM24.64,74a.54.54,0,0,1,.22,0,4,4,0,0,0,1.29.23,1.53,1.53,0,0,0,.45-.06.27.27,0,0,0,.18-.27c0-.14-.17-.16-.26-.17a7.21,7.21,0,0,1-5.28-3.49,1.34,1.34,0,0,1,.07-1.45,4.51,4.51,0,0,1,1.85-1.52,1.56,1.56,0,0,1,.7-.2,1.11,1.11,0,0,1,.78.3,9.23,9.23,0,0,1,2.62,4.15c0,.29.15.42.27.41s.23-.1.28-.34l-.17-.81a.82.82,0,0,1,.06-.68c.54-.72.57-1.27.1-1.74h0c-.18.49-.37.72-.6.73s-.37-.15-.54-.46a7,7,0,0,0-1.78-1.87c-.29-.17-.42-.38-.35-.58-.13-.84-.41-.9-.79-1h-.08l0,0c.2.63-.08,1.08-.82,1.32A4.62,4.62,0,0,0,20.2,69c-.12.34-.33.42-.48.42a1,1,0,0,1-.6-.27h0v.12a1.08,1.08,0,0,0,.72,1.07.53.53,0,0,1,.55.41,3.27,3.27,0,0,0,.66.89c.19.16.26.3.22.44s-.25.25-.67.3l0,0a1.39,1.39,0,0,0,1.1.39l.19,0a.57.57,0,0,1,.41.16l.8.5c.22.11.32.24.31.38s-.13.33-.46.51h0l.05,0a1.21,1.21,0,0,0,.63.2.9.9,0,0,0,.67-.34.39.39,0,0,1,.33-.2M20.32,63.86a.79.79,0,0,0-.74.78,1.94,1.94,0,0,0,1.14,1.58h.15a.56.56,0,0,0,.48-.23c.16-.25.12-.69-.13-1.35s-.72-.8-.9-.79m-1.12.21a1.42,1.42,0,0,1,1.17-.8,1.84,1.84,0,0,1,1.43.92,2.2,2.2,0,0,1,.27,2.13,1,1,0,0,1-.86.55H21a2.66,2.66,0,0,1-1.71-1.37,1.72,1.72,0,0,1-.12-1.42m1.38-1.23a.61.61,0,0,0,.37-.25,2.18,2.18,0,0,0,.19-.71.28.28,0,0,0-.19-.34,1.27,1.27,0,0,0-.44-.08,1.32,1.32,0,0,0-.32,0c-.13,0-.17.19-.14.43.06.53.28.9.53.9m-1,.13a1.29,1.29,0,0,0,.06-1,.24.24,0,0,0-.05-.18.41.41,0,0,0-.28-.08.89.89,0,0,0-.74.38c-.05.1,0,.19.06.31.3.51.6.68.77.68a.21.21,0,0,0,.18-.09m-1.43-.42c-.22,0-.54.36-.61.62,0,.11,0,.16.05.2a1.32,1.32,0,0,0,.84.39.32.32,0,0,0,.32-.17c.08-.21-.09-.57-.47-1ZM18,60.7a.48.48,0,0,1,.41.48.33.33,0,0,0,.31.26.32.32,0,0,0,.29-.2.47.47,0,0,0-.09-.48.47.47,0,0,1,0-.53.74.74,0,0,0-.11-.6.58.58,0,0,0-.44-.17.91.91,0,0,0-.86.53c-.08.3.23.55.48.71m17.17,20a.71.71,0,0,0-.51-1.21.57.57,0,0,0-.4.16.79.79,0,0,0-.14.84.67.67,0,0,0,.62.36.61.61,0,0,0,.43-.15m.75,0a1.24,1.24,0,0,1-2.14.33,1.44,1.44,0,0,1-.2-1.49,1.26,1.26,0,0,1,1.09-.63,1.18,1.18,0,0,1,1,.44,1.2,1.2,0,0,1,.29,1.35m-6.8,4.55a.73.73,0,0,0,.14-.8A.72.72,0,0,0,28.6,84a.6.6,0,0,0-.4.17.79.79,0,0,0-.14.85.71.71,0,0,0,.62.36.73.73,0,0,0,.41-.16m-.49-1.79a1.22,1.22,0,0,1,.95.45,1.2,1.2,0,0,1,.27,1.34A1.3,1.3,0,0,1,28.7,86h0a1.3,1.3,0,0,1-1-.49A1.44,1.44,0,0,1,27.54,84a1.21,1.21,0,0,1,1.06-.63m33.5,7a.73.73,0,0,0,.15-.81.79.79,0,0,0-.72-.46.61.61,0,0,0-.42.16.77.77,0,0,0-.14.87.76.76,0,0,0,.68.4.67.67,0,0,0,.45-.16m-.59-1.9A1.43,1.43,0,0,1,62.6,89a1.3,1.3,0,0,1,.34,1.42,1.39,1.39,0,0,1-1.24.85,1.48,1.48,0,0,1-1.1-.53,1.5,1.5,0,0,1-.26-1.56,1.34,1.34,0,0,1,1.17-.67M38.69,84.26a8,8,0,0,1-2.63-2.38c-.09-.15-.19-.23-.29-.22a.19.19,0,0,0-.17.1.43.43,0,0,0,0,.4,5.1,5.1,0,0,0,3.11,2.49c.11,0,.19,0,.21-.1s-.05-.2-.19-.29m-.16,5A11.85,11.85,0,0,0,36,88.86a.21.21,0,0,0-.2.18.27.27,0,0,0,.21.27,10.25,10.25,0,0,1,2.56.93l.12,0s0,0,.06-.15l0-.56c0-.17-.06-.18-.23-.26M34,88a3,3,0,0,0-1.76.82c-.07.12-.1.21-.07.26a.28.28,0,0,0,.24.08,1.23,1.23,0,0,0,.51-.14,2,2,0,0,1,1.25-.53h.18c.36,0,.48.25.47.43a.39.39,0,0,1-.35.37.35.35,0,0,1-.22-.09.26.26,0,0,0-.24-.1l-.2,0a3.47,3.47,0,0,0-.84.37l-.08.05-.2.11-.1.07s0,0,.1.11a4.07,4.07,0,0,0,1.32.23,1.25,1.25,0,0,0,1.13-.53,1,1,0,0,0,0-1A1.23,1.23,0,0,0,34,88M24.36,78c-.08,0-.23.08-.23.16s.29.37.78.47a2.44,2.44,0,0,1,1.67.53c.29.27.24.48.22.56a.42.42,0,0,1-.38.25.37.37,0,0,1-.37-.27c0-.16-.1-.27-.38-.38a4.09,4.09,0,0,0-1-.27L24.27,79h-.16a.38.38,0,0,0,0,.14c1,1.32,1.81,1.5,2.19,1.5a.89.89,0,0,0,.8-.47,1.12,1.12,0,0,0-.06-1.13c-.41-.69-1.38-1-2.72-1m42,7.42a5,5,0,0,0-2-.45,1.93,1.93,0,0,0-1.29.44,1.14,1.14,0,0,0-.39.88c0,.55.44,1.13,1.39,1.11a4.3,4.3,0,0,0,2.07-.71c.11-.11.12-.16.12-.16s-.05-.06-.19-.08a3,3,0,0,1-.41-.09,4.25,4.25,0,0,0-1.2-.14.5.5,0,0,0-.51.24.36.36,0,0,1-.28.15.48.48,0,0,1-.46-.37c0-.08,0-.36.4-.53a2.41,2.41,0,0,1,.66-.12,3.32,3.32,0,0,1,1.22.25,2.39,2.39,0,0,0,.44,0c.38,0,.55-.12.57-.19s0-.18-.17-.27m-7,1.25a4.93,4.93,0,0,0,2.44-.53c.1-.06.22-.16.18-.28a.37.37,0,0,0-.38-.22.57.57,0,0,0-.24.06,10.3,10.3,0,0,1-2.5.35A12.4,12.4,0,0,1,57.22,86c-.23,0-.36.14-.37.26s.12.3.51.35a19.36,19.36,0,0,0,2,.09m.12,1.92a.3.3,0,0,1-.12-.3c0-.13.17-.23.44-.3l2.24-.68a.2.2,0,0,0,.13-.22c0-.09-.09-.29-.47-.27h0c-2.12.35-3.25.81-3.37,1.35-.06.32.25.71.89,1.12a.75.75,0,0,0,.29.06.37.37,0,0,0,.34-.16c0-.09,0-.2-.1-.28Zm-.23,1.29-2,.5a.32.32,0,0,0-.12.36.38.38,0,0,0,.38.32h.11l1.93-.47a.28.28,0,0,0,.12-.35.42.42,0,0,0-.37-.35m-22.78-3c-.36-1.08-2.57-2-5.64-2.41-.19,0-.32.1-.34.22s.07.27.3.34a12.74,12.74,0,0,1,4.66,1.66c.25.2.35.35.36.5s-.1.23-.2.33a.43.43,0,0,0-.19.34c0,.3.11.34.31.34a1.17,1.17,0,0,0,.29,0,1.21,1.21,0,0,0,.45-1.28m-5.43-3.41c.09-.45-.46-1.51-3.1-2.74l-.14,0a.14.14,0,0,0-.14.07.27.27,0,0,0,.11.29l.49.34.26.17a7.9,7.9,0,0,1,1.52,1.2.38.38,0,0,1,.18.32.28.28,0,0,1-.14.24c-.08.15,0,.2,0,.21a1,1,0,0,0,.58.18.36.36,0,0,0,.39-.26M31.51,82c.41.17.77.34,1.09.5A4.76,4.76,0,0,0,34,83h.17c.4,0,.67-.16.73-.4A.54.54,0,0,0,34.6,82a.59.59,0,0,0-.21-.08l0,.07a.46.46,0,0,1-.43.3,1.56,1.56,0,0,1-.36-.06,39.32,39.32,0,0,1-5.1-2.54.56.56,0,0,0-.26-.08c-.1,0-.16,0-.18.11l.06.21a23.79,23.79,0,0,0,3.44,2M47.14,99.59a.69.69,0,0,0,.58-.48,8.61,8.61,0,0,0,0-2.38.56.56,0,0,0-.57-.42.54.54,0,0,0-.49.46,4.68,4.68,0,0,0,0,2.49.49.49,0,0,0,.53.33m2.43-.1a.74.74,0,0,0,.47-.22.59.59,0,0,0,.13-.44V96.9c0-.5-.35-.75-.66-.72a.52.52,0,0,0-.37.19.92.92,0,0,0-.19.7l0,2c0,.29.31.41.59.39m-7.36,1.6a.54.54,0,0,0,.42-.19.59.59,0,0,0,0-.54.61.61,0,0,0-.54-.19.79.79,0,0,0-.25,0,.4.4,0,0,0-.3.4.47.47,0,0,0,.37.46,1.63,1.63,0,0,0,.31,0m11.91.16a.66.66,0,0,0,.32-.1.67.67,0,0,0,.36-.59c0-.17-.15-.3-.37-.36h-.19a.71.71,0,0,0-.56.48.44.44,0,0,0,0,.41.43.43,0,0,0,.4.16m-10.67-1.09a.63.63,0,0,0,.46-.28,3.47,3.47,0,0,1,1.64-.68.56.56,0,0,0,.34-.63.33.33,0,0,0-.36-.31h0a5,5,0,0,0-2.77,1.28.2.2,0,0,0,0,.23l.52.37a.62.62,0,0,0,.23,0m9.67.08.57-.4.09-.11-.08-.15a4.9,4.9,0,0,0-2.91-1.28s-.09.18,0,.65c0,.21.11.25.2.25a4.15,4.15,0,0,1,1.86,1c.08.07.11.11.16.1Zm-1.93,4.24a.49.49,0,0,0,.31-.16l.35-.46a.28.28,0,0,0,.08-.21c0-.09-.12-.17-.22-.24a4.32,4.32,0,0,0-1.23-.63,6.69,6.69,0,0,1-1.21-.57l-.18,0a.78.78,0,0,0-.64.56.47.47,0,0,0,.19.53,20.39,20.39,0,0,1,2.19,1.07.49.49,0,0,0,.36.13m-8.69-.68a2.06,2.06,0,0,0,1.34-.8,4.8,4.8,0,0,1,1.88-1.65,7.65,7.65,0,0,0,1.23-.84c.08-.07.12-.14.11-.19s-.05-.11-.14-.16l-.58-.35a.22.22,0,0,0-.18-.06.87.87,0,0,0-.36.17c-.37.28-.75.54-1.14.79-1.19.78-2.31,1.52-2.39,2.72,0,.16,0,.28.07.33l.13,0Zm3.25.55c.08,0,.19,0,.28-.29a4.51,4.51,0,0,1,1.66-1.52,7.59,7.59,0,0,0,2-1.7c.08-.14.32-.53.26-.64s-.27-.07-.45,0l-.41,0h-.14a.85.85,0,0,0-.59.38,10.43,10.43,0,0,1-1.63,1.28A9.55,9.55,0,0,0,45.19,103c-.34.35-.37.6-.16.85l.47.41a.5.5,0,0,0,.25,0M54,103.4a2.19,2.19,0,0,0,.51-.1.24.24,0,0,0,.14-.12.22.22,0,0,0,0-.18A5.37,5.37,0,0,0,52,101a6.39,6.39,0,0,1-1.14-.6.41.41,0,0,0-.27-.09c-.08,0-.15.06-.24.18s-.38.52-.34.72a.45.45,0,0,0,.27.3c.34.17.66.3,1,.43a7.92,7.92,0,0,1,.75.31,3.35,3.35,0,0,1,.94.67,1.46,1.46,0,0,0,.72.44,1.21,1.21,0,0,0,.38,0M38,98.82c-.64.05-1.3.72-1.81,1.3a.48.48,0,0,1-.3.15H35.7c-.05-.06,0-.2,0-.4l.3-.69a.35.35,0,0,0,0-.37.34.34,0,0,0-.31-.2,1.34,1.34,0,0,0-.57-.06,5,5,0,0,0-2.13.91.68.68,0,0,1-.22,0c-.14,0-.19-.06-.2-.1s0-.25.19-.38l.56-.59a.31.31,0,0,0,.07-.23s-.12-.08-.19-.1a10.13,10.13,0,0,0-3.52-.17c-.36,0-.57-.06-.57-.2s.14-.2.36-.22l1.55-.18c.13,0,.21,0,.23-.08s0-.14,0-.21l-.13-.34c-.05-.12-.05-.2.09-.32a.65.65,0,0,1,.33.11,4.17,4.17,0,0,0,2.81,1.06c.11,0,.18,0,.2-.09s0-.1-.11-.27l-.39-.56a.43.43,0,0,1-.09-.37l.11-.1h0c.11,0,.23.08.34.24A3.19,3.19,0,0,0,37.34,98h0c.11,0,.26-.06.31-.15a.35.35,0,0,0,0-.3l-.37-.74c-.09-.19-.11-.35,0-.44l.07-.08h0c.09,0,.2.07.3.22l.75,1.24a1.22,1.22,0,0,0,1.23.56,1.9,1.9,0,0,0,.25,0,1.41,1.41,0,0,0,.73-.4.25.25,0,0,1,.18-.1c.13,0,.25.12.29.31a.6.6,0,0,1-.33.67c-.48.11-.72.27-.73.52-.19.61-.57.95-.85,1a.2.2,0,0,1-.21-.09c-.05-.08-.07-.21.06-.45s.18-.45.11-.58-.45-.32-1-.33Zm-.19,3.08a3.85,3.85,0,0,0,2.3-1.66c.36-.44.65-.78.91-.81a1.28,1.28,0,0,1,.42-.13,1.14,1.14,0,0,0,.76-.3,6.31,6.31,0,0,1,2.41-1.24.79.79,0,0,1,.32,0h.27c.58,0,.9-.34.93-.59a.38.38,0,0,0-.31-.45,3.61,3.61,0,0,0-.93,0,6.52,6.52,0,0,0-2.13.57,1.38,1.38,0,0,1-.52.15,1,1,0,0,1-.82-.32c-.62-.57-1.07-.85-1.34-.83-.09,0-.22,0-.3.3s-.34.41-.52.43a.54.54,0,0,1-.46-.3l-.86-1.46c-.12-.41-.49-.58-1.1-.53a2.52,2.52,0,0,0-.37.05A.69.69,0,0,0,36,95a.6.6,0,0,0,0,.43l.3.67a.62.62,0,0,1,.11.52l-.12.09h0c-.13,0-.28-.08-.45-.26-.95-1.15-1.74-1.63-2.64-1.56a.38.38,0,0,0-.29.13.4.4,0,0,0,0,.37l.21.68a.33.33,0,0,1-.1.41c-.08,0-.17,0-.3-.12a2.84,2.84,0,0,0-1.89-.81,1.42,1.42,0,0,0-.64.23c-.12.08-.22.15-.24.25s0,.16.09.27a.34.34,0,0,1,.15.33.43.43,0,0,1-.3.27l-1.71.67c-.36.24-.53.42-.55.6a.51.51,0,0,0,.24.42,3.44,3.44,0,0,0,2,.17c.49,0,1-.1,1.66-.19.23,0,.37.06.4.17s0,.19-.07.32a2.58,2.58,0,0,1-.76.75l-.11.13c0,.07,0,.15.12.25a1.13,1.13,0,0,0,.93.36,1.61,1.61,0,0,0,.53-.14l1.7-.84a.67.67,0,0,1,.22-.07l.15,0,0,0c.05.07,0,.19,0,.38l-.71.89a.57.57,0,0,0-.13.46.6.6,0,0,0,.4.3,3.64,3.64,0,0,0,.66,0,3.49,3.49,0,0,0,2.34-1.25,1,1,0,0,1,.58-.33.28.28,0,0,1,.24.09.35.35,0,0,1,0,.34l-.55.92a.38.38,0,0,0,0,.33c.06.11.21.17.44.18M24,92.88a5.88,5.88,0,0,0-.87.15,6.35,6.35,0,0,1-.92.16,1.41,1.41,0,0,1-.64-.06c-.34-.1-.46-.19-.44-.3s.13-.15.38-.19a14.84,14.84,0,0,0,1.79-.46.25.25,0,0,0,.17-.14c0-.1,0-.25-.13-.44A1.32,1.32,0,0,0,22,90.79l-1.61-.23c-.22,0-.45-.17-.43-.32s0-.15.24-.16a1.6,1.6,0,0,1,.22,0L22,90s0-.06,0-.21c-.42-1.11-.91-1.72-1.44-1.82-.22,0-.32-.09-.32-.18s.13-.2.27-.26a.46.46,0,0,0,.17-.45.35.35,0,0,1,.17-.36c.11,0,.2.1.25.27.21.48.57,1.11.78,1,.59-1,.47.62.5,1a2.85,2.85,0,0,0,1.32,2,.74.74,0,0,0,.25.06s.19,0,.21-.35l.12-.78c0-.26.11-.37.23-.38h.1a.46.46,0,0,1,0,.4c-.08,1.58.16,2.5.73,2.81a.77.77,0,0,0,.39.07l.15,0c.25,0,.42.07.68.6,0,.11.1.2.06.28s-.12.09-.25.1l-1.33.08c-.26,0-.29-.25-.32-.46a1.07,1.07,0,0,0,0-.23c-.13-.2-.37-.28-.77-.24m5.31,2.75a.24.24,0,0,0,.22-.18.37.37,0,0,0-.13-.42,5.47,5.47,0,0,1-2.41-4c-.07-.26-.17-.34-.24-.34s-.15.1-.21.24c-.12.33-.32.47-.47.48a.28.28,0,0,1-.22-.08.5.5,0,0,1-.12-.37c.07-2.07-.1-3-.69-3.48a1,1,0,0,0-.58-.24c-.17,0-.3.16-.37.43l-.22,1c-.05.39-.25.45-.33.46a.3.3,0,0,1-.24-.1.36.36,0,0,1-.08-.3c.07-1.53.06-3.13-.57-3.5a.63.63,0,0,0-.37-.14s-.16,0-.22.26c-.11.52-.19.84-.4.85s-.3-.14-.55-.44c-.5-.69-.73-.78-.82-.77s-.18.21-.2.57V86c0,.51,0,.82-.15,1a.68.68,0,0,1-.49.19c-.16,0-.35,0-.62,0s-.48.13-.53.28a.37.37,0,0,0,.17.41l1.56.87c.22.13.34.23.3.35s-.13.14-.39.15l-1.56-.15a.49.49,0,0,0-.34.13.37.37,0,0,0,0,.32c.38.89,1.61,1.5,3.67,1.82.24.06.33.2.31.32s-.09.18-.31.2l-2,.26a.43.43,0,0,0-.27.11.37.37,0,0,0,0,.29,2.81,2.81,0,0,0,3,1.25,5,5,0,0,0,.69-.09l.24,0c.25,0,.37.1.38.41a.66.66,0,0,0,0,.48.3.3,0,0,0,.21.13,8.12,8.12,0,0,1,1.49-.29,4.61,4.61,0,0,1,3.5,1.1.54.54,0,0,0,.32.1M28.82,92a1,1,0,0,0,.89-.45.52.52,0,0,0-.13-.42A.58.58,0,0,0,29.1,91a1.23,1.23,0,0,0-.64.28.42.42,0,0,0-.11.43.44.44,0,0,0,.44.31Zm-3.94,5a.71.71,0,0,0,.47-.18.48.48,0,0,0,.11-.35c-.08-.52-.28-.77-.62-.74a1.26,1.26,0,0,0-.37.11.68.68,0,0,0-.25.58.64.64,0,0,0,.41.58,2.08,2.08,0,0,0,.25,0m5.34-2.08c.07-.12.05-.44-.21-1a.77.77,0,0,1,.31-.87.49.49,0,0,0,.12-.51.44.44,0,0,0-.48-.28,1.28,1.28,0,0,0-.29.08,3.25,3.25,0,0,1-.89.23H28.6a.44.44,0,0,0-.42.37.51.51,0,0,0,.32.59,1.47,1.47,0,0,1,.9.77c.31.49.61.69.75.68Zm-3.86,2.34a.78.78,0,0,0,.58-.45A1.36,1.36,0,0,1,28.19,96h.06a2.24,2.24,0,0,0,.31-.06s0-.12-.14-.25a1.2,1.2,0,0,0-.89-.21,1.34,1.34,0,0,1-1.06-.38A.75.75,0,0,0,26,95a.44.44,0,0,0-.35.23.7.7,0,0,0,.06.72,2.1,2.1,0,0,1,.2,1,.38.38,0,0,0,.42.31M14.52,82.64c.3-.07.67-.21.68-.52,0-.52-1-1.36-2.48-1.45-.26,0-.34-.15-.33-.26a.25.25,0,0,1,.24-.21l.16,0a2.73,2.73,0,0,0,.94.14c.29,0,.46-.15.48-.36.08-.61-1-1.69-2.35-1.82-.24,0-.31-.16-.3-.25a.23.23,0,0,1,.21-.17h.17a2.28,2.28,0,0,0,.7.08l.12,0c0-.1-.41-.54-.68-.8L12,76.9a.37.37,0,0,1-.07-.41.32.32,0,0,1,.26-.2.3.3,0,0,1,.24.11c.28.34.51.58.67.57s.24-.16.43-.5a.26.26,0,0,1,.21-.2l.12,0a.44.44,0,0,1,0,.35,1.83,1.83,0,0,0,0,1.78c.28.44.67,1,.93,1s.36-.46.57-1c.12-.33.27-.71.45-1.11a.36.36,0,0,1,.28-.25h.08c.07.08,0,.24,0,.38-.26.73-.52,1.5-.76,2.19a1.8,1.8,0,0,0,0,1.47.62.62,0,0,0,.59.24,1.65,1.65,0,0,0,.32-.07.41.41,0,0,1,.19-.06l.15,0,0,0c0,.09,0,.22-.12.36-.46.6-.56,1-.29,1.36a.33.33,0,0,1,.06.31l-.11.1h0a.29.29,0,0,1-.26-.12c-.25-.32-.79-.31-1.43-.28-.14,0-.25-.09-.24-.21s.07-.15.22-.17Zm4.68,4c.12,0,.19-.06.22-.15a.44.44,0,0,0-.18-.46c-2.08-1.2-2.54-3-1.39-5.41a1.39,1.39,0,0,0,.06-1.22.26.26,0,0,0-.23-.12.8.8,0,0,0-.48.36.65.65,0,0,1-.38.23.3.3,0,0,1-.24-.11.61.61,0,0,1,0-.54c.45-1.44.53-2.43.24-2.94a.87.87,0,0,0-.63-.44,1,1,0,0,0-.29,0c-.42,0-.68.47-.79,1.36-.11.35-.33.61-.53.63l-.16,0,0,0a.51.51,0,0,1,0-.43c.39-1.13.39-1.83,0-2.07a.58.58,0,0,0-.32-.11c-.21,0-.36.26-.46.71s-.26.44-.38.45-.46-.27-.53-.56-.3-.35-.46-.34a.5.5,0,0,0-.26.1,1.06,1.06,0,0,1-.69.37,1.36,1.36,0,0,1-.39,0,.55.55,0,0,0-.42.17.48.48,0,0,0,.06.42c.26.25.36.51.29.68a.28.28,0,0,1-.23.15.93.93,0,0,1-.41-.11.92.92,0,0,0-.28,0,.41.41,0,0,0-.35.2.63.63,0,0,0,0,.58,3.45,3.45,0,0,0,1.58,1c.37.15.4.25.38.32s-.18.13-.24.13H11a2.4,2.4,0,0,0-.38,0c-.17,0-.28,0-.33.13s-.05.19,0,.39c.11.81,1,1.33,2.92,1.66.27.07.43.22.41.37s0,.16-.31.18h-.68c-.14,0-.23,0-.25.09s0,.11.07.27A3.69,3.69,0,0,0,15,83.68a2.1,2.1,0,0,1,1.56,1.17,7.54,7.54,0,0,0,2.35,1.76.88.88,0,0,0,.27,0m-.45-1.31c.15,0,.32-.22.35-.63A1.06,1.06,0,0,1,20,83.45a.37.37,0,0,0,.2-.41.46.46,0,0,0-.44-.39,3.78,3.78,0,0,1-1.31-.3h-.21a.37.37,0,0,0-.32.19.72.72,0,0,0,.07.67c.29.25.45.85.55,1.9,0,.15.11.25.23.24M19.52,82c.31,0,.48-.14.54-.36a.74.74,0,0,0-.15-.58.62.62,0,0,0-.5-.13c-.11,0-.22,0-.33.06a.6.6,0,0,0-.39.56c0,.24.21.4.53.45a1.5,1.5,0,0,0,.3,0M14.4,86.47a.75.75,0,0,0,.45-.28.83.83,0,0,0,.05-.64.51.51,0,0,0-.54-.46.59.59,0,0,0-.45.28.87.87,0,0,0-.05.8.52.52,0,0,0,.54.3m1.17.76a.79.79,0,0,0,.58-.34.56.56,0,0,1,.46-.26,1.51,1.51,0,0,1,.8.21h.24c.14,0,.23-.07.25-.12s-.16-.41-.79-.74a1.41,1.41,0,0,1-.84-.82.51.51,0,0,0-.48-.28.6.6,0,0,0-.51.61,3.93,3.93,0,0,1-.19,1.25.35.35,0,0,0,0,.32.51.51,0,0,0,.44.17m-6.52-21h0c.08,0,.21,0,.63.42a.34.34,0,0,0,.24.11c.13,0,.2-.23.24-.41l.17-1.24a1.16,1.16,0,0,1,.19-.82,1.2,1.2,0,0,1,.87-.41c.13,0,.31,0,.36.11s0,.28-.19.45A2.5,2.5,0,0,0,10.8,66a.43.43,0,0,0,0,.3s.06,0,.12,0a.82.82,0,0,0,.22,0c.34,0,.48,0,.51.13s-.09.27-.83.72c-.34.22-.46.31-.44,1.07.05.57.15.73.48.7a1.23,1.23,0,0,0,.25,0,.92.92,0,0,1,.27-.1l.1,0,0,0c0,.08,0,.22-.66,1-.3.27-.34.41-.34.49s.11.16.3.22a.68.68,0,0,1,.34.72.32.32,0,0,1-.28.22.89.89,0,0,1-.67-.35l-.06-.52c.18-.44,0-.56-.39-.73a1.16,1.16,0,0,1-.45-.26s-.16-.16-.11-.3.23-.16.34-.17a.5.5,0,0,0,.32-.28c.17-.47-.32-1.35-.78-2.09C9,66.46,9,66.36,9,66.31Zm3.13,8.7a.19.19,0,0,0,.17-.13.67.67,0,0,0-.16-.65c-.65-1.7-.69-2.76-.15-3.23.19-.32.19-.56,0-.75a.35.35,0,0,1-.11-.34c0-.11.13-.19.31-.27s.49-.37.81-.86c.52-.52.61-1,.53-1.2a.41.41,0,0,0-.45-.24,1.68,1.68,0,0,0-.8.38.71.71,0,0,1-.28.11.27.27,0,0,1-.3-.24.4.4,0,0,1,.29-.41c1.47-.74,2.07-1.43,1.94-2.27,0-.28-.11-.41-.23-.41a.54.54,0,0,0-.25.13,2.41,2.41,0,0,1-.84.37c-.12,0-.17,0-.18-.08s0-.26.19-.55a2,2,0,0,0,.63-1.95c-.11-.35-.24-.38-.35-.37a.81.81,0,0,0-.33.14,1.61,1.61,0,0,1-.94.59.82.82,0,0,1-.53-.17.63.63,0,0,0-.34-.07c-.62.06-.83,1.22-.9,2.17,0,.14,0,.54-.25.55s-.29,0-.68-.65a.16.16,0,0,0-.16-.09c-.08,0-.27.1-.57.48a1.14,1.14,0,0,0-.16,1.35l.54,1a.64.64,0,0,1,0,.55.25.25,0,0,1-.2.12.47.47,0,0,1-.19,0,1.82,1.82,0,0,0-.78-.25.21.21,0,0,0-.19.1c-.07.1-.12.32,0,.86a1.73,1.73,0,0,0,1.36,1.17c.32.11.61.31.59,1,0,.24.08.59.83.9.5.19.89.64,1.2,2.25a1.37,1.37,0,0,0,.68,1l.19,0m2.28-3.74A.89.89,0,0,0,15,71a.65.65,0,0,0,0-.59c-.09-.16-.33-.25-.74-.26a.53.53,0,0,0-.49.39.43.43,0,0,0,.18.53,1,1,0,0,0,.53.13M8,73.13a.69.69,0,0,0,.52-.38.88.88,0,0,0,0-.77.44.44,0,0,0-.4-.13,1,1,0,0,0-.21,0,.73.73,0,0,0-.44.52.62.62,0,0,0,.15.63.84.84,0,0,0,.42.09m3,1.33a.46.46,0,0,0-.07-.45l-.69-.9L10,72.57a.53.53,0,0,0-.57-.5.5.5,0,0,0-.42.28,10.48,10.48,0,0,1-.64,1.23.48.48,0,0,0,0,.44.45.45,0,0,0,.41.16,2,2,0,0,0,.35-.09.56.56,0,0,1,.36-.19c.33,0,.67.21,1.1.58a.38.38,0,0,0,.18.06ZM13,74.07s.11,0,.25-.3c.21-.68.52-1,1-1.09s.52-.18.55-.4a.52.52,0,0,0-.43-.53,9.93,9.93,0,0,1-1.13-.57l-.16,0a.42.42,0,0,0-.33.26.57.57,0,0,0,0,.56,1.24,1.24,0,0,1,.08.94,2.1,2.1,0,0,0,0,.9c.11.25.19.27.22.26m54.6,19a.61.61,0,0,0,.44-.24.58.58,0,0,0,0-.49.65.65,0,0,1,.18-.79,1.17,1.17,0,0,0,0-1.11.93.93,0,0,0-.82-.32,1.11,1.11,0,0,0-.91.56.93.93,0,0,0,.2,1c.36.26.47.52.36.81a.52.52,0,0,0,.06.43.59.59,0,0,0,.48.17M78,83.9a.7.7,0,0,0,.57-.43.5.5,0,0,0-.18-.54.6.6,0,0,1-.22-.75c-.09-.67-.4-1-.88-1a1.31,1.31,0,0,0-1.07,1c-.08.39.16.71.64.9.43,0,.66.19.7.49a.39.39,0,0,0,.44.35m5.5-12a.65.65,0,0,0,.53-.51.46.46,0,0,0-.32-.55c-.28-.09-.33-.32-.38-.53l0-.12c-.21-.51-.51-.76-.87-.73a1.25,1.25,0,0,0-1,1.06c0,.27.06.72.8.85l.2,0a.53.53,0,0,1,.61.3.45.45,0,0,0,.43.26M70.15,97.06a1.29,1.29,0,0,0,1-1.23c0-.48-.37-.72-1-.7a1.19,1.19,0,0,1-.34.08.51.51,0,0,1-.52-.24.42.42,0,0,0-.38-.19.73.73,0,0,0-.56.58.44.44,0,0,0,.37.49.58.58,0,0,1,.49.6c.28.43.59.64.92.61m11.68-11a.74.74,0,0,0,.62-.42,1.25,1.25,0,0,0,0-1.16.67.67,0,0,0-.63-.32,1.35,1.35,0,0,0-.52.18.91.91,0,0,1-.56.34.53.53,0,0,1-.26-.06h-.19a.58.58,0,0,0-.52.61.44.44,0,0,0,.13.32.48.48,0,0,0,.37.11l.14,0,.18,0a.58.58,0,0,1,.54.29,1.42,1.42,0,0,0,.75.18m5.9-13.29a.7.7,0,0,0,.59-.38,1.28,1.28,0,0,0-.1-1.21.64.64,0,0,0-.6-.33,1.1,1.1,0,0,0-.67.35c-.18.31-.37.45-.58.47l-.18,0H86a.48.48,0,0,0-.34.18.74.74,0,0,0-.11.39.48.48,0,0,0,.56.47.53.53,0,0,0,.19,0,1.1,1.1,0,0,1,.35-.11.72.72,0,0,1,.53.17,1.36,1.36,0,0,0,.51.06M58.17,100.14a7.09,7.09,0,0,0,1.94-.6L61.48,99c1.84-.69,4.1-1.66,5.29-3a2.18,2.18,0,0,0,.22-.38s-.13,0-.21,0h-.22A13.75,13.75,0,0,0,61.48,98a8.48,8.48,0,0,1-3,1,5.61,5.61,0,0,1-.71,0c-.32,0-.52-.14-.51-.31s.52-.51,1.4-.63a1.13,1.13,0,0,0,.26,0A9.75,9.75,0,0,0,62,96.8c.61-.32,1.28-.67,2-1a3.94,3.94,0,0,1,1.51-.45l.27,0c.59-.06.7-.21.7-.25s-.11-.11-.37-.09-.58,0-.86,0c-2.54.21-4.9,1.25-7.63,2.46l-.56.24a2.18,2.18,0,0,1-1,.34,1.77,1.77,0,0,1-.81-.13A18.86,18.86,0,0,0,51,96.67a.48.48,0,0,0-.4.48.43.43,0,0,0,.34.51,8.27,8.27,0,0,1,3.66,1.06,10.48,10.48,0,0,0,2.68,1.33,2.41,2.41,0,0,0,.89.09m2.37,1.56.43,0A34,34,0,0,0,67.24,99c.22-.12.27-.21.27-.24s-.08-.08-.24-.09-.22,0-.32,0a7.12,7.12,0,0,0-2.44,1A13.74,13.74,0,0,1,61.29,101c-.2,0-.34,0-.35-.16s.13-.29.42-.4l4.8-2c.12-.07.19-.14.17-.21s-.2-.18-.61-.15a10.39,10.39,0,0,0-2.76,1,14.12,14.12,0,0,1-4.48,1.54,3.9,3.9,0,0,1-1.3-.09c.52.92,1.59,1.29,3.36,1.14m-4.15-4.06a1.13,1.13,0,0,0,.56-.18,35.85,35.85,0,0,1,4.64-2.09,11.19,11.19,0,0,1,1.74-.48c.35-.07.7-.15,1-.25a.34.34,0,0,0,.27-.39.27.27,0,0,0-.32-.26h0a5.9,5.9,0,0,0-.71.24,6.71,6.71,0,0,1-1.28.37,3.21,3.21,0,0,0-1.24.47,2.73,2.73,0,0,1-.88.39l-.91.24-.16,0c-.21,0-.27,0-.27-.13s.47-.49.95-.64l1.82-.53a3.77,3.77,0,0,1,2-.85,2.36,2.36,0,0,1,.46,0h.21s0-.08-.27-.26A1.74,1.74,0,0,0,63,93.1a4.3,4.3,0,0,0-1.82.68,3.4,3.4,0,0,1-1.07.34,1.66,1.66,0,0,0-.76.28,14.36,14.36,0,0,0-1.56,1.23,4.8,4.8,0,0,1-2.6,1.5h-.08c.14.37.77.55,1.28.51m11.46-3a.66.66,0,0,0,.5-.31c.47-.77,1.54-1.35,3.25-1.73a16.77,16.77,0,0,0,4.57-3.44c1.28-1.07,1.92-2.11,1.9-3.12a2.7,2.7,0,0,0,0-.66s0,0-.16.24a7.51,7.51,0,0,1-2.56,2.95,12.28,12.28,0,0,0-3.19,2.94c-.5.39-.66.44-.75.45l-.1,0,0,0c0-.08,0-.21.12-.45a15.23,15.23,0,0,1,3.84-3.62c1.43-1,2.23-2,2.42-2.83a.72.72,0,0,0,0-.28s-.08,0-.33.29c-.69.6-1.36,1.14-2,1.65A17.54,17.54,0,0,0,71.78,90,12.43,12.43,0,0,1,68.59,93c-.58.39-1,.68-1.09,1a.39.39,0,0,0-.14.44.47.47,0,0,0,.49.27m5.64-1.17a8.11,8.11,0,0,0,1.78-.3,14.43,14.43,0,0,0,3.13-2.81c.9-.88,1.29-1.58,1.16-2.12,0-.15-.07-.23-.12-.22s-.07,0-.16.15a16.22,16.22,0,0,1-4.47,4.5.74.74,0,0,1-.21.07.18.18,0,0,1-.21-.13c0-.15.09-.36.34-.53l.4-.3a11.08,11.08,0,0,0,3.59-3.73.3.3,0,0,0,0-.24l-.18,0a.67.67,0,0,0-.43.22,13.21,13.21,0,0,1-6.91,5.24c-.22.08-.27.19-.27.27s.1.13.34.12h0l1.11-.07c.38,0,.76,0,1.14-.07M69.6,91.63a3.24,3.24,0,0,0,1.34-1.33A9,9,0,0,1,73,87.81a2.94,2.94,0,0,0,1.23-1.59c.08-.33,0-.41,0-.43s-.13,0-.33.21a14.41,14.41,0,0,0-2.41,2.76,1.23,1.23,0,0,1-.58.39l-.14,0,0,0c0-.09,0-.24.1-.47l1.19-1.35a19.05,19.05,0,0,1,1.4-1.42c.7-.66,1.17-1.1,1.15-1.59,0-.28-.08-.31-.08-.31s0,0-.12.11a28,28,0,0,1-3.23,3.15,3.56,3.56,0,0,0-1.34,2.07,9.91,9.91,0,0,1-.38,2,.53.53,0,0,0,0,.33s.08,0,.15,0m9.24-6.56a.68.68,0,0,0,.39-.22,8.41,8.41,0,0,0,1.59-2.26,3.17,3.17,0,0,1,1-1.1,4.81,4.81,0,0,0,.95-1,16.25,16.25,0,0,0,2.31-7.06c0-.51-.09-.53-.11-.53s-.11,0-.33.39a21.76,21.76,0,0,0-1.25,3.25A15.55,15.55,0,0,1,81.42,81a.65.65,0,0,1-.34.2l-.1,0,0,0c0-.07,0-.22,0-.47.31-.88.74-1.8,1.19-2.76a33.38,33.38,0,0,0,1.57-3.81c.1-.35.05-.4.05-.4a.89.89,0,0,0-.33.26,21.38,21.38,0,0,0-2.84,5.67l-.32.83a7.62,7.62,0,0,1-1.68,4,.44.44,0,0,0,0,.47.24.24,0,0,0,.25.15m.55-3.31c.17,0,.27-.6.38-1.28a4.7,4.7,0,0,1,.72-2.1,21.1,21.1,0,0,0,1.89-4.17.51.51,0,0,0-.09-.39l-.14,0c-.06,0-.17,0-.31.21a8.1,8.1,0,0,0-1,2.21A15.45,15.45,0,0,1,79.63,79c-.07.11-.18.24-.3.25l-.11,0,0,0c-.1-.15,0-.52.21-1a3.06,3.06,0,0,1,.37-.64,4.18,4.18,0,0,0,.75-1.71A3.21,3.21,0,0,1,81.33,74c0-.13,0-.21-.08-.28a.68.68,0,0,0-.36.22C79.16,76,77.45,79,79.16,81.62c.12.12.19.15.23.14m2.29,1.06a2.78,2.78,0,0,0,.62-.21,6.92,6.92,0,0,1,.76-.28c.23-.08.46-.14.69-.24a4,4,0,0,0,1.07-.68,12.89,12.89,0,0,0,1.64-3.56,19.5,19.5,0,0,1,.72-1.93c.17-.42.13-.49.11-.49a1,1,0,0,0-.35.2,10.54,10.54,0,0,0-1.6,3.2,5.45,5.45,0,0,1-1.15,2.26.89.89,0,0,1-.31.12l-.11,0,0,0c0-.08,0-.23.19-.51a7.6,7.6,0,0,0,1.19-2.36,7.8,7.8,0,0,1,1.23-2.42c.28-.38.31-.48.3-.5a1.75,1.75,0,0,0-.47.19c-1,.59-1.54,1.48-1.88,3.22a9.68,9.68,0,0,1-2.62,3.62c-.16.29-.13.37-.13.39l.13,0m2.51-13.51c.06,0,.11-.07.16-.19a1.81,1.81,0,0,0-.1-1.37,4.28,4.28,0,0,1-.1-2c.18-1.3,0-1.73-.25-2a.46.46,0,0,0-.24-.08h0s0,.06,0,.24a1.78,1.78,0,0,1,0,.8,4.2,4.2,0,0,0,.19,2.54.3.3,0,0,1,0,.29l-.1.08h0c-.09,0-.23,0-.33-.26a5.57,5.57,0,0,1-.16-3.35,1.4,1.4,0,0,0-.27-1.52l-.13-.07c0,.07,0,.17-.09.31-.72,3.12-.34,5.15,1.22,6.35a.45.45,0,0,0,.28.16m.36,3.3a.44.44,0,0,0,.37-.46,2.35,2.35,0,0,1,.17-1.45A6.69,6.69,0,0,1,86,69a13,13,0,0,0,.89-1.52,10.73,10.73,0,0,0,.53-3.73c0-1.11-.25-1.39-.49-1.59s-.21-.14-.21-.14,0,0,0,.24a3.05,3.05,0,0,1-.24,2.18,6.36,6.36,0,0,0-.33,3.15c0,.37-.18.51-.33.52a.3.3,0,0,1-.24-.08.47.47,0,0,1-.12-.32,8,8,0,0,1,.35-3.17,3.31,3.31,0,0,0,.46-2.31c0-.23-.1-.34-.19-.34a.68.68,0,0,0-.3.19c-.74.8-1,2.56-1,5.58a8.6,8.6,0,0,1-.29,2.41,11.83,11.83,0,0,0-.32,2,.46.46,0,0,0,.09.38.34.34,0,0,0,.29.11m1.3-1.84a2,2,0,0,0,.71-.38l2.2-2.14a2.52,2.52,0,0,0,.53-1.79,2.72,2.72,0,0,1,.15-1.33,1.92,1.92,0,0,0-.49-1.9c-.18-.2-.24-.23-.25-.23a.56.56,0,0,0,0,.19,5.25,5.25,0,0,1,0,2.77,3.65,3.65,0,0,0-.41,1.83c0,.24-.13.36-.25.37l-.12,0,0,0a.42.42,0,0,1-.07-.35l.26-1.4.35-2.08c.15-.62-.08-.86-.33-1L88,63.21h0s-.06.1,0,.35c0,2.4-.2,3.73-.54,4.18L85.85,70.3c-.12.32-.1.42-.08.45l.08,0"/><rect class="cls-1" x="95.46" y="64.59" width="231.54" height="0.58"/><path class="cls-1" d="M108.53,44.2a6.22,6.22,0,0,1,1.91,5,5.94,5.94,0,0,1-2,4.93q-2,1.56-6,1.56h-2.42v5.07H96V42.58h6.42Q106.62,42.58,108.53,44.2Zm-3,7.15a3.45,3.45,0,0,0,.73-2.39,2.53,2.53,0,0,0-1-2.23,5.15,5.15,0,0,0-3-.67h-2.31v6.11h2.73A3.58,3.58,0,0,0,105.55,51.35Z"/><path class="cls-1" d="M128.89,58.24a9.9,9.9,0,0,1-13.57,0,9.52,9.52,0,0,1,0-13.39,9.9,9.9,0,0,1,13.57,0,9.5,9.5,0,0,1,0,13.39Zm-1.38-6.68A6,6,0,0,0,126,47.41a5.14,5.14,0,0,0-7.66,0,6,6,0,0,0-1.56,4.15,5.88,5.88,0,0,0,1.56,4.13,5.16,5.16,0,0,0,7.66,0A5.88,5.88,0,0,0,127.51,51.56Z"/><path class="cls-1" d="M149,45a8.48,8.48,0,0,1,2.6,6.61A8.93,8.93,0,0,1,149,58.28c-1.69,1.64-4.27,2.47-7.73,2.47h-6.21V42.58h6.42Q146.36,42.58,149,45Zm-3,10.8a5.36,5.36,0,0,0,1.49-4.08A5.47,5.47,0,0,0,146,47.56a6.41,6.41,0,0,0-4.59-1.45h-2.26v11h2.57A6,6,0,0,0,146,55.76Z"/><path class="cls-1" d="M168.16,42.58v3.61h-9v3.75h8.13v3.45h-8.13v3.77h9.33v3.59H155.06V42.58Z"/><path class="cls-1" d="M186.8,48.61c0,2.91-1.16,4.79-3.46,5.64l4.6,6.5h-5l-4-5.8h-2.81v5.8h-4.05V42.58H179q4.23,0,6,1.43A5.53,5.53,0,0,1,186.8,48.61Zm-4.89,2.16a2.76,2.76,0,0,0,.75-2.15,2.28,2.28,0,0,0-.78-2,4.93,4.93,0,0,0-2.73-.55h-3v5.38h3A4.36,4.36,0,0,0,181.91,50.77Z"/><path class="cls-1" d="M198.49,46.06V42.58H208V54.43a6.43,6.43,0,0,1-1.68,4.86A5.91,5.91,0,0,1,202,60.9a7.69,7.69,0,0,1-5.71-2.52l2.1-2.91a4.71,4.71,0,0,0,3.43,1.77,1.92,1.92,0,0,0,1.47-.67,2.81,2.81,0,0,0,.61-2V46.06Z"/><path class="cls-1" d="M217.07,56.06a3.33,3.33,0,0,0,2.73,1.26,3.29,3.29,0,0,0,2.72-1.26,5.45,5.45,0,0,0,1-3.45v-10h4V52.74a8.08,8.08,0,0,1-2.18,6.07,8.43,8.43,0,0,1-11.19,0,8.07,8.07,0,0,1-2.2-6.06V42.58h4.06v10A5.39,5.39,0,0,0,217.07,56.06Z"/><path class="cls-1" d="M245.66,45a8.51,8.51,0,0,1,2.6,6.61,8.93,8.93,0,0,1-2.53,6.71c-1.69,1.64-4.27,2.47-7.74,2.47h-6.21V42.58h6.42Q243.06,42.58,245.66,45Zm-3,10.8a5.36,5.36,0,0,0,1.49-4.08,5.47,5.47,0,0,0-1.49-4.12,6.41,6.41,0,0,0-4.59-1.45h-2.26v11h2.57A6.06,6.06,0,0,0,242.69,55.76Z"/><path class="cls-1" d="M251.77,42.58h4V60.75h-4Z"/><path class="cls-1" d="M268.64,57.16a6,6,0,0,0,4.88-2.37l2.6,2.68a9.8,9.8,0,0,1-14.2.83A9.59,9.59,0,0,1,262,44.87a9.32,9.32,0,0,1,6.77-2.71,9.62,9.62,0,0,1,7.49,3.41l-2.53,2.86A5.88,5.88,0,0,0,268.92,46,5.55,5.55,0,0,0,265,47.53a5.22,5.22,0,0,0-1.62,4,5.52,5.52,0,0,0,1.53,4.07A5.06,5.06,0,0,0,268.64,57.16Z"/><path class="cls-1" d="M279.32,42.58h4.05V60.75h-4.05Z"/><path class="cls-1" d="M300.79,60.75l-1.69-3.93h-7.62l-1.69,3.93h-4.31l7.85-18.17h3.92l7.85,18.17ZM295.3,48,293,53.26h4.55Z"/><path class="cls-1" d="M307.2,60.75V42.58h4.06V57.13H319v3.62Z"/><path class="cls-1" d="M104.2,69.91h3.89a5.56,5.56,0,0,1,2.52.56A4,4,0,0,1,112.32,72a4.74,4.74,0,0,1,0,4.65,4.1,4.1,0,0,1-1.71,1.56,5.56,5.56,0,0,1-2.52.55H104.2ZM108,77.4a3.79,3.79,0,0,0,1.72-.38A2.72,2.72,0,0,0,110.87,76a3.13,3.13,0,0,0,.4-1.61,3.09,3.09,0,0,0-.4-1.6,2.74,2.74,0,0,0-1.14-1.07,3.78,3.78,0,0,0-1.72-.37h-2.16V77.4Z"/><path class="cls-1" d="M124.06,77.41v1.38h-6.65V69.91h6.48V71.3h-4.84v2.3h4.29V75h-4.29v2.45Z"/><path class="cls-1" d="M128.63,69.91h1.65V77.4h4.64v1.39h-6.29Z"/><path class="cls-1" d="M151.83,77.41v1.38h-6.65V69.91h6.48V71.3h-4.83v2.3h4.28V75h-4.28v2.45Z"/><path class="cls-1" d="M157.17,78.63a4.25,4.25,0,0,1-1.52-.78l.57-1.28a4.72,4.72,0,0,0,1.34.71,4.92,4.92,0,0,0,1.59.27,2.78,2.78,0,0,0,1.48-.32,1,1,0,0,0,.49-.84.77.77,0,0,0-.28-.62,1.78,1.78,0,0,0-.69-.39c-.28-.09-.66-.2-1.14-.32a13.72,13.72,0,0,1-1.64-.48,2.7,2.7,0,0,1-1.08-.75,2.06,2.06,0,0,1-.45-1.39,2.42,2.42,0,0,1,.4-1.34,2.76,2.76,0,0,1,1.21-1,5,5,0,0,1,2-.35,6.68,6.68,0,0,1,1.6.2,4.62,4.62,0,0,1,1.35.58l-.52,1.29a4.76,4.76,0,0,0-1.21-.52,4.58,4.58,0,0,0-1.23-.18,2.58,2.58,0,0,0-1.46.33,1,1,0,0,0-.47.87.78.78,0,0,0,.27.62,1.9,1.9,0,0,0,.69.38c.28.1.66.2,1.14.32a11.35,11.35,0,0,1,1.63.48,2.7,2.7,0,0,1,1.08.75,2,2,0,0,1,.45,1.37,2.31,2.31,0,0,1-.4,1.33,2.68,2.68,0,0,1-1.21,1,4.87,4.87,0,0,1-2,.36A6.92,6.92,0,0,1,157.17,78.63Z"/><path class="cls-1" d="M168.78,71.31h-2.95v-1.4h7.54v1.4h-3v7.48h-1.64Z"/><path class="cls-1" d="M182.65,76.74h-4.44l-.87,2.05h-1.7l4-8.88h1.62l4,8.88h-1.72Zm-.55-1.3-1.67-3.88-1.66,3.88Z"/><path class="cls-1" d="M189.1,69.91H193a5.57,5.57,0,0,1,2.53.56A4,4,0,0,1,197.22,72a4.74,4.74,0,0,1,0,4.65,4.17,4.17,0,0,1-1.71,1.56,5.57,5.57,0,0,1-2.53.55H189.1Zm3.81,7.49a3.79,3.79,0,0,0,1.72-.38A2.72,2.72,0,0,0,195.77,76a3.23,3.23,0,0,0,.4-1.61,3.19,3.19,0,0,0-.4-1.6,2.74,2.74,0,0,0-1.14-1.07,3.78,3.78,0,0,0-1.72-.37h-2.16V77.4Z"/><path class="cls-1" d="M204,78.33a4.42,4.42,0,0,1-1.71-1.64,4.5,4.5,0,0,1-.62-2.34,4.55,4.55,0,0,1,.62-2.34A4.47,4.47,0,0,1,204,70.38a5.38,5.38,0,0,1,4.9,0A4.26,4.26,0,0,1,210.61,72a4.74,4.74,0,0,1,0,4.69,4.33,4.33,0,0,1-1.71,1.63,5.38,5.38,0,0,1-4.9,0Zm4.05-1.26A2.85,2.85,0,0,0,209.17,76a3.42,3.42,0,0,0,0-3.21,2.94,2.94,0,0,0-1.12-1.12,3.4,3.4,0,0,0-3.2,0,2.91,2.91,0,0,0-1.11,1.12,3.35,3.35,0,0,0,0,3.21,2.82,2.82,0,0,0,1.11,1.11,3.4,3.4,0,0,0,3.2,0Z"/><path class="cls-1" d="M221.94,69.91h3.88a5.56,5.56,0,0,1,2.52.56A4,4,0,0,1,230.05,72a4.74,4.74,0,0,1,0,4.65,4.1,4.1,0,0,1-1.71,1.56,5.56,5.56,0,0,1-2.52.55h-3.88Zm3.8,7.49a3.79,3.79,0,0,0,1.72-.38A2.72,2.72,0,0,0,228.6,76a3.13,3.13,0,0,0,.4-1.61,3.09,3.09,0,0,0-.4-1.6,2.74,2.74,0,0,0-1.14-1.07,3.78,3.78,0,0,0-1.72-.37h-2.16V77.4Z"/><path class="cls-1" d="M241.79,77.41v1.38h-6.65V69.91h6.48V71.3h-4.84v2.3h4.29V75h-4.29v2.45Z"/><path class="cls-1" d="M258.25,70.3a2.83,2.83,0,0,1,1.31,1.09,3.3,3.3,0,0,1,0,3.36,2.85,2.85,0,0,1-1.31,1.1,5,5,0,0,1-2,.38h-2v2.56h-1.64V69.91h3.65A4.81,4.81,0,0,1,258.25,70.3Zm-.45,4.08a1.61,1.61,0,0,0,.56-1.31,1.59,1.59,0,0,0-.56-1.3,2.51,2.51,0,0,0-1.64-.46h-1.93v3.53h1.93A2.56,2.56,0,0,0,257.8,74.38Z"/><path class="cls-1" d="M265.33,77.88a4,4,0,0,1-1-3v-5H266v5c0,1.74.75,2.61,2.26,2.61s2.24-.87,2.24-2.61v-5h1.63v5a4,4,0,0,1-1,3,4.45,4.45,0,0,1-5.72,0Z"/><path class="cls-1" d="M283.77,77.41v1.38h-6.66V69.91h6.48V71.3h-4.83v2.3h4.29V75h-4.29v2.45Z"/><path class="cls-1" d="M295.79,75a2.22,2.22,0,0,1,.43,1.4,2.06,2.06,0,0,1-.89,1.78,4.43,4.43,0,0,1-2.58.63h-4.42V69.91h4.16a4.06,4.06,0,0,1,2.42.62,2,2,0,0,1,.85,1.69,2.26,2.26,0,0,1-.3,1.17,2.07,2.07,0,0,1-.84.79A2.33,2.33,0,0,1,295.79,75ZM290,71.21v2.45h2.34a2.34,2.34,0,0,0,1.32-.32,1,1,0,0,0,.46-.9,1,1,0,0,0-.46-.92,2.34,2.34,0,0,0-1.32-.31Zm4.58,5c0-.86-.64-1.28-1.92-1.28H290V77.5h2.66C293.92,77.5,294.56,77.07,294.56,76.22Z"/><path class="cls-1" d="M300.71,69.91h1.65V77.4H307v1.39h-6.29Z"/><path class="cls-1" d="M316.84,76.74H312.4l-.87,2.05h-1.7l4-8.88h1.63l4,8.88h-1.72Zm-.55-1.3-1.67-3.88L313,75.44Z"/></svg>