<svg id="Capa_1" data-name="Capa 1" xmlns="http://www.w3.org/2000/svg" viewBox="0 0 354.33 60.22"><defs><style>.cls-1{fill:#353535;}.cls-2{fill:#070508;}</style></defs><path class="cls-1" d="M26.28,33.12c-2.45,1.42-3.71,1.19-5.72-.95a2.52,2.52,0,0,0-1.27,2.5,4.16,4.16,0,0,1-2.73,4.26A4.42,4.42,0,0,1,11.45,38c-1.71-1.61-3.33-3.31-5-5s-3.27-3.25-4.89-4.9A4.67,4.67,0,0,1,.43,22.79,4.78,4.78,0,0,1,5.15,20a2.3,2.3,0,0,0,1.49-.6Q13,13.07,19.33,6.66a2.5,2.5,0,0,0,.6-1.61A4.68,4.68,0,0,1,22.63.49a4.49,4.49,0,0,1,5.3.92q5.06,5,10,10.05a4.4,4.4,0,0,1,.9,5.11,4.15,4.15,0,0,1-4.24,2.76,2.52,2.52,0,0,0-2.51,1.25c2.13,2.08,2.36,3.36.88,5.84a8.43,8.43,0,0,1,.8.56q11.85,10.35,23.68,20.7a7.05,7.05,0,1,1-10,9.85Q40.9,50,34.33,42.38C31.67,39.31,29,36.25,26.28,33.12Zm-5-24.81-13,13L18,31.09l13-13ZM45.67,40.48,31.44,28.05l-3.51,3.37L40.39,45.76Zm-.41,10.9c1.5,1.71,2.93,3.48,4.5,5.11a4.58,4.58,0,0,0,6.46.09,4.47,4.47,0,0,0,.43-6.34C55,48.47,53,46.93,51.27,45.35ZM36.89,14.25a7,7,0,0,0-1-1.5c-3.09-3.15-6.21-6.26-9.34-9.37C25.36,2.16,24,2.06,23,3.07s-.9,2.42.29,3.62l5.54,5.55,4.05,4.06a2.28,2.28,0,0,0,2.69.51C36.45,16.42,36.91,15.67,36.89,14.25ZM17.34,34.76A12.63,12.63,0,0,0,16,32.67c-3.05-3.13-6.15-6.21-9.25-9.3C5.48,22.12,4,22,3,23.05s-.87,2.38.35,3.61c2.09,2.11,4.19,4.2,6.29,6.3,1.13,1.13,2.24,2.28,3.4,3.39a2,2,0,0,0,2.58.36A9.86,9.86,0,0,0,17.34,34.76Zm6.41-3a7.69,7.69,0,0,0,1.07-.69C26.9,29.05,29,27,31,24.9c.57-.57.82-1.22.2-1.85s-1.27-.4-1.84.17l-3.23,3.23c-1.05,1.05-2.14,2.07-3.11,3.19A1.71,1.71,0,0,0,22.82,31C22.9,31.31,23.4,31.52,23.75,31.8ZM43.5,49.34l5.73-5.74L47.5,42.12c-.94,1-1.81,2-2.7,2.87S43,46.8,42.1,47.72Z"/><path class="cls-1" d="M3,52.68a14.4,14.4,0,0,1-.61-2,4.07,4.07,0,0,1,4-4.62c6.68,0,13.36,0,20,0a4.07,4.07,0,0,1,3.72,5.73c-.1.24-.23.48-.37.78a6.32,6.32,0,0,1,3.08,6.06c0,1-.46,1.52-1.49,1.52H1.51c-1,0-1.45-.5-1.5-1.51A6.27,6.27,0,0,1,3,52.68Zm27.45,5.14A3.44,3.44,0,0,0,27,54.34c-1.4,0-2.81,0-4.22,0H6.14c-2.24,0-3.75,1.47-3.63,3.49Zm-14-9.37H7c-1.43,0-2.27.69-2.23,1.81S5.57,52,7,52h19c1.43,0,2.27-.7,2.23-1.81s-.84-1.7-2.23-1.7Z"/><path class="cls-1" d="M16.23,19.26c-.26-.2-.73-.38-.88-.7a1.36,1.36,0,0,1,.07-1.19c1.7-1.79,3.43-3.55,5.23-5.22a1.51,1.51,0,0,1,1.43.11,1.36,1.36,0,0,1,.19,1.32c-1.72,1.86-3.54,3.64-5.34,5.43C16.81,19.13,16.57,19.14,16.23,19.26Z"/><path class="cls-1" d="M12.73,22.69c-.29-.47-.83-1-.8-1.4s.66-.95,1.1-1a.92.92,0,0,1,1.08,1.16c-.1.46-.57.85-.88,1.27Z"/><path class="cls-2" d="M92.12,24.82a12.77,12.77,0,0,1-.92,4.88,11.37,11.37,0,0,1-2.56,3.87,11.58,11.58,0,0,1-4,2.55,14.24,14.24,0,0,1-5.17.91H70V12.63h9.46a14,14,0,0,1,5.17.92,11.58,11.58,0,0,1,4,2.55A11.14,11.14,0,0,1,91.2,20,12.71,12.71,0,0,1,92.12,24.82Zm-5.79,0a10.46,10.46,0,0,0-.47-3.27,7.07,7.07,0,0,0-1.34-2.47,5.88,5.88,0,0,0-2.15-1.55A7.16,7.16,0,0,0,79.48,17H75.7V32.67h3.78a7.34,7.34,0,0,0,2.89-.54,5.79,5.79,0,0,0,2.15-1.56,7,7,0,0,0,1.34-2.47A10.43,10.43,0,0,0,86.33,24.82Z"/><path class="cls-2" d="M102.24,19.39a8.92,8.92,0,0,1,3.16.54,6.85,6.85,0,0,1,2.45,1.56,7.09,7.09,0,0,1,1.61,2.5,9.32,9.32,0,0,1,.57,3.36,6.23,6.23,0,0,1,0,.95,1.47,1.47,0,0,1-.18.59.7.7,0,0,1-.36.3,1.59,1.59,0,0,1-.58.08h-10a4.91,4.91,0,0,0,1.32,3.16,3.93,3.93,0,0,0,2.76,1,4.75,4.75,0,0,0,1.55-.22,7,7,0,0,0,1.16-.48l.94-.49a2,2,0,0,1,.89-.22,1.08,1.08,0,0,1,.94.46l1.5,1.86a7.5,7.5,0,0,1-1.73,1.49,8.7,8.7,0,0,1-1.9.91,9.9,9.9,0,0,1-2,.45,15.33,15.33,0,0,1-1.86.13,9.61,9.61,0,0,1-3.42-.6,7.83,7.83,0,0,1-2.79-1.76A8.38,8.38,0,0,1,94.38,32,10.94,10.94,0,0,1,93.69,28a9.11,9.11,0,0,1,.59-3.3,8,8,0,0,1,4.4-4.59A8.8,8.8,0,0,1,102.24,19.39Zm.11,3.59a3.14,3.14,0,0,0-2.33.84,4.43,4.43,0,0,0-1.1,2.44h6.47a5,5,0,0,0-.16-1.21,3,3,0,0,0-.52-1,2.61,2.61,0,0,0-.94-.75A3.24,3.24,0,0,0,102.35,23Z"/><path class="cls-2" d="M113.78,37V23.23L112.64,23a2.33,2.33,0,0,1-.94-.42,1,1,0,0,1-.36-.84v-2h2.44v-1a7.46,7.46,0,0,1,.47-2.7A5.86,5.86,0,0,1,115.62,14a6.17,6.17,0,0,1,2.19-1.32,8.52,8.52,0,0,1,2.92-.47,7.3,7.3,0,0,1,1.18.08,8.48,8.48,0,0,1,1.13.24l-.1,2.53a.85.85,0,0,1-.14.44,1.22,1.22,0,0,1-.31.29,1.44,1.44,0,0,1-.41.15,1.73,1.73,0,0,1-.45,0,5.05,5.05,0,0,0-1.22.14,2,2,0,0,0-.89.48,2.13,2.13,0,0,0-.54.9,4.39,4.39,0,0,0-.19,1.42v.82h4.08v3.55H119V37Z"/><path class="cls-2" d="M132.53,19.39a8.83,8.83,0,0,1,3.15.54,6.89,6.89,0,0,1,2.46,1.56,7.07,7.07,0,0,1,1.6,2.5,9.11,9.11,0,0,1,.58,3.36,7.87,7.87,0,0,1,0,.95,1.47,1.47,0,0,1-.18.59.7.7,0,0,1-.36.3,1.62,1.62,0,0,1-.58.08h-10a4.81,4.81,0,0,0,1.32,3.16,3.92,3.92,0,0,0,2.75,1,4.81,4.81,0,0,0,1.56-.22,7.36,7.36,0,0,0,1.16-.48l.94-.49a2,2,0,0,1,.89-.22,1.1,1.1,0,0,1,.94.46l1.5,1.86a7.5,7.5,0,0,1-1.73,1.49,8.93,8.93,0,0,1-1.9.91,10.07,10.07,0,0,1-2,.45,15.33,15.33,0,0,1-1.86.13,9.61,9.61,0,0,1-3.42-.6,7.66,7.66,0,0,1-2.79-1.76A8.38,8.38,0,0,1,124.67,32,10.74,10.74,0,0,1,124,28a9.11,9.11,0,0,1,.6-3.3,8,8,0,0,1,1.7-2.73A8.19,8.19,0,0,1,129,20.08,8.88,8.88,0,0,1,132.53,19.39Zm.1,3.59a3.13,3.13,0,0,0-2.32.84,4.37,4.37,0,0,0-1.1,2.44h6.46a5,5,0,0,0-.15-1.21,3,3,0,0,0-.52-1,2.64,2.64,0,0,0-.95-.75A3.21,3.21,0,0,0,132.63,23Z"/><path class="cls-2" d="M143.3,37V19.66h3.2a1.49,1.49,0,0,1,.82.22,1.21,1.21,0,0,1,.46.65l.3,1a11.87,11.87,0,0,1,1-.87,5.8,5.8,0,0,1,1.15-.68,6.39,6.39,0,0,1,1.32-.44,7.43,7.43,0,0,1,1.54-.16,6.06,6.06,0,0,1,2.52.5,5.29,5.29,0,0,1,1.85,1.37,5.94,5.94,0,0,1,1.13,2.09A8.59,8.59,0,0,1,159,26V37h-5.18V26a3,3,0,0,0-.59-2,2.08,2.08,0,0,0-1.72-.71,3.64,3.64,0,0,0-1.6.36,6.17,6.17,0,0,0-1.44,1V37Z"/><path class="cls-2" d="M173.28,23.46a1.27,1.27,0,0,1-.42.46,1.13,1.13,0,0,1-.58.13,1.8,1.8,0,0,1-.74-.16l-.79-.34a7.52,7.52,0,0,0-1-.35,4.53,4.53,0,0,0-1.22-.15,2.57,2.57,0,0,0-1.51.37,1.2,1.2,0,0,0-.53,1,1,1,0,0,0,.34.8,3.15,3.15,0,0,0,.91.56,10.1,10.1,0,0,0,1.29.46c.48.15,1,.31,1.47.49a13.54,13.54,0,0,1,1.47.63,5.55,5.55,0,0,1,1.29.88,4,4,0,0,1,.91,1.29,4.28,4.28,0,0,1,.34,1.8,5.81,5.81,0,0,1-.47,2.38,5,5,0,0,1-1.39,1.88,6.67,6.67,0,0,1-2.29,1.22,10.31,10.31,0,0,1-3.14.44,9.65,9.65,0,0,1-1.77-.17,11.92,11.92,0,0,1-1.71-.45,9.7,9.7,0,0,1-1.53-.68,6.36,6.36,0,0,1-1.2-.85l1.2-1.91a1.72,1.72,0,0,1,.52-.52,1.41,1.41,0,0,1,.78-.2,1.68,1.68,0,0,1,.81.2l.78.44a7,7,0,0,0,1,.44,4.3,4.3,0,0,0,1.41.2,3.72,3.72,0,0,0,1-.13,1.83,1.83,0,0,0,.67-.34,1.41,1.41,0,0,0,.37-.49,1.33,1.33,0,0,0,.12-.55,1.1,1.1,0,0,0-.36-.85,2.91,2.91,0,0,0-.91-.58,10.32,10.32,0,0,0-1.3-.45c-.49-.14-1-.3-1.48-.48a12.8,12.8,0,0,1-1.48-.65,5.07,5.07,0,0,1-1.29-1,4.41,4.41,0,0,1-.92-1.42,5.08,5.08,0,0,1-.35-2,5.32,5.32,0,0,1,.42-2.1A4.86,4.86,0,0,1,163.32,21a6.06,6.06,0,0,1,2.14-1.2,9.12,9.12,0,0,1,3-.45,9.75,9.75,0,0,1,1.81.17,9.06,9.06,0,0,1,1.65.47,8,8,0,0,1,1.4.71,6.39,6.39,0,0,1,1.12.9Z"/><path class="cls-2" d="M185.12,19.39a10.06,10.06,0,0,1,3.59.62,7.82,7.82,0,0,1,4.59,4.58,10.13,10.13,0,0,1,.64,3.71,10.31,10.31,0,0,1-.64,3.75,7.82,7.82,0,0,1-4.59,4.62,10.63,10.63,0,0,1-7.21,0,8.1,8.1,0,0,1-2.81-1.79,7.93,7.93,0,0,1-1.82-2.83,10.31,10.31,0,0,1-.65-3.75,10.13,10.13,0,0,1,.65-3.71,7.81,7.81,0,0,1,1.82-2.8A8.08,8.08,0,0,1,181.5,20,10.14,10.14,0,0,1,185.12,19.39Zm0,14a2.94,2.94,0,0,0,2.63-1.26,7,7,0,0,0,.84-3.84,7,7,0,0,0-.84-3.84,2.93,2.93,0,0,0-2.63-1.25,3,3,0,0,0-2.7,1.25,7,7,0,0,0-.85,3.84,7,7,0,0,0,.85,3.84A3,3,0,0,0,185.12,33.44Z"/><path class="cls-2" d="M196.78,37V19.66h3.08a2.36,2.36,0,0,1,.64.07,1.06,1.06,0,0,1,.44.21.89.89,0,0,1,.26.38,2.93,2.93,0,0,1,.16.56l.29,1.63a8.35,8.35,0,0,1,2.14-2.33,4.32,4.32,0,0,1,2.59-.85,3,3,0,0,1,1.9.57l-.67,3.81a.75.75,0,0,1-.26.5,1,1,0,0,1-.54.14,3.55,3.55,0,0,1-.67-.07,5.1,5.1,0,0,0-1-.08A3.56,3.56,0,0,0,202,26.38V37Z"/><path class="cls-2" d="M215.94,19.66V37h-5.18V19.66Zm4.19-7.3-4.34,4.41a2.76,2.76,0,0,1-.74.54,2.19,2.19,0,0,1-.93.16H211l2.27-4.1a2.15,2.15,0,0,1,.67-.75,2.11,2.11,0,0,1,1.17-.26Z"/><path class="cls-2" d="M232.08,37a2.47,2.47,0,0,1-1.11-.2,1.55,1.55,0,0,1-.62-.84L230,35c-.44.36-.85.69-1.26,1a8.09,8.09,0,0,1-1.24.71,6.25,6.25,0,0,1-1.37.43,8,8,0,0,1-1.61.15,7.27,7.27,0,0,1-2.16-.31,4.56,4.56,0,0,1-1.65-.92,3.93,3.93,0,0,1-1-1.5,5.36,5.36,0,0,1-.37-2.08,4.43,4.43,0,0,1,.47-1.9,4.62,4.62,0,0,1,1.62-1.77,10.43,10.43,0,0,1,3.11-1.34,19.38,19.38,0,0,1,4.93-.53V26.2a3.24,3.24,0,0,0-.63-2.22A2.26,2.26,0,0,0,227,23.3a4.54,4.54,0,0,0-1.5.2,6.37,6.37,0,0,0-1.05.45c-.3.17-.6.32-.89.45a2.38,2.38,0,0,1-1,.2,1.52,1.52,0,0,1-.91-.26,1.81,1.81,0,0,1-.59-.64l-.94-1.63A10.59,10.59,0,0,1,223.57,20a12,12,0,0,1,4.1-.68,7.47,7.47,0,0,1,2.83.51,5.94,5.94,0,0,1,2.14,1.42A6.13,6.13,0,0,1,234,23.43a7.86,7.86,0,0,1,.47,2.75V37Zm-6-3.17a4,4,0,0,0,1.76-.35,5.16,5.16,0,0,0,1.52-1.14V30a12.94,12.94,0,0,0-2.56.2,6.1,6.1,0,0,0-1.59.5,2,2,0,0,0-.81.7,1.65,1.65,0,0,0-.22.84,1.48,1.48,0,0,0,.48,1.26A2.38,2.38,0,0,0,226.13,33.86Z"/><path class="cls-2" d="M250.24,28.87V37h-5.65V12.63h8.59a14.09,14.09,0,0,1,4.42.61,8.61,8.61,0,0,1,3,1.68,6.48,6.48,0,0,1,1.76,2.53A8.56,8.56,0,0,1,263,20.6a9.28,9.28,0,0,1-.58,3.35,6.67,6.67,0,0,1-1.79,2.61,8.39,8.39,0,0,1-3.05,1.7,13.89,13.89,0,0,1-4.37.61Zm0-4.27h2.94a4.13,4.13,0,0,0,3.17-1.05,4.2,4.2,0,0,0,1-2.95,4.29,4.29,0,0,0-.25-1.52,2.93,2.93,0,0,0-.76-1.18,3.44,3.44,0,0,0-1.29-.77,5.59,5.59,0,0,0-1.84-.26h-2.94Z"/><path class="cls-2" d="M270.76,19.66v11a3,3,0,0,0,.59,2,2.11,2.11,0,0,0,1.72.71,3.7,3.7,0,0,0,1.59-.35,6.23,6.23,0,0,0,1.45-1V19.66h5.18V37h-3.21a1.22,1.22,0,0,1-1.27-.87l-.32-1a9.25,9.25,0,0,1-1,.88,6.28,6.28,0,0,1-1.15.67,6.5,6.5,0,0,1-1.31.44,7.36,7.36,0,0,1-1.54.16,6,6,0,0,1-2.51-.5,5.2,5.2,0,0,1-1.85-1.38A6.13,6.13,0,0,1,266,33.33a8.93,8.93,0,0,1-.38-2.65v-11Zm9.43-7.3-4.35,4.41a2.73,2.73,0,0,1-.73.54,2.27,2.27,0,0,1-.94.16h-3.11l2.28-4.1a2.13,2.13,0,0,1,.66-.75,2.16,2.16,0,0,1,1.17-.26Z"/><path class="cls-2" d="M285.3,37V12h5.18V21.5a8.19,8.19,0,0,1,2.2-1.53,6.8,6.8,0,0,1,2.89-.58,5.45,5.45,0,0,1,2.5.59,5.6,5.6,0,0,1,2,1.72,8.38,8.38,0,0,1,1.31,2.77,13.29,13.29,0,0,1,.48,3.73,11.64,11.64,0,0,1-.54,3.62,9,9,0,0,1-1.52,2.88,7.14,7.14,0,0,1-2.34,1.91,6.61,6.61,0,0,1-3,.69,5.83,5.83,0,0,1-1.38-.15,4.82,4.82,0,0,1-1.12-.43,5.66,5.66,0,0,1-.94-.66,10.88,10.88,0,0,1-.82-.84l-.19.87a1.16,1.16,0,0,1-.42.74,1.52,1.52,0,0,1-.81.2Zm8.46-13.73a4.12,4.12,0,0,0-1,.11,3.89,3.89,0,0,0-.85.3,3.61,3.61,0,0,0-.73.52,7.78,7.78,0,0,0-.67.71v7.37a3.34,3.34,0,0,0,1.27.91,4.13,4.13,0,0,0,1.44.26,3,3,0,0,0,1.32-.29,2.73,2.73,0,0,0,1.05-.91,5,5,0,0,0,.69-1.63,10.15,10.15,0,0,0,.25-2.45,11.6,11.6,0,0,0-.2-2.31,4.63,4.63,0,0,0-.56-1.51,2.12,2.12,0,0,0-.86-.83A2.43,2.43,0,0,0,293.76,23.3Z"/><path class="cls-2" d="M310,12V37h-5.18V12Z"/><path class="cls-2" d="M320.17,14.91a2.69,2.69,0,0,1-.25,1.16,3.09,3.09,0,0,1-.69.95,3.21,3.21,0,0,1-2.24.9,2.9,2.9,0,0,1-1.18-.24,3.13,3.13,0,0,1-1-.66,2.88,2.88,0,0,1-.67-.95,2.83,2.83,0,0,1-.24-1.16,3,3,0,0,1,.91-2.16,3.13,3.13,0,0,1,1-.66,3.06,3.06,0,0,1,1.18-.23,3.32,3.32,0,0,1,1.23.23,3.23,3.23,0,0,1,1.7,1.63A2.79,2.79,0,0,1,320.17,14.91Zm-.6,4.75V37h-5.18V19.66Z"/><path class="cls-2" d="M336.25,23.78a3.17,3.17,0,0,1-.45.45,1,1,0,0,1-.62.17,1.31,1.31,0,0,1-.69-.18l-.7-.41a5.39,5.39,0,0,0-.9-.41,3.74,3.74,0,0,0-1.29-.19,3.64,3.64,0,0,0-1.64.35,3,3,0,0,0-1.15,1,4.68,4.68,0,0,0-.67,1.6,9.82,9.82,0,0,0-.22,2.13,6.52,6.52,0,0,0,1,3.84,3.09,3.09,0,0,0,2.65,1.34,3.65,3.65,0,0,0,1.42-.23,4.44,4.44,0,0,0,.9-.5l.68-.51a1.2,1.2,0,0,1,.77-.24,1.09,1.09,0,0,1,.94.46l1.5,1.86a7.77,7.77,0,0,1-1.69,1.49,8.3,8.3,0,0,1-1.81.91,9,9,0,0,1-1.86.45,14.43,14.43,0,0,1-1.82.13,7.71,7.71,0,0,1-3-.61A7.37,7.37,0,0,1,325,34.94a8.31,8.31,0,0,1-1.74-2.82,10.55,10.55,0,0,1-.64-3.82,10.85,10.85,0,0,1,.56-3.51A8,8,0,0,1,324.82,22a7.88,7.88,0,0,1,2.71-1.88,9.45,9.45,0,0,1,3.74-.69,9,9,0,0,1,3.57.66A8.49,8.49,0,0,1,337.62,22Z"/><path class="cls-2" d="M352,37a2.47,2.47,0,0,1-1.11-.2,1.6,1.6,0,0,1-.63-.84l-.37-1c-.43.36-.85.69-1.25,1a8.09,8.09,0,0,1-1.24.71,6.17,6.17,0,0,1-1.38.43,7.94,7.94,0,0,1-1.61.15,7.2,7.2,0,0,1-2.15-.31,4.56,4.56,0,0,1-1.65-.92,4.06,4.06,0,0,1-1.05-1.5,5.56,5.56,0,0,1-.36-2.08,4.29,4.29,0,0,1,.47-1.9,4.62,4.62,0,0,1,1.62-1.77,10.36,10.36,0,0,1,3.1-1.34,19.46,19.46,0,0,1,4.94-.53V26.2a3.24,3.24,0,0,0-.63-2.22,2.28,2.28,0,0,0-1.78-.68,4.54,4.54,0,0,0-1.5.2,6,6,0,0,0-1.05.45c-.31.17-.6.32-.89.45a2.38,2.38,0,0,1-1,.2,1.5,1.5,0,0,1-.91-.26,1.81,1.81,0,0,1-.59-.64L340,22.07A10.65,10.65,0,0,1,343.44,20a12.06,12.06,0,0,1,4.11-.68,7.47,7.47,0,0,1,2.83.51,6,6,0,0,1,2.14,1.42,6.27,6.27,0,0,1,1.35,2.17,7.86,7.86,0,0,1,.46,2.75V37ZM346,33.86a4.07,4.07,0,0,0,1.76-.35,5.29,5.29,0,0,0,1.52-1.14V30a12.94,12.94,0,0,0-2.56.2,6.1,6.1,0,0,0-1.59.5,2,2,0,0,0-.81.7,1.66,1.66,0,0,0-.23.84,1.48,1.48,0,0,0,.49,1.26A2.36,2.36,0,0,0,346,33.86Z"/></svg>